<svg width="41" height="42" viewBox="0 0 41 42" fill="none" xmlns="http://www.w3.org/2000/svg">
<g clip-path="url(#clip0_2_9397)">
<path d="M41.2257 17.7402L40.4445 10.709C40.4233 10.5178 40.3324 10.3412 40.1891 10.2129C40.0458 10.0846 39.8602 10.0137 39.6679 10.0137C38.6741 10.0137 37.807 10.3949 37.1609 11.116C35.3476 13.1402 35.6937 17.2621 35.7616 17.9168V18.6754C33.0523 18.802 32.396 19.6355 31.3109 21.3465C30.9343 21.941 30.4671 22.6762 29.7601 23.5434L25.6382 26.3652C25.1546 26.7418 20.9179 30.1176 20.9179 32.7191C20.9179 34.9785 21.2382 36.4629 21.4726 37.5473C21.5991 38.134 21.6991 38.598 21.6991 38.9691V41.3129C21.6991 42.3457 23.2616 42.3473 23.2616 41.3129V38.9691C23.2616 38.4316 23.1405 37.8691 22.9999 37.2176C22.7804 36.202 22.4804 34.8113 22.4804 32.7191C22.4804 31.3285 25.0062 28.8402 26.5593 27.6262L30.7343 24.7699C30.7952 24.7285 30.8491 24.6793 30.896 24.623C31.7046 23.6441 32.2179 22.8348 32.6312 22.184C33.4804 20.8441 33.7929 20.352 35.5882 20.2434C35.3648 21.2809 34.9413 22.9996 34.3257 24.4527C33.821 24.9395 31.8038 26.8934 30.5046 28.2777C29.7976 29.0309 30.9359 30.1004 31.6445 29.3465C33.078 27.8168 35.4976 25.4926 35.5218 25.4691C35.596 25.398 35.6554 25.3129 35.6968 25.2191C36.5491 23.2707 37.2445 20.2504 37.3109 19.5066C37.3312 19.2879 37.3273 17.8551 37.3202 17.7895C37.1984 16.6707 37.1413 13.4777 38.3265 12.1574C38.521 11.941 38.7359 11.7879 38.982 11.6926L39.664 17.8285C39.5741 18.702 38.8874 25.4121 38.8937 26.409C38.7702 26.8379 37.3304 28.1652 36.2788 29.1348C33.6116 31.5934 30.2929 34.6527 30.2929 37.4066V41.3129C30.2929 42.3457 31.8554 42.3473 31.8554 41.3129V37.4066C31.8554 35.3371 35.0234 32.4168 37.3366 30.2848C39.439 28.3473 40.4491 27.3754 40.4491 26.4691C40.4491 25.6199 41.0101 20.0004 41.2265 17.9066C41.2321 17.8513 41.2318 17.7955 41.2257 17.7402ZM16.1585 26.3371L12.0757 23.5434C11.3687 22.6762 10.9023 21.941 10.5249 21.3465C9.43977 19.6355 8.78352 18.802 6.07414 18.6754V17.9168C6.14211 17.2621 6.4882 13.1402 4.67492 11.116C4.02883 10.3949 3.16164 10.0145 2.16789 10.0145C1.97556 10.0144 1.78999 10.0854 1.6467 10.2137C1.50341 10.342 1.41249 10.5186 1.39133 10.7098L0.61008 17.741C0.60396 17.7963 0.603699 17.8521 0.609298 17.9074C0.825705 20.0004 1.38664 25.6199 1.38664 26.4691C1.38664 27.3754 2.3968 28.3473 4.49914 30.2848C6.81242 32.4168 9.98039 35.3371 9.98039 37.4066V41.3129C9.98039 41.5201 10.0627 41.7188 10.2092 41.8653C10.3557 42.0118 10.5544 42.0941 10.7616 42.0941C10.9688 42.0941 11.1676 42.0118 11.3141 41.8653C11.4606 41.7188 11.5429 41.5201 11.5429 41.3129V37.4066C11.5429 34.6527 8.22414 31.5934 5.55774 29.1355C4.50695 28.166 3.06633 26.8395 2.94914 26.4691C2.94914 25.4152 2.26242 18.7027 2.17258 17.8293L2.85461 11.6934C4.81789 12.4504 4.51164 16.5723 4.51164 17.8754C4.51242 18.0816 4.50617 19.4715 4.52258 19.5684C4.54445 19.6988 5.07258 22.7809 6.13977 25.2199C6.18073 25.3142 6.24025 25.3992 6.31477 25.4699C6.33898 25.4934 8.75774 27.8176 10.1921 29.3473C10.9007 30.1035 12.0374 29.0301 11.332 28.2785C10.0327 26.8934 8.01555 24.9395 7.51086 24.4535C6.89524 23.0004 6.4718 21.2816 6.24836 20.2441C8.04367 20.3527 8.35617 20.8449 9.20539 22.1848C9.45695 22.5809 10.7101 24.5043 11.1015 24.7707L15.2366 27.5988C16.8296 28.8387 19.3554 31.3254 19.3554 32.7191C19.3554 34.8113 19.0554 36.202 18.8359 37.2176C18.6952 37.8691 18.5741 38.4316 18.5741 38.9691V41.3129C18.5741 41.5201 18.6565 41.7188 18.803 41.8653C18.9495 42.0118 19.1482 42.0941 19.3554 42.0941C19.5626 42.0941 19.7613 42.0118 19.9078 41.8653C20.0543 41.7188 20.1366 41.5201 20.1366 41.3129V38.9691C20.1366 38.598 20.2366 38.134 20.3632 37.5473C20.5976 36.4629 20.9179 34.9785 20.9179 32.7191C20.9179 30.1176 16.6812 26.7418 16.1585 26.3371Z" fill="#8CC63F"/>
<path d="M20.5421 24.8102C20.7765 24.9383 21.0593 24.9383 21.2937 24.8102C29.6765 20.2102 35.7616 12.9773 35.7616 7.6125C35.7616 2.60703 32.139 -0.09375 28.7304 -0.09375C25.2929 -0.09375 22.5015 2.77891 20.9179 6.07266C19.3343 2.77891 16.5421 -0.09375 13.1054 -0.09375C9.69678 -0.09375 6.07413 2.60703 6.07413 7.6125C6.07413 12.9781 12.1593 20.2102 20.5421 24.8102ZM13.1054 1.46875C16.3733 1.46875 19.0624 5.05781 20.1773 8.39297C20.414 9.10234 21.4218 9.10156 21.6585 8.39297C22.7733 5.05781 25.4624 1.46875 28.7304 1.46875C31.3819 1.46875 34.1991 3.62188 34.1991 7.6125C34.1991 12.2867 28.5155 18.9492 20.9179 23.2312C13.3202 18.9492 7.63663 12.2875 7.63663 7.6125C7.63663 3.62188 10.4538 1.46875 13.1054 1.46875Z" fill="#8CC63F"/>
</g>
<defs>
<clipPath id="clip0_2_9397">
<rect width="40" height="42" fill="white" transform="translate(0.917786)"/>
</clipPath>
</defs>
</svg>
