<svg width="60" height="60" viewBox="0 0 60 60" fill="none" xmlns="http://www.w3.org/2000/svg">
<g clip-path="url(#clip0_544_1584)">
<path d="M1.87735 32.1998C1.59123 32.374 1.3533 32.6171 1.18526 32.9069C1.01722 33.1966 0.924429 33.5239 0.91535 33.8588C0.89535 34.5078 1.19735 35.1248 1.72235 35.5068C1.76835 35.5428 1.81735 35.5798 1.86535 35.6068L1.97235 35.6738C1.22082 37.1829 0.826646 38.8448 0.82035 40.5308C0.815604 42.2923 1.2631 44.0255 2.12 45.5646C2.97689 47.1036 4.2145 48.397 5.71435 49.3208L20.0533 58.1998C21.8659 59.3188 23.9432 59.9362 26.0728 59.989C28.2023 60.0417 30.3076 59.5277 32.1733 58.4998L53.4004 46.1358C55.4942 44.9678 57.2085 43.2231 58.3396 41.1091C59.4706 38.9951 59.9707 36.6007 59.7803 34.2108C59.6484 32.5059 59.08 30.8637 58.1297 29.4421C57.1794 28.0205 55.8793 26.8674 54.3544 26.0938L50.8974 24.4848C50.7779 24.4253 50.6477 24.3903 50.5145 24.3819C50.3812 24.3735 50.2477 24.3919 50.1217 24.4359C49.9957 24.4799 49.8798 24.5488 49.7808 24.6383C49.6818 24.7279 49.6017 24.8363 49.5453 24.9573C49.4889 25.0783 49.4573 25.2093 49.4523 25.3427C49.4473 25.4761 49.4691 25.6091 49.5164 25.7339C49.5636 25.8588 49.6354 25.9729 49.7274 26.0696C49.8195 26.1662 49.93 26.2435 50.0523 26.2968L53.4764 27.8898C54.6895 28.5108 55.7229 29.4329 56.4777 30.5676C57.2325 31.7024 57.6834 33.0119 57.7873 34.3708C57.9468 36.3823 57.5244 38.3973 56.5705 40.1755C55.6166 41.9537 54.1714 43.42 52.4074 44.3998L31.1893 56.7648C29.6354 57.6164 27.8834 58.0405 26.1121 57.994C24.3407 57.9474 22.6134 57.4318 21.1063 56.4998L6.76835 47.6218C5.55829 46.8766 4.55981 45.8333 3.86853 44.5917C3.17725 43.3501 2.81634 41.9518 2.82035 40.5308C2.82451 39.2167 3.1167 37.9196 3.67635 36.7308L20.9493 47.4308C21.5753 47.8258 22.3694 47.8388 23.0093 47.4648C23.1024 47.4138 23.1923 47.3578 23.2813 47.3038L28.6433 44.0818C31.2233 42.5418 33.8004 40.9978 36.3744 39.4508L47.9624 32.4598C48.2543 32.2845 48.5861 32.1867 48.9264 32.1756C49.2667 32.1645 49.6042 32.2405 49.907 32.3963C50.2097 32.5521 50.4677 32.7826 50.6564 33.0661C50.8451 33.3495 50.9583 33.6763 50.9854 34.0158C51.0548 34.8889 50.8684 35.7634 50.4489 36.5324C50.0294 37.3013 49.3951 37.9314 48.6234 38.3458L26.5003 51.3088C26.3825 51.3727 26.2787 51.4597 26.1951 51.5645C26.1116 51.6693 26.0499 51.7899 26.0139 51.9191C25.9779 52.0482 25.9682 52.1833 25.9854 52.3162C26.0026 52.4492 26.0464 52.5773 26.1142 52.693C26.1819 52.8087 26.2722 52.9096 26.3798 52.9897C26.4873 53.0698 26.6098 53.1275 26.7401 53.1593C26.8703 53.1911 27.0056 53.1963 27.138 53.1748C27.2703 53.1532 27.3969 53.1053 27.5103 53.0338L49.6003 40.0878C50.7065 39.4879 51.6145 38.5795 52.2139 37.4731C52.8132 36.3667 53.0781 35.11 52.9764 33.8558C52.9219 33.1766 52.6949 32.5226 52.3169 31.9558C51.9389 31.389 51.4223 30.9281 50.8162 30.6169C50.2101 30.3057 49.5346 30.1545 48.8537 30.1775C48.1727 30.2006 47.509 30.3972 46.9254 30.7488L35.3454 37.7338L33.8454 38.6338L14.5224 26.8718L23.2493 21.5818C23.4761 21.4441 23.6389 21.222 23.7019 20.9643C23.7649 20.7067 23.723 20.4345 23.5853 20.2078C23.4477 19.981 23.2256 19.8182 22.9679 19.7552C22.7103 19.6922 22.4381 19.7341 22.2113 19.8718L1.87735 32.1998ZM22.5003 45.4398C22.4103 45.4908 22.3233 45.5398 22.2373 45.5968L22.0073 45.7308L2.97135 33.9448L2.91835 33.9058L8.11835 30.7528L27.4003 42.4928L22.5003 45.4398ZM31.9003 39.7998L29.3353 41.3358L10.0473 29.5848L12.6004 28.0398L31.9003 39.7998Z" fill="#8CC63F"/>
<path d="M25.8648 19.3218C25.578 20.2685 25.5536 21.2754 25.7942 22.2349C26.0348 23.1945 26.5314 24.0707 27.231 24.7701C27.9307 25.4695 28.807 25.9659 29.7666 26.2062C30.7262 26.4465 31.7331 26.4219 32.6798 26.1348C33.1515 27.0016 33.8482 27.7252 34.6965 28.2293C35.5449 28.7335 36.5134 28.9996 37.5003 28.9996C38.4871 28.9996 39.4557 28.7335 40.3041 28.2293C41.1524 27.7252 41.8491 27.0016 42.3208 26.1348C43.2671 26.4159 44.2719 26.4362 45.2288 26.1935C46.1857 25.9507 47.0593 25.454 47.7572 24.7558C48.4551 24.0575 48.9514 23.1838 49.1938 22.2267C49.4361 21.2697 49.4153 20.265 49.1338 19.3188C50.0008 18.8472 50.7247 18.1504 51.229 17.302C51.7334 16.4535 51.9996 15.4848 51.9996 14.4978C51.9996 13.5107 51.7334 12.542 51.229 11.6935C50.7247 10.8451 50.0008 10.1484 49.1338 9.67677C49.4146 8.73072 49.4347 7.72638 49.192 6.76985C48.9493 5.81331 48.4527 4.9401 47.7547 4.24244C47.0568 3.54478 46.1833 3.04859 45.2267 2.80627C44.27 2.56395 43.2657 2.58451 42.3198 2.86577C41.8482 1.9987 41.1515 1.27488 40.303 0.770535C39.4546 0.266191 38.4858 0 37.4988 0C36.5118 0 35.543 0.266191 34.6946 0.770535C33.8461 1.27488 33.1494 1.9987 32.6778 2.86577C31.7317 2.58469 30.7272 2.5644 29.7705 2.80703C28.8138 3.04967 27.9404 3.54622 27.2426 4.24422C26.5448 4.94222 26.0486 5.81576 25.8062 6.77252C25.5638 7.72928 25.5844 8.73374 25.8658 9.67977C24.9987 10.1514 24.2749 10.8481 23.7706 11.6965C23.2662 12.545 23 13.5137 23 14.5008C23 15.4878 23.2662 16.4565 23.7706 17.305C24.2749 18.1534 24.9977 18.8502 25.8648 19.3218ZM28.6568 23.3428C28.2202 22.9059 27.9077 22.3608 27.7511 21.7634C27.5945 21.1659 27.5996 20.5376 27.7658 19.9428C28.0088 19.9778 28.2538 19.9968 28.4998 19.9998C30.7527 19.8502 32.9488 19.2273 34.9448 18.1718C35.3358 18.4438 35.7678 18.6518 36.2248 18.7868C35.6564 20.4542 34.7738 21.9974 33.6248 23.3328C33.3659 23.5865 33.0719 23.8016 32.7518 23.9718C32.0912 24.3165 31.3377 24.4414 30.6012 24.3283C29.8647 24.2151 29.1835 23.8699 28.6568 23.3428ZM37.5098 11.9998C38.0042 12.0017 38.487 12.1503 38.897 12.4267C39.307 12.703 39.6259 13.0947 39.8133 13.5523C40.0007 14.0099 40.0482 14.5127 39.9498 14.9973C39.8514 15.4818 39.6115 15.9263 39.2604 16.2746C38.9094 16.6228 38.463 16.8591 37.9777 16.9536C37.4924 17.0482 36.9899 16.9966 36.5338 16.8056C36.0778 16.6146 35.6886 16.2926 35.4156 15.8804C35.1425 15.4681 34.9978 14.9842 34.9998 14.4898C35.0191 13.8321 35.2904 13.2069 35.7575 12.7435C36.2246 12.2801 36.8519 12.0138 37.5098 11.9998ZM40.8358 24.5608C40.6288 25.2075 40.2382 25.7801 39.7115 26.2087C39.1848 26.6373 38.5448 26.9034 37.8695 26.9747C37.1942 27.0459 36.5127 26.9192 35.9082 26.6099C35.3036 26.3006 34.8021 25.8221 34.4648 25.2328C34.6618 25.0858 34.8488 24.9268 35.0268 24.7568C36.5084 23.0595 37.6176 21.0703 38.2828 18.9178C38.7545 18.8248 39.2081 18.656 39.6258 18.4178C40.4 20.01 40.8661 21.7343 40.9998 23.4998C41.0017 23.8599 40.9463 24.218 40.8358 24.5608ZM46.3428 23.3428C45.9059 23.7793 45.3608 24.0919 44.7634 24.2484C44.1659 24.405 43.5376 24.3999 42.9428 24.2338C42.9778 23.9908 42.9968 23.7458 42.9998 23.4998C42.8502 21.2468 42.2273 19.0507 41.1718 17.0548C41.4438 16.6638 41.6518 16.2318 41.7868 15.7748C43.4542 16.3432 44.9974 17.2258 46.3328 18.3748C46.5868 18.6338 46.8018 18.9278 46.9718 19.2478C47.3175 19.9082 47.4429 20.6618 47.3297 21.3986C47.2165 22.1353 46.8707 22.8166 46.3428 23.3428ZM48.2328 17.5348C48.0856 17.338 47.9267 17.1503 47.7568 16.9728C46.0595 15.4912 44.0704 14.3819 41.9178 13.7168C41.8248 13.245 41.656 12.7915 41.4178 12.3738C43.0101 11.5996 44.7343 11.1334 46.4998 10.9998C46.8599 10.9979 47.218 11.0533 47.5608 11.1638C48.2075 11.3707 48.7801 11.7614 49.2087 12.2881C49.6373 12.8148 49.9035 13.4548 49.9747 14.1301C50.0459 14.8054 49.9192 15.4869 49.6099 16.0914C49.3006 16.6959 48.8221 17.1974 48.2328 17.5348ZM46.3428 5.65677C47.2318 6.54677 47.5728 7.84577 47.2338 9.05677C46.9907 9.02157 46.7454 9.00253 46.4998 8.99977C44.2468 9.14977 42.0508 9.77177 40.0548 10.8278C39.6634 10.5562 39.2314 10.3486 38.7748 10.2128C39.3432 8.54531 40.2258 7.00217 41.3748 5.66677C41.6338 5.41277 41.9278 5.19777 42.2478 5.02777C42.9084 4.68304 43.6618 4.55815 44.3984 4.67128C45.1349 4.78441 45.8161 5.12966 46.3428 5.65677ZM34.1638 4.43877C34.3708 3.79202 34.7614 3.21945 35.2881 2.79084C35.8148 2.36223 36.4548 2.09609 37.1301 2.02486C37.8054 1.95363 38.4869 2.08038 39.0914 2.38968C39.6959 2.69897 40.1974 3.17744 40.5348 3.76677C40.338 3.91393 40.1503 4.07289 39.9728 4.24277C38.4912 5.94006 37.382 7.9292 36.7168 10.0818C36.245 10.1747 35.7915 10.3436 35.3738 10.5818C34.5996 8.9895 34.1334 7.26522 33.9998 5.49977C33.9979 5.13965 34.0533 4.78152 34.1638 4.43877ZM28.6568 5.65677C29.0937 5.22022 29.6388 4.90766 30.2362 4.75109C30.8336 4.59453 31.4619 4.59959 32.0568 4.76577C32.0216 5.00891 32.0026 5.25411 31.9998 5.49977C32.1498 7.75277 32.7718 9.94877 33.8278 11.9448C33.5558 12.3358 33.3478 12.7678 33.2128 13.2248C31.5453 12.6563 30.0022 11.7738 28.6668 10.6248C28.4131 10.3658 28.1979 10.0718 28.0278 9.75177C27.6821 9.09137 27.5567 8.33774 27.6699 7.60098C27.783 6.86423 28.1288 6.18298 28.6568 5.65677ZM26.7668 11.4648C26.9138 11.6618 27.0728 11.8488 27.2428 12.0268C28.9401 13.5084 30.9292 14.6176 33.0818 15.2828C33.1748 15.7548 33.3438 16.2078 33.5818 16.6258C31.9895 17.3999 30.2652 17.8661 28.4998 17.9998C28.1397 18.0016 27.7815 17.9463 27.4388 17.8358C26.792 17.6288 26.2195 17.2382 25.7909 16.7115C25.3622 16.1848 25.0961 15.5448 25.0249 14.8694C24.9536 14.1941 25.0804 13.5127 25.3897 12.9082C25.699 12.3036 26.1775 11.8021 26.7668 11.4648ZM15.9998 6.99977C16.265 6.99977 16.5194 6.89441 16.7069 6.70687C16.8944 6.51934 16.9998 6.26498 16.9998 5.99977V3.99977C16.9998 3.73455 16.8944 3.4802 16.7069 3.29266C16.5194 3.10512 16.265 2.99977 15.9998 2.99977C15.7346 2.99977 15.4802 3.10512 15.2927 3.29266C15.1051 3.4802 14.9998 3.73455 14.9998 3.99977V5.99977C14.9998 6.26498 15.1051 6.51934 15.2927 6.70687C15.4802 6.89441 15.7346 6.99977 15.9998 6.99977ZM16.9998 11.9998V9.99977C16.9998 9.73455 16.8944 9.4802 16.7069 9.29266C16.5194 9.10512 16.265 8.99977 15.9998 8.99977C15.7346 8.99977 15.4802 9.10512 15.2927 9.29266C15.1051 9.4802 14.9998 9.73455 14.9998 9.99977V11.9998C14.9998 12.265 15.1051 12.5193 15.2927 12.7069C15.4802 12.8944 15.7346 12.9998 15.9998 12.9998C16.265 12.9998 16.5194 12.8944 16.7069 12.7069C16.8944 12.5193 16.9998 12.265 16.9998 11.9998ZM17.9998 8.99977H19.9998C20.265 8.99977 20.5194 8.89441 20.7069 8.70687C20.8944 8.51934 20.9998 8.26498 20.9998 7.99977C20.9998 7.73455 20.8944 7.4802 20.7069 7.29266C20.5194 7.10512 20.265 6.99977 19.9998 6.99977H17.9998C17.7346 6.99977 17.4802 7.10512 17.2927 7.29266C17.1051 7.4802 16.9998 7.73455 16.9998 7.99977C16.9998 8.26498 17.1051 8.51934 17.2927 8.70687C17.4802 8.89441 17.7346 8.99977 17.9998 8.99977ZM11.9998 8.99977H13.9998C14.265 8.99977 14.5194 8.89441 14.7069 8.70687C14.8944 8.51934 14.9998 8.26498 14.9998 7.99977C14.9998 7.73455 14.8944 7.4802 14.7069 7.29266C14.5194 7.10512 14.265 6.99977 13.9998 6.99977H11.9998C11.7346 6.99977 11.4802 7.10512 11.2927 7.29266C11.1051 7.4802 10.9998 7.73455 10.9998 7.99977C10.9998 8.26498 11.1051 8.51934 11.2927 8.70687C11.4802 8.89441 11.7346 8.99977 11.9998 8.99977ZM12.2928 22.7068C12.4814 22.8889 12.734 22.9897 12.9962 22.9874C13.2584 22.9852 13.5092 22.88 13.6946 22.6946C13.88 22.5092 13.9852 22.2584 13.9875 21.9962C13.9897 21.734 13.8889 21.4814 13.7068 21.2928L12.2068 19.7928C12.0182 19.6106 11.7656 19.5098 11.5034 19.5121C11.2412 19.5144 10.9904 19.6195 10.805 19.8049C10.6196 19.9904 10.5144 20.2412 10.5121 20.5034C10.5098 20.7656 10.6106 21.0182 10.7928 21.2068L12.2928 22.7068ZM7.79279 18.2068C7.98139 18.3889 8.23399 18.4897 8.49619 18.4874C8.75838 18.4852 9.0092 18.38 9.19461 18.1946C9.38001 18.0092 9.48518 17.7584 9.48746 17.4962C9.48974 17.234 9.38894 16.9814 9.20679 16.7928L7.70679 15.2928C7.51818 15.1106 7.26558 15.0098 7.00339 15.0121C6.74119 15.0144 6.49038 15.1195 6.30497 15.3049C6.11956 15.4904 6.01439 15.7412 6.01211 16.0034C6.00983 16.2656 6.11063 16.5182 6.29279 16.7068L7.79279 18.2068ZM6.99979 22.9998C7.26498 22.9997 7.51929 22.8943 7.70679 22.7068L9.20679 21.2068C9.38894 21.0182 9.48974 20.7656 9.48746 20.5034C9.48518 20.2412 9.38001 19.9904 9.19461 19.8049C9.0092 19.6195 8.75838 19.5144 8.49619 19.5121C8.23399 19.5098 7.98139 19.6106 7.79279 19.7928L6.29279 21.2928C6.15298 21.4326 6.05777 21.6108 6.0192 21.8047C5.98064 21.9987 6.00044 22.1997 6.07611 22.3824C6.15178 22.5651 6.27992 22.7213 6.44433 22.8312C6.60874 22.9411 6.80204 22.9997 6.99979 22.9998ZM11.4998 18.4998C11.765 18.4997 12.0193 18.3943 12.2068 18.2068L13.7068 16.7068C13.8889 16.5182 13.9897 16.2656 13.9875 16.0034C13.9852 15.7412 13.88 15.4904 13.6946 15.3049C13.5092 15.1195 13.2584 15.0144 12.9962 15.0121C12.734 15.0098 12.4814 15.1106 12.2928 15.2928L10.7928 16.7928C10.653 16.9326 10.5578 17.1108 10.5192 17.3047C10.4806 17.4987 10.5004 17.6997 10.5761 17.8824C10.6518 18.0651 10.7799 18.2213 10.9443 18.3312C11.1087 18.4411 11.302 18.4997 11.4998 18.4998Z" fill="#8CC63F"/>
</g>
<defs>
<clipPath id="clip0_544_1584">
<rect width="60" height="60" fill="white"/>
</clipPath>
</defs>
</svg>
