<svg width="60" height="60" viewBox="0 0 60 60" fill="none" xmlns="http://www.w3.org/2000/svg">
<path d="M3.75 14.9871C3.82783 14.9957 3.90607 15 3.98438 15H41.0156C41.0939 15 41.1722 14.9957 41.25 14.9871V15.9375H43.125V3.98438C43.1244 3.42512 42.9019 2.88896 42.5065 2.49351C42.111 2.09806 41.5749 1.87562 41.0156 1.875H3.98438C3.42512 1.87562 2.88896 2.09806 2.49351 2.49351C2.09806 2.88896 1.87562 3.42512 1.875 3.98438V18.75H3.75V14.9871ZM3.75 3.98438C3.75006 3.92223 3.77478 3.86266 3.81872 3.81872C3.86266 3.77478 3.92223 3.75006 3.98438 3.75H41.0156C41.0778 3.75006 41.1373 3.77478 41.1813 3.81872C41.2252 3.86266 41.2499 3.92223 41.25 3.98438V12.8906C41.2499 12.9528 41.2252 13.0123 41.1813 13.0563C41.1373 13.1002 41.0778 13.1249 41.0156 13.125H3.98438C3.92223 13.1249 3.86266 13.1002 3.81872 13.0563C3.77478 13.0123 3.75006 12.9528 3.75 12.8906V3.98438ZM36.2515 39.7504C37.6886 36.4582 37.8966 32.7597 36.8379 29.3272C35.7791 25.8946 33.5238 22.956 30.4819 21.0454C27.44 19.1348 23.8135 18.3792 20.2617 18.9159C16.7099 19.4526 13.4686 21.246 11.127 23.97C8.78545 26.694 7.49907 30.1678 7.50174 33.76C7.50441 37.3521 8.79595 40.824 11.1416 43.5445C13.4872 46.2651 16.7312 48.0536 20.2838 48.585C23.8364 49.1164 27.4617 48.3554 30.5007 46.4403L29.4994 44.855C26.8438 46.5261 23.6769 47.189 20.5741 46.7233C17.4712 46.2576 14.6384 44.6942 12.5905 42.3172C10.5425 39.9402 9.41521 36.9073 9.41352 33.7698C9.41182 30.6322 10.5358 27.5981 12.5812 25.2189C14.6267 22.8397 17.4578 21.2732 20.5601 20.8042C23.6624 20.3351 26.8301 20.9946 29.4874 22.6628C32.1448 24.331 34.1155 26.8972 35.0414 29.8951C35.9673 32.8929 35.787 36.1234 34.5333 38.9996L36.2515 39.7504Z" fill="#8CC63F"/>
<path d="M22.5 12.1875C23.2417 12.1875 23.9667 11.9676 24.5834 11.5555C25.2001 11.1435 25.6807 10.5578 25.9645 9.87256C26.2484 9.18734 26.3226 8.43334 26.1779 7.70591C26.0333 6.97848 25.6761 6.3103 25.1516 5.78585C24.6272 5.2614 23.959 4.90425 23.2316 4.75956C22.5042 4.61486 21.7502 4.68912 21.0649 4.97295C20.3797 5.25678 19.794 5.73743 19.382 6.35411C18.9699 6.9708 18.75 7.69582 18.75 8.4375C18.7511 9.43172 19.1466 10.3849 19.8496 11.0879C20.5526 11.7909 21.5058 12.1864 22.5 12.1875ZM22.5 6.5625C22.8708 6.5625 23.2334 6.67247 23.5417 6.8785C23.85 7.08452 24.0904 7.37736 24.2323 7.71997C24.3742 8.06258 24.4113 8.43958 24.339 8.8033C24.2666 9.16701 24.088 9.5011 23.8258 9.76333C23.5636 10.0255 23.2295 10.2041 22.8658 10.2765C22.5021 10.3488 22.1251 10.3117 21.7825 10.1698C21.4399 10.0279 21.147 9.78754 20.941 9.4792C20.735 9.17085 20.625 8.80834 20.625 8.4375C20.6256 7.94039 20.8233 7.4638 21.1748 7.11229C21.5263 6.76078 22.0029 6.56306 22.5 6.5625ZM15.9375 9.375H17.8125V11.25H15.9375V9.375ZM15.9375 5.625H17.8125V7.5H15.9375V5.625ZM27.1875 9.375H29.0625V11.25H27.1875V9.375ZM27.1875 5.625H29.0625V7.5H27.1875V5.625ZM30.9375 12.1875H39.375C39.6236 12.1875 39.8621 12.0887 40.0379 11.9129C40.2137 11.7371 40.3125 11.4986 40.3125 11.25V5.625C40.3125 5.37636 40.2137 5.1379 40.0379 4.96209C39.8621 4.78627 39.6236 4.6875 39.375 4.6875H30.9375C30.6889 4.6875 30.4504 4.78627 30.2746 4.96209C30.0988 5.1379 30 5.37636 30 5.625V11.25C30 11.4986 30.0988 11.7371 30.2746 11.9129C30.4504 12.0887 30.6889 12.1875 30.9375 12.1875ZM31.875 6.5625H38.4375V10.3125H31.875V6.5625ZM8.90625 11.25H11.7188C12.5887 11.249 13.4227 10.903 14.0379 10.2879C14.653 9.67274 14.999 8.8387 15 7.96875V6.5625C15 6.31386 14.9012 6.0754 14.7254 5.89959C14.5496 5.72377 14.3111 5.625 14.0625 5.625H6.5625C6.31386 5.625 6.0754 5.72377 5.89959 5.89959C5.72377 6.0754 5.625 6.31386 5.625 6.5625V7.96875C5.62596 8.8387 5.97197 9.67274 6.58712 10.2879C7.20226 10.903 8.0363 11.249 8.90625 11.25ZM7.5 7.5H13.125V7.96875C13.1246 8.34159 12.9763 8.69904 12.7127 8.96268C12.449 9.22631 12.0916 9.3746 11.7188 9.375H8.90625C8.53341 9.3746 8.17596 9.22631 7.91233 8.96268C7.64869 8.69904 7.5004 8.34159 7.5 7.96875V7.5ZM34.6875 16.875H39.375V18.75H34.6875V16.875ZM26.25 35.625H28.125V37.5H26.25V35.625ZM23.4375 39.375H25.3125V41.25H23.4375V39.375ZM17.8125 38.4375H19.6875V40.3125H17.8125V38.4375Z" fill="#8CC63F"/>
<path d="M22.5 22.5C20.275 22.5 18.0999 23.1598 16.2498 24.396C14.3998 25.6321 12.9578 27.3891 12.1064 29.4448C11.2549 31.5005 11.0321 33.7625 11.4662 35.9448C11.9003 38.1271 12.9717 40.1316 14.5451 41.705C16.1184 43.2783 18.123 44.3498 20.3052 44.7838C22.4875 45.2179 24.7495 44.9951 26.8052 44.1436C28.8609 43.2922 30.6179 41.8502 31.854 40.0002C33.0902 38.1501 33.75 35.975 33.75 33.75C33.7466 30.7674 32.5603 27.9078 30.4512 25.7988C28.3422 23.6897 25.4827 22.5034 22.5 22.5ZM22.5 24.375C24.5187 24.3775 26.4828 25.0303 28.1013 26.2367C29.7198 27.4432 30.9065 29.1389 31.4856 31.0727C30.7798 30.9309 30.0608 30.8654 29.3411 30.8774C26.0472 30.9108 24.3479 32.2805 22.8489 33.4888C21.4048 34.653 20.1575 35.6584 17.5143 35.6852C15.4122 35.7069 14.1722 35.07 13.1441 34.3512C13.1315 34.1524 13.1251 33.952 13.125 33.75C13.1278 31.2645 14.1164 28.8815 15.874 27.124C17.6315 25.3664 20.0145 24.3778 22.5 24.375ZM22.5 43.125C20.5464 43.1227 18.6422 42.5112 17.0524 41.3757C15.4627 40.2402 14.2667 38.6372 13.6309 36.79C14.6375 37.2488 15.8468 37.5608 17.4122 37.5608C17.4523 37.5608 17.4928 37.5606 17.5332 37.5601C20.8274 37.5267 22.5266 36.157 24.0257 34.9486C25.4699 33.7845 26.717 32.7791 29.3602 32.7523C30.2054 32.7307 31.0482 32.8516 31.8533 33.1099C31.8678 33.3215 31.875 33.5348 31.875 33.75C31.8722 36.2355 30.8836 38.6185 29.126 40.376C27.3685 42.1336 24.9856 43.1222 22.5 43.125Z" fill="#8CC63F"/>
<path d="M54.8438 41.2501H52.4871C52.4957 41.1722 52.5 41.094 52.5 41.0157V26.0157C52.4987 24.9569 52.1207 23.933 51.4336 23.1274C50.7466 22.3217 49.7953 21.7867 48.75 21.6181V19.9219C48.7494 19.3627 48.5269 18.8265 48.1315 18.4311C47.736 18.0356 47.1999 17.8132 46.6406 17.8126H43.3594C42.8001 17.8132 42.264 18.0356 41.8685 18.4311C41.4731 18.8265 41.2506 19.3627 41.25 19.9219V22.2788L39.9687 24.8411C39.5793 25.6226 39.3761 26.4836 39.375 27.3567V41.0157C39.375 41.094 39.3793 41.1722 39.3879 41.2501H35.1562C34.2863 41.251 33.4523 41.597 32.8371 42.2122C32.222 42.8273 31.876 43.6614 31.875 44.5313V47.3438C31.8748 47.7806 31.962 48.213 32.1315 48.6155C32.301 49.0181 32.5494 49.3826 32.8621 49.6876C32.5494 49.9926 32.301 50.3571 32.1315 50.7596C31.962 51.1621 31.8748 51.5945 31.875 52.0313V54.8438C31.8744 55.3303 31.9827 55.8108 32.1919 56.2501H16.875V51.5626C16.875 51.3139 16.7762 51.0755 16.6004 50.8997C16.4246 50.7238 16.1861 50.6251 15.9375 50.6251H6.5625C6.31386 50.6251 6.0754 50.7238 5.89959 50.8997C5.72377 51.0755 5.625 51.3139 5.625 51.5626V56.2501H3.98438C3.92223 56.25 3.86266 56.2253 3.81872 56.1814C3.77478 56.1374 3.75006 56.0778 3.75 56.0157V20.6251H1.875V56.0157C1.87562 56.5749 2.09806 57.1111 2.49351 57.5066C2.88896 57.902 3.42512 58.1244 3.98438 58.1251H50.625V56.2501H35.1562C34.7834 56.2497 34.426 56.1014 34.1623 55.8377C33.8987 55.5741 33.7504 55.2167 33.75 54.8438V52.0313C33.7504 51.6585 33.8987 51.301 34.1623 51.0374C34.426 50.7738 34.7834 50.6255 35.1562 50.6251H54.8438C55.2166 50.6255 55.574 50.7738 55.8377 51.0374C56.1013 51.301 56.2496 51.6585 56.25 52.0313V54.8438C56.2496 55.2167 56.1013 55.5741 55.8377 55.8377C55.574 56.1014 55.2166 56.2497 54.8438 56.2501H52.5V58.1251H54.8438C55.7137 58.1241 56.5477 57.7781 57.1629 57.1629C57.778 56.5478 58.124 55.7138 58.125 54.8438V52.0313C58.1253 51.5945 58.038 51.1621 57.8685 50.7596C57.699 50.3571 57.4506 49.9926 57.1379 49.6876C57.4506 49.3826 57.699 49.0181 57.8685 48.6155C58.038 48.213 58.1253 47.7806 58.125 47.3438V44.5313C58.124 43.6614 57.778 42.8273 57.1629 42.2122C56.5477 41.597 55.7137 41.251 54.8438 41.2501ZM7.5 56.2501V52.5001H10.3125V54.3751H12.1875V52.5001H15V56.2501H7.5ZM41.25 33.7501H50.625V37.5001H41.25V33.7501ZM50.625 26.0157V28.1251H50.1562C49.7834 28.1247 49.426 27.9764 49.1623 27.7127C48.8987 27.4491 48.7504 27.0917 48.75 26.7188V23.5349C49.2896 23.6887 49.7644 24.014 50.1027 24.4615C50.441 24.9091 50.6243 25.4547 50.625 26.0157ZM43.125 19.9219C43.1251 19.8598 43.1498 19.8002 43.1937 19.7563C43.2377 19.7123 43.2972 19.6876 43.3594 19.6876H46.6406C46.7028 19.6876 46.7623 19.7123 46.8063 19.7563C46.8502 19.8002 46.8749 19.8598 46.875 19.9219V21.5626H43.125V19.9219ZM41.6459 25.6796L42.7669 23.4376H46.875V26.7188C46.876 27.5888 47.222 28.4228 47.8371 29.0379C48.4523 29.6531 49.2863 29.9991 50.1562 30.0001H50.625V31.8751H41.25V27.3567C41.2507 26.7746 41.3862 26.2006 41.6459 25.6796ZM41.25 41.0157V39.3751H50.625V41.0157C50.6249 41.0778 50.6002 41.1374 50.5563 41.1814C50.5123 41.2253 50.4528 41.25 50.3906 41.2501H41.4844C41.4222 41.25 41.3627 41.2253 41.3187 41.1814C41.2748 41.1374 41.2501 41.0778 41.25 41.0157ZM35.1562 48.7501C34.7834 48.7497 34.426 48.6014 34.1623 48.3377C33.8987 48.0741 33.7504 47.7167 33.75 47.3438V44.5313C33.7504 44.1585 33.8987 43.801 34.1623 43.5374C34.426 43.2738 34.7834 43.1255 35.1562 43.1251H54.8438C55.2166 43.1255 55.574 43.2738 55.8377 43.5374C56.1013 43.801 56.2496 44.1585 56.25 44.5313V47.3438C56.2496 47.7167 56.1013 48.0741 55.8377 48.3377C55.574 48.6014 55.2166 48.7497 54.8438 48.7501H35.1562ZM45.4876 6.91635L47.3679 7.94467L48.3962 9.82495C48.4769 9.97257 48.5959 10.0957 48.7406 10.1815C48.8853 10.2674 49.0505 10.3126 49.2188 10.3126C49.387 10.3126 49.5522 10.2674 49.6969 10.1815C49.8416 10.0957 49.9606 9.97257 50.0413 9.82495L51.0696 7.94467L52.9499 6.91635C53.0975 6.83563 53.2207 6.71666 53.3065 6.57194C53.3923 6.42721 53.4376 6.26206 53.4376 6.09382C53.4376 5.92557 53.3923 5.76042 53.3065 5.61569C53.2207 5.47097 53.0975 5.352 52.9499 5.27128L51.0696 4.24296L50.0413 2.36268C49.9606 2.21506 49.8416 2.09189 49.6969 2.00609C49.5522 1.92028 49.387 1.875 49.2188 1.875C49.0505 1.875 48.8853 1.92028 48.7406 2.00609C48.5959 2.09189 48.4769 2.21506 48.3962 2.36268L47.3679 4.24296L45.4876 5.27128C45.34 5.352 45.2168 5.47097 45.131 5.61569C45.0452 5.76042 44.9999 5.92557 44.9999 6.09382C44.9999 6.26206 45.0452 6.42721 45.131 6.57194C45.2168 6.71666 45.34 6.83563 45.4876 6.91635ZM48.5086 5.75632C48.6659 5.67028 48.7952 5.54096 48.8812 5.38366L49.2188 4.76632L49.5563 5.38354C49.6423 5.54084 49.7716 5.67017 49.9289 5.7562L50.5464 6.09382L49.9291 6.43132C49.7718 6.51735 49.6425 6.64668 49.5565 6.80397L49.2188 7.42132L48.8812 6.80397C48.7952 6.64668 48.6659 6.51735 48.5086 6.43132L47.8911 6.09382L48.5086 5.75632ZM53.0837 11.7377L52.0554 13.618L50.1751 14.6463C50.0275 14.727 49.9043 14.846 49.8185 14.9907C49.7327 15.1354 49.6874 15.3006 49.6874 15.4688C49.6874 15.6371 49.7327 15.8022 49.8185 15.9469C49.9043 16.0917 50.0275 16.2106 50.1751 16.2914L52.0554 17.3197L53.0837 19.1999C53.1644 19.3476 53.2834 19.4707 53.4281 19.5565C53.5728 19.6424 53.738 19.6876 53.9062 19.6876C54.0745 19.6876 54.2397 19.6424 54.3844 19.5565C54.5291 19.4707 54.6481 19.3476 54.7288 19.1999L55.7571 17.3197L57.6374 16.2914C57.785 16.2106 57.9082 16.0917 57.994 15.9469C58.0798 15.8022 58.1251 15.6371 58.1251 15.4688C58.1251 15.3006 58.0798 15.1354 57.994 14.9907C57.9082 14.846 57.785 14.727 57.6374 14.6463L55.7571 13.618L54.7288 11.7377C54.6481 11.5901 54.5291 11.4669 54.3844 11.3811C54.2397 11.2953 54.0745 11.25 53.9062 11.25C53.738 11.25 53.5728 11.2953 53.4281 11.3811C53.2834 11.4669 53.1644 11.5901 53.0837 11.7377ZM53.5686 14.7587L53.9062 14.1413L54.2438 14.7587C54.3298 14.916 54.4591 15.0453 54.6164 15.1313L55.2339 15.4688L54.6165 15.8063C54.4592 15.8923 54.3299 16.0217 54.2439 16.179L53.9062 16.7963L53.5687 16.1791C53.4827 16.0218 53.3534 15.8925 53.1961 15.8064L52.5786 15.4688L53.1959 15.1313C53.3532 15.0453 53.4826 14.916 53.5686 14.7587Z" fill="#8CC63F"/>
</svg>
