<svg width="60" height="60" viewBox="0 0 60 60" fill="none" xmlns="http://www.w3.org/2000/svg">
<g clip-path="url(#clip0_897_691)">
<path d="M47.4182 37.1678C46.1899 35.8888 44.7083 35.205 43.138 35.205C41.5804 35.205 40.0861 35.8762 38.8071 37.1552L34.8055 41.1442C34.4762 40.9669 34.147 40.8022 33.8304 40.6376C33.3745 40.4097 32.944 40.1944 32.5767 39.9665C28.8284 37.5857 25.4219 34.4832 22.1547 30.4689C20.5718 28.4681 19.5081 26.7838 18.7356 25.0743C19.774 24.1245 20.7364 23.1368 21.6735 22.187C22.0281 21.8325 22.3827 21.4652 22.7373 21.1106C25.3966 18.4513 25.3966 15.0069 22.7373 12.3476L19.2801 8.89045C18.8876 8.49789 18.4823 8.09266 18.1024 7.68743C17.3426 6.9023 16.5448 6.09184 15.7217 5.33203C14.4934 4.11634 13.0244 3.47051 11.4795 3.47051C9.93455 3.47051 8.44026 4.11634 7.17392 5.33203L7.1486 5.35736L2.84304 9.70091C1.22212 11.3218 0.297691 13.2973 0.0950768 15.5894C-0.208845 19.2871 0.880208 22.7316 1.71599 24.9856C3.76747 30.5196 6.83201 35.6482 11.4035 41.1442C16.9501 47.7671 23.6237 52.9971 31.2471 56.6822C34.1597 58.0625 38.0473 59.6961 42.3909 59.9746C42.6568 59.9873 42.9354 60 43.1887 60C46.1139 60 48.5706 58.9489 50.4955 56.8595C50.5081 56.8341 50.5334 56.8215 50.5461 56.7961C51.2046 55.9983 51.9644 55.2765 52.7622 54.5041C53.3067 53.9849 53.8639 53.4403 54.4084 52.8705C55.6621 51.5661 56.3206 50.0465 56.3206 48.4889C56.3206 46.9187 55.6495 45.4117 54.3705 44.1454L47.4182 37.1678ZM51.9517 50.5024C51.9391 50.5024 51.9391 50.5151 51.9517 50.5024C51.4579 51.0343 50.9513 51.5155 50.4068 52.0474C49.5837 52.8325 48.7479 53.6556 47.9628 54.58C46.6838 55.9477 45.1768 56.5935 43.2013 56.5935C43.0114 56.5935 42.8088 56.5935 42.6188 56.5809C38.8578 56.3403 35.3627 54.8713 32.7413 53.6176C25.5739 50.1478 19.2801 45.2218 14.0502 38.9787C9.73193 33.7741 6.84468 28.962 4.9325 23.7953C3.7548 20.6421 3.32425 18.1854 3.5142 15.868C3.64083 14.3864 4.21069 13.158 5.26175 12.107L9.57997 7.78873C10.2005 7.20622 10.859 6.88963 11.5048 6.88963C12.3026 6.88963 12.9484 7.37084 13.3537 7.77607L13.3917 7.81406C14.1641 8.53588 14.8986 9.28302 15.6711 10.0808C16.0636 10.486 16.4689 10.8913 16.8741 11.3092L20.3312 14.7663C21.6735 16.1086 21.6735 17.3496 20.3312 18.6919C19.964 19.0592 19.6094 19.4264 19.2422 19.781C18.1784 20.87 17.1654 21.8831 16.0636 22.8709C16.0383 22.8962 16.013 22.9088 16.0003 22.9342C14.9113 24.0232 15.1139 25.087 15.3418 25.8088L15.3798 25.9227C16.2789 28.1008 17.5453 30.1523 19.4701 32.5964L19.4828 32.609C22.9779 36.9146 26.6629 40.2704 30.7279 42.8411C31.2471 43.1703 31.7789 43.4362 32.2855 43.6895C32.7413 43.9174 33.1719 44.1327 33.5391 44.3607C33.5898 44.386 33.6405 44.424 33.6911 44.4493C34.1217 44.6646 34.5269 44.7659 34.9448 44.7659C35.9958 44.7659 36.6543 44.1074 36.8696 43.8921L41.2005 39.5612C41.6311 39.1307 42.3149 38.6115 43.1127 38.6115C43.8978 38.6115 44.5436 39.1053 44.9362 39.5359L44.9615 39.5612L51.9391 46.5388C53.2434 47.8304 53.2434 49.1601 51.9517 50.5024ZM32.4248 14.2724C35.7426 14.8296 38.7565 16.3999 41.1625 18.8059C43.5686 21.2119 45.1262 24.2258 45.696 27.5437C45.8353 28.3794 46.5571 28.962 47.3803 28.962C47.4816 28.962 47.5702 28.9493 47.6715 28.9366C48.6086 28.7847 49.2291 27.8982 49.0771 26.9611C48.3933 22.9468 46.4938 19.2871 43.5939 16.3872C40.694 13.4873 37.0342 11.5878 33.0199 10.9039C32.0829 10.752 31.2091 11.3725 31.0445 12.2969C30.8798 13.2213 31.4877 14.1204 32.4248 14.2724ZM59.9297 26.4673C58.8027 19.857 55.6875 13.8418 50.9007 9.05507C46.1139 4.26831 40.0988 1.15311 33.4885 0.0260632C32.5641 -0.138561 31.6903 0.494609 31.5257 1.41904C31.3737 2.35613 31.9942 3.22991 32.9313 3.39453C38.8325 4.39494 44.2144 7.19355 48.4946 11.4611C52.7749 15.7414 55.5608 21.1233 56.5612 27.0245C56.7005 27.8602 57.4223 28.4428 58.2455 28.4428C58.3468 28.4428 58.4354 28.4301 58.5367 28.4174C59.4611 28.2781 60.0943 27.3917 59.9297 26.4673Z" fill="#8CC63F"/>
</g>
<defs>
<clipPath id="clip0_897_691">
<rect width="60" height="60" fill="white"/>
</clipPath>
</defs>
</svg>
