<svg width="22" height="20" viewBox="0 0 22 20" fill="none" xmlns="http://www.w3.org/2000/svg">
<path d="M10.0764 19.2696C10.0128 19.2696 9.9498 19.2564 9.89148 19.2309C9.83316 19.2054 9.78074 19.1681 9.73753 19.1213L0.599671 9.23678C0.538756 9.17089 0.498373 9.08866 0.483465 9.00017C0.468556 8.91167 0.479769 8.82075 0.515731 8.73853C0.551694 8.65632 0.610845 8.58636 0.685946 8.53724C0.761047 8.48812 0.848839 8.46195 0.938579 8.46195H5.33704C5.40308 8.46196 5.46835 8.47614 5.52845 8.50352C5.58854 8.5309 5.64207 8.57085 5.68541 8.62068L8.73932 12.1341C9.06936 11.4286 9.70827 10.2539 10.8294 8.82246C12.4869 6.70631 15.5699 3.59411 20.8446 0.78463C20.9465 0.73034 21.0651 0.71625 21.1769 0.745141C21.2888 0.774033 21.3857 0.843806 21.4486 0.940683C21.5115 1.03756 21.5358 1.1545 21.5167 1.26841C21.4975 1.38232 21.4364 1.48492 21.3453 1.55595C21.3252 1.57169 19.2915 3.17323 16.9509 6.10672C14.7968 8.80626 11.9333 13.2204 10.5243 18.919C10.4996 19.0191 10.442 19.1081 10.3608 19.1717C10.2796 19.2352 10.1794 19.2698 10.0763 19.2698L10.0764 19.2696Z" fill="#2946B8"/>
</svg>
