<svg xmlns="http://www.w3.org/2000/svg" viewBox="0 0 64 64" id="cleaning-bucket"><path d="M46.67627,29.89893V24.12207H45.7511a17.41494,17.41494,0,0,0-12.03772-16.084v-.0293A1.5104,1.5104,0,0,0,32.20459,6.5h-7.9375A1.5104,1.5104,0,0,0,22.7583,8.00879v.02942A17.41521,17.41521,0,0,0,10.72058,24.12207H9.79541v5.77686h2.97394l2.93817,25.4663A2.40992,2.40992,0,0,0,18.10254,57.5H38.36963a2.4098,2.4098,0,0,0,2.39453-2.13477l2.93866-25.4663Zm-1-1h-22.832V25.12207h22.832ZM23.7583,8.00879A.50909.50909,0,0,1,24.26709,7.5h7.9375a.50909.50909,0,0,1,.50879.50879v.50439a.50909.50909,0,0,1-.50879.50879h-7.9375a.50909.50909,0,0,1-.50879-.50879Zm-.89386,1.05048a1.508,1.508,0,0,0,1.40265.9627h7.9375a1.508,1.508,0,0,0,1.40277-.96283A16.41807,16.41807,0,0,1,44.7511,24.12207H42.00415a6.44776,6.44776,0,0,0-10.2561-2.418,3.566,3.566,0,0,0-6.1875-1.66894,7.445,7.445,0,0,0-13.2392,4.08691h-.60077A16.41892,16.41892,0,0,1,22.86444,9.05927Zm-12.069,16.0628h7.46582v3.77686H10.79541ZM39.771,55.251A1.41072,1.41072,0,0,1,38.36963,56.5H18.10254a1.4112,1.4112,0,0,1-1.40186-1.249l-2.925-25.352h4.48553v2.77783a2.29151,2.29151,0,0,0,4.583,0V29.89893H42.69647ZM20.64551,37.604a2.09229,2.09229,0,1,0,2.09228,2.09229A2.09451,2.09451,0,0,0,20.64551,37.604Zm24.62842,5.09571a1.98609,1.98609,0,1,0,1.98632,1.98584A1.9878,1.9878,0,0,0,45.27393,42.69971Zm5.03369-10.77246a3.897,3.897,0,1,0,3.897,3.897A3.90122,3.90122,0,0,0,50.30762,31.92725ZM33.95117,18.18066a2.3374,2.3374,0,1,0-2.3374-2.3374A2.33977,2.33977,0,0,0,33.95117,18.18066Z"></path></svg>