<svg width="50" height="50" viewBox="0 0 50 50" fill="none" xmlns="http://www.w3.org/2000/svg">
<g clip-path="url(#clip0_2_10886)">
<path d="M10.7417 12.3047C10.2026 12.3047 9.76514 12.7422 9.76514 13.2812C9.76514 13.8203 10.2026 14.2578 10.7417 14.2578C11.2808 14.2578 11.7183 13.8203 11.7183 13.2812C11.7183 12.7422 11.2808 12.3047 10.7417 12.3047Z" fill="#8CC63F"/>
<path d="M45.9888 20.6564L44.5758 17.8304C44.0762 16.8312 43.0722 16.2105 41.9554 16.2105H33.7877V9.3749C33.7877 7.75957 32.4735 6.44531 30.8581 6.44531H2.92959C1.31416 6.44531 0 7.75947 0 9.3749V34.7645C0 36.3798 1.31416 37.694 2.92959 37.694H5.85918C5.85918 39.1935 6.42607 40.5627 7.35586 41.6001H0.976562C0.437207 41.6001 0 42.0374 0 42.5767C0 43.1159 0.437207 43.5532 0.976562 43.5532H49.0215C49.5608 43.5532 49.998 43.1159 49.998 42.5767C49.998 42.0374 49.5608 41.6001 49.0215 41.6001H46.5482C47.4781 40.5626 48.0449 39.1935 48.0449 37.694C48.0449 37.6384 48.0423 37.583 48.0407 37.5274C49.1795 37.1255 49.9979 36.0391 49.9979 34.7645V29.3662C49.9979 28.2267 50.2236 29.2905 45.9888 20.6564ZM44.5118 22.0696L47.4414 27.9288H37.6938V22.0696H44.5118ZM1.95303 29.8818H3.90605V31.8349H1.95303V29.8818ZM11.7183 41.6001C9.56445 41.6001 7.81221 39.8478 7.81221 37.694C7.81221 37.428 7.83857 37.1662 7.89131 36.9116C8.25859 35.1017 9.86807 33.7879 11.7183 33.7879C13.5685 33.7879 15.178 35.1016 15.5452 36.9116C15.5455 36.9131 15.5458 36.9144 15.5461 36.9157C15.598 37.1661 15.6243 37.428 15.6243 37.694C15.6243 39.8479 13.8721 41.6001 11.7183 41.6001ZM11.7183 31.8349C9.21621 31.8349 7.00811 33.4377 6.19404 35.7409H2.92959C2.39111 35.7409 1.95303 35.3028 1.95303 34.7644V33.7878H4.88262C5.42197 33.7878 5.85918 33.3505 5.85918 32.8112V28.9052C5.85918 28.3659 5.42197 27.9286 4.88262 27.9286H1.95303V9.3749C1.95303 8.83643 2.39111 8.39834 2.92959 8.39834H30.8581C31.3966 8.39834 31.8347 8.83643 31.8347 9.3749C31.8347 10.1014 31.8347 33.3991 31.8347 35.741H17.242C16.4265 33.4365 14.2192 31.8349 11.7183 31.8349ZM16.0807 41.6001C17.0105 40.5626 17.5773 39.1935 17.5773 37.694C18.3271 37.694 36.0073 37.694 36.3266 37.694C36.3266 39.1935 36.8935 40.5627 37.8232 41.6001H16.0807ZM42.1857 41.6001C40.0319 41.6001 38.2797 39.8478 38.2797 37.694C38.2797 37.428 38.3061 37.1662 38.3588 36.9116C38.7261 35.1017 40.3355 33.7879 42.1857 33.7879C44.0359 33.7879 45.6455 35.1016 46.0127 36.9116C46.013 36.9131 46.0133 36.9144 46.0136 36.9157C46.0655 37.1661 46.0918 37.428 46.0918 37.694C46.0919 39.8479 44.3396 41.6001 42.1857 41.6001ZM48.0449 34.7645C48.0449 35.0893 47.8849 35.3767 47.6402 35.5544C46.7739 33.3504 44.6187 31.835 42.1857 31.835C39.6837 31.835 37.4756 33.4378 36.6615 35.741H33.7876V18.1636H41.9553C42.3275 18.1636 42.6622 18.3706 42.8288 18.7037L43.5353 20.1166H36.7173C36.1779 20.1166 35.7407 20.5539 35.7407 21.0932V28.9054C35.7407 29.4446 36.1779 29.8819 36.7173 29.8819H48.0449V34.7645Z" fill="#8CC63F"/>
<path d="M26.9521 12.3047H14.6479C14.1086 12.3047 13.6714 12.742 13.6714 13.2812C13.6714 13.8205 14.1086 14.2578 14.6479 14.2578H26.9521C27.4915 14.2578 27.9287 13.8205 27.9287 13.2812C27.9287 12.742 27.4914 12.3047 26.9521 12.3047Z" fill="#8CC63F"/>
<path d="M26.9521 16.2109H18.554C18.0146 16.2109 17.5774 16.6482 17.5774 17.1875C17.5774 17.7268 18.0146 18.1641 18.554 18.1641H26.9521C27.4915 18.1641 27.9287 17.7268 27.9287 17.1875C27.9287 16.6482 27.4914 16.2109 26.9521 16.2109Z" fill="#8CC63F"/>
<path d="M42.1857 35.7422C41.1087 35.7422 40.2327 36.6184 40.2327 37.6952C40.2327 38.7722 41.1088 39.6482 42.1857 39.6482C43.2626 39.6482 44.1387 38.7721 44.1387 37.6952C44.1387 36.6183 43.2626 35.7422 42.1857 35.7422Z" fill="#8CC63F"/>
<path d="M11.7182 35.7422C10.6412 35.7422 9.76514 36.6184 9.76514 37.6952C9.76514 38.7722 10.6413 39.6482 11.7182 39.6482C12.7951 39.6482 13.6712 38.7721 13.6712 37.6952C13.6712 36.6183 12.7951 35.7422 11.7182 35.7422Z" fill="#8CC63F"/>
</g>
<defs>
<clipPath id="clip0_2_10886">
<rect width="50" height="50" fill="white"/>
</clipPath>
</defs>
</svg>
