<svg width="50" height="50" viewBox="0 0 50 50" fill="none" xmlns="http://www.w3.org/2000/svg">
<g clip-path="url(#clip0_2_10878)">
<path d="M46.6667 22.5833V21.6667C46.6667 15.9203 44.3839 10.4093 40.3206 6.34602C36.2574 2.28273 30.7464 0 25 0C19.2536 0 13.7426 2.28273 9.67935 6.34602C5.61606 10.4093 3.33333 15.9203 3.33333 21.6667V22.5833C2.39284 22.7767 1.54779 23.2885 0.940598 24.0323C0.333408 24.7761 0.0012121 25.7065 0 26.6667L0 33.3333C0.00132321 34.438 0.440735 35.497 1.22185 36.2782C2.00296 37.0593 3.062 37.4987 4.16667 37.5H7.5C8.08341 37.4991 8.64812 37.2941 9.09632 36.9206C9.54452 36.5471 9.84799 36.0287 9.95417 35.455C11.0031 37.6607 12.5229 39.6097 14.4064 41.1646C16.2899 42.7196 18.4914 43.8427 20.8558 44.455C20.4239 44.9323 20.1401 45.5248 20.039 46.1606C19.9379 46.7963 20.0239 47.4477 20.2865 48.0354C20.549 48.6231 20.9769 49.1217 21.5179 49.4706C22.0589 49.8194 22.6896 50.0033 23.3333 50H27.5C27.8496 49.9989 28.1951 49.9241 28.5138 49.7805C28.8326 49.6369 29.1175 49.4278 29.35 49.1667H34.1667C37.349 49.1614 40.4095 47.9432 42.7249 45.76C45.0403 43.5769 46.4362 40.5932 46.6283 37.4167C47.5761 37.2315 48.4303 36.7232 49.0451 35.9786C49.66 35.2339 49.9975 34.299 50 33.3333V26.6667C49.9988 25.7065 49.6666 24.7761 49.0594 24.0323C48.4522 23.2885 47.6072 22.7767 46.6667 22.5833ZM25 1.66667C30.3024 1.67284 35.3859 3.78196 39.1353 7.53135C42.8847 11.2807 44.9938 16.3642 45 21.6667V22.5H43.3333V21.6667C43.3333 16.8044 41.4018 12.1412 37.9636 8.70304C34.5255 5.26488 29.8623 3.33333 25 3.33333C20.1377 3.33333 15.4745 5.26488 12.0364 8.70304C8.59821 12.1412 6.66667 16.8044 6.66667 21.6667V22.5H5V21.6667C5.00618 16.3642 7.11529 11.2807 10.8647 7.53135C14.6141 3.78196 19.6976 1.67284 25 1.66667ZM41.6325 37.3333C41.4647 39.1984 40.6059 40.9333 39.2246 42.1976C37.8432 43.4619 36.0392 44.1642 34.1667 44.1667H30.1767C32.3253 43.4574 34.3077 42.3196 36.0041 40.8223C37.7004 39.3249 39.0754 37.499 40.0458 35.455C40.1261 35.8783 40.3143 36.2736 40.5923 36.6027C40.8703 36.9318 41.2286 37.1835 41.6325 37.3333ZM25 11.6667C21.488 11.6715 18.0671 12.7842 15.2243 14.8463C12.3815 16.9084 10.2617 19.8148 9.16667 23.1517C8.92436 22.932 8.64121 22.7621 8.33333 22.6517V21.6667C8.33333 17.2464 10.0893 13.0072 13.2149 9.88155C16.3405 6.75595 20.5797 5 25 5C29.4203 5 33.6595 6.75595 36.7851 9.88155C39.9107 13.0072 41.6667 17.2464 41.6667 21.6667V22.6533C41.3588 22.7637 41.0756 22.9336 40.8333 23.1533C39.7386 19.8161 37.6189 16.9094 34.7761 14.847C31.9332 12.7846 28.5122 11.6716 25 11.6667ZM8.33333 35C8.33333 35.221 8.24554 35.433 8.08926 35.5893C7.93297 35.7455 7.72101 35.8333 7.5 35.8333H4.16667C3.50363 35.8333 2.86774 35.5699 2.3989 35.1011C1.93006 34.6323 1.66667 33.9964 1.66667 33.3333V26.6667C1.66667 26.0036 1.93006 25.3677 2.3989 24.8989C2.86774 24.4301 3.50363 24.1667 4.16667 24.1667H7.5C7.72101 24.1667 7.93297 24.2545 8.08926 24.4107C8.24554 24.567 8.33333 24.779 8.33333 25V35ZM10 28.3333C10 25.3666 10.8797 22.4665 12.528 19.9998C14.1762 17.533 16.5189 15.6105 19.2597 14.4751C22.0006 13.3398 25.0166 13.0428 27.9264 13.6216C30.8361 14.2003 33.5088 15.6289 35.6066 17.7267C37.7044 19.8245 39.133 22.4973 39.7118 25.407C40.2906 28.3167 39.9935 31.3327 38.8582 34.0736C37.7229 36.8145 35.8003 39.1572 33.3336 40.8054C30.8668 42.4536 27.9667 43.3333 25 43.3333C21.0232 43.3287 17.2106 41.7469 14.3985 38.9348C11.5865 36.1228 10.0046 32.3102 10 28.3333ZM28.3333 47.5C28.3333 47.721 28.2455 47.933 28.0893 48.0893C27.933 48.2455 27.721 48.3333 27.5 48.3333H23.3333C22.8913 48.3333 22.4674 48.1577 22.1548 47.8452C21.8423 47.5326 21.6667 47.1087 21.6667 46.6667C21.6667 46.2246 21.8423 45.8007 22.1548 45.4882C22.4674 45.1756 22.8913 45 23.3333 45H27.5C27.721 45 27.933 45.0878 28.0893 45.2441C28.2455 45.4004 28.3333 45.6123 28.3333 45.8333V47.5ZM34.1667 47.5H30V45.8333H34.1667C36.4522 45.8303 38.6544 44.9743 40.342 43.433C42.0296 41.8917 43.0812 39.7759 43.2908 37.5H44.9575C44.746 40.2184 43.5179 42.7573 41.518 44.6106C39.5181 46.464 36.8933 47.4956 34.1667 47.5ZM48.3333 33.3333C48.3333 33.9964 48.0699 34.6323 47.6011 35.1011C47.1323 35.5699 46.4964 35.8333 45.8333 35.8333H42.5C42.279 35.8333 42.067 35.7455 41.9107 35.5893C41.7545 35.433 41.6667 35.221 41.6667 35V25C41.6667 24.779 41.7545 24.567 41.9107 24.4107C42.067 24.2545 42.279 24.1667 42.5 24.1667H45.8333C46.4964 24.1667 47.1323 24.4301 47.6011 24.8989C48.0699 25.3677 48.3333 26.0036 48.3333 26.6667V33.3333Z" fill="#8CC63F"/>
<path d="M15.49 29.916C16.3858 29.2644 17.5 28.4543 17.5 26.8177C17.5184 26.135 17.2657 25.4728 16.7973 24.9759C16.3288 24.479 15.6826 24.1878 15 24.166C14.4787 24.1981 13.9765 24.3736 13.5487 24.6731C13.1209 24.9727 12.7842 25.3846 12.5758 25.8635C12.4855 26.0636 12.4778 26.2912 12.5543 26.4969C12.6308 26.7026 12.7854 26.8699 12.9845 26.9623C13.1836 27.0547 13.4111 27.0648 13.6176 26.9905C13.8242 26.9161 13.993 26.7633 14.0875 26.5652C14.0875 26.5577 14.455 25.8327 15 25.8327C15.2407 25.8539 15.4633 25.9693 15.6193 26.1537C15.7754 26.3382 15.8523 26.5768 15.8333 26.8177C15.8333 27.5677 15.355 27.9527 14.51 28.5677C13.6142 29.2185 12.5 30.0293 12.5 31.666C12.5 31.887 12.5878 32.099 12.7441 32.2553C12.9004 32.4116 13.1123 32.4993 13.3333 32.4993H16.6667C16.8877 32.4993 17.0996 32.4116 17.2559 32.2553C17.4122 32.099 17.5 31.887 17.5 31.666C17.5 31.445 17.4122 31.233 17.2559 31.0768C17.0996 30.9205 16.8877 30.8327 16.6667 30.8327H14.4375C14.7427 30.4784 15.0971 30.1697 15.49 29.916Z" fill="#8CC63F"/>
<path d="M24.1667 29.166H23.3334V28.3327C23.3334 28.1117 23.2456 27.8997 23.0893 27.7434C22.9331 27.5871 22.7211 27.4993 22.5001 27.4993C22.2791 27.4993 22.0671 27.5871 21.9108 27.7434C21.7545 27.8997 21.6667 28.1117 21.6667 28.3327V29.166H20.8334V24.9993C20.8334 24.7783 20.7456 24.5664 20.5893 24.4101C20.4331 24.2538 20.2211 24.166 20.0001 24.166C19.7791 24.166 19.5671 24.2538 19.4108 24.4101C19.2545 24.5664 19.1667 24.7783 19.1667 24.9993V29.9993C19.1667 30.2204 19.2545 30.4323 19.4108 30.5886C19.5671 30.7449 19.7791 30.8327 20.0001 30.8327H21.6667V31.666C21.6667 31.887 21.7545 32.099 21.9108 32.2553C22.0671 32.4116 22.2791 32.4993 22.5001 32.4993C22.7211 32.4993 22.9331 32.4116 23.0893 32.2553C23.2456 32.099 23.3334 31.887 23.3334 31.666V30.8327H24.1667C24.3878 30.8327 24.5997 30.7449 24.756 30.5886C24.9123 30.4323 25.0001 30.2204 25.0001 29.9993C25.0001 29.7783 24.9123 29.5664 24.756 29.4101C24.5997 29.2538 24.3878 29.166 24.1667 29.166Z" fill="#8CC63F"/>
<path d="M26.4999 33.3171C26.5547 33.3286 26.6106 33.3342 26.6665 33.3338C26.8585 33.3336 27.0445 33.2672 27.1932 33.1457C27.3418 33.0243 27.444 32.8552 27.4824 32.6671L29.149 24.3338C29.1841 24.1206 29.135 23.9021 29.0121 23.7245C28.8892 23.5468 28.702 23.4238 28.4902 23.3814C28.2783 23.339 28.0583 23.3806 27.8765 23.4973C27.6947 23.6141 27.5654 23.7968 27.5157 24.0071L25.849 32.3405C25.8068 32.5562 25.8515 32.7799 25.9734 32.9628C26.0953 33.1457 26.2845 33.2731 26.4999 33.3171Z" fill="#8CC63F"/>
<path d="M31.6666 25.8327H34.3333L30.9641 31.2244C30.8469 31.4122 30.8092 31.6389 30.8592 31.8546C30.9093 32.0703 31.0429 32.2572 31.2308 32.3744C31.4186 32.4915 31.6453 32.5292 31.861 32.4792C32.0766 32.4292 32.2636 32.2956 32.3808 32.1077L36.5474 25.4411C36.6266 25.3144 36.6703 25.1687 36.6739 25.0194C36.6775 24.87 36.6408 24.7224 36.5678 24.5921C36.4948 24.4618 36.3881 24.3534 36.2589 24.2785C36.1296 24.2035 35.9826 24.1647 35.8333 24.166H31.6666C31.4456 24.166 31.2336 24.2538 31.0773 24.4101C30.921 24.5664 30.8333 24.7784 30.8333 24.9994C30.8333 25.2204 30.921 25.4324 31.0773 25.5886C31.2336 25.7449 31.4456 25.8327 31.6666 25.8327Z" fill="#8CC63F"/>
</g>
<defs>
<clipPath id="clip0_2_10878">
<rect width="50" height="50" fill="white"/>
</clipPath>
</defs>
</svg>
