<svg width="50" height="50" viewBox="0 0 50 50" fill="none" xmlns="http://www.w3.org/2000/svg">
<g clip-path="url(#clip0_2_10891)">
<path d="M29.3691 27.6088C29.0879 27.7068 28.8803 27.9473 28.8245 28.2398C28.7688 28.5323 28.8733 28.8324 29.0987 29.0269C29.3241 29.2215 29.6362 29.281 29.9174 29.183C36.8387 26.7843 41.0163 19.7384 39.8 12.5149C38.5837 5.29135 32.3293 0.00195312 25.0041 0.00195312C17.6789 0.00195312 11.4244 5.29135 10.2082 12.5149C8.99194 19.7384 13.1694 26.7843 20.0908 29.183C20.5257 29.3342 21.0008 29.1042 21.152 28.6693C21.3032 28.2343 21.0732 27.7592 20.6383 27.608C19.1975 27.1052 17.854 26.3582 16.6666 25.3997V24.4922C16.6632 21.8926 18.2638 19.5604 20.6908 18.6288C23.2724 20.4579 26.7274 20.4579 29.3091 18.6288C31.736 19.5604 33.3367 21.8926 33.3333 24.4922V25.403C32.1479 26.3599 30.8071 27.106 29.3691 27.6088ZM19.1666 12.5005C19.1666 9.27885 21.7783 6.66718 24.9999 6.66718C28.2216 6.66718 30.8333 9.27885 30.8333 12.5005C30.8333 15.7222 28.2216 18.3338 24.9999 18.3338C21.7798 18.3302 19.1703 15.7206 19.1666 12.5005ZM30.6666 17.3947C33.2866 14.3687 33.0687 9.8185 30.1715 7.05672C27.2743 4.29494 22.7189 4.29494 19.8217 7.05672C16.9245 9.8185 16.7066 14.3687 19.3266 17.3947C16.8728 18.6493 15.2452 21.0866 15.0266 23.8338C10.2761 18.48 10.6003 10.3304 15.7611 5.37086C20.9219 0.411302 29.0779 0.411302 34.2387 5.37086C39.3995 10.3304 39.7237 18.48 34.9733 23.8338C34.754 21.085 33.1234 18.647 30.6666 17.3947Z" fill="#8CC63F"/>
<path d="M17.8333 49.6765C18.3429 50.0525 19.0224 50.1046 19.5833 49.8107L25.0058 46.9932L30.4275 49.8115C30.9897 50.1038 31.6691 50.052 32.1805 49.6778C32.6919 49.3035 32.9468 48.6717 32.8383 48.0473L31.8083 42.104L36.1667 37.9032C36.6245 37.4618 36.7913 36.7983 36.5965 36.1928C36.4017 35.5874 35.8793 35.1456 35.25 35.054L29.2 34.1848L26.5 28.7573C26.2197 28.189 25.6395 27.8305 25.0058 27.834C24.374 27.8317 23.7958 28.1888 23.515 28.7548L20.8 34.1848L14.7633 35.0532C14.1336 35.1445 13.6109 35.5865 13.416 36.1923C13.2212 36.798 13.3883 37.4618 13.8467 37.9032L18.2067 42.104L17.1758 48.0473C17.0657 48.6714 17.3209 49.3037 17.8333 49.6765ZM15 36.7032L21.4683 35.7723C21.7386 35.7335 21.9727 35.5648 22.095 35.3207L25.005 29.5007L27.9025 35.319C28.0245 35.564 28.2591 35.7334 28.53 35.7723L35.0117 36.7032L30.3333 41.2107C30.1343 41.4026 30.0435 41.6808 30.0908 41.9532L31.1967 48.334L25.3908 45.3165C25.15 45.1914 24.8633 45.1914 24.6225 45.3165L18.8158 48.334L19.9217 41.9548C19.969 41.6824 19.8782 41.4043 19.6792 41.2123L15 36.7032Z" fill="#8CC63F"/>
<path d="M3.9166 36.8522L3.10243 41.5597C3.02385 41.9986 3.14347 42.4497 3.42918 42.792C3.71489 43.1343 4.1374 43.3327 4.58327 43.3338C4.82671 43.3334 5.06649 43.2746 5.28243 43.1622L9.58327 40.9238L13.8816 43.1672C14.1457 43.3047 14.4631 43.2909 14.7142 43.131C14.9654 42.9711 15.1122 42.6893 15.0992 42.3918C15.0863 42.0944 14.9157 41.8264 14.6516 41.6888L9.96827 39.2472C9.72699 39.1215 9.43954 39.1215 9.19827 39.2472L4.80077 41.538L5.6341 36.7047C5.68145 36.4323 5.5906 36.1541 5.3916 35.9622L1.85243 32.5455L6.74993 31.8422C7.02037 31.8032 7.25453 31.6341 7.3766 31.3897L9.58327 26.978L11.7816 31.3888C11.9038 31.6341 12.1387 31.8035 12.4099 31.8422L17.6424 32.5922C18.0981 32.6573 18.5202 32.3407 18.5854 31.8851C18.6505 31.4295 18.3339 31.0073 17.8783 30.9422L13.0783 30.2547L10.9308 25.9447C10.6764 25.4319 10.1523 25.1086 9.57993 25.1113H9.57493C9.00878 25.1102 8.49142 25.4316 8.2416 25.9397L6.08327 30.2547L1.29743 30.9413C0.724485 31.0177 0.246403 31.4165 0.0684825 31.9665C-0.109438 32.5164 0.0444637 33.1197 0.464099 33.5172L3.9166 36.8522Z" fill="#8CC63F"/>
<path d="M49.925 31.9641C49.7511 31.417 49.2773 31.0192 48.7084 30.9424L43.9167 30.2549L41.7634 25.9408C41.5144 25.4313 40.9971 25.108 40.43 25.1074H40.425C39.8523 25.1044 39.3279 25.4277 39.0734 25.9408L36.9267 30.2499L32.1259 30.9374C31.8311 30.9796 31.5813 31.1757 31.4704 31.4521C31.3595 31.7284 31.4044 32.0429 31.5883 32.2771C31.7721 32.5113 32.067 32.6296 32.3617 32.5874L37.595 31.8374C37.8663 31.7988 38.1012 31.6293 38.2234 31.3841L40.4167 26.9783L42.6192 31.3899C42.7413 31.6344 42.9754 31.8035 43.2459 31.8424L48.1409 32.5449L44.6017 35.9616C44.4027 36.1536 44.3119 36.4317 44.3592 36.7041L45.1967 41.5374L40.7992 39.2441C40.5579 39.1184 40.2705 39.1184 40.0292 39.2441L35.3459 41.6858C35.0818 41.8233 34.9112 42.0913 34.8982 42.3888C34.8853 42.6863 35.0321 42.968 35.2832 43.1279C35.5344 43.2879 35.8518 43.3017 36.1159 43.1641L40.4167 40.9241L44.7167 43.1674C45.2257 43.4319 45.8406 43.3844 46.303 43.045C46.7653 42.7056 46.9949 42.1331 46.895 41.5683L46.0834 36.8524L49.5384 33.5191C49.9565 33.1188 50.107 32.5136 49.925 31.9641Z" fill="#8CC63F"/>
<path d="M20.4165 39.2825C20.4567 39.2823 20.4968 39.2793 20.5365 39.2734L23.6707 38.8225C23.9409 38.7837 24.1751 38.615 24.2973 38.3709L25.7473 35.4717C25.9544 35.0598 25.7884 34.558 25.3765 34.3509C24.9646 34.1438 24.4628 34.3098 24.2557 34.7217L23.0057 37.2309L20.3015 37.62C19.8684 37.6818 19.5567 38.0679 19.5878 38.5043C19.619 38.9408 19.9823 39.2788 20.4198 39.2784L20.4165 39.2825Z" fill="#8CC63F"/>
</g>
<defs>
<clipPath id="clip0_2_10891">
<rect width="50" height="50" fill="white"/>
</clipPath>
</defs>
</svg>
