<svg xmlns="http://www.w3.org/2000/svg" enable-background="new 0 0 202.668 237.183" viewBox="0 0 202.668 237.183" id="grass-cutter"><path d="M63.846,133.55l-2.81-1.051l1.054-2.811l2.168-5.783l1.053-2.812l2.811,1.055l8.935,3.352V107.88V74.865
		c0.592,1.215,1.189,2.609,1.777,4.234c2.82,7.812,5.19,20.629,5.181,40.638c0.001,2.645-0.042,5.422-0.127,8.323l4.992,1.872
		l1.117,0.42l0.522,1.072l6.31,12.907c1.488-1.358,2.471-3.271,2.598-5.441c0.4-6.934,0.588-13.298,0.59-19.153
		c-0.041-30.183-4.862-46.887-11.435-56.931c-3.286-4.986-7.128-8.184-10.678-9.956c-3.421-1.724-6.424-2.112-8.227-2.134
		c-0.117-0.005-0.231-0.018-0.35-0.018H30.693c-0.118,0-0.233,0.012-0.35,0.018c-1.801,0.022-4.809,0.409-8.23,2.134
		c-5.379,2.667-11.178,8.501-15.234,18.84C2.771,82.069,0.014,97.077,0,119.735c0,5.854,0.189,12.223,0.595,19.158
		c0.251,4.251,3.775,7.532,7.981,7.532c0.157,0.001,0.314-0.004,0.475-0.014c4.41-0.26,7.775-4.045,7.518-8.455
		C16.178,131.306,16,125.247,16,119.735c-0.033-24.216,3.496-37.82,6.965-44.919v33.064v18.939v98
		c0,6.83,5.537,12.363,12.363,12.363c6.828,0,12.365-5.533,12.365-12.363v-90.271h4.635v90.271c0,6.83,5.537,12.363,12.363,12.363
		c6.828,0,12.365-5.533,12.365-12.363v-86.315L63.846,133.55z"></path><circle cx="50.011" cy="22.5" r="22.5"></circle><path d="M186.847,212.638l-4.216-9.367l-12.348-2.299v-8.424l-40.09-9.262v10.219l-13.934-2.596l-28.434-58.168l-20.76-7.785
		l-2.166,5.785h-0.004l18.459,6.92l27.025,55.289v19.84c1.614-0.636,3.367-0.996,5.207-0.996c7.869,0,14.246,6.377,14.246,14.244
		c0,0.363-0.027,0.72-0.055,1.076h47.668c-0.027-0.356-0.055-0.713-0.055-1.076C177.393,219.854,181.341,214.607,186.847,212.638z"></path><path d="M126.617 226.036c0-6.078-4.943-11.027-11.027-11.027-6.08 0-11.031 4.949-11.031 11.027 0 6.086 4.951 11.029 11.031 11.029C121.674 237.065 126.617 232.122 126.617 226.036zM115.59 230.886c-2.676 0-4.852-2.176-4.852-4.85 0-2.67 2.176-4.846 4.852-4.846 2.672 0 4.85 2.176 4.85 4.846C120.439 228.71 118.262 230.886 115.59 230.886zM191.641 215.009c-6.08 0-11.031 4.949-11.031 11.027 0 6.086 4.951 11.029 11.031 11.029 6.084 0 11.027-4.943 11.027-11.029C202.668 219.958 197.725 215.009 191.641 215.009zM191.639 230.886c-2.674 0-4.85-2.176-4.85-4.85 0-2.67 2.176-4.846 4.85-4.846 2.676 0 4.851 2.176 4.851 4.846C196.49 228.71 194.314 230.886 191.639 230.886z"></path></svg>