<svg xmlns="http://www.w3.org/2000/svg" viewBox="0 0 64 64" id="home-cleaning"><g><path d="M27.707 8.293a1 1 0 0 0-1.414 0l-23 23A1 1 0 0 0 3 32v6a1 1 0 0 0 1.707.707L9 34.414V60a1 1 0 0 0 1 1H44a1 1 0 0 0 1-1V34.414l4.293 4.293A1 1 0 0 0 51 38V32a1 1 0 0 0-.293-.707zM33 59H21V39H33zm10 0H35V38a1 1 0 0 0-1-1H20a1 1 0 0 0-1 1V59H11V32.414l16-16 16 16zm6-23.414l-4.293-4.293-17-17a1 1 0 0 0-1.414 0l-17 17L5 35.586V32.414l22-22 22 22zM54 14a4 4 0 0 1-4-4 1 1 0 0 0-2 0 4 4 0 0 1-4 4 1 1 0 0 0 0 2 4 4 0 0 1 4 4 1 1 0 0 0 2 0 4 4 0 0 1 4-4 1 1 0 0 0 0-2zm-5 2.687A6.055 6.055 0 0 0 47.313 15 6.055 6.055 0 0 0 49 13.313 6.055 6.055 0 0 0 50.687 15 6.055 6.055 0 0 0 49 16.687zM52 3a1 1 0 0 0-1 1V5H50a1 1 0 0 0 0 2h1V8a1 1 0 0 0 2 0V7h1a1 1 0 0 0 0-2H53V4A1 1 0 0 0 52 3zM60 10H59V9a1 1 0 0 0-2 0v1H56a1 1 0 0 0 0 2h1v1a1 1 0 0 0 2 0V12h1a1 1 0 0 0 0-2z"></path></g></svg>