<svg xmlns="http://www.w3.org/2000/svg" enable-background="new 0 0 151.208 237.184" viewBox="0 0 151.208 237.184" id="insecticide"><circle cx="93.764" cy="22.5" r="22.5"></circle><path d="M4.714 165.255l24.042-11.408 1.117 2.354 20.911-9.923c.502.1 1.02.151 1.548.151.156 0 .315-.004.473-.014 2.883-.168 5.311-1.848 6.58-4.219l7.334-3.479v86.103c0 6.83 5.537 12.363 12.363 12.363 6.828 0 12.365-5.533 12.365-12.363v-90.396h4.635v90.396c0 6.83 5.537 12.363 12.363 12.363 2.665 0 5.127-.852 7.146-2.285-1.418-.783-2.674-1.881-3.737-3.227-1.919-2.42-3.341-5.596-4.459-9.322-2.226-7.453-3.224-17.169-3.735-27.521-1.002-20.655-.045-43.953-2.285-55.408-.603-3.258-1.576-5.48-2.423-6.184-3.022-2.736-6.915-3.706-10.986-3.71-6.408-.011-13.021 2.496-15.863 3.752-.93.408-1.437.669-1.459.679l.001.003-.002-.002c0 0 0 0 .001-.001l-1.369-2.666c.106-.038 9.157-4.74 18.691-4.766 4.521-.004 9.255 1.099 12.999 4.488 2.298 2.195 3.188 6.093 3.91 11.358.667 5.258.926 11.87 1.069 19.157.288 14.564.114 31.82 1.683 45.797 1.026 9.31 2.898 17.163 5.918 21.58 1.315 1.919 2.744 3.17 4.418 3.806 1.777-2.142 2.848-4.891 2.848-7.892v-2.246c-2.146-1.197-3.602-3.487-3.602-6.115v-57.334c0-2.627 1.455-4.918 3.602-6.115V126.82v-18.938V74.864c.592 1.215 1.191 2.611 1.781 4.239 2.816 7.812 5.189 20.63 5.18 40.637 0 5.516-.176 11.572-.566 18.225-.059 1.008.08 1.979.37 2.888-2.276 1.011-3.866 3.287-3.866 5.939v5.358c.166-.012.332-.025.5-.025h2.5v-5.333c.002-1.516.971-2.792 2.318-3.279 1.366 1.657 3.386 2.768 5.699 2.903.16.01.318.014.477.014 2.465 0 4.689-1.134 6.164-2.924 1.358.481 2.337 1.763 2.34 3.286v5.333h2.501c.169 0 .334.014.499.025v-5.358c0-2.663-1.602-4.948-3.893-5.952.195-.618.326-1.267.365-1.943.404-6.934.592-13.301.592-19.156-.041-30.181-4.861-46.885-11.434-56.928-3.285-4.987-7.129-8.187-10.68-9.956-3.314-1.674-6.236-2.087-8.055-2.131-.172-.012-.346-.025-.521-.025H74.447c-.164 0-.324.014-.486.023-1.816.039-4.756.449-8.094 2.132-5.379 2.667-11.176 8.501-15.234 18.841-4.107 10.379-6.865 25.387-6.879 48.044.002 5.856.19 12.223.596 19.156.032.551.122 1.084.259 1.598l-18.11 8.594.973 2.049L2.125 163.163 0 172.175l2.922.689L4.714 165.255zM59.756 119.74c-.035-24.212 3.494-37.815 6.963-44.915v33.057 18.938 3.182l-6.646 3.153C59.856 128.362 59.756 123.896 59.756 119.74zM131.729 230.108c-1.541 1.908-4.037 3.243-8.611 3.264-.619 0-1.275-.025-1.969-.079v.001c.001 0 .002 0 .002 0l-.121 1.553-.111 1.437c.766.061 1.497.088 2.199.088.035 0 .07 0 .105 0 5.094 0 8.699-1.668 10.852-4.395 1.918-2.419 2.645-5.441 2.789-8.518h-3.002C133.721 226.093 133.072 228.434 131.729 230.108z"></path><path d="M124.209,154.125c-2.762,0-5,2.238-5,5v57.334c0,2.762,2.238,5,5,5h21.999c2.762,0,5-2.238,5-5v-57.334
		c0-2.762-2.238-5-5-5H124.209z M146.208,218.461h-21.999c-1.104,0-2.002-0.898-2.002-2v-20.002h26.003v20.002
		C148.21,217.563,147.311,218.461,146.208,218.461z M148.21,159.125v19.668h-26.003v-19.668c0-1.104,0.899-2.002,2.002-2.002h21.999
		C147.311,157.123,148.21,158.021,148.21,159.125z"></path></svg>