<svg width="60" height="60" viewBox="0 0 60 60" fill="none" xmlns="http://www.w3.org/2000/svg">
<g clip-path="url(#clip0_890_861)">
<path d="M15.949 52.9797C16.1821 52.9797 16.4057 52.8871 16.5705 52.7222C16.7354 52.5574 16.828 52.3338 16.828 52.1007V29.2592C16.828 29.1011 16.7853 28.9458 16.7044 28.8099C16.6235 28.6739 16.5074 28.5624 16.3684 28.4869C16.2294 28.4114 16.0726 28.3748 15.9146 28.381C15.7565 28.3872 15.6031 28.436 15.4704 28.5221L10.5254 31.7331L6.68458 26.6231C6.61525 26.5308 6.52841 26.4531 6.42904 26.3944C6.32966 26.3356 6.21969 26.2971 6.1054 26.2809C5.99112 26.2647 5.87476 26.2711 5.76298 26.2999C5.6512 26.3287 5.54618 26.3792 5.45392 26.4486C5.2676 26.5886 5.14454 26.797 5.11181 27.0278C5.07909 27.2585 5.13938 27.4929 5.27942 27.6792L9.15363 32.8335C9.68791 33.5443 10.6906 33.722 11.4363 33.2375L15.0702 30.8778V52.1005C15.0701 52.2159 15.0928 52.3302 15.137 52.4369C15.1812 52.5436 15.2459 52.6405 15.3275 52.7221C15.4091 52.8038 15.506 52.8685 15.6126 52.9127C15.7193 52.9569 15.8336 52.9797 15.949 52.9797ZM43.9309 47.4928C43.6978 47.4928 43.4742 47.5854 43.3094 47.7502C43.1445 47.915 43.0519 48.1386 43.0519 48.3717V58.2244H16.828V55.8465C16.828 55.6134 16.7354 55.3898 16.5705 55.225C16.4057 55.0601 16.1821 54.9675 15.949 54.9675C15.7159 54.9675 15.4923 55.0601 15.3275 55.225C15.1627 55.3898 15.0701 55.6134 15.0701 55.8465V59.1033C15.0701 59.3364 15.1627 59.56 15.3275 59.7248C15.4923 59.8897 15.7159 59.9823 15.949 59.9823H43.9309C44.164 59.9823 44.3875 59.8897 44.5524 59.7248C44.7172 59.56 44.8098 59.3364 44.8098 59.1033V48.3717C44.8098 48.1386 44.7172 47.915 44.5524 47.7502C44.3875 47.5854 44.164 47.4928 43.9309 47.4928ZM57.8601 20.531L52.1666 16.204C52.0748 16.1331 51.9698 16.081 51.8578 16.0508C51.7458 16.0206 51.6289 16.0129 51.5138 16.0281C51.3988 16.0433 51.2879 16.0812 51.1876 16.1394C51.0873 16.1977 50.9995 16.2753 50.9293 16.3676C50.8591 16.46 50.8078 16.5654 50.7786 16.6777C50.7493 16.7899 50.7425 16.9069 50.7586 17.0218C50.7748 17.1367 50.8135 17.2472 50.8726 17.3471C50.9317 17.447 51.01 17.5341 51.1029 17.6036L56.7493 21.8948L49.3545 31.7331L44.4095 28.5221C44.2768 28.4359 44.1234 28.3871 43.9653 28.3808C43.8072 28.3746 43.6504 28.4112 43.5113 28.4866C43.3723 28.5621 43.2562 28.6738 43.1754 28.8098C43.0945 28.9457 43.0518 29.101 43.0519 29.2592V35.4122C43.0519 35.6453 43.1445 35.8688 43.3094 36.0337C43.4742 36.1985 43.6978 36.2911 43.9309 36.2911C44.164 36.2911 44.3875 36.1985 44.5524 36.0337C44.7172 35.8688 44.8098 35.6453 44.8098 35.4122V30.8779L48.4437 33.2376C49.1894 33.7219 50.1921 33.5446 50.7264 32.8337L58.1902 22.9036C58.7499 22.159 58.6018 21.0946 57.8601 20.531ZM59.8987 0.489601C59.7908 0.282954 59.6054 0.127587 59.383 0.0576586C59.1606 -0.0122702 58.9196 0.00896288 58.7129 0.11669C54.8029 2.15467 50.6872 3.771 46.4353 4.93841C46.1035 4.58776 45.6353 4.36756 45.1157 4.36756H42.9197C41.9279 4.36756 41.1202 5.166 41.1024 6.15371C33.7303 7.49465 26.2667 7.49465 18.8946 6.15371C18.8768 5.166 18.0692 4.36756 17.0772 4.36756H14.8814C14.3617 4.36756 13.8935 4.58776 13.5618 4.93841C9.30983 3.77096 5.19411 2.15464 1.28404 0.11669C1.1816 0.0621764 1.06937 0.0284889 0.95384 0.0175708C0.838309 0.00665271 0.72176 0.0187202 0.610917 0.053077C0.500074 0.0874337 0.397132 0.1434 0.308029 0.217746C0.218927 0.292092 0.145429 0.383346 0.0917753 0.486243C0.0381217 0.58914 0.00537503 0.701644 -0.00457532 0.817262C-0.0145257 0.93288 -0.00148273 1.04932 0.033801 1.15987C0.0690846 1.27043 0.125911 1.3729 0.201 1.46137C0.276089 1.54985 0.367956 1.62258 0.471299 1.67537C4.47442 3.7633 8.70735 5.42465 13.0625 6.62284V11.2176C13.0625 11.4986 13.1285 11.7639 13.2428 12.0018L2.01978 20.531C1.27806 21.0947 1.13005 22.159 1.68977 22.9037L3.02871 24.6852C3.11058 24.7943 3.21678 24.8828 3.33887 24.9437C3.46095 25.0046 3.59556 25.0362 3.73199 25.036C3.89523 25.0359 4.05521 24.9903 4.194 24.9043C4.33278 24.8184 4.44489 24.6955 4.51776 24.5494C4.59063 24.4033 4.62138 24.2399 4.60656 24.0773C4.59174 23.9147 4.53194 23.7595 4.43387 23.629L3.13043 21.8949L14.7924 13.0321C14.8221 13.0335 14.8514 13.0366 14.8814 13.0366H17.0772C18.028 13.0366 18.8096 12.3029 18.8884 11.3721H19.2234L21.8612 15.6305C23.6062 18.4475 26.6262 20.1292 29.9399 20.1292C33.2535 20.1292 36.2735 18.4475 38.0185 15.6305L40.6563 11.3721H41.1086C41.1874 12.3029 41.9689 13.0366 42.9197 13.0366H45.0934L48.1199 15.3366C48.2725 15.453 48.4592 15.5159 48.6511 15.5158C48.8351 15.5159 49.0146 15.4583 49.1641 15.351C49.3137 15.2437 49.4258 15.0921 49.4846 14.9177C49.5434 14.7433 49.546 14.5549 49.492 14.3789C49.438 14.203 49.3302 14.0484 49.1836 13.937L46.723 12.067C46.8621 11.8055 46.9348 11.5138 46.9347 11.2176V6.62413C51.2949 5.42443 55.5156 3.76557 59.5259 1.67537C59.6282 1.622 59.7191 1.54899 59.7932 1.46051C59.8673 1.37203 59.9233 1.26982 59.9579 1.15971C59.9925 1.04959 60.0051 0.933741 59.9949 0.818763C59.9848 0.703786 59.9521 0.591936 59.8987 0.489601ZM17.1384 11.2176C17.1384 11.2337 17.1319 11.2492 17.1205 11.2607C17.1091 11.2721 17.0935 11.2786 17.0774 11.2786H14.8815C14.8739 11.2785 14.8665 11.277 14.8595 11.2742L14.8565 11.273C14.8458 11.2682 14.8367 11.2605 14.8302 11.2506C14.8238 11.2408 14.8204 11.2293 14.8203 11.2176V6.18664C14.8203 6.15289 14.8477 6.12558 14.8814 6.12558H17.0772C17.1109 6.12558 17.1383 6.15301 17.1383 6.18664L17.1384 11.2176ZM36.5241 14.7045C35.1019 17.0004 32.6405 18.3711 29.9399 18.3711C27.2393 18.3711 24.7778 17.0004 23.3557 14.7045L22.4984 13.3205C27.3707 14.6471 32.509 14.6471 37.3814 13.3206L36.5241 14.7045ZM40.6184 9.61399C40.0291 9.61399 39.4921 9.91306 39.1819 10.414L38.7961 11.0368C33.0726 13.0628 26.8074 13.0628 21.0839 11.0367L20.6981 10.414C20.5473 10.1686 20.336 9.96622 20.0845 9.82613C19.8329 9.68604 19.5496 9.61298 19.2616 9.61399H18.8964V7.93869C22.5828 8.59041 26.2907 8.91762 29.9987 8.91762C33.7067 8.91762 37.4146 8.59041 41.101 7.93869V9.61399H40.6184ZM42.8587 11.2176V6.18664C42.8587 6.15289 42.8861 6.12558 42.9197 6.12558H45.1156C45.1492 6.12558 45.1766 6.15301 45.1766 6.18664V11.2176C45.1766 11.2337 45.1702 11.2492 45.1587 11.2607C45.1473 11.2721 45.1318 11.2786 45.1156 11.2786H42.9197C42.9035 11.2786 42.888 11.2721 42.8766 11.2607C42.8651 11.2492 42.8587 11.2337 42.8587 11.2176ZM46.9309 40.6137C46.1921 40.1966 45.6301 39.6199 45.2127 38.8504C45.0819 38.6076 44.8877 38.4047 44.6509 38.2632C44.414 38.1218 44.1433 38.0471 43.8675 38.047H43.8532C43.5769 38.0495 43.3066 38.1274 43.0714 38.2722C42.8361 38.417 42.6449 38.6233 42.5182 38.8688C42.1522 39.5744 41.5873 40.1284 40.7914 40.5623C40.2786 40.8418 39.9756 41.379 40.0004 41.9643C40.0251 42.5465 40.3707 43.0531 40.9021 43.2866C41.639 43.6102 42.1639 44.1267 42.5068 44.8659C42.6268 45.127 42.8194 45.348 43.0617 45.5025C43.304 45.657 43.5856 45.7384 43.873 45.737C44.4456 45.737 44.9634 45.4235 45.2307 44.9122C45.6152 44.1764 46.1457 43.6533 46.8525 43.313C47.1024 43.1934 47.3145 43.0074 47.4658 42.7754C47.6171 42.5433 47.7016 42.2742 47.7103 41.9973C47.729 41.4259 47.4304 40.8957 46.9309 40.6137ZM43.8901 43.7164C43.4387 42.9278 42.8119 42.312 42.0197 41.8787C42.7996 41.3861 43.4206 40.7703 43.8727 40.0409C44.3522 40.8091 44.969 41.442 45.713 41.9292C44.9686 42.3629 44.3578 42.9619 43.8901 43.7164ZM55.9298 47.6771C55.2872 47.3144 54.7983 46.8126 54.4352 46.1428C54.3104 45.9112 54.1252 45.7177 53.8993 45.5828C53.6734 45.448 53.4152 45.3767 53.1521 45.3767H53.1385C52.8749 45.3791 52.6169 45.4534 52.3924 45.5916C52.1679 45.7298 51.9854 45.9266 51.8646 46.1609C51.5474 46.7725 51.0566 47.2532 50.3642 47.6306C49.875 47.8973 49.5858 48.4098 49.6096 48.9682C49.6333 49.5239 49.9631 50.0074 50.4703 50.2302C51.105 50.509 51.5572 50.9541 51.8526 51.5908C51.9646 51.8347 52.1431 52.042 52.3676 52.1891C52.592 52.3361 52.8534 52.4169 53.1217 52.4222C53.1335 52.4224 53.1453 52.4227 53.1571 52.4227C53.7033 52.4227 54.1971 52.1237 54.4519 51.6362C54.7849 50.9991 55.2436 50.5465 55.8545 50.2523C56.093 50.1382 56.2954 49.9606 56.4398 49.7392C56.5842 49.5177 56.6649 49.2608 56.6732 48.9966C56.6821 48.7297 56.6175 48.4654 56.4864 48.2327C56.3553 48 56.1627 47.8078 55.9298 47.6771ZM53.1751 50.3445C52.7988 49.7348 52.3011 49.2456 51.6882 48.8825C52.2897 48.4801 52.7813 47.9928 53.1566 47.4263C53.551 48.0238 54.0407 48.5267 54.6198 48.9284C54.0437 49.2889 53.5602 49.7628 53.1751 50.3445Z" fill="white"/>
<path d="M10.8918 42.9651C10.0668 42.4994 9.43933 41.8555 8.97372 40.997C8.8361 40.742 8.63155 40.5293 8.38208 40.3819C8.13262 40.2344 7.84767 40.1578 7.5579 40.1602C7.27033 40.1628 6.98891 40.2438 6.74401 40.3946C6.49911 40.5454 6.30002 40.7601 6.16821 41.0157C5.75862 41.8055 5.12741 42.4249 4.23873 42.9094C3.70503 43.2002 3.38954 43.7596 3.41556 44.369C3.44134 44.9749 3.80089 45.5023 4.35381 45.7451C5.18214 46.1089 5.77221 46.6894 6.15755 47.52C6.28229 47.7917 6.48271 48.0217 6.73481 48.1825C6.98691 48.3432 7.28001 48.4279 7.57899 48.4264C8.17528 48.4264 8.71449 48.0999 8.99294 47.5672C9.42363 46.7431 10.0184 46.157 10.8111 45.7753C11.0711 45.6508 11.2919 45.4572 11.4493 45.2157C11.6068 44.9742 11.6948 44.6941 11.7038 44.4059C11.7134 44.1144 11.6428 43.8259 11.4997 43.5718C11.3565 43.3177 11.1462 43.1078 10.8918 42.9651ZM7.59458 46.4654C7.07904 45.5087 6.33416 44.7771 5.37375 44.2845C6.32103 43.7125 7.06053 42.979 7.57818 42.0979C8.13215 43.0251 8.86508 43.7771 9.76302 44.3387C8.86145 44.835 8.13403 45.5484 7.59458 46.4654Z" fill="white"/>
</g>
<defs>
<clipPath id="clip0_890_861">
<rect width="60" height="60" fill="white"/>
</clipPath>
</defs>
</svg>
