<svg width="60" height="60" viewBox="0 0 60 60" fill="none" xmlns="http://www.w3.org/2000/svg">
<g clip-path="url(#clip0_890_898)">
<path d="M59.2979 50.7186C58.7041 49.5652 57.7737 48.6677 56.5865 48.0689C58.5324 46.9807 59.8521 44.8964 59.8521 42.5079C59.8521 38.9989 57.0054 36.1444 53.5065 36.1444L41.7167 36.1433C43.4518 35.8549 45.066 35.4083 46.521 34.9595C46.72 34.8978 46.8917 34.7697 47.0075 34.5965C47.1233 34.4234 47.1761 34.2157 47.1571 34.0083C47.0371 32.6837 47.1175 31.2742 47.2029 29.7818C47.4243 25.9055 47.6752 21.512 43.8684 18.6032C41.7004 16.895 39.3845 15.9517 37.145 15.0394C35.9943 14.5707 34.8047 14.0863 33.6721 13.508C33.4862 13.4138 33.2735 13.3868 33.07 13.4317C32.9273 13.4462 32.7858 13.4907 32.6583 13.5762L31.031 14.6668C28.8416 13.7307 26.65 12.7996 24.4564 11.8736C24.6497 10.8875 25.5451 10.1584 26.5649 9.32988C27.9871 8.1743 29.599 6.86473 29.5665 4.51148C29.5291 1.81289 27.592 0 24.7461 0C22.3563 0 20.3374 1.92996 20.3374 4.21441C20.3374 4.71645 20.7433 5.12344 21.2439 5.12344C21.7445 5.12344 22.1505 4.71645 22.1505 4.21441C22.1505 2.93789 23.3634 1.81805 24.7462 1.81805C26.6058 1.81805 27.7301 2.8343 27.7537 4.53656C27.7741 6.00738 26.6848 6.89227 25.4237 7.91684C24.1798 8.92734 22.7808 10.0651 22.6197 11.9156C20.5215 12.7906 18.4241 13.6672 16.3273 14.5454C15.819 14.3516 14.7808 13.7414 14.4001 13.5427C14.1986 13.4373 13.5359 13.4917 13.4249 13.5393C11.3931 14.4131 9.56185 15.2047 7.72646 16.0433C7.27084 16.2514 7.06986 16.7907 7.2774 17.2475C7.48506 17.7046 8.02295 17.9058 8.47822 17.6979C10.0219 16.9924 11.5679 16.3184 13.2367 15.5988C13.6863 16.7584 14.3333 17.8494 15.1376 18.7968C17.7833 21.9123 22.0645 23.343 26.0446 22.4421C29.4929 21.6615 32.4371 19.0215 33.7874 15.5834C34.6838 15.9988 35.5843 16.3657 36.4627 16.7235C38.6836 17.6283 40.7813 18.4827 42.759 20.0407C45.8103 22.3721 45.6076 25.9205 45.3929 29.6774C45.3221 30.9186 45.249 32.195 45.3025 33.4286C43.073 34.087 40.5024 34.6833 37.757 34.6406C37.9074 31.623 38.0896 29.6617 38.0919 29.6378C38.1387 29.138 37.7728 28.6946 37.2744 28.6474C37.0347 28.6254 36.7962 28.6993 36.611 28.853C36.4258 29.0067 36.3092 29.2276 36.2868 29.4671C36.2841 29.4954 36.0331 32.196 35.875 36.1421L29.9297 36.1416C28.4302 36.1416 27.2102 37.3649 27.2102 38.8687C27.2102 39.8382 27.7174 40.6914 28.4795 41.175C27.694 41.9929 27.2102 43.1041 27.2102 44.3266C27.2102 45.6251 27.7588 46.7951 28.6324 47.6241C28.3273 47.7968 28.0568 48.0246 27.8347 48.2958C27.2904 48.9616 27.0719 49.813 27.2351 50.6316C27.2399 50.6557 27.2457 50.6795 27.2524 50.703C27.4836 51.5146 27.951 52.003 28.5108 52.2982C28.0284 52.8188 27.6601 53.4677 27.4462 54.2155C27.0427 55.6264 27.2903 57.03 28.0688 58.1168C20.4905 57.8565 13.0428 56.781 11.2213 54.7295C10.8815 54.3469 10.8719 54.047 10.8942 53.8548C12.0997 43.4652 10.9089 29.6114 10.8969 29.4728C10.853 28.9727 10.4145 28.6023 9.91435 28.647C9.4156 28.6909 9.04693 29.132 9.09088 29.6321C9.09533 29.6829 9.25986 31.5984 9.40459 34.5081C9.33826 34.5094 4.1983 34.9473 1.86252 33.3731C1.9074 32.2738 1.87435 31.1795 1.84224 30.1163C1.77744 27.9689 1.71615 25.9397 2.24631 23.9136C2.77998 22.5141 3.85658 21.0607 5.44693 19.5929C5.81537 19.253 5.83916 18.6778 5.50013 18.3084C5.41966 18.2206 5.32264 18.1496 5.21464 18.0993C5.10664 18.0491 4.98978 18.0207 4.87078 18.0158C4.75177 18.0108 4.63296 18.0294 4.52116 18.0705C4.40936 18.1115 4.30677 18.1743 4.21928 18.2551C2.3765 19.956 0.886931 21.769 0.506072 23.4018C-0.0368579 25.7292 -0.0363891 27.9732 0.0300562 30.1717C0.0679078 31.4239 0.10365 32.607 0.0241968 33.8027C0.0135243 33.9622 0.045034 34.1216 0.115555 34.265C0.186076 34.4084 0.29312 34.5307 0.425916 34.6195C2.67908 36.1259 5.174 36.3505 7.65498 36.3505C8.18502 36.3505 9.40424 36.3273 9.48592 36.3257C9.6808 41.2206 9.75205 47.9679 9.09334 53.6454C8.99783 54.4682 9.26549 55.2614 9.86736 55.9392C13.2122 59.7064 27.4542 59.9992 31.7396 59.9992L47.5325 59.9982C48.0331 59.9982 48.439 59.5913 48.439 59.0892C48.439 58.5872 48.0331 58.1802 47.5325 58.1802C47.5325 58.1802 33.0637 58.1837 32.8876 58.1862C31.9249 58.2013 31.0145 58.2142 30.3042 57.7689C29.0599 56.9895 28.9258 55.6378 29.189 54.7172C29.4642 53.7548 30.2793 52.7266 31.742 52.7266H31.7428C31.7465 52.7266 31.75 52.7256 31.7538 52.7256H53.4991C53.999 52.7256 54.4056 53.1333 54.4056 53.6346C54.4056 54.1359 53.9991 54.5436 53.4991 54.5436H31.7438C31.2432 54.5436 30.8372 54.9506 30.8372 55.4527C30.8372 55.9547 31.2432 56.3617 31.7438 56.3617H53.499C54.9986 56.3617 56.2185 55.1384 56.2185 53.6345C56.2185 52.1306 54.9986 50.9073 53.499 50.9073H30.4022C29.5414 50.8713 29.1562 50.7083 29.0067 50.2406C28.9635 49.9685 29.0267 49.6123 29.2171 49.3795C29.4035 49.1514 29.6785 49.0903 29.9371 49.0903C32.5856 49.0903 47.4796 49.0386 53.6692 49.0888C55.012 49.2448 56.7851 49.8006 57.6868 51.5528C58.7712 53.6597 57.8975 55.6738 56.7183 56.8566C55.3831 58.1953 53.5008 58.1876 51.503 58.1811L51.1102 58.1801H51.1097C50.6094 58.1801 50.2034 58.587 50.2032 59.0887C50.2029 59.5908 50.6087 59.998 51.1093 59.9982C51.1093 59.9982 51.7832 60.0002 51.9284 60.0002C53.9902 60.0002 56.2545 59.893 58.0003 58.1421C60.0824 56.0538 60.5798 53.2095 59.2979 50.7186ZM25.6454 20.6688C23.0152 21.2643 20.231 20.6387 18.0847 19.0673C19.2808 18.828 21.1177 18.4614 23.5877 17.9706L25.0509 18.2739C25.5419 18.3758 26.0208 18.0593 26.1221 17.5675C26.2233 17.0759 25.908 16.5949 25.4177 16.4932L23.7749 16.1529C23.6564 16.1283 23.5341 16.1278 23.4153 16.1514C21.0947 16.612 18.7745 17.0748 16.4548 17.5398C16.2373 17.2775 16.0344 17.0035 15.847 16.7189C17.6244 15.9704 20.007 14.9757 23.5897 13.4804C26.1204 14.5484 28.6483 15.6232 31.1733 16.7047C30.9807 16.9999 30.7723 17.2845 30.549 17.5571L28.3347 17.0981C27.8451 16.9964 27.3649 17.3128 27.2635 17.8043C27.1621 18.296 27.4774 18.777 27.9677 18.8786L28.9724 19.0868C27.981 19.8455 26.8504 20.3961 25.6454 20.6688ZM31.7426 41.5998C31.7464 41.5998 31.7499 41.5988 31.7537 41.5988H40.0905C40.5911 41.5988 40.9971 41.1918 40.9971 40.6897C40.9971 40.1877 40.5911 39.7807 40.0905 39.7807L29.9296 39.7785C29.4298 39.7785 29.0231 39.3708 29.0231 38.8695C29.0231 38.3681 29.4297 37.9604 29.9295 37.9604L53.5065 37.9627C56.0058 37.9627 58.039 40.0016 58.039 42.508C58.039 45.0144 56.0058 47.0534 53.5065 47.0534L31.7426 47.0544C30.243 47.0544 29.0231 45.8311 29.0231 44.3272C29.0231 42.8234 30.243 41.5998 31.7426 41.5998Z" fill="white"/>
<path d="M31.7443 45.2352H53.4995C54.9991 45.2352 56.2191 44.0119 56.2191 42.508C56.2191 41.0042 54.9991 39.7808 53.4995 39.7808H43.1269C42.6263 39.7808 42.2203 40.1878 42.2203 40.6899C42.2203 41.1919 42.6263 41.5989 43.1269 41.5989H53.4995C53.9994 41.5989 54.4061 42.0066 54.4061 42.5079C54.4061 43.0092 53.9995 43.4169 53.4995 43.4169H31.7443C31.2437 43.4169 30.8378 43.8239 30.8378 44.326C30.8378 44.828 31.2437 45.2352 31.7443 45.2352ZM2.74219 26.1354C2.74219 26.6374 3.14813 27.0444 3.64875 27.0444C4.14937 27.0444 4.55531 26.6374 4.55531 26.1354C4.55531 23.9707 6.98156 21.3937 9.24762 20.3448C9.94137 20.0237 10.8627 19.6108 11.9932 19.1141C14.537 23.0374 18.9091 25.4427 23.5921 25.4427C24.0927 25.4427 24.4986 25.0357 24.4986 24.5337C24.4986 24.0317 24.0927 23.6247 23.5921 23.6247C19.2865 23.6247 15.2828 21.2831 13.1433 17.5139C13.033 17.3192 12.8545 17.1722 12.6422 17.1013C12.43 17.0304 12.1989 17.0407 11.9938 17.1301C10.5157 17.7753 9.33621 18.3014 8.48789 18.694C5.66355 20.0012 2.74219 23.142 2.74219 26.1354ZM42.6288 24.9983C42.6288 25.5004 43.0348 25.9074 43.5354 25.9074C44.036 25.9074 44.442 25.5004 44.442 24.9983C44.442 21.5576 40.4521 19.4558 38.7367 18.7121C38.2772 18.5128 37.7434 18.7246 37.5447 19.1857C37.3461 19.6465 37.5575 20.1816 38.0169 20.3809C38.7871 20.7148 42.6288 22.5071 42.6288 24.9983Z" fill="white"/>
</g>
<defs>
<clipPath id="clip0_890_898">
<rect width="60" height="60" fill="white"/>
</clipPath>
</defs>
</svg>
