<svg width="60" height="60" viewBox="0 0 60 60" fill="none" xmlns="http://www.w3.org/2000/svg">
<path d="M52.4588 23.4205C52.4494 19.944 51.063 16.6128 48.6031 14.1561C46.1433 11.6994 42.8103 10.3174 39.3338 10.3125H30.9375V9.25638C31.5997 9.08539 32.2026 8.73657 32.6808 8.24765C33.1591 7.75873 33.4945 7.14833 33.6509 6.48251C33.8072 5.81668 33.7785 5.12078 33.5678 4.4701C33.3572 3.81941 32.9726 3.23873 32.4557 2.79087C31.9388 2.34302 31.3092 2.04504 30.6352 1.92919C29.9611 1.81334 29.2682 1.88403 28.6314 2.1336C27.9947 2.38317 27.4383 2.80213 27.0224 3.34514C26.6066 3.88815 26.3472 4.53453 26.2723 5.21435L25.5871 5.89954L26.9129 7.2254L27.8504 6.2879C27.9375 6.20084 28.0065 6.09749 28.0536 5.98375C28.1008 5.87 28.125 5.74809 28.125 5.62497C28.125 5.25413 28.235 4.89162 28.441 4.58328C28.647 4.27494 28.9399 4.03461 29.2825 3.8927C29.6251 3.75078 30.0021 3.71365 30.3658 3.786C30.7295 3.85835 31.0636 4.03692 31.3258 4.29915C31.5881 4.56137 31.7666 4.89546 31.839 5.25918C31.9113 5.62289 31.8742 5.99989 31.7323 6.3425C31.5904 6.68512 31.35 6.97795 31.0417 7.18398C30.7334 7.39001 30.3708 7.49997 30 7.49997C29.7514 7.49997 29.5129 7.59875 29.3371 7.77456C29.1613 7.95038 29.0625 8.18883 29.0625 8.43747V10.3125H20.625C17.1452 10.3164 13.8091 11.7005 11.3486 14.161C8.88801 16.6216 7.50394 19.9577 7.5 23.4375V57.1875C7.5 57.4361 7.59877 57.6746 7.77459 57.8504C7.9504 58.0262 8.18886 58.125 8.4375 58.125H51.5625C51.6857 58.125 51.8077 58.1007 51.9215 58.0535C52.0354 58.0063 52.1388 57.9372 52.2258 57.85C52.3129 57.7628 52.3819 57.6593 52.429 57.5454C52.476 57.4315 52.5002 57.3095 52.5 57.1863L52.4588 23.4205ZM9.375 56.25V23.4375C9.37838 20.4548 10.5647 17.5953 12.6738 15.4863C14.7828 13.3772 17.6424 12.1909 20.625 12.1875H29.0625V14.0625H25.3125C25.1894 14.0625 25.0675 14.0867 24.9537 14.1338C24.84 14.1809 24.7366 14.25 24.6496 14.337L22.1118 16.875H18.75C18.5546 16.875 18.3641 16.936 18.2051 17.0496L11.6426 21.7371C11.5211 21.8238 11.4222 21.9383 11.3539 22.071C11.2856 22.2037 11.25 22.3507 11.25 22.5V48.75C11.25 48.9986 11.3488 49.2371 11.5246 49.4129C11.7004 49.5887 11.9389 49.6875 12.1875 49.6875H15.9375V53.4375C15.9375 53.6861 16.0363 53.9246 16.2121 54.1004C16.3879 54.2762 16.6264 54.375 16.875 54.375H43.125C43.3736 54.375 43.6121 54.2762 43.7879 54.1004C43.9637 53.9246 44.0625 53.6861 44.0625 53.4375V49.6875H47.8125C48.0611 49.6875 48.2996 49.5887 48.4754 49.4129C48.6512 49.2371 48.75 48.9986 48.75 48.75V22.5C48.75 22.3507 48.7144 22.2037 48.6461 22.071C48.5778 21.9383 48.4789 21.8238 48.3574 21.7371L41.7949 17.0496C41.6359 16.936 41.4454 16.875 41.25 16.875H37.8882L35.3504 14.337C35.2634 14.25 35.16 14.1809 35.0463 14.1338C34.9325 14.0867 34.8106 14.0625 34.6875 14.0625H30.9375V12.1875H39.3338C42.3136 12.1916 45.1705 13.3762 47.2789 15.482C49.3874 17.5877 50.5757 20.443 50.5838 23.4228L50.6238 56.25H9.375ZM46.875 44.0625H44.0625V45.9375H46.875V47.8125H42.1875V27.1875C42.1875 26.9388 42.0887 26.7004 41.9129 26.5246C41.7371 26.3487 41.4986 26.25 41.25 26.25C41.0014 26.25 40.7629 26.3487 40.5871 26.5246C40.4113 26.7004 40.3125 26.9388 40.3125 27.1875V30H35.625C35.3764 30 35.1379 30.0987 34.9621 30.2746C34.7863 30.4504 34.6875 30.6888 34.6875 30.9375V34.6875C34.6875 34.8418 34.7256 34.9938 34.7985 35.1298C34.8713 35.2659 34.9766 35.3819 35.105 35.4675L37.9175 37.3425C38.0715 37.4452 38.2525 37.4999 38.4376 37.4999C38.6226 37.4999 38.8036 37.4452 38.9576 37.3425L40.3125 36.4392V48.75C40.3125 48.9986 40.4113 49.2371 40.5871 49.4129C40.7629 49.5887 41.0014 49.6875 41.25 49.6875H42.1875V52.5H32.8125V23.4375C32.9356 23.4376 33.0576 23.4135 33.1714 23.3663C33.2851 23.3192 33.3885 23.2501 33.4754 23.1629L37.8884 18.75H40.9496L46.875 22.9824V44.0625ZM40.3125 34.1858L38.4375 35.4357L36.5625 34.1858V31.875H40.3125V34.1858ZM19.6875 48.75V27.1875C19.6875 26.9388 19.5887 26.7004 19.4129 26.5246C19.2371 26.3487 18.9986 26.25 18.75 26.25C18.5014 26.25 18.2629 26.3487 18.0871 26.5246C17.9113 26.7004 17.8125 26.9388 17.8125 27.1875V44.0625H15V45.9375H17.8125V47.8125H13.125V22.9824L19.0504 18.75H22.1116L26.5246 23.1629C26.6115 23.2501 26.7149 23.3192 26.8286 23.3663C26.9424 23.4135 27.0644 23.4376 27.1875 23.4375V52.5H17.8125V49.6875H18.75C18.9986 49.6875 19.2371 49.5887 19.4129 49.4129C19.5887 49.2371 19.6875 48.9986 19.6875 48.75ZM25.3125 16.3258L28.6743 19.6875L27.1875 21.1741L23.8259 17.8125L25.3125 16.3258ZM29.0625 21.9508L30 21.0133L30.9375 21.9508V52.5H29.0625V21.9508ZM32.8125 21.1741L31.3257 19.6875L34.6875 16.3258L36.1741 17.8125L32.8125 21.1741ZM30 18.3616L27.5759 15.9375H32.4241L30 18.3616Z" fill="white"/>
</svg>
