<svg width="56" height="58" viewBox="0 0 56 58" fill="none" xmlns="http://www.w3.org/2000/svg">
<path d="M54.1875 27.125V35.5625L31.6875 31.8125L54.1875 27.125Z" fill="#FFD782"/>
<path d="M8.25015 26.1882C7.86775 26.1887 7.48926 26.1113 7.13781 25.9606C6.78635 25.8099 6.46932 25.5892 6.20608 25.3118C5.94284 25.0344 5.73893 24.7063 5.60681 24.3475C5.47468 23.9886 5.41712 23.6066 5.43765 23.2248C5.50289 22.4869 5.8462 21.8014 6.39803 21.3072C6.94986 20.8129 7.66892 20.547 8.40952 20.5632H12.0001L22.3126 24.3132L31.6876 31.8132L54.1876 35.5632V50.5632L26.0626 43.0632H19.5001L12.9376 39.3132C11.4198 38.4694 11.0626 37.2994 11.0626 35.5632H9.18765C8.69037 35.5632 8.21345 35.3657 7.86182 35.014C7.51019 34.6624 7.31265 34.1855 7.31265 33.6882C7.3117 33.3242 7.39599 32.965 7.55879 32.6394C7.72159 32.3138 7.95836 32.0309 8.25015 31.8132C7.50423 31.8132 6.78885 31.5169 6.26141 30.9894C5.73396 30.462 5.43765 29.7466 5.43765 29.0007C5.43765 28.2548 5.73396 27.5394 6.26141 27.012C6.78885 26.4845 7.50423 26.1882 8.25015 26.1882Z" fill="#FFD782"/>
<path d="M1.6872 5.5625C1.61877 5.5625 1.5597 5.54937 1.4922 5.54656L8.2497 20.5625H11.9997L22.3122 24.3125L25.1247 1.8125C21.2191 1.8125 20.5844 5.5625 16.6788 5.5625C12.7731 5.5625 13.0938 1.8125 9.1872 1.8125C5.28064 1.8125 5.59283 5.5625 1.6872 5.5625ZM26.0622 43.0625H19.4997L12.9372 39.3125C13.1671 41.8384 12.8872 44.3847 12.1142 46.8004C11.3411 49.216 10.0908 51.4518 8.4372 53.375C9.72908 54.4813 10.2991 56.1875 12.9372 56.1875C16.8428 56.1875 17.4775 52.4375 21.3831 52.4375C25.2888 52.4375 24.9681 56.1875 28.8747 56.1875C29.8777 56.2205 30.8585 55.8872 31.6338 55.25C31.2894 50.6531 29.3133 46.3306 26.0622 43.0625Z" fill="#96C3F0"/>
<path d="M37.3125 7.4375C37.5611 7.4375 37.7996 7.33873 37.9754 7.16291C38.1512 6.9871 38.25 6.74864 38.25 6.5C38.25 6.25136 38.1512 6.0129 37.9754 5.83709C37.7996 5.66127 37.5611 5.5625 37.3125 5.5625C36.3179 5.5625 35.3641 5.16741 34.6609 4.46415C33.9576 3.76089 33.5625 2.80706 33.5625 1.8125C33.5625 1.56386 33.4637 1.3254 33.2879 1.14959C33.1121 0.973772 32.8736 0.875 32.625 0.875C32.3764 0.875 32.1379 0.973772 31.9621 1.14959C31.7863 1.3254 31.6875 1.56386 31.6875 1.8125C31.6875 2.80706 31.2924 3.76089 30.5891 4.46415C29.8859 5.16741 28.9321 5.5625 27.9375 5.5625C27.6889 5.5625 27.4504 5.66127 27.2746 5.83709C27.0988 6.0129 27 6.25136 27 6.5C27 6.74864 27.0988 6.9871 27.2746 7.16291C27.4504 7.33873 27.6889 7.4375 27.9375 7.4375C28.9321 7.4375 29.8859 7.83259 30.5891 8.53585C31.2924 9.23911 31.6875 10.1929 31.6875 11.1875C31.6875 11.4361 31.7863 11.6746 31.9621 11.8504C32.1379 12.0262 32.3764 12.125 32.625 12.125C32.8736 12.125 33.1121 12.0262 33.2879 11.8504C33.4637 11.6746 33.5625 11.4361 33.5625 11.1875C33.5625 10.1929 33.9576 9.23911 34.6609 8.53585C35.3641 7.83259 36.3179 7.4375 37.3125 7.4375ZM32.625 8.08156C32.208 7.45461 31.6704 6.91697 31.0434 6.5C31.6704 6.08303 32.208 5.54539 32.625 4.91844C33.042 5.54539 33.5796 6.08303 34.2066 6.5C33.5796 6.91697 33.042 7.45461 32.625 8.08156ZM34.5 22.4375C35.4946 22.4375 36.4484 22.8326 37.1516 23.5359C37.8549 24.2391 38.25 25.1929 38.25 26.1875C38.25 26.4361 38.3488 26.6746 38.5246 26.8504C38.7004 27.0262 38.9389 27.125 39.1875 27.125C39.4361 27.125 39.6746 27.0262 39.8504 26.8504C40.0262 26.6746 40.125 26.4361 40.125 26.1875C40.125 25.1929 40.5201 24.2391 41.2234 23.5359C41.9266 22.8326 42.8804 22.4375 43.875 22.4375C44.1236 22.4375 44.3621 22.3387 44.5379 22.1629C44.7137 21.9871 44.8125 21.7486 44.8125 21.5C44.8125 21.2514 44.7137 21.0129 44.5379 20.8371C44.3621 20.6613 44.1236 20.5625 43.875 20.5625C42.8804 20.5625 41.9266 20.1674 41.2234 19.4641C40.5201 18.7609 40.125 17.8071 40.125 16.8125C40.125 16.5639 40.0262 16.3254 39.8504 16.1496C39.6746 15.9738 39.4361 15.875 39.1875 15.875C38.9389 15.875 38.7004 15.9738 38.5246 16.1496C38.3488 16.3254 38.25 16.5639 38.25 16.8125C38.25 17.8071 37.8549 18.7609 37.1516 19.4641C36.4484 20.1674 35.4946 20.5625 34.5 20.5625C34.2514 20.5625 34.0129 20.6613 33.8371 20.8371C33.6613 21.0129 33.5625 21.2514 33.5625 21.5C33.5625 21.7486 33.6613 21.9871 33.8371 22.1629C34.0129 22.3387 34.2514 22.4375 34.5 22.4375ZM39.1875 19.9184C39.6045 20.5454 40.1421 21.083 40.7691 21.5C40.1421 21.917 39.6045 22.4546 39.1875 23.0816C38.7705 22.4546 38.2329 21.917 37.6059 21.5C38.2329 21.083 38.7705 20.5454 39.1875 19.9184Z" fill="black"/>
<path d="M53.9997 26.2072L31.9319 30.8009L23.3116 23.9038L26.0584 1.925C26.0744 1.7931 26.0621 1.65931 26.0224 1.53251C25.9828 1.40571 25.9166 1.28879 25.8283 1.1895C25.74 1.09022 25.6316 1.01083 25.5103 0.956614C25.389 0.902394 25.2576 0.874576 25.1247 0.875005C23.3094 0.927961 21.5837 1.67602 20.3041 2.96469C19.357 3.96774 18.0569 4.56314 16.6788 4.625C16.0783 4.62355 15.4868 4.47898 14.9533 4.20328C14.4198 3.92758 13.9598 3.5287 13.6113 3.03969C13.087 2.3659 12.4158 1.8207 11.6489 1.44569C10.882 1.07067 10.0395 0.875727 9.18579 0.875727C8.33207 0.875727 7.48963 1.07067 6.72269 1.44569C5.95575 1.8207 5.28457 2.3659 4.76032 3.03969C4.41174 3.52774 3.95218 3.92598 3.41951 4.2016C2.88685 4.47722 2.29632 4.62234 1.69657 4.625C1.69657 4.625 1.54563 4.61188 1.51751 4.61094C1.35837 4.60374 1.20015 4.6386 1.05878 4.712C0.917399 4.7854 0.79786 4.89476 0.712196 5.02907C0.624106 5.16117 0.571011 5.31349 0.557893 5.47173C0.544774 5.62997 0.572062 5.78895 0.637197 5.93375L6.92501 19.9025C6.3467 20.1159 5.83062 20.47 5.42333 20.9327C5.01604 21.3954 4.73034 21.9523 4.59202 22.553C4.4537 23.1537 4.4671 23.7794 4.63102 24.3737C4.79494 24.9679 5.10421 25.512 5.53095 25.9569C5.60782 26.0375 5.68845 26.1153 5.77188 26.1884C5.30646 26.5991 4.95023 27.1188 4.73515 27.701C4.52007 28.2832 4.45287 28.9097 4.53956 29.5243C4.62626 30.1389 4.86415 30.7223 5.23189 31.2223C5.59963 31.7223 6.08572 32.1232 6.64657 32.3891C6.47377 32.8005 6.38148 33.2413 6.3747 33.6875C6.3747 34.4334 6.67101 35.1488 7.19846 35.6762C7.7259 36.2037 8.44128 36.5 9.1872 36.5H10.1631C10.1895 37.1632 10.3714 37.8108 10.6942 38.3907C11.017 38.9707 11.4715 39.4666 12.0213 39.8384C12.3263 44.5408 10.7849 49.1766 7.7247 52.76C7.56273 52.9486 7.48232 53.1938 7.50113 53.4417C7.51994 53.6896 7.63644 53.9199 7.82501 54.0819C8.11501 54.3438 8.3863 54.6258 8.63688 54.9256C9.12038 55.6147 9.76486 56.1753 10.5143 56.5586C11.2638 56.9419 12.0955 57.1363 12.9372 57.125C14.7525 57.072 16.4782 56.324 17.7578 55.0353C18.7049 54.0323 20.005 53.4369 21.3831 53.375C21.9836 53.3765 22.5751 53.521 23.1086 53.7967C23.642 54.0724 24.1021 54.4713 24.4506 54.9603C24.9744 55.6343 25.6453 56.1797 26.412 56.5549C27.1788 56.93 28.0211 57.125 28.8747 57.125C30.09 57.1573 31.2767 56.7532 32.2197 55.9859C32.3367 55.8922 32.4295 55.7718 32.4904 55.6347C32.5512 55.4977 32.5783 55.3481 32.5694 55.1984C32.2882 51.4155 30.9451 47.7887 28.6947 44.735L53.9453 51.4681C54.0842 51.5052 54.2297 51.5099 54.3706 51.4817C54.5116 51.4536 54.6441 51.3935 54.7581 51.3059C54.8721 51.2184 54.9645 51.1058 55.028 50.9769C55.0916 50.848 55.1247 50.7062 55.1247 50.5625V27.125C55.1246 26.986 55.0936 26.8489 55.0339 26.7234C54.9743 26.5978 54.8875 26.4872 54.7798 26.3993C54.6722 26.3115 54.5463 26.2487 54.4114 26.2155C54.2765 26.1822 54.1358 26.1794 53.9997 26.2072ZM2.89563 6.38188C4.16263 6.06879 5.29273 5.35051 6.11407 4.33625C6.46204 3.84597 6.92236 3.44615 7.45653 3.17023C7.99069 2.89432 8.58317 2.75034 9.18438 2.75034C9.7856 2.75034 10.3781 2.89432 10.9122 3.17023C11.4464 3.44615 11.9067 3.84597 12.2547 4.33625C12.7786 5.01009 13.4495 5.55531 14.2162 5.93031C14.983 6.30531 15.8252 6.50016 16.6788 6.5C18.4941 6.44724 20.2198 5.69915 21.4994 4.41032C22.2198 3.71146 23.0914 3.18765 24.0466 2.87938L21.5275 23.03L17.5309 21.5778C17.2304 18.8086 17.5622 16.0074 18.5013 13.385C18.9598 12.1346 19.5573 10.9396 20.2825 9.8225L18.7094 8.8025C17.9082 10.0374 17.2478 11.3581 16.7406 12.74C15.8042 15.3435 15.4136 18.1119 15.5931 20.8728L12.8341 19.8688L11.0528 9.15875L9.20407 9.46625L10.8934 19.625H8.85626L2.89563 6.38188ZM30.6559 54.7972C30.1175 55.1147 29.4995 55.2718 28.8747 55.25C28.2742 55.2485 27.6827 55.104 27.1492 54.8283C26.6158 54.5526 26.1557 54.1537 25.8072 53.6647C25.2834 52.9907 24.6125 52.4453 23.8458 52.0701C23.0791 51.695 22.2367 51.5 21.3831 51.5C19.5678 51.5528 17.842 52.3008 16.5625 53.5897C15.6154 54.5927 14.3153 55.1881 12.9372 55.25C12.3627 55.2615 11.7949 55.1245 11.2888 54.8521C10.7828 54.5798 10.3557 54.1815 10.0488 53.6956C9.93626 53.5662 9.82188 53.435 9.70282 53.3056C12.4543 49.7819 13.9477 45.4389 13.945 40.9681L15.7572 42.0041L14.8197 48.5544L16.6759 48.8206L17.5066 43.0081L18.8847 43.7956L23.4644 49.2922L24.9063 48.0903L21.5022 44H25.6506C28.4647 46.9482 30.2246 50.7444 30.6559 54.7972ZM53.2497 49.3438L26.3041 42.1569C26.2251 42.136 26.1439 42.1253 26.0622 42.125H19.7491L13.3919 38.4931C13.0112 38.3109 12.6864 38.0298 12.4514 37.6792C12.2164 37.3286 12.0799 36.9214 12.0559 36.5H14.8122V34.625H9.1872C8.93856 34.625 8.7001 34.5262 8.52428 34.3504C8.34847 34.1746 8.2497 33.9361 8.2497 33.6875C8.26204 33.347 8.38109 33.0191 8.59001 32.75H12.9372V30.875H8.2497C7.75242 30.875 7.2755 30.6775 6.92387 30.3258C6.57224 29.9742 6.3747 29.4973 6.3747 29C6.3747 28.5027 6.57224 28.0258 6.92387 27.6742C7.2755 27.3225 7.75242 27.125 8.2497 27.125H11.9997V25.25H8.2497C7.99471 25.2504 7.74233 25.1987 7.50798 25.0982C7.27364 24.9977 7.06225 24.8505 6.88675 24.6655C6.71125 24.4806 6.57532 24.2617 6.48728 24.0224C6.39924 23.7831 6.36093 23.5284 6.3747 23.2738C6.42808 22.7762 6.66725 22.3172 7.0444 21.9883C7.42156 21.6595 7.90891 21.4851 8.40907 21.5H11.8347L21.8434 25.1413L31.0975 32.5475C31.2233 32.6458 31.372 32.7103 31.5297 32.735L53.2497 36.3566V49.3438ZM53.2497 34.4563L36.7741 31.7103L53.2497 28.2772V34.4563Z" fill="black"/>
</svg>
