<svg width="60" height="60" viewBox="0 0 60 60" fill="none" xmlns="http://www.w3.org/2000/svg">
<g clip-path="url(#clip0_2_7875)">
<path d="M56.25 14.0625H59.0625V16.875H56.25V14.0625Z" fill="#FFD5C2"/>
<path d="M58.9687 50.5219C59.4187 52.6031 58.1437 54.5906 56.2125 55.1531C55.8656 55.2563 55.4906 55.3125 55.0969 55.3125H42.3937C41.8183 55.3135 41.2496 55.1881 40.728 54.9451C40.2063 54.7021 39.7444 54.3475 39.375 53.9062C38.6156 53.0156 38.25 51.7875 38.5219 50.5219L39.4969 45.9844L43.125 29.0625H54.375L56.25 37.8188L58.9687 50.5219ZM54.3562 50.7375C54.3562 50.7375 54.4031 50.6156 54.3562 50.4281C54.2156 49.875 50.3531 41.7094 51.4219 37.5844C51.7875 36.1875 52.8 34.8937 52.8 32.2594C52.8 32.025 51.2812 31.5844 51.0844 31.5375C50.4375 31.35 49.9875 31.0687 48.75 31.65C47.5125 31.0687 47.0719 31.35 46.4156 31.5375C46.2187 31.5844 44.7 32.0156 44.7 32.2594C44.6906 34.8656 45.4594 36.3844 45.75 37.5844C46.7625 41.85 43.3406 49.6781 43.1437 50.4281C43.1344 50.4844 43.0969 50.6156 43.1531 50.7375C43.1625 50.775 43.1812 50.8031 43.2 50.8313C43.3594 51.0469 43.6875 51.3656 44.2594 51.4125C44.3531 51.4219 44.4375 51.4688 44.4937 51.5437C44.7094 51.8438 45.3562 52.5281 46.4156 52.2094C47.325 51.9375 48.0937 52.2188 48.4781 52.4344C48.6562 52.5281 48.8531 52.5281 49.0219 52.4344C49.4156 52.2188 50.175 51.9375 51.0937 52.2094C52.1531 52.5281 52.7906 51.8438 53.0062 51.5437C53.0625 51.4688 53.1469 51.4219 53.2406 51.4125C53.8125 51.3656 54.1406 51.0469 54.3 50.8313C54.3281 50.8031 54.3375 50.775 54.3562 50.7375Z" fill="#E6E5ED"/>
<path d="M56.25 55.3125V59.0625H53.4375V55.3125H55.0969C55.4906 55.3125 55.8656 55.2563 56.2125 55.1531L56.25 55.3125ZM56.25 16.875V37.8188L54.375 29.0625H53.4375V11.25H56.25V14.0625V16.875Z" fill="#E6E5ED"/>
<path d="M54.3563 50.4281C54.4031 50.6156 54.3563 50.7375 54.3563 50.7375C54.3375 50.775 54.3281 50.8031 54.3 50.8313C54.1406 51.0469 53.8125 51.3656 53.2406 51.4125C53.1469 51.4219 53.0625 51.4688 53.0063 51.5438C52.7906 51.8438 52.1531 52.5281 51.0938 52.2094C50.175 51.9375 49.4156 52.2188 49.0219 52.4344C48.8531 52.5281 48.6563 52.5281 48.4781 52.4344C48.1665 52.2617 47.8236 52.1529 47.4695 52.1143C47.1154 52.0757 46.7571 52.108 46.4156 52.2094C45.3563 52.5281 44.7094 51.8438 44.4938 51.5438C44.466 51.5068 44.4307 51.476 44.3904 51.4534C44.35 51.4308 44.3054 51.4169 44.2594 51.4125C43.6875 51.3656 43.3594 51.0469 43.2 50.8313C43.1813 50.8031 43.1625 50.775 43.1531 50.7375C43.0969 50.6156 43.1344 50.4844 43.1438 50.4281C43.3406 49.6781 46.7625 41.85 45.75 37.5844C45.4594 36.3844 44.6906 34.8656 44.7 32.2594C44.7 32.0156 46.2188 31.5844 46.4156 31.5375C47.0719 31.35 47.5125 31.0687 48.75 31.65C49.9875 31.0687 50.4375 31.35 51.0844 31.5375C51.2813 31.5844 52.8 32.025 52.8 32.2594C52.8 34.8937 51.7875 36.1875 51.4219 37.5844C50.3531 41.7094 54.2156 49.875 54.3563 50.4281ZM53.4375 14.0625V16.875H42.1875C40.9219 16.875 40.5094 15.1687 40.3781 14.0625H53.4375Z" fill="#FFD5C2"/>
<path d="M50.925 26.0918L52.5 29.0637H48.75V27.1887C49.4719 27.1887 50.1 26.7762 50.4094 26.1762C50.5781 26.1949 50.7562 26.1668 50.925 26.0918Z" fill="#E6E5ED"/>
<path d="M52.0214 24.3673C52.2839 24.8923 52.0777 25.5298 51.5527 25.7923L51.0089 26.0642C50.9808 26.083 50.9527 26.0923 50.9245 26.0923C50.7558 26.1673 50.5777 26.1955 50.4089 26.1767C50.0245 26.1486 49.6589 25.9236 49.4714 25.558L48.8152 24.2548C48.6839 23.9923 48.6652 23.7017 48.7402 23.4392C48.8058 23.1861 48.9558 22.9611 49.1808 22.8017C49.2277 22.7642 49.2745 22.7361 49.3308 22.708L49.8652 22.4361C50.3902 22.1736 51.0277 22.3892 51.2902 22.9142L52.0214 24.3673Z" fill="#FFD5C2"/>
<path d="M48.7406 23.4375C48.6656 23.7 48.6844 23.9906 48.8156 24.2531L49.4719 25.5563C49.6594 25.9219 50.025 26.1469 50.4094 26.175C50.1 26.775 49.4719 27.1875 48.75 27.1875V29.0625L44.0625 22.5L42.1875 20.625V16.875H43.7813C45.1219 16.875 46.35 17.5875 47.025 18.7312L49.1812 22.8C48.9562 22.9594 48.8063 23.1844 48.7406 23.4375Z" fill="#E6E5ED"/>
<path d="M45.2437 4.54789C45.2437 4.54789 46.8 7.35102 45.2437 8.75727C45.2437 8.75727 44.6812 10.3135 43.125 10.3135V7.73539C40.125 7.03227 38.625 5.62602 38.625 5.62602C38.625 7.03227 35.625 7.73539 35.625 7.73539V10.3135C35.625 10.3135 32.8125 10.3041 32.8125 7.50102C32.8125 4.69789 33.5906 4.18227 33.5906 4.18227C33.5906 4.18227 33.5906 2.70102 36.6937 2.70102C36.6937 2.70102 40.5844 1.03227 41.3625 2.43852C41.3625 2.43852 46.0219 2.43852 45.2437 4.54789Z" fill="#666666"/>
<path d="M35.625 45.9844H30.9375L32.7 34.9781L33.525 29.8031L34.6875 22.5L36.5625 20.625H42.1875L44.0625 22.5L45.1125 29.0625H43.125L39.4969 45.9844H35.625Z" fill="#7D8BCA"/>
<path d="M43.125 55.3125V57.1875C43.125 57.7031 42.9187 58.1719 42.5719 58.5094C42.2344 58.8563 41.7656 59.0625 41.25 59.0625C40.2188 59.0625 39.375 58.2188 39.375 57.1875V53.9062C40.0969 54.7594 41.1656 55.3125 42.3938 55.3125H43.125ZM40.3594 13.9312C39.7147 14.1052 39.0353 14.1052 38.3906 13.9312C37.7531 13.7719 37.1812 13.4625 36.7219 13.0312C36.0469 12.3937 35.625 11.5125 35.625 10.5469V7.73438C35.625 7.73438 38.625 7.03125 38.625 5.625C38.625 5.625 40.125 7.03125 43.125 7.73438V10.5469C43.125 12.1687 41.9531 13.5281 40.3594 13.9312Z" fill="#FFD5C2"/>
<path d="M40.3781 14.0629C40.5094 15.1691 40.9219 16.8754 42.1875 16.8754V20.6254H36.5625V16.8754C37.8281 16.8754 38.2406 15.1691 38.3719 14.0629C38.3813 14.016 38.3813 13.9691 38.3906 13.9316C39.0353 14.1056 39.7147 14.1056 40.3594 13.9316C40.3687 13.9691 40.3687 14.016 40.3781 14.0629Z" fill="#E6E5ED"/>
<path d="M39.4969 45.9844L38.5219 50.5219C38.25 51.7875 38.6156 53.0156 39.375 53.9062V57.1875C39.375 57.7031 39.1687 58.1719 38.8219 58.5094C38.4844 58.8563 38.0156 59.0625 37.5 59.0625C36.4688 59.0625 35.625 58.2188 35.625 57.1875V45.9844H39.4969ZM21.0281 14.0625H38.3719C38.2406 15.1687 37.8281 16.875 36.5625 16.875H19.4062C20.4375 16.875 21.2812 16.0312 21.2812 15C21.2812 14.6625 21.1875 14.3344 21.0281 14.0625Z" fill="#FFD5C2"/>
<path d="M36.563 16.875V20.625L34.688 22.5L31.9973 26.8875C31.5286 27.6375 31.7536 28.6219 32.4848 29.1187L33.5255 29.8031L32.7005 34.9781L29.2692 29.8406C28.5567 28.7719 28.4255 27.4125 28.9223 26.2219L31.8473 19.1812C32.1342 18.498 32.6164 17.9147 33.2335 17.5044C33.8506 17.0941 34.5751 16.8752 35.3161 16.875H36.563ZM27.263 21.6375C27.5255 21.7687 27.638 22.0781 27.5255 22.35L26.8505 24.0375C26.6911 24.45 26.2692 24.6938 25.8286 24.6188L25.463 24.5531C25.3286 24.531 25.1911 24.5385 25.06 24.575C24.9288 24.6116 24.8073 24.6763 24.7037 24.7647C24.6002 24.853 24.5171 24.9629 24.4604 25.0867C24.4038 25.2105 24.3748 25.3451 24.3755 25.4813V32.8125C24.3755 33.3281 23.9536 33.75 23.438 33.75H15.938C15.6755 33.75 15.4505 33.6469 15.2723 33.4781C15.1036 33.3 15.0005 33.075 15.0005 32.8125V25.3125C15.0005 24.7969 14.5786 24.375 14.063 24.375H12.7973C12.4317 24.375 12.0942 24.1594 11.9442 23.8125L11.2973 22.35C11.1848 22.0781 11.2973 21.7687 11.5598 21.6375L15.1692 19.725C15.1786 19.725 15.1786 19.7156 15.188 19.7156C15.5536 19.5281 15.9848 19.5281 16.3505 19.725C16.8473 19.9781 18.3473 20.1562 19.4067 20.1562C20.4755 20.1562 21.9755 19.9781 22.4723 19.725C22.8473 19.5281 23.288 19.5281 23.6536 19.725L27.263 21.6375Z" fill="#E6E5ED"/>
<path d="M21.0281 14.0625C21.1875 14.3344 21.2813 14.6625 21.2813 15C21.2813 16.0312 20.4375 16.875 19.4063 16.875H10.9688C12 16.875 12.8438 16.0312 12.8438 15C12.8438 14.6625 12.75 14.3344 12.5906 14.0625H21.0281Z" fill="#FFD5C2"/>
<path d="M15.2715 33.4789L15.1872 33.6195C15.0465 33.7039 14.8872 33.7508 14.7184 33.7508H7.49967C7.18092 33.7508 6.89029 33.582 6.72154 33.3383C6.61591 33.1837 6.56028 33.0005 6.56217 32.8133V25.4445C6.56217 24.8727 6.06529 24.4414 5.50279 24.5164L4.52779 24.6383C4.23717 24.6758 3.95592 24.5727 3.74967 24.3758C3.66529 24.282 3.59029 24.1789 3.54342 24.057L2.84967 22.3508C2.73717 22.0789 2.85904 21.7695 3.11217 21.6383L3.74967 21.3008L6.56217 19.8102L6.72154 19.7258C7.09654 19.5289 7.53717 19.5289 7.91217 19.7258C8.39967 19.9789 9.89967 20.157 10.9684 20.157C12.0372 20.157 13.5372 19.9789 14.0247 19.7258C14.3903 19.5383 14.8215 19.5289 15.1872 19.7164C15.1778 19.7164 15.1778 19.7258 15.1684 19.7258L11.559 21.6383C11.2965 21.7695 11.184 22.0789 11.2965 22.3508L11.9434 23.8133C12.0934 24.1602 12.4309 24.3758 12.7965 24.3758H14.0622C14.5778 24.3758 14.9997 24.7977 14.9997 25.3133V32.8133C14.9997 33.0758 15.1028 33.3008 15.2715 33.4789Z" fill="#7D8BCA"/>
<path d="M12.5906 14.0625C12.75 14.3344 12.8438 14.6625 12.8438 15C12.8438 16.0312 12 16.875 10.9688 16.875H6.5625V14.0625H12.5906Z" fill="#FFD5C2"/>
<path d="M6.72188 33.3375L6.5625 33.4875V59.0625H3.75V24.375C3.95625 24.5719 4.2375 24.675 4.52812 24.6375L5.50312 24.5156C6.06562 24.4406 6.5625 24.8719 6.5625 25.4437V32.8125C6.5625 33.0094 6.61875 33.1875 6.72188 33.3375ZM6.5625 16.875V19.8094L3.75 21.3V11.25H6.5625V14.0625V16.875Z" fill="#E6E5ED"/>
<path d="M0.9375 14.0625H3.75V16.875H0.9375V14.0625Z" fill="#FFD5C2"/>
<path d="M52.7588 36.6426C53.1947 35.5851 53.7366 34.2698 53.7384 32.2617C53.7384 31.4554 53.0044 31.1085 51.3581 30.6351L51.0881 31.5332L50.8406 32.4379C51.3066 32.572 51.6347 32.6835 51.8484 32.766C51.7716 34.1179 51.3928 35.0367 51.0244 35.9282C50.8275 36.4063 50.6419 36.8573 50.5144 37.3467C49.6275 40.7601 51.6206 46.2323 53.1956 50.0507L53.355 50.4351C53.2943 50.4611 53.2296 50.4766 53.1638 50.481C52.9838 50.496 52.8091 50.5494 52.6514 50.6375C52.4937 50.7257 52.3568 50.8465 52.2497 50.992C51.8953 51.4767 51.4931 51.3548 51.3619 51.3145C50.4961 51.0569 49.5655 51.1304 48.7509 51.5207C48.2571 51.2866 47.7178 51.164 47.1713 51.1617C46.8506 51.1617 46.5047 51.2048 46.1391 51.3145C46.005 51.3538 45.6066 51.4748 45.2494 50.9901C45.1428 50.8454 45.0066 50.7252 44.8497 50.6376C44.6929 50.5499 44.5191 50.4969 44.34 50.482C44.3034 50.4782 44.2247 50.4717 44.1356 50.4276L44.3231 49.9279C45.2138 47.5542 47.58 41.2467 46.6575 37.3663C46.568 37.0112 46.4648 36.6597 46.3481 36.3126C46.0575 35.407 45.7031 34.3007 45.6459 32.7688C45.8484 32.691 46.17 32.5795 46.6688 32.437L46.9359 32.3563C47.3784 32.2167 47.6006 32.1454 48.3478 32.4998C48.4733 32.5595 48.6105 32.5905 48.7495 32.5905C48.8885 32.5905 49.0258 32.5595 49.1513 32.4998C49.8975 32.1454 50.1206 32.2157 50.5631 32.3563L50.8303 32.437L51.0853 31.5351L51.3441 30.6342L51.3403 30.6332L51.1256 30.5676C50.4572 30.3567 49.8066 30.2198 48.7481 30.6313C47.6869 30.2198 47.0391 30.3567 46.3706 30.5676L46.1344 30.6388C44.7038 31.0495 43.7653 31.3832 43.7616 32.2588C43.7503 34.3532 44.2191 35.8167 44.5613 36.8845C44.6681 37.2173 44.7656 37.5192 44.8331 37.8013C45.6234 41.1257 43.3228 47.256 42.5663 49.2707C42.4448 49.5799 42.3341 49.8932 42.2344 50.2101C42.1566 50.5195 42.1697 50.8129 42.2766 51.0923C42.3225 51.2067 42.3816 51.3117 42.4425 51.3895C42.7988 51.8751 43.3106 52.1957 43.9059 52.312C44.6175 53.1248 45.6338 53.422 46.6781 53.1107C47.1308 52.9798 47.6168 53.0323 48.0309 53.257C48.2515 53.3758 48.498 53.438 48.7485 53.4382C48.999 53.4384 49.2456 53.3764 49.4663 53.2579C49.7156 53.1248 50.2228 52.9298 50.82 53.1107C51.8634 53.4229 52.8834 53.1267 53.5922 52.312C54.1737 52.2043 54.6927 51.8799 55.0444 51.4045C55.1156 51.3107 55.1756 51.2057 55.2422 51.0332C55.29 50.886 55.3566 50.5832 55.2619 50.2035C55.2263 50.0601 55.1531 49.8801 54.9281 49.3354C54.0797 47.2785 51.4959 41.0188 52.3284 37.8182C52.425 37.4526 52.5797 37.0776 52.7588 36.6426Z" fill="#472B3C"/>
<path d="M59.0625 13.1258H57.1875V11.2508C57.1875 11.0022 57.0887 10.7637 56.9129 10.5879C56.7371 10.4121 56.4986 10.3133 56.25 10.3133H53.4375C53.1889 10.3133 52.9504 10.4121 52.7746 10.5879C52.5988 10.7637 52.5 11.0022 52.5 11.2508V13.1258H43.1822C43.6235 12.537 43.9057 11.8445 44.0016 11.1149C45.0703 10.7952 45.7387 9.94208 46.0378 9.2924C47.3616 7.90396 46.8619 5.74115 46.2422 4.43333C46.286 4.18646 46.2807 3.93339 46.2266 3.68856C46.1726 3.44373 46.0708 3.21195 45.9272 3.00646C45.09 1.80552 42.9225 1.55802 41.8078 1.51208C40.4916 0.313022 37.6453 1.29646 36.5044 1.76427C33.7219 1.81771 32.9484 3.03365 32.7347 3.72177C32.3466 4.20646 31.875 5.25927 31.875 7.50083C31.875 9.75083 33.3778 10.8168 34.7503 11.1336C34.8534 11.8696 35.1338 12.5483 35.5678 13.1258H21.4922C21.2307 12.832 20.9102 12.5966 20.5516 12.4351C20.1929 12.2735 19.8043 12.1894 19.4109 12.1883C19.1623 12.1883 18.9238 12.2871 18.748 12.4629C18.5722 12.6387 18.4734 12.8772 18.4734 13.1258H13.0547C12.7932 12.832 12.4727 12.5966 12.1141 12.4351C11.7554 12.2735 11.3668 12.1894 10.9734 12.1883C10.7248 12.1883 10.4863 12.2871 10.3105 12.4629C10.1347 12.6387 10.0359 12.8772 10.0359 13.1258H7.5V11.2508C7.5 11.0022 7.40123 10.7637 7.22541 10.5879C7.0496 10.4121 6.81114 10.3133 6.5625 10.3133H3.75C3.50136 10.3133 3.2629 10.4121 3.08709 10.5879C2.91127 10.7637 2.8125 11.0022 2.8125 11.2508V13.1258H0.9375C0.68886 13.1258 0.450403 13.2246 0.274587 13.4004C0.0987721 13.5762 0 13.8147 0 14.0633L0 16.8758C0 17.1245 0.0987721 17.3629 0.274587 17.5387C0.450403 17.7146 0.68886 17.8133 0.9375 17.8133H2.8125V20.7393L2.68594 20.8058C2.35518 20.9785 2.10031 21.2678 1.97075 21.6177C1.84118 21.9676 1.84615 22.3531 1.98469 22.6996L2.66906 24.4077C2.70937 24.5071 2.75813 24.6027 2.8125 24.6918V59.0633C2.8125 59.312 2.91127 59.5504 3.08709 59.7262C3.2629 59.9021 3.50136 60.0008 3.75 60.0008H6.5625C6.81114 60.0008 7.0496 59.9021 7.22541 59.7262C7.40123 59.5504 7.5 59.312 7.5 59.0633V34.6883H14.7234C14.9278 34.6883 15.1275 34.6424 15.3206 34.5758C15.5147 34.6443 15.72 34.6883 15.9375 34.6883H23.4375C24.4716 34.6883 25.3125 33.8474 25.3125 32.8133V25.4821L25.6763 25.5421C26.0981 25.6116 26.531 25.5352 26.9035 25.3256C27.2761 25.1159 27.5661 24.7856 27.7256 24.389L28.4006 22.7024C28.5395 22.3562 28.5453 21.9708 28.4169 21.6206C28.2884 21.2704 28.0348 20.9801 27.705 20.8058L24.0938 18.8961C23.7769 18.7287 23.4239 18.641 23.0655 18.6407C22.7071 18.6404 22.3541 18.7274 22.0369 18.8943C21.8475 18.9899 21.1528 19.1174 20.3484 19.1811V17.8133H30C30.2486 17.8133 30.4871 17.7146 30.6629 17.5387C30.8387 17.3629 30.9375 17.1245 30.9375 16.8758C30.9375 16.6272 30.8387 16.3887 30.6629 16.2129C30.4871 16.0371 30.2486 15.9383 30 15.9383H22.0584C22.1665 15.6375 22.2223 15.3205 22.2234 15.0008H37.2291C37.0519 15.5811 36.8119 15.9383 36.5625 15.9383H35.3156C34.3893 15.9384 33.4837 16.2121 32.7124 16.7252C31.9411 17.2383 31.3387 17.9678 30.9806 18.8221L28.0566 25.8618C27.7521 26.5893 27.6322 27.3809 27.7076 28.166C27.783 28.9512 28.0513 29.7054 28.4888 30.3618L31.7128 35.188L30.0122 45.8371C29.9907 45.9711 29.9986 46.1081 30.0353 46.2387C30.072 46.3694 30.1367 46.4905 30.2247 46.5937C30.3128 46.6969 30.4222 46.7798 30.5454 46.8366C30.6687 46.8934 30.8027 46.9228 30.9384 46.9227H34.6884V57.1883C34.6884 58.739 35.9503 60.0008 37.5009 60.0008C38.2153 60.0008 38.8753 59.7318 39.3741 59.2677C39.886 59.7375 40.5551 59.999 41.25 60.0008C41.6173 60.0039 41.9815 59.9331 42.3209 59.7924C42.6602 59.6518 42.9678 59.4444 43.2253 59.1824C43.4922 58.9237 43.704 58.6137 43.8479 58.271C43.9918 57.9283 44.0648 57.56 44.0625 57.1883V56.2508H52.5V59.0633C52.5 59.312 52.5988 59.5504 52.7746 59.7262C52.9504 59.9021 53.1889 60.0008 53.4375 60.0008H56.25C56.4986 60.0008 56.7371 59.9021 56.9129 59.7262C57.0887 59.5504 57.1875 59.312 57.1875 59.0633V55.784C57.8579 55.4683 58.4477 55.0045 58.9125 54.4274C59.3717 53.8606 59.6976 53.1977 59.8661 52.4879C60.0345 51.7781 60.0412 51.0395 59.8856 50.3268L57.1838 37.7043C57.1838 37.6968 57.1884 37.6911 57.1884 37.6836V17.8133H59.0634C59.3121 17.8133 59.5505 17.7146 59.7263 17.5387C59.9022 17.3629 60.0009 17.1245 60.0009 16.8758V14.0633C60 13.5458 59.5809 13.1258 59.0625 13.1258ZM11.9109 15.0008C11.9109 15.5174 11.4909 15.9383 10.9734 15.9383H7.5V15.0008H11.9109ZM7.5 17.8133H10.0359V19.1802C9.23719 19.1165 8.53594 18.9871 8.35312 18.8961C8.08731 18.7621 7.7971 18.6833 7.5 18.6646V17.8133ZM1.875 15.9383V15.0008H2.8125V15.9383H1.875ZM4.6875 12.1883H5.625V19.2486L4.6875 19.7455V12.1883ZM5.625 58.1258H4.6875V25.5636L5.625 25.4418V32.8133C5.625 33.0515 5.67375 33.2783 5.75531 33.4883H5.625V58.1258ZM18.4734 19.1802C17.6681 19.1165 16.9734 18.989 16.7841 18.8933C16.4667 18.7269 16.1137 18.6401 15.7554 18.6405C15.3971 18.6408 15.0442 18.7282 14.7272 18.8952L12.7284 19.9527C12.5086 20.0691 12.3441 20.268 12.2709 20.5057C12.1978 20.7434 12.2221 21.0004 12.3384 21.2202C12.4548 21.44 12.6537 21.6046 12.8914 21.6777C13.1291 21.7509 13.3861 21.7266 13.6059 21.6102L15.6047 20.5527C15.6527 20.5274 15.7063 20.5143 15.7605 20.5146C15.8148 20.515 15.8682 20.5287 15.9159 20.5546C16.6678 20.9474 18.4584 21.0936 19.4119 21.0936C20.3644 21.0936 22.155 20.9474 22.9059 20.5546C22.9538 20.5287 23.0074 20.515 23.0618 20.5146C23.1162 20.5143 23.1699 20.5274 23.2181 20.5527L26.5378 22.3105L25.9847 23.6933L25.6209 23.6333C25.3524 23.5885 25.0773 23.6027 24.8148 23.6751C24.5524 23.7475 24.3089 23.8762 24.1012 24.0524C23.6794 24.4086 23.4375 24.9299 23.4375 25.4821V32.8133H15.9375V25.3133C15.9375 24.2793 15.0966 23.4383 14.0625 23.4383H12.7969L12.2653 22.2365C12.1647 22.0092 11.978 21.8312 11.7462 21.7416C11.5144 21.6521 11.2565 21.6582 11.0292 21.7588C10.802 21.8594 10.624 22.0461 10.5344 22.2779C10.4448 22.5097 10.451 22.7676 10.5516 22.9949L11.0831 24.1968C11.2299 24.5289 11.47 24.8112 11.7742 25.0095C12.0785 25.2077 12.4338 25.3133 12.7969 25.3133H14.0625V32.8133H7.5V25.4427C7.49994 25.1762 7.44306 24.9127 7.33314 24.6699C7.22323 24.4271 7.0628 24.2105 6.86257 24.0345C6.66233 23.8586 6.42689 23.7274 6.17194 23.6496C5.91699 23.5719 5.64839 23.5494 5.38406 23.5836L4.40906 23.7102L3.84844 22.3124L7.16156 20.5565C7.21127 20.5296 7.26691 20.5156 7.3234 20.5158C7.3799 20.516 7.43545 20.5303 7.485 20.5574C8.23781 20.9483 10.0238 21.0946 10.9734 21.0946C11.2221 21.0946 11.4605 20.9958 11.6363 20.82C11.8122 20.6442 11.9109 20.4057 11.9109 20.1571V17.8133H18.4734V19.1802ZM19.4109 15.9383H13.6209C13.729 15.6375 13.7848 15.3205 13.7859 15.0008H20.3484C20.3484 15.5174 19.9284 15.9383 19.4109 15.9383ZM52.5 15.9383H42.1875C41.9381 15.9383 41.6981 15.5811 41.5209 15.0008H52.5V15.9383ZM46.1963 19.1708L48.0188 22.6105C46.8253 22.9377 45.9375 24.0233 45.9375 25.3133C45.9375 25.562 46.0363 25.8004 46.2121 25.9762C46.3879 26.1521 46.6264 26.2508 46.875 26.2508C47.1236 26.2508 47.3621 26.1521 47.5379 25.9762C47.7137 25.8004 47.8125 25.562 47.8125 25.3133C47.8125 25.0949 47.8969 24.9055 48.0188 24.748L48.6347 25.9743C48.6853 26.0746 48.7575 26.1533 48.8213 26.2415C48.7969 26.2433 48.7744 26.2508 48.75 26.2508C48.5014 26.2508 48.2629 26.3496 48.0871 26.5254C47.9113 26.7012 47.8125 26.9397 47.8125 27.1883V28.1258H45.9122L44.9888 22.3527C44.9578 22.1577 44.8659 21.9776 44.7262 21.838L43.125 20.2377V17.8133H43.7812C44.7769 17.8133 45.7106 18.3477 46.1963 19.1708ZM51.1322 24.9515L50.5894 25.2252C50.5399 25.2495 50.483 25.2533 50.4307 25.236C50.3784 25.2186 50.3351 25.1814 50.31 25.1324L49.6556 23.8283C49.6311 23.7791 49.6269 23.7221 49.6441 23.6698C49.6613 23.6175 49.6985 23.574 49.7475 23.549L50.2903 23.2761C50.3045 23.2688 50.32 23.2643 50.3359 23.263C50.3519 23.2617 50.3679 23.2635 50.3831 23.2685C50.3983 23.2735 50.4124 23.2815 50.4244 23.292C50.4365 23.3024 50.4464 23.3152 50.4534 23.3296L51.1856 24.7865C51.1931 24.8008 51.1976 24.8164 51.1989 24.8325C51.2002 24.8486 51.1984 24.8648 51.1934 24.8801C51.1884 24.8955 51.1804 24.9097 51.1699 24.9219C51.1594 24.9342 51.1466 24.9442 51.1322 24.9515ZM37.5 17.6061C38.1459 17.3015 38.8219 16.5777 39.1678 14.9811C39.2381 14.984 39.3037 15.0008 39.375 15.0008C39.4463 15.0008 39.5119 14.984 39.5822 14.9811C39.9281 16.5777 40.6041 17.3015 41.25 17.6061V19.6883H37.5V17.6061ZM36.5625 8.44208C37.2919 8.20208 38.3353 7.75865 38.9794 7.04333C39.6806 7.48583 40.7513 8.04177 42.1875 8.45802V10.5477C42.1875 11.9699 40.9256 13.1258 39.375 13.1258C37.8244 13.1258 36.5625 11.9699 36.5625 10.5477V8.44208ZM33.75 7.50083C33.75 5.63802 34.1156 5.01458 34.1916 4.90396C34.4025 4.74177 34.5225 4.5449 34.5225 4.26552C34.5628 4.1024 35.0484 3.63552 36.6984 3.63552C36.8259 3.63552 36.9516 3.61021 37.0678 3.55958C38.5978 2.90427 40.2628 2.65208 40.5412 2.89208C40.7062 3.19021 41.0203 3.3749 41.3606 3.37583C42.8456 3.37865 44.2706 3.76958 44.3962 4.0874C44.3962 4.0874 44.4019 4.12583 44.3672 4.21958C44.2734 4.47365 44.2959 4.75865 44.4253 4.99583C44.7328 5.55833 45.4275 7.3274 44.6184 8.05958C44.5097 8.15708 44.4216 8.29021 44.3681 8.42615C44.3494 8.47396 44.2537 8.70271 44.0625 8.92302V7.73521C44.0626 7.5238 43.9913 7.31856 43.8601 7.1528C43.7289 6.98704 43.5455 6.8705 43.3397 6.82208C40.6547 6.19302 39.2766 4.95083 39.2663 4.94146C39.1325 4.81722 38.9655 4.73464 38.7856 4.70379C38.6057 4.67295 38.4207 4.69518 38.2533 4.76778C38.0858 4.84037 37.9431 4.96019 37.8426 5.11257C37.7421 5.26495 37.6882 5.44331 37.6875 5.62583C37.6875 5.91271 36.5831 6.54458 35.4094 6.82302C35.2039 6.87158 35.0209 6.98806 34.8899 7.15361C34.7588 7.31917 34.6875 7.52409 34.6875 7.73521V9.15833C34.2141 8.9324 33.75 8.47208 33.75 7.50083ZM30.0487 29.3211C29.7826 28.9217 29.6195 28.4625 29.5741 27.9847C29.5286 27.5069 29.6021 27.0252 29.7881 26.5827L32.7103 19.5477C32.9255 19.0341 33.2875 18.5956 33.751 18.287C34.2145 17.9785 34.7588 17.8137 35.3156 17.8133H35.625V20.2377L34.0247 21.838C33.885 21.9776 33.7931 22.1577 33.7622 22.3527L32.1478 32.4627L30.0487 29.3211ZM35.5659 22.949L36.9506 21.5633H41.7994L43.185 22.949L44.0128 28.1258H43.125C42.9105 28.1258 42.7025 28.1993 42.5356 28.334C42.3688 28.4688 42.2532 28.6567 42.2081 28.8665L38.7375 45.0477H32.0363L35.5659 22.949ZM38.1497 57.8568C38.065 57.943 37.9639 58.0112 37.8522 58.0575C37.7406 58.1037 37.6208 58.1269 37.5 58.1258C37.2514 58.1258 37.0129 58.0271 36.8371 57.8512C36.6613 57.6754 36.5625 57.437 36.5625 57.1883V46.9227H38.3353L37.605 50.3277C37.4617 50.9995 37.4618 51.694 37.6054 52.3658C37.7491 53.0375 38.0329 53.6714 38.4384 54.2258V57.1883C38.4383 57.3135 38.4126 57.4374 38.363 57.5523C38.3133 57.6672 38.2407 57.7708 38.1497 57.8568ZM41.8997 57.8568C41.815 57.943 41.7139 58.0112 41.6022 58.0575C41.4906 58.1037 41.3708 58.1269 41.25 58.1258C41.0014 58.1258 40.7629 58.0271 40.5871 57.8512C40.4113 57.6754 40.3125 57.437 40.3125 57.1883V55.7868C40.8937 56.0596 41.5294 56.2115 42.1875 56.2386V57.1883C42.1877 57.3135 42.1623 57.4374 42.1128 57.5524C42.0633 57.6673 41.9908 57.7709 41.8997 57.8568ZM55.3125 58.1258H54.375V56.2508H55.0969C55.17 56.2508 55.2403 56.2424 55.3125 56.2386V58.1258ZM57.4528 53.2499C57.1696 53.6022 56.8109 53.8862 56.4031 54.0811C55.9953 54.276 55.5489 54.3768 55.0969 54.3758H42.3938C41.9438 54.3767 41.4994 54.2765 41.0933 54.0828C40.6871 53.8891 40.3297 53.6067 40.0472 53.2565C39.7625 52.906 39.5601 52.4962 39.4548 52.0571C39.3495 51.6181 39.344 51.161 39.4388 50.7196L43.8834 30.0008H53.6175L58.0528 50.7215C58.1488 51.1609 58.1448 51.6164 58.0409 52.054C57.937 52.4917 57.736 52.9004 57.4528 53.2499ZM55.2919 28.8674C55.247 28.6575 55.1315 28.4694 54.9646 28.3344C54.7978 28.1994 54.5896 28.1258 54.375 28.1258H49.6875V27.9665C50.1811 27.7916 50.6152 27.481 50.94 27.0702C51.1069 27.0336 51.2719 26.9793 51.4313 26.8996L51.9741 26.6268C52.4466 26.3884 52.8054 25.9725 52.9718 25.4701C53.1383 24.9677 53.0987 24.4198 52.8619 23.9465L52.1287 22.4877C51.9004 22.0385 51.5107 21.6923 51.0378 21.5184C50.5648 21.3446 50.0437 21.3559 49.5788 21.5502L47.8322 18.2558C47.7398 18.1029 47.639 17.9551 47.5303 17.8133H52.5V21.4227C52.5 21.6714 52.5988 21.9098 52.7746 22.0856C52.9504 22.2614 53.1889 22.3602 53.4375 22.3602C53.6861 22.3602 53.9246 22.2614 54.1004 22.0856C54.2762 21.9098 54.375 21.6714 54.375 21.4227V12.1883H55.3125V28.9649L55.2919 28.8674ZM58.125 15.9383H57.1875V15.0008H58.125V15.9383Z" fill="#472B3C"/>
</g>
<defs>
<clipPath id="clip0_2_7875">
<rect width="60" height="60" fill="white"/>
</clipPath>
</defs>
</svg>
