<svg width="60" height="60" viewBox="0 0 60 60" fill="none" xmlns="http://www.w3.org/2000/svg">
<g clip-path="url(#clip0_2_10610)">
<path d="M51.778 56.7375H8.22178C6.2249 56.7375 4.60303 55.1156 4.60303 53.1188V3.61875C4.60303 1.62187 6.2249 0 8.22178 0H51.7874C53.7843 0 55.4062 1.62187 55.4062 3.61875V53.1188C55.3968 55.1156 53.7749 56.7375 51.778 56.7375ZM8.22178 1.81875C7.22803 1.81875 6.42178 2.625 6.42178 3.61875V53.1188C6.42178 54.1125 7.22803 54.9188 8.22178 54.9188H51.7874C52.7812 54.9188 53.5874 54.1125 53.5874 53.1188V3.61875C53.5874 2.625 52.7812 1.81875 51.7874 1.81875H8.22178Z" fill="#8CC63F"/>
<path d="M29.9999 48.3094C21.6093 48.3094 14.7749 41.4844 14.7749 33.0844C14.7749 24.6938 21.5999 17.8594 29.9999 17.8594C38.3905 17.8594 45.2249 24.6844 45.2249 33.0844C45.2249 41.475 38.3905 48.3094 29.9999 48.3094ZM29.9999 19.6781C22.6124 19.6781 16.5937 25.6875 16.5937 33.0844C16.5937 40.4719 22.603 46.4906 29.9999 46.4906C37.3968 46.4906 43.4062 40.4813 43.4062 33.0844C43.4062 25.6969 37.3874 19.6781 29.9999 19.6781Z" fill="#8CC63F"/>
<path d="M30 42.468C24.8156 42.468 20.6062 38.2586 20.6062 33.0836C20.6062 27.9086 24.825 23.6992 30 23.6992C33.075 23.6992 35.9531 25.2086 37.7156 27.7398C38.0062 28.1523 37.9031 28.7148 37.4906 29.0055C37.0781 29.2961 36.5156 29.193 36.225 28.7805C34.8 26.7367 32.475 25.518 30 25.518C25.8187 25.518 22.425 28.9117 22.425 33.0836C22.425 37.2555 25.8281 40.6492 30 40.6492C32.475 40.6492 34.8 39.4305 36.225 37.3867C36.5156 36.9742 37.0781 36.8711 37.4906 37.1617C37.9031 37.4523 38.0062 38.0148 37.7156 38.4273C35.9531 40.9586 33.075 42.468 30 42.468Z" fill="#8CC63F"/>
<path d="M41.7374 42.1682C41.6624 42.1682 41.578 42.1589 41.503 42.1401C37.4062 41.062 34.5562 37.3307 34.5562 33.0839C34.5562 28.837 37.4155 25.1057 41.503 24.0276C41.9905 23.8964 42.4874 24.187 42.6187 24.6745C42.7499 25.162 42.4593 25.6589 41.9718 25.7901C38.6718 26.662 36.3749 29.662 36.3749 33.0932C36.3749 36.5245 38.6812 39.5245 41.9718 40.3964C42.4593 40.5276 42.7499 41.0245 42.6187 41.512C42.5062 41.9057 42.1405 42.1682 41.7374 42.1682Z" fill="#8CC63F"/>
<path d="M54.4874 13.059H5.5124C5.00615 13.059 4.60303 12.6559 4.60303 12.1496C4.60303 11.6434 5.00615 11.2402 5.5124 11.2402H54.4968C55.003 11.2402 55.4062 11.6434 55.4062 12.1496C55.3968 12.6465 54.9937 13.059 54.4874 13.059Z" fill="#8CC63F"/>
<path d="M20.6718 13.0594C20.1656 13.0594 19.7625 12.6563 19.7625 12.15V0.909375C19.7625 0.403125 20.1656 0 20.6718 0C21.1781 0 21.5812 0.403125 21.5812 0.909375V12.15C21.5812 12.6469 21.1781 13.0594 20.6718 13.0594Z" fill="#8CC63F"/>
<path d="M15.2904 9.00078H10.8842C9.5248 9.00078 8.40918 7.89453 8.40918 6.52578C8.40918 5.16641 9.51543 4.05078 10.8842 4.05078H15.2904C16.6498 4.05078 17.7654 5.15703 17.7654 6.52578C17.7654 7.89453 16.6592 9.00078 15.2904 9.00078ZM10.8842 5.87891C10.5186 5.87891 10.2279 6.16953 10.2279 6.53516C10.2279 6.89141 10.5186 7.19141 10.8842 7.19141H15.2904C15.6561 7.19141 15.9467 6.90078 15.9467 6.53516C15.9467 6.16953 15.6561 5.87891 15.2904 5.87891H10.8842Z" fill="#8CC63F"/>
<path d="M47.9154 9.00078C46.5561 9.00078 45.4404 7.89453 45.4404 6.52578C45.4404 5.16641 46.5467 4.05078 47.9154 4.05078C49.2748 4.05078 50.3904 5.15703 50.3904 6.52578C50.3904 7.89453 49.2842 9.00078 47.9154 9.00078ZM47.9154 5.87891C47.5592 5.87891 47.2592 6.16953 47.2592 6.53516C47.2592 6.89141 47.5498 7.19141 47.9154 7.19141C48.2811 7.19141 48.5717 6.90078 48.5717 6.53516C48.5717 6.16953 48.2811 5.87891 47.9154 5.87891Z" fill="#8CC63F"/>
<path d="M40.4906 9.00078C39.1312 9.00078 38.0156 7.89453 38.0156 6.52578C38.0156 5.16641 39.1219 4.05078 40.4906 4.05078C41.85 4.05078 42.9656 5.15703 42.9656 6.52578C42.9656 7.89453 41.8594 9.00078 40.4906 9.00078ZM40.4906 5.87891C40.1344 5.87891 39.8344 6.16953 39.8344 6.53516C39.8344 6.89141 40.125 7.19141 40.4906 7.19141C40.8469 7.19141 41.1469 6.90078 41.1469 6.53516C41.1469 6.16953 40.8562 5.87891 40.4906 5.87891Z" fill="#8CC63F"/>
<path d="M33.0749 9.00078C31.7155 9.00078 30.5999 7.89453 30.5999 6.52578C30.5999 5.16641 31.7061 4.05078 33.0749 4.05078C34.4342 4.05078 35.5499 5.15703 35.5499 6.52578C35.5405 7.89453 34.4342 9.00078 33.0749 9.00078ZM33.0749 5.87891C32.7186 5.87891 32.4186 6.16953 32.4186 6.53516C32.4186 6.89141 32.7092 7.19141 33.0749 7.19141C33.4311 7.19141 33.7311 6.90078 33.7311 6.53516C33.7217 6.16953 33.4311 5.87891 33.0749 5.87891Z" fill="#8CC63F"/>
<path d="M15.2248 59.9992H10.1623C9.65605 59.9992 9.25293 59.5961 9.25293 59.0898V55.8273C9.25293 55.3211 9.65605 54.918 10.1623 54.918C10.6686 54.918 11.0717 55.3211 11.0717 55.8273V58.1805H14.3154V55.8273C14.3154 55.3211 14.7186 54.918 15.2248 54.918C15.7311 54.918 16.1342 55.3211 16.1342 55.8273V59.0898C16.1342 59.5961 15.7311 59.9992 15.2248 59.9992Z" fill="#8CC63F"/>
<path d="M49.8374 59.9992H44.7749C44.2686 59.9992 43.8655 59.5961 43.8655 59.0898V55.8273C43.8655 55.3211 44.2686 54.918 44.7749 54.918C45.2811 54.918 45.6842 55.3211 45.6842 55.8273V58.1805H48.928V55.8273C48.928 55.3211 49.3311 54.918 49.8374 54.918C50.3436 54.918 50.7467 55.3211 50.7467 55.8273V59.0898C50.7467 59.5961 50.3342 59.9992 49.8374 59.9992Z" fill="#8CC63F"/>
</g>
<defs>
<clipPath id="clip0_2_10610">
<rect width="60" height="60" fill="white"/>
</clipPath>
</defs>
</svg>
