<svg width="58" height="58" viewBox="0 0 58 58" fill="none" xmlns="http://www.w3.org/2000/svg">
<path d="M14 26.1875V13.0625H42.125V26.1875H14Z" fill="#BDFDFF"/>
<path d="M38.375 13.0625H42.125V26.1875H38.375V13.0625Z" fill="#46F8FF"/>
<path d="M56.1875 7.4375L51.8844 8.75937L50.5625 13.0625L49.2406 8.75937L44.9375 7.4375L49.2406 6.11563L50.5625 1.8125L51.8844 6.11563L56.1875 7.4375ZM56.1875 27.125L51.8844 28.4469L50.5625 32.75L49.2406 28.4469L44.9375 27.125L49.2406 25.8031L50.5625 21.5L51.8844 25.8031L56.1875 27.125Z" fill="#FFCD00"/>
<path d="M24.1534 32.1128L18.2284 26.1878L18.2096 26.169C17.8578 25.8172 17.6602 25.34 17.6602 24.8424C17.6602 24.3449 17.8578 23.8677 18.2096 23.5159C18.5615 23.1641 19.0386 22.9664 19.5362 22.9664C20.0338 22.9664 20.5109 23.1641 20.8628 23.5159L18.8753 21.5284C18.5268 21.1748 18.3315 20.6983 18.3315 20.2018C18.3315 19.7054 18.5268 19.2289 18.8753 18.8753C19.0494 18.7009 19.2562 18.5626 19.4838 18.4683C19.7114 18.3739 19.9554 18.3253 20.2018 18.3253C20.4482 18.3253 20.6922 18.3739 20.9198 18.4683C21.1475 18.5626 21.3542 18.7009 21.5284 18.8753L23.5159 20.8628C23.1641 20.5109 22.9664 20.0338 22.9664 19.5362C22.9664 19.0386 23.1641 18.5615 23.5159 18.2096C23.8677 17.8578 24.3449 17.6602 24.8424 17.6602C25.34 17.6602 25.8172 17.8578 26.169 18.2096L28.8221 20.8628C28.4703 20.5109 28.2727 20.0338 28.2727 19.5362C28.2727 19.0386 28.4703 18.5615 28.8221 18.2096C29.174 17.8578 29.6511 17.6602 30.1487 17.6602C30.6463 17.6602 31.1234 17.8578 31.4753 18.2096L39.4534 26.1878L42.744 29.4784L46.0534 36.7721L56.0003 46.719L46.719 56.0003L36.7721 46.0534L29.4784 42.744L26.1878 39.4534L21.5284 34.7846C21.2016 34.4309 21.0235 33.965 21.0309 33.4835C21.0383 33.002 21.2306 32.5418 21.5681 32.1983C21.9056 31.8548 22.3623 31.6543 22.8437 31.6383C23.325 31.6224 23.7939 31.7923 24.1534 32.1128Z" fill="#FFC477"/>
<path d="M56 46.7194L54.5938 48.1257L44.1781 37.7101L40.8688 30.4163L37.5781 27.1257L29.6 19.1476C29.3074 18.8546 28.924 18.6695 28.5125 18.6226C28.5932 18.4696 28.6977 18.3304 28.8219 18.2101C28.996 18.0357 29.2028 17.8974 29.4304 17.8031C29.6581 17.7087 29.902 17.6602 30.1484 17.6602C30.3949 17.6602 30.6388 17.7087 30.8665 17.8031C31.0941 17.8974 31.3009 18.0357 31.475 18.2101L39.4531 26.1882L42.7438 29.4788L46.0531 36.7726L56 46.7194Z" fill="#FFA733"/>
<path d="M26.1875 39.4531V56.1875H13.0625V33.6875L10.25 26.1875V10.25C10.2515 9.75318 10.4495 9.27712 10.8008 8.92581C11.1521 8.5745 11.6282 8.37648 12.125 8.375C12.6211 8.37868 13.0959 8.5774 13.4468 8.92824C13.7976 9.27908 13.9963 9.75386 14 10.25V26.1875H18.2281L24.1531 32.1125C23.7937 31.792 23.3247 31.6222 22.8434 31.6381C22.3621 31.654 21.9054 31.8545 21.5679 32.198C21.2304 32.5415 21.038 33.0017 21.0306 33.4832C21.0232 33.9647 21.2013 34.4306 21.5281 34.7844L26.1875 39.4531ZM25.25 6.5V13.0625H21.5V6.5C21.5015 6.00318 21.6995 5.52712 22.0508 5.17581C22.4021 4.8245 22.8782 4.62648 23.375 4.625C23.8711 4.62868 24.3459 4.82741 24.6968 5.17824C25.0476 5.52908 25.2463 6.00386 25.25 6.5ZM21.5 6.5V13.0625H17.75V3.6875C17.7515 3.19068 17.9495 2.71462 18.3008 2.36331C18.6521 2.012 19.1282 1.81398 19.625 1.8125C20.1211 1.81618 20.5959 2.01491 20.9468 2.36574C21.2976 2.71658 21.4963 3.19136 21.5 3.6875V6.5Z" fill="#FFC477"/>
<path d="M17.75 6.5V13.0625H14V6.5C14.0015 6.00318 14.1995 5.52712 14.5508 5.17581C14.9021 4.8245 15.3782 4.62648 15.875 4.625C16.3711 4.62868 16.8459 4.82741 17.1968 5.17824C17.5476 5.52908 17.7463 6.00386 17.75 6.5Z" fill="#FFC477"/>
<path d="M56.6656 46.0531L46.8406 36.2281L43.5969 29.0937C43.5488 28.9912 43.4856 28.8964 43.4094 28.8125L41.7125 27.125H42.125C42.3736 27.125 42.6121 27.0262 42.7879 26.8504C42.9637 26.6746 43.0625 26.4361 43.0625 26.1875V13.0625C43.0625 12.8139 42.9637 12.5754 42.7879 12.3996C42.6121 12.2238 42.3736 12.125 42.125 12.125H26.1875V6.5C26.1905 6.04923 26.0844 5.60441 25.8783 5.20353C25.6721 4.80266 25.372 4.45762 25.0036 4.19787C24.6352 3.93813 24.2093 3.7714 23.7625 3.71191C23.3157 3.65242 22.8611 3.70194 22.4375 3.85625V3.6875C22.4375 2.94158 22.1412 2.22621 21.6137 1.69876C21.0863 1.17132 20.3709 0.875 19.625 0.875C18.8791 0.875 18.1637 1.17132 17.6363 1.69876C17.1088 2.22621 16.8125 2.94158 16.8125 3.6875V3.85625C16.389 3.70194 15.9344 3.65242 15.4875 3.71191C15.0407 3.7714 14.6149 3.93813 14.2464 4.19787C13.878 4.45762 13.5779 4.80266 13.3717 5.20353C13.1656 5.60441 13.0595 6.04923 13.0625 6.5V7.60625C12.7616 7.49799 12.4447 7.44095 12.125 7.4375C11.3798 7.43973 10.6657 7.73676 10.1387 8.26372C9.61176 8.79068 9.31473 9.50476 9.31251 10.25V26.1875C9.31212 26.2993 9.33115 26.4103 9.36876 26.5156L12.125 33.8563V56.1875C12.125 56.4361 12.2238 56.6746 12.3996 56.8504C12.5754 57.0262 12.8139 57.125 13.0625 57.125H26.1875C26.4361 57.125 26.6746 57.0262 26.8504 56.8504C27.0262 56.6746 27.125 56.4361 27.125 56.1875V41.7125L28.8125 43.4094C28.8964 43.4856 28.9912 43.5488 29.0938 43.5969L36.2281 46.8406L46.0531 56.6656C46.2308 56.8399 46.4698 56.9376 46.7188 56.9376C46.9677 56.9376 47.2067 56.8399 47.3844 56.6656L56.6656 47.3844C56.8413 47.2074 56.9398 46.9681 56.9398 46.7188C56.9398 46.4694 56.8413 46.2301 56.6656 46.0531ZM22.4375 6.5C22.4375 6.25136 22.5363 6.0129 22.7121 5.83709C22.8879 5.66127 23.1264 5.5625 23.375 5.5625C23.6236 5.5625 23.8621 5.66127 24.0379 5.83709C24.2137 6.0129 24.3125 6.25136 24.3125 6.5V12.125H22.4375V6.5ZM18.6875 3.6875C18.6875 3.43886 18.7863 3.2004 18.9621 3.02459C19.1379 2.84877 19.3764 2.75 19.625 2.75C19.8736 2.75 20.1121 2.84877 20.2879 3.02459C20.4637 3.2004 20.5625 3.43886 20.5625 3.6875V12.125H18.6875V3.6875ZM14.9375 6.5C14.9375 6.25136 15.0363 6.0129 15.2121 5.83709C15.3879 5.66127 15.6264 5.5625 15.875 5.5625C16.1236 5.5625 16.3621 5.66127 16.5379 5.83709C16.7137 6.0129 16.8125 6.25136 16.8125 6.5V12.125H14.9375V6.5ZM14.9375 14H41.1875V25.25H39.8375L32.1313 17.5438C31.6018 17.0212 30.8877 16.7281 30.1438 16.7281C29.3998 16.7281 28.6858 17.0212 28.1563 17.5438C27.9365 17.7775 27.7532 18.0429 27.6125 18.3313L26.8344 17.5531C26.3052 17.0263 25.5889 16.7306 24.8422 16.7306C24.0955 16.7306 23.3792 17.0263 22.85 17.5531C22.6273 17.7789 22.4464 18.0423 22.3156 18.3313L22.1938 18.2094C21.9321 17.9478 21.6216 17.7402 21.2797 17.5986C20.9379 17.4571 20.5716 17.3842 20.2016 17.3842C19.4544 17.3842 18.7377 17.681 18.2094 18.2094C17.9478 18.471 17.7402 18.7816 17.5986 19.1234C17.4571 19.4652 17.3842 19.8316 17.3842 20.2016C17.3842 20.9488 17.681 21.6654 18.2094 22.1938L18.3406 22.3156C18.0465 22.4471 17.777 22.6278 17.5438 22.85C17.2814 23.1101 17.0733 23.4197 16.9317 23.7609C16.7901 24.1021 16.7177 24.4681 16.7188 24.8375C16.7219 24.9757 16.7345 25.1135 16.7563 25.25H14.9375V14ZM25.25 55.25H14V33.6875C14.0004 33.5757 13.9814 33.4647 13.9438 33.3594L11.1875 26.0187V10.25C11.1875 10.0014 11.2863 9.7629 11.4621 9.58709C11.6379 9.41127 11.8764 9.3125 12.125 9.3125C12.2502 9.3114 12.3741 9.33672 12.4888 9.3868C12.6035 9.43688 12.7064 9.51059 12.7906 9.60313C12.8784 9.68616 12.9479 9.78657 12.9947 9.89794C13.0415 10.0093 13.0646 10.1292 13.0625 10.25V26.1875C13.0625 26.4361 13.1613 26.6746 13.3371 26.8504C13.5129 27.0262 13.7514 27.125 14 27.125H17.8438L21.6406 30.9313C21.3536 31.0654 21.0907 31.2459 20.8625 31.4656C20.3343 31.9941 20.0376 32.7107 20.0376 33.4578C20.0376 34.205 20.3343 34.9215 20.8625 35.45L25.25 39.8375V55.25ZM46.7188 54.6781L37.4375 45.3875C37.3537 45.3113 37.2589 45.2481 37.1563 45.2L30.0219 41.9562L22.1938 34.1187C22.1048 34.0332 22.034 33.9306 21.9856 33.817C21.9373 33.7034 21.9124 33.5812 21.9124 33.4578C21.9124 33.3344 21.9373 33.2122 21.9856 33.0986C22.034 32.9851 22.1048 32.8824 22.1938 32.7969C22.2786 32.7105 22.3796 32.6417 22.4911 32.5944C22.6026 32.5472 22.7223 32.5224 22.8434 32.5216C22.9644 32.5207 23.0845 32.5437 23.1966 32.5894C23.3088 32.635 23.4108 32.7023 23.4969 32.7875C23.526 32.8042 23.5515 32.8265 23.5719 32.8531L28.1563 37.4375L29.4875 36.1063L24.8188 31.4375C24.8 31.4187 24.7813 31.4094 24.7625 31.3906L18.875 25.5031C18.786 25.4176 18.7152 25.3149 18.6669 25.2014C18.6185 25.0878 18.5936 24.9656 18.5936 24.8422C18.5936 24.7188 18.6185 24.5966 18.6669 24.483C18.7152 24.3694 18.786 24.2668 18.875 24.1813C19.0523 24.0098 19.2893 23.9139 19.5359 23.9139C19.7826 23.9139 20.0196 24.0098 20.1969 24.1813L22.2594 26.2344L30.8094 34.7844L32.1313 33.4625L32.1406 33.4531L22.9063 24.2281L19.5406 20.8625C19.366 20.6868 19.268 20.4492 19.268 20.2016C19.268 19.9539 19.366 19.7163 19.5406 19.5406C19.7163 19.366 19.9539 19.268 20.2016 19.268C20.4492 19.268 20.6869 19.366 20.8625 19.5406L22.85 21.5281L33.4625 32.1313L34.7844 30.8094L24.1813 20.1969C24.0277 20.0175 23.9474 19.7868 23.9565 19.5509C23.9656 19.3149 24.0635 19.0911 24.2304 18.9242C24.3974 18.7572 24.6212 18.6594 24.8571 18.6503C25.0931 18.6412 25.3238 18.7214 25.5031 18.875L32.1313 25.5031L36.1063 29.4875L36.1156 29.4781L37.4375 28.1562L32.8906 23.6094L29.4875 20.1969C29.3985 20.1113 29.3277 20.0087 29.2794 19.8951C29.231 19.7815 29.2061 19.6594 29.2061 19.5359C29.2061 19.4125 29.231 19.2903 29.2794 19.1768C29.3277 19.0632 29.3985 18.9606 29.4875 18.875C29.5731 18.786 29.6757 18.7152 29.7893 18.6669C29.9028 18.6185 30.025 18.5936 30.1484 18.5936C30.2719 18.5936 30.394 18.6185 30.5076 18.6669C30.6212 18.7152 30.7238 18.786 30.8094 18.875L41.9563 30.0219L45.2 37.1562C45.2481 37.2588 45.3113 37.3536 45.3875 37.4375L54.6781 46.7188L46.7188 54.6781Z" fill="black"/>
<path d="M56.4688 26.2293L52.6428 25.05L51.4634 21.225C51.4046 21.0332 51.2858 20.8653 51.1244 20.7461C50.9631 20.6269 50.7678 20.5625 50.5672 20.5625C50.3666 20.5625 50.1713 20.6269 50.0099 20.7461C49.8486 20.8653 49.7298 21.0332 49.6709 21.225L48.4916 25.05L44.6656 26.2293C44.4738 26.2882 44.306 26.407 44.1867 26.5683C44.0675 26.7297 44.0032 26.925 44.0032 27.1256C44.0032 27.3262 44.0675 27.5215 44.1867 27.6828C44.306 27.8442 44.4738 27.963 44.6656 28.0218L48.4916 29.2012L49.6709 33.0262C49.7298 33.218 49.8486 33.3858 50.0099 33.5051C50.1713 33.6243 50.3666 33.6887 50.5672 33.6887C50.7678 33.6887 50.9631 33.6243 51.1244 33.5051C51.2858 33.3858 51.4046 33.218 51.4634 33.0262L52.6428 29.2012L56.4688 28.0218C56.6605 27.963 56.8284 27.8442 56.9476 27.6828C57.0669 27.5215 57.1312 27.3262 57.1312 27.1256C57.1312 26.925 57.0669 26.7297 56.9476 26.5683C56.8284 26.407 56.6605 26.2882 56.4688 26.2293ZM51.6162 27.555C51.4702 27.6001 51.3374 27.6802 51.2294 27.7884C51.1213 27.8965 51.0414 28.0295 50.9966 28.1756L50.5625 29.5687L50.1331 28.1756C50.0883 28.0295 50.0083 27.8965 49.9003 27.7884C49.7923 27.6802 49.6595 27.6001 49.5134 27.555L48.1194 27.1256L49.5134 26.6962C49.6595 26.6511 49.7923 26.571 49.9003 26.4628C50.0083 26.3547 50.0883 26.2217 50.1331 26.0756L50.5625 24.6825L50.9919 26.0756C51.0367 26.2217 51.1167 26.3547 51.2247 26.4628C51.3327 26.571 51.4655 26.6511 51.6116 26.6962L53.0056 27.1256L51.6162 27.555ZM44.6609 8.33434L48.4869 9.51372L49.6662 13.3387C49.7251 13.5305 49.8439 13.6984 50.0052 13.8176C50.1666 13.9368 50.3619 14.0012 50.5625 14.0012C50.7631 14.0012 50.9584 13.9368 51.1198 13.8176C51.2811 13.6984 51.3999 13.5305 51.4588 13.3387L52.6381 9.51372L56.4688 8.33434C56.6605 8.27549 56.8284 8.15667 56.9476 7.99535C57.0669 7.83402 57.1312 7.6387 57.1312 7.43809C57.1312 7.23748 57.0669 7.04216 56.9476 6.88084C56.8284 6.71952 56.6605 6.6007 56.4688 6.54184L52.6381 5.36247L51.4588 1.53747C51.3999 1.34569 51.2811 1.17784 51.1198 1.05859C50.9584 0.939351 50.7631 0.875 50.5625 0.875C50.3619 0.875 50.1666 0.939351 50.0052 1.05859C49.8439 1.17784 49.7251 1.34569 49.6662 1.53747L48.4869 5.36247L44.6609 6.54184C44.4692 6.6007 44.3013 6.71952 44.1821 6.88084C44.0628 7.04216 43.9985 7.23748 43.9985 7.43809C43.9985 7.6387 44.0628 7.83402 44.1821 7.99535C44.3013 8.15667 44.4692 8.27549 44.6609 8.33434ZM49.5134 7.00872C49.6595 6.96363 49.7923 6.88351 49.9003 6.77534C50.0083 6.66717 50.0883 6.53422 50.1331 6.38809L50.5625 4.99497L50.9919 6.38809C51.0367 6.53422 51.1167 6.66717 51.2247 6.77534C51.3327 6.88351 51.4655 6.96363 51.6116 7.00872L53.0056 7.43809L51.6116 7.86747C51.4655 7.91256 51.3327 7.99268 51.2247 8.10085C51.1167 8.20902 51.0367 8.34196 50.9919 8.48809L50.5625 9.88122L50.1331 8.48809C50.0883 8.34196 50.0083 8.20902 49.9003 8.10085C49.7923 7.99268 49.6595 7.91256 49.5134 7.86747L48.1194 7.43809L49.5134 7.00872ZM2.75 17.7506H4.625V19.6256H2.75V17.7506ZM0.875 19.6256H2.75V21.5006H0.875V19.6256ZM4.625 19.6256H6.5V21.5006H4.625V19.6256ZM2.75 21.5006H4.625V23.3756H2.75V21.5006ZM5.5625 0.875594H7.4375V2.75059H5.5625V0.875594ZM3.6875 2.75059H5.5625V4.62559H3.6875V2.75059ZM7.4375 2.75059H9.3125V4.62559H7.4375V2.75059ZM5.5625 4.62559H7.4375V6.50059H5.5625V4.62559ZM29.9375 0.875594H31.8125V2.75059H29.9375V0.875594ZM28.0625 2.75059H29.9375V4.62559H28.0625V2.75059ZM31.8125 2.75059H33.6875V4.62559H31.8125V2.75059ZM29.9375 4.62559H31.8125V6.50059H29.9375V4.62559ZM37.4375 4.62559H39.3125V6.50059H37.4375V4.62559ZM35.5625 6.50059H37.4375V8.37559H35.5625V6.50059ZM39.3125 6.50059H41.1875V8.37559H39.3125V6.50059ZM37.4375 8.37559H39.3125V10.2506H37.4375V8.37559ZM2.75 32.7506H4.625V34.6256H2.75V32.7506ZM0.875 34.6256H2.75V36.5006H0.875V34.6256ZM4.625 34.6256H6.5V36.5006H4.625V34.6256ZM2.75 36.5006H4.625V38.3756H2.75V36.5006Z" fill="black"/>
</svg>
