<svg width="60" height="60" viewBox="0 0 60 60" fill="none" xmlns="http://www.w3.org/2000/svg">
<g clip-path="url(#clip0_2_10601)">
<path d="M23.6646 33.4278H14.5085C13.3846 33.4278 12.4699 32.513 12.4699 31.39V25.3557L11.7513 26.0742C11.1019 26.7253 9.96664 26.7253 9.31723 26.0742L7.32666 24.0837C6.65527 23.4123 6.65527 22.321 7.32666 21.6496L11.0889 17.8874C12.2559 16.7204 13.7134 15.8765 15.3052 15.4468C15.9521 15.271 16.6268 15.5892 16.9108 16.1987C17.2485 16.9222 17.8996 17.7848 19.0861 17.7848C20.2734 17.7848 20.9245 16.9222 21.2614 16.1996C21.547 15.59 22.2225 15.2783 22.867 15.4468C24.4588 15.8765 25.9171 16.7204 27.0841 17.8874L30.8463 21.6496C31.1719 21.9743 31.3509 22.4072 31.3509 22.867C31.3509 23.3268 31.1719 23.759 30.8463 24.0837L28.8558 26.0742C28.1852 26.7464 27.0915 26.7464 26.4209 26.0742L25.7023 25.3556V31.39C25.7023 32.513 24.7884 33.4278 23.6646 33.4278ZM13.3032 22.5106C13.4106 22.5106 13.5189 22.5309 13.6222 22.5741C13.9339 22.7027 14.1366 23.007 14.1366 23.3439V31.39C14.1366 31.5951 14.3034 31.7611 14.5085 31.7611H23.6645C23.8688 31.7611 24.0356 31.5951 24.0356 31.39V23.3439C24.0356 23.007 24.2383 22.7027 24.55 22.5741C24.8641 22.4447 25.2205 22.5155 25.4582 22.7548L27.5993 24.8959L29.668 22.828L25.9057 19.0658C25.0016 18.1617 23.8851 17.4927 22.6644 17.1224C21.8937 18.606 20.6014 19.4515 19.0861 19.4515C17.5724 19.4515 16.2801 18.606 15.5086 17.1224C14.2879 17.4935 13.1714 18.1617 12.2672 19.0658L8.50504 22.828L10.4956 24.8959L12.714 22.7548C12.8735 22.5952 13.0868 22.5106 13.3032 22.5106ZM48.7858 29.642H41.7757C40.7503 29.642 39.917 28.8078 39.917 27.7832V22.7124C39.917 21.6879 40.7503 20.8537 41.7757 20.8537H47.1924C48.2991 20.8537 49.2708 21.6382 49.5036 22.7198L50.5941 27.3568C50.7259 27.911 50.599 28.4872 50.2441 28.9356C49.8909 29.3848 49.3587 29.642 48.7858 29.642ZM41.7757 22.5204C41.6699 22.5204 41.5837 22.6066 41.5837 22.7124V27.7832C41.5837 27.889 41.6699 27.9753 41.7757 27.9753H48.7858C48.8639 27.9753 48.9111 27.9354 48.9372 27.902L48.973 27.7393L47.8776 23.0851C47.8044 22.7458 47.5244 22.5204 47.1924 22.5204L41.7757 22.5204ZM46.9824 47.7181C44.9626 47.7181 43.3203 46.0742 43.3203 44.0544C43.3203 42.0345 44.9626 40.3923 46.9824 40.3923C49.0023 40.3923 50.6462 42.0345 50.6462 44.0544C50.6462 46.0742 49.0023 47.7181 46.9824 47.7181ZM46.9824 42.0589C45.8822 42.0589 44.987 42.9541 44.987 44.0544C44.987 45.1563 45.8822 46.0515 46.9824 46.0515C48.0843 46.0515 48.9795 45.1563 48.9795 44.0544C48.9795 42.9541 48.0843 42.0589 46.9824 42.0589ZM13.0168 47.7181C10.9977 47.7181 9.35466 46.0742 9.35466 44.0544C9.35466 42.0345 10.9977 40.3923 13.0168 40.3923C15.0358 40.3923 16.6789 42.0345 16.6789 44.0544C16.6789 46.0742 15.0358 47.7181 13.0168 47.7181ZM13.0168 42.0589C11.9165 42.0589 11.0213 42.9541 11.0213 44.0544C11.0213 45.1563 11.9165 46.0515 13.0168 46.0515C14.117 46.0515 15.0122 45.1563 15.0122 44.0544C15.0122 42.9541 14.117 42.0589 13.0168 42.0589ZM57.1781 28.8558L54.2719 28.134L52.8188 21.9184C52.2 19.2933 49.8844 17.4653 47.1938 17.4653H38.175V13.0778C38.175 10.7996 36.3187 8.94336 34.0406 8.94336H4.13435C1.85623 8.94335 0 10.7996 0 13.0778V41.1746C0 43.2277 1.66878 44.8965 3.72185 44.8965H6.07132C6.48925 48.3609 9.4416 51.0563 13.0167 51.0563C16.5919 51.0563 19.5443 48.3609 19.9622 44.8965H40.0378C40.4556 48.3609 43.4073 51.0563 46.9824 51.0563C50.5576 51.0563 53.5106 48.3609 53.9287 44.8965H56.2781C58.3312 44.8965 60 43.2277 60 41.1746V32.4652C60 30.759 58.8375 29.2683 57.1781 28.8558ZM4.13435 10.6121H34.0406C35.4 10.6121 36.5062 11.7184 36.5062 13.0778V18.2996V38.2121H16.8646C15.7594 37.482 14.4378 37.054 13.0167 37.054C11.5957 37.054 10.2741 37.482 9.16895 38.2121H1.66878V13.0778C1.66878 11.7184 2.77502 10.6121 4.13435 10.6121ZM6.06897 43.2277H3.72185C2.58751 43.2277 1.66878 42.309 1.66878 41.1746V39.8809H7.40896C6.69394 40.8389 6.21643 41.9819 6.06897 43.2277ZM13.0167 49.3897C10.0757 49.3897 7.68231 46.9955 7.68231 44.0544C7.68231 41.1133 10.0757 38.7207 13.0167 38.7207C15.9579 38.7207 18.3512 41.1133 18.3512 44.0544C18.3512 46.9955 15.9579 49.3897 13.0167 49.3897ZM46.9824 49.3897C44.0413 49.3897 41.6488 46.9955 41.6488 44.0544C41.6488 41.1133 44.0413 38.7207 46.9824 38.7207C49.9235 38.7207 52.3177 41.1133 52.3177 44.0544C52.3177 46.9955 49.9235 49.3897 46.9824 49.3897ZM58.3312 41.1746C58.3312 42.309 57.4125 43.2277 56.2782 43.2277H53.931C53.52 39.756 50.563 37.054 46.9824 37.054C43.4019 37.054 40.4462 39.756 40.0354 43.2277H19.9646C19.8171 41.9819 19.3396 40.8389 18.6246 39.8808H37.3406C37.8 39.8808 38.175 39.5059 38.175 39.0465V19.1246H47.1938C49.1063 19.1246 50.7563 20.4371 51.1875 22.3027L52.7625 29.0059C52.8375 29.3059 53.0719 29.5496 53.3719 29.6246L56.775 30.4684C57.4545 30.6417 57.9782 31.1339 58.2059 31.7611H57.3438C55.8707 31.7611 54.6728 32.959 54.6728 34.432C54.6728 35.905 55.8707 37.1029 57.3438 37.1029H58.3312V41.1746ZM58.3312 35.4362H57.3438C56.7904 35.4362 56.3395 34.9853 56.3395 34.432C56.3395 33.8786 56.7904 33.4277 57.3438 33.4277H58.3312V35.4362Z" fill="#2946B8"/>
</g>
<defs>
<clipPath id="clip0_2_10601">
<rect width="60" height="60" fill="white"/>
</clipPath>
</defs>
</svg>
