<svg width="60" height="60" viewBox="0 0 60 60" fill="none" xmlns="http://www.w3.org/2000/svg">
<g clip-path="url(#clip0_2_7938)">
<path fill-rule="evenodd" clip-rule="evenodd" d="M55.6055 0.878906H18.6914L15.1758 4.39453H59.1211L55.6055 0.878906ZM59.1211 14.9413H15.1758V43.3008H18.6914L20.4492 45.0586V46.8164L18.6914 48.5742L20.4492 50.332V52.0898L18.6914 53.8477L20.4492 55.6055V57.3633L18.6914 59.1211H55.6055L59.1211 55.6055V14.9413ZM37.1484 22.3827C45.2385 22.3827 51.7969 28.941 51.7969 37.0311C51.7969 45.1213 45.2386 51.6796 37.1484 51.6796C29.0583 51.6796 22.5 45.1213 22.5 37.0311C22.5 28.9411 29.0583 22.3827 37.1484 22.3827Z" fill="#E0DFDE"/>
<path d="M37.2656 48.2812C43.4788 48.2812 48.5156 43.2445 48.5156 37.0312C48.5156 30.818 43.4788 25.7812 37.2656 25.7812C31.0524 25.7812 26.0156 30.818 26.0156 37.0312C26.0156 43.2445 31.0524 48.2812 37.2656 48.2812Z" fill="white"/>
<path d="M55.0844 10.9148C55.7708 10.2284 55.7708 9.11538 55.0844 8.42891C54.3979 7.74245 53.2849 7.74245 52.5984 8.42891C51.912 9.11538 51.912 10.2284 52.5984 10.9148C53.2849 11.6013 54.3979 11.6013 55.0844 10.9148Z" fill="#C4E5F9"/>
<path d="M47.0933 11.41C48.0515 11.254 48.7017 10.3507 48.5457 9.3925C48.3896 8.43431 47.4864 7.78405 46.5282 7.9401C45.57 8.09615 44.9197 8.99942 45.0758 9.95761C45.2318 10.9158 46.1351 11.5661 47.0933 11.41Z" fill="#F492A7"/>
<path d="M40.0627 11.41C41.0209 11.254 41.6711 10.3507 41.5151 9.3925C41.359 8.43431 40.4558 7.78405 39.4976 7.9401C38.5394 8.09615 37.8891 8.99942 38.0452 9.95761C38.2012 10.9158 39.1045 11.5661 40.0627 11.41Z" fill="#E7CDA2"/>
<path fill-rule="evenodd" clip-rule="evenodd" d="M18.6913 7.91016H29.238V11.4258H18.6913V7.91016Z" fill="#C4E5F9"/>
<path fill-rule="evenodd" clip-rule="evenodd" d="M38.0276 9.66785C38.0276 8.69707 38.8146 7.91004 39.7854 7.91004C40.7562 7.91004 41.5432 8.69707 41.5432 9.66785C41.5432 10.6386 40.7562 11.4257 39.7854 11.4257C38.8146 11.4258 38.0276 10.6388 38.0276 9.66785ZM59.1211 4.39453H15.1758V14.9413H59.1211V4.39453ZM45.0587 9.66785C45.0587 8.69707 45.8457 7.91004 46.8165 7.91004C47.7873 7.91004 48.5743 8.69707 48.5743 9.66785C48.5743 10.6386 47.7873 11.4257 46.8165 11.4257C45.8457 11.4258 45.0587 10.6388 45.0587 9.66785ZM52.0898 9.66785C52.0898 8.69707 52.8769 7.91004 53.8477 7.91004C54.8184 7.91004 55.6055 8.69707 55.6055 9.66785C55.6055 10.6386 54.8184 11.4257 53.8477 11.4257C52.8769 11.4258 52.0898 10.6388 52.0898 9.66785ZM29.238 7.91016V11.4258H18.6913V7.91016H29.238Z" fill="#FFCF7B"/>
<path fill-rule="evenodd" clip-rule="evenodd" d="M51.7969 37.0312C51.7969 28.9411 45.2386 22.3828 37.1484 22.3828C29.0583 22.3828 22.5 28.9411 22.5 37.0312C22.5 45.1214 29.0583 51.6797 37.1484 51.6797C45.2386 51.6797 51.7969 45.1214 51.7969 37.0312ZM37.1484 25.8927C43.3198 25.8927 48.2871 30.8993 48.2871 37.0314C48.2871 37.6295 48.24 38.2166 48.1492 38.7892H38.9062L35.3906 35.2736H26.1477C26.9905 29.957 31.5948 25.8927 37.1484 25.8927Z" fill="#BFBEC1"/>
<path fill-rule="evenodd" clip-rule="evenodd" d="M48.1485 38.7891C47.3055 44.1054 42.702 48.1699 37.1484 48.1699C30.9967 48.1699 26.0098 43.183 26.0098 37.0312C26.0097 36.4426 26.0561 35.8548 26.1483 35.2734H35.3906L38.9062 38.7891H48.1485Z" fill="#C4E5F9"/>
<path fill-rule="evenodd" clip-rule="evenodd" d="M18.6914 43.3008H2.63672L0.878906 45.0586V46.8164L2.63672 48.5742H18.6914L20.4491 46.8164V45.0586L18.6914 43.3008Z" fill="#F492A7"/>
<path fill-rule="evenodd" clip-rule="evenodd" d="M18.6914 48.5742H2.63672L0.878906 50.332V52.0898L2.63672 53.8477H18.6914L20.4491 52.0898V50.332L18.6914 48.5742Z" fill="#7FDCC7"/>
<path fill-rule="evenodd" clip-rule="evenodd" d="M18.6914 53.8477H2.63672L0.878906 55.6055V57.3633L2.63672 59.1211H18.6914L20.4491 57.3633V55.6055L18.6914 53.8477Z" fill="#C4E5F9"/>
<path fill-rule="evenodd" clip-rule="evenodd" d="M22.2069 0.878906H18.6913L15.1757 4.39453H18.6913L22.2069 0.878906ZM18.6913 14.9413H15.1757V43.3008H18.6913V14.9413ZM18.6914 43.3008L20.4492 45.0586V46.8164L18.6914 48.5742L20.4492 50.332V52.0898L18.6914 53.8477L20.4492 55.6055V57.3633L18.6914 59.1211H22.207L23.9648 57.3633V55.6055L22.207 53.8477L23.9648 52.0898V50.332L22.207 48.5742L23.9648 46.8164V45.0586L22.207 43.3008H18.6914Z" fill="#BFBEC1"/>
<path fill-rule="evenodd" clip-rule="evenodd" d="M38.9061 22.4886C30.2014 21.4476 22.4999 28.2192 22.4999 37.0317C22.4999 45.8442 30.2014 52.6156 38.9061 51.5748C31.645 50.7063 26.0155 44.5269 26.0155 37.0317C26.0155 29.5365 31.645 23.3572 38.9061 22.4886Z" fill="#9C9C9F"/>
<path fill-rule="evenodd" clip-rule="evenodd" d="M38.9073 48.0315C38.3256 48.1238 37.7375 48.1701 37.1484 48.1699C30.9967 48.1699 26.0098 43.183 26.0098 37.0312C26.0097 36.4426 26.0561 35.8548 26.1483 35.2734H29.6639C29.5717 35.8548 29.5254 36.4426 29.5254 37.0312C29.5254 42.5851 33.5904 47.1891 38.9073 48.0315Z" fill="#A4D7F5"/>
<path fill-rule="evenodd" clip-rule="evenodd" d="M15.1758 4.39453H18.6914V14.9413H15.1758V4.39453Z" fill="#FFAF02"/>
<path fill-rule="evenodd" clip-rule="evenodd" d="M6.15234 43.3008H2.63672L0.878906 45.0586V46.8164L2.63672 48.5742H6.15234L4.39453 46.8164V45.0586L6.15234 43.3008Z" fill="#F05D7A"/>
<path fill-rule="evenodd" clip-rule="evenodd" d="M6.15234 48.5742H2.63672L0.878906 50.332V52.0898L2.63672 53.8477H6.15234L4.39453 52.0898V50.332L6.15234 48.5742Z" fill="#6AB7A4"/>
<path fill-rule="evenodd" clip-rule="evenodd" d="M6.15234 53.8477H2.63672L0.878906 55.6055V57.3633L2.63672 59.1211H6.15234L4.39453 57.3633V55.6055L6.15234 53.8477Z" fill="#A4D7F5"/>
<path d="M28.3593 57.3633H26.6014V55.6055H28.3593V57.3633ZM24.8436 57.3633H23.0858V55.6055H24.8436V57.3633ZM56.4844 19.3359H49.4532V17.5781H56.4844V19.3359ZM47.6954 19.3359H45.9376V17.5781H47.6954V19.3359Z" fill="white"/>
<path d="M55.9695 0H18.3273L14.2969 4.03055V19.3358H16.0547V15.8202H58.2422V54.7266H50.332V56.4844H56.9993L55.2415 58.2422H23.0858V60H55.9695L60 55.9695V4.03055L55.9695 0ZM19.0554 1.75781H55.2415L56.9993 3.51562H17.2976L19.0554 1.75781ZM16.0547 14.0624V5.27344H58.2422V14.0624H16.0547Z" fill="black"/>
<path d="M14.2969 21.0938H16.0547V40.6642H14.2969V21.0938ZM37.1484 52.5586C45.7103 52.5586 52.6757 45.5931 52.6757 37.0312C52.6757 28.4694 45.7103 21.504 37.1484 21.504C28.5866 21.504 21.6211 28.4695 21.6211 37.0314C21.6211 45.5932 28.5866 52.5586 37.1484 52.5586ZM37.1484 23.2618C44.7409 23.2618 50.9179 29.4388 50.9179 37.0314C50.9179 44.6239 44.7409 50.8009 37.1484 50.8009C29.5559 50.8009 23.3789 44.6239 23.3789 37.0314C23.3789 29.4388 29.5559 23.2618 37.1484 23.2618Z" fill="black"/>
<path d="M37.1484 49.0487C40.0075 49.0487 42.7779 48.0273 44.9494 46.1726L43.8077 44.8361C41.9543 46.4191 39.5892 47.2909 37.1484 47.2909C31.4912 47.2909 26.8887 42.6885 26.8887 37.0311C26.8887 36.735 26.902 36.442 26.9268 36.1522H35.0266L38.5421 39.6679H47.0623C46.669 41.1496 45.9483 42.5243 44.9532 43.6905L46.2899 44.8322C48.1445 42.6608 49.1659 39.8904 49.1659 37.0311C49.1659 30.4046 43.7749 25.0137 37.1484 25.0137C30.522 25.0137 25.1309 30.4046 25.1309 37.0311C25.1309 43.6576 30.522 49.0487 37.1484 49.0487ZM37.1484 26.7715C41.8943 26.7715 45.8973 30.0109 47.064 34.3945H41.1178V36.1523H47.37C47.3947 36.4421 47.4081 36.7351 47.4081 37.0312C47.4081 37.3256 47.3947 37.6188 47.3696 37.9102H39.2701L35.7546 34.3945H27.2327C28.3995 30.0109 32.4025 26.7715 37.1484 26.7715ZM53.8477 7.03125C52.3938 7.03125 51.2109 8.21402 51.2109 9.66797C51.2109 11.1219 52.3938 12.3047 53.8477 12.3047C55.3015 12.3047 56.4844 11.1218 56.4844 9.66797C56.4844 8.21414 55.3015 7.03125 53.8477 7.03125ZM53.8477 10.5469C53.363 10.5469 52.9688 10.1527 52.9688 9.66797C52.9688 9.18328 53.363 8.78906 53.8477 8.78906C54.3323 8.78906 54.7266 9.18328 54.7266 9.66797C54.7266 10.1527 54.3323 10.5469 53.8477 10.5469ZM46.8165 7.03125C45.3627 7.03125 44.1798 8.21402 44.1798 9.66797C44.1798 11.1219 45.3627 12.3047 46.8165 12.3047C48.2704 12.3047 49.4532 11.1219 49.4532 9.66797C49.4532 8.21402 48.2704 7.03125 46.8165 7.03125ZM46.8165 10.5469C46.3318 10.5469 45.9376 10.1527 45.9376 9.66797C45.9376 9.18328 46.3318 8.78906 46.8165 8.78906C47.3012 8.78906 47.6954 9.18328 47.6954 9.66797C47.6954 10.1527 47.3012 10.5469 46.8165 10.5469ZM39.7854 7.03125C38.3316 7.03125 37.1487 8.21402 37.1487 9.66797C37.1487 11.1219 38.3316 12.3047 39.7854 12.3047C41.2392 12.3047 42.4221 11.1219 42.4221 9.66797C42.4221 8.21402 41.2392 7.03125 39.7854 7.03125ZM39.7854 10.5469C39.3007 10.5469 38.9065 10.1527 38.9065 9.66797C38.9065 9.18328 39.3007 8.78906 39.7854 8.78906C40.2701 8.78906 40.6643 9.18328 40.6643 9.66797C40.6643 10.1527 40.2701 10.5469 39.7854 10.5469ZM17.8125 12.3047H30.1171V7.03125H17.8125V12.3047ZM19.5703 8.78906H28.3593V10.5469H19.5703V8.78906ZM2.27273 42.4219L0 44.6945V47.1804L1.39371 48.5742L0 49.9679V52.4538L1.39371 53.8477L0 55.2414V57.7273L2.27273 60H19.0554L21.3281 57.7273V55.2414L19.9343 53.8477L21.3281 52.4538V49.9679L19.9343 48.5742L21.3281 47.1804V44.6945L19.0554 42.4219H2.27273ZM19.5703 56.9993L18.3273 58.2422H3.0007L1.75781 56.9993V55.9695L3.0007 54.7266H6.15234V52.9688H3.0007L1.75781 51.7259V50.696L3.0007 49.4531H18.3273L19.5703 50.696V51.7259L18.3273 52.9688H7.91016V54.7266H18.3274L19.5703 55.9695V56.9993ZM19.5703 46.4524L18.3273 47.6953H3.0007L1.75781 46.4524V45.4226L3.0007 44.1797H18.3273L19.5703 45.4226V46.4524Z" fill="black"/>
</g>
<defs>
<clipPath id="clip0_2_7938">
<rect width="60" height="60" fill="white"/>
</clipPath>
</defs>
</svg>
