<svg width="60" height="60" viewBox="0 0 60 60" fill="none" xmlns="http://www.w3.org/2000/svg">
<g clip-path="url(#clip0_2_10645)">
<path d="M16.065 50.108H14.2592C13.0833 50.108 12.0669 49.2307 11.8944 48.067L11.5111 45.4758C11.4093 44.7874 11.612 44.0908 12.0661 43.5634C12.521 43.0377 13.181 42.735 13.8768 42.735H15.7908C17.0172 42.735 18.0393 43.6546 18.1679 44.8753L18.4421 47.4648C18.5138 48.1386 18.2948 48.8124 17.8424 49.3153C17.3899 49.8199 16.7421 50.108 16.065 50.108ZM13.8768 44.4017C13.5879 44.4017 13.4088 44.5595 13.3283 44.6523C13.2469 44.7467 13.1175 44.9469 13.1598 45.2317L13.5431 47.8228C13.5952 48.176 13.9028 48.4413 14.2593 48.4413H16.0651C16.2726 48.4413 16.4638 48.3567 16.603 48.2021C16.7421 48.0474 16.8072 47.8472 16.7853 47.6405L16.511 45.0511C16.472 44.68 16.1619 44.4017 15.7908 44.4017H13.8768ZM25.7264 38.697H23.4103C22.153 38.697 21.1049 37.7139 21.0235 36.4574L20.8583 33.8777C20.8168 33.2202 21.0512 32.5675 21.5012 32.089C21.9512 31.6089 22.5868 31.3338 23.2451 31.3338H25.6702C26.9601 31.3338 28.0327 32.382 28.0611 33.6726L28.1173 36.2523C28.132 36.9001 27.8894 37.5137 27.4362 37.9776C26.9821 38.4414 26.375 38.697 25.7264 38.697ZM23.2451 33.0004C23.0425 33.0004 22.8545 33.0818 22.7162 33.2283C22.5778 33.3764 22.5086 33.5685 22.5217 33.7719L22.6869 36.35C22.7113 36.7308 23.0295 37.0303 23.4103 37.0303H25.7264C25.9225 37.0303 26.1064 36.9522 26.2439 36.8122C26.3815 36.6722 26.4555 36.4851 26.4506 36.2881L26.3945 33.7084C26.3864 33.3178 26.0608 33.0004 25.6702 33.0004L23.2451 33.0004ZM36.5889 38.697H34.2712C33.6234 38.697 33.0179 38.4414 32.5639 37.9792C32.1098 37.5154 31.8672 36.9018 31.8803 36.254L31.9372 33.6726C31.9665 32.382 33.0391 31.3338 34.3281 31.3338H36.7532C37.4124 31.3338 38.0488 31.6097 38.4996 32.0906C38.9488 32.5691 39.1816 33.2218 39.1393 33.8777L38.9749 36.4574C38.8951 37.7123 37.847 38.697 36.5889 38.697ZM34.3281 33.0004C33.9375 33.0004 33.612 33.3194 33.6039 33.7101L33.5469 36.2882C33.542 36.4851 33.6169 36.6723 33.7552 36.8122C33.892 36.9538 34.0759 37.0303 34.2712 37.0303H36.5889C36.9697 37.0303 37.2871 36.7325 37.3115 36.3516L37.4759 33.7703C37.4889 33.5685 37.4206 33.3764 37.2822 33.2299C37.1439 33.0818 36.9567 33.0004 36.7532 33.0004H34.3281ZM45.7391 50.108H43.9341C43.2571 50.108 42.6093 49.8199 42.1552 49.3153C41.7027 48.8124 41.4846 48.137 41.5562 47.4648L41.8297 44.8753C41.9599 43.6546 42.982 42.735 44.2076 42.735H46.1216C46.8166 42.735 47.4758 43.0361 47.9315 43.5634C48.3856 44.0892 48.589 44.7874 48.4881 45.4742V45.4759L48.1056 48.067C47.9315 49.2307 46.9142 50.108 45.7391 50.108ZM44.2076 44.4017C43.8365 44.4017 43.5256 44.6816 43.4865 45.0511L43.2131 47.6405C43.192 47.8472 43.2554 48.0458 43.3954 48.2004C43.5337 48.3567 43.7258 48.4413 43.9341 48.4413H45.7391C46.0956 48.4413 46.4032 48.1744 46.4569 47.8212L46.8377 45.2333C46.8801 44.9469 46.7515 44.7467 46.6701 44.6523C46.5887 44.5595 46.4097 44.4016 46.1216 44.4016L44.2076 44.4017ZM14.8566 38.697H12.5714C11.3955 38.697 10.3783 37.8197 10.2058 36.656L9.82409 34.0746C9.72156 33.3878 9.92337 32.6896 10.3783 32.1639C10.8324 31.6365 11.4924 31.3338 12.189 31.3338H14.5823C15.8095 31.3338 16.8316 32.2534 16.9602 33.4724L17.2337 36.0521C17.3053 36.726 17.0864 37.4014 16.6331 37.906C16.1806 38.4089 15.5328 38.697 14.8566 38.697ZM12.189 33.0004C11.9001 33.0004 11.721 33.1583 11.6405 33.2511C11.5591 33.3455 11.4305 33.5457 11.4728 33.8305L11.8545 36.4119C11.9066 36.765 12.215 37.0303 12.5714 37.0303H14.8566C15.0641 37.0303 15.2553 36.9457 15.3945 36.7911C15.5337 36.6348 15.5988 36.4363 15.5768 36.2279L15.3033 33.6482C15.2643 33.2787 14.9542 33.0004 14.5823 33.0004H12.189ZM25.9689 50.108H24.1387C22.8805 50.108 21.8324 49.1249 21.7526 47.8684L21.5874 45.2789C21.5451 44.623 21.7795 43.9703 22.2295 43.4902C22.6796 43.0101 23.3151 42.735 23.9735 42.735H25.9168C27.2091 42.735 28.2817 43.7864 28.3077 45.0787L28.3598 47.6682C28.3728 48.316 28.1303 48.928 27.6771 49.3902C27.2238 49.8524 26.6167 50.108 25.9689 50.108ZM23.9735 44.4017C23.7708 44.4017 23.5837 44.483 23.4453 44.6311C23.307 44.7776 23.2378 44.9697 23.2508 45.1715L23.416 47.7626C23.4404 48.1435 23.7578 48.4413 24.1387 48.4413H25.9689C26.165 48.4413 26.3489 48.3648 26.4864 48.2232C26.624 48.0832 26.6972 47.8977 26.6931 47.7008L26.6411 45.1113C26.6337 44.7207 26.3082 44.4016 25.9168 44.4016L23.9735 44.4017ZM35.8597 50.108H34.0319C33.3825 50.108 32.7754 49.8524 32.3213 49.3886C31.8689 48.9247 31.6264 48.3127 31.641 47.665L31.698 45.0755C31.7256 43.7848 32.7982 42.735 34.0889 42.735H36.0241C36.6816 42.735 37.318 43.0101 37.7689 43.4902C38.2197 43.9703 38.4541 44.6214 38.4117 45.2773V45.2789L38.2457 47.87C38.166 49.1249 37.1178 50.108 35.8597 50.108ZM34.0889 44.4017C33.6918 44.4017 33.3727 44.7125 33.3646 45.1113L33.3077 47.7008C33.3028 47.8977 33.376 48.0833 33.5127 48.2232C33.6511 48.3632 33.835 48.4413 34.0319 48.4413H35.8597C36.2406 48.4413 36.5579 48.1435 36.5823 47.7642L36.7484 45.1731C36.7614 44.9713 36.6914 44.7793 36.5531 44.6312C36.4147 44.483 36.2275 44.4017 36.0241 44.4017L34.0889 44.4017ZM47.4367 38.697H45.1418C44.4647 38.697 43.817 38.4089 43.3645 37.9044C42.9104 37.4014 42.6923 36.726 42.7639 36.0522L43.0373 33.4724C43.1676 32.2534 44.1897 31.3338 45.4152 31.3338H47.8192C48.5142 31.3338 49.1733 31.6357 49.6291 32.1622C50.0832 32.6879 50.2866 33.3862 50.1857 34.073C50.1857 34.0747 50.1857 34.0747 50.1841 34.0747L49.8016 36.656C49.629 37.8197 48.6118 38.697 47.4367 38.697ZM45.4152 33.0004C45.0441 33.0004 44.7333 33.2787 44.6942 33.6482L44.4208 36.2279C44.3996 36.4346 44.4631 36.6348 44.6031 36.7894C44.743 36.9457 44.9335 37.0303 45.1418 37.0303H47.4367C47.7931 37.0303 48.1007 36.7634 48.1545 36.4102L48.5353 33.8321C48.5776 33.5457 48.4491 33.3455 48.3677 33.2511C48.2863 33.1583 48.1073 33.0004 47.8192 33.0004L45.4152 33.0004ZM56.6343 20.5761H50.9813C52.0125 19.5448 52.65 18.1292 52.65 16.5636C52.65 13.4323 50.1 10.8823 46.9687 10.8823H46.4533C46.9861 10.1809 47.3146 9.31677 47.3146 8.37022C47.3146 6.06635 45.4396 4.19141 43.135 4.19141H16.8642C14.5604 4.19141 12.6862 6.06635 12.6862 8.37022C12.6862 9.31676 13.0146 10.1809 13.5471 10.8823H10.6031C9.73126 10.8823 8.91563 11.2198 8.30624 11.8386C7.68752 12.4479 7.35003 13.2729 7.35003 14.1448C7.35003 15.1011 7.77186 15.9635 8.42812 16.5636C8.39063 16.601 8.34377 16.6386 8.30624 16.6761V16.6855C7.63127 17.3511 7.28439 18.2886 7.35936 19.2354C7.39689 19.7229 7.54687 20.1729 7.78124 20.5761H3.36565C1.50937 20.5761 0 22.0854 0 23.9323C0 25.6667 1.31252 27.0917 2.99063 27.2792L7.0875 48.7573C7.86564 52.8448 11.4469 55.8073 15.6 55.8073H44.4C48.5531 55.8073 52.1344 52.8448 52.9125 48.7573L57.0094 27.2792C58.6875 27.0917 60 25.6667 60 23.9323C60 22.0854 58.4906 20.5761 56.6343 20.5761ZM14.3528 8.37022C14.3528 6.98514 15.4791 5.85807 16.8642 5.85807H43.135C44.5201 5.85807 45.648 6.98514 45.648 8.37022C45.648 9.75512 44.5205 10.882 43.1356 10.8823H16.8636C15.4787 10.882 14.3528 9.75513 14.3528 8.37022ZM9.01875 19.1136C8.98127 18.6355 9.15001 18.1948 9.47812 17.8573C9.78751 17.5573 10.1812 17.398 10.6031 17.398C10.6094 17.398 10.6146 17.3945 10.6209 17.3943H47.7346C48.1951 17.3943 48.5679 17.0216 48.5679 16.561C48.5679 16.1004 48.1951 15.7277 47.7346 15.7277H10.6021C10.6005 15.7277 10.5991 15.7286 10.5975 15.7286C9.72822 15.7255 9.01875 15.0148 9.01875 14.1448C9.01875 13.7136 9.17811 13.3105 9.47812 13.0105C9.77812 12.7105 10.1812 12.5511 10.6031 12.5511H46.9687C49.1813 12.5511 50.9813 14.3511 50.9813 16.5636C50.9813 18.7761 49.1813 20.5761 46.9687 20.5761H36.4348C35.7945 19.8882 34.889 19.4508 33.8773 19.4508H26.1219C25.1102 19.4508 24.2048 19.8882 23.5648 20.5761H10.7156C9.84375 20.5761 9.08437 19.9198 9.01875 19.1136ZM24.2852 24.9162V22.9542C24.2852 21.941 25.1087 21.1175 26.1219 21.1175H33.8773C34.8913 21.1175 35.7148 21.941 35.7148 22.9542V24.9162C35.7148 25.9294 34.8913 26.7529 33.8773 26.7529H26.1219C25.1087 26.7529 24.2852 25.9294 24.2852 24.9162ZM1.66878 23.9323C1.66878 23.0042 2.42815 22.2354 3.36565 22.2354H10.7156H22.694C22.6454 22.4677 22.6185 22.7077 22.6185 22.9542V24.9162C22.6185 25.1605 22.6444 25.3988 22.6922 25.6292H3.36565C3.10312 25.6292 2.85937 25.5729 2.64376 25.4604C2.07189 25.198 1.66878 24.6073 1.66878 23.9323ZM51.2719 48.448C50.6438 51.748 47.7563 54.1386 44.4 54.1386H15.6C12.2437 54.1386 9.35623 51.748 8.72812 48.448L4.69688 27.298H23.5678C24.2077 27.9838 25.1119 28.4196 26.1219 28.4196H33.8773C34.8873 28.4196 35.7917 27.9838 36.4319 27.298H55.3031L51.2719 48.448ZM57.3562 25.4604C57.1406 25.5729 56.8969 25.6292 56.6343 25.6292H37.3077C37.3556 25.3988 37.3815 25.1605 37.3815 24.9162V22.9542C37.3815 22.7077 37.3545 22.4677 37.3059 22.2354H46.9687H56.6343C57.5718 22.2354 58.3312 23.0042 58.3312 23.9323C58.3312 24.6073 57.9281 25.198 57.3562 25.4604Z" fill="#2946B8"/>
</g>
<defs>
<clipPath id="clip0_2_10645">
<rect width="60" height="60" fill="white"/>
</clipPath>
</defs>
</svg>
