<svg xmlns="http://www.w3.org/2000/svg" viewBox="0 0 64 64" id="protection"><path d="M30.13 34.62a2 2 0 0 0 .86.2 2 2 0 0 0 .86-.2A23.2 23.2 0 0 0 43.4 22.28c1.76-4 2.91-8.81 3.74-15.53a2 2 0 0 0-.49-1.57 2 2 0 0 0-1.49-.67H45A20.07 20.07 0 0 1 32.22.42a2 2 0 0 0-2.46 0A20 20 0 0 1 17 4.51h-.13a2 2 0 0 0-1.5.67 2 2 0 0 0-.49 1.58c.83 6.71 2 11.5 3.74 15.51a23.19 23.19 0 0 0 11.51 12.35ZM33 5.66a24.44 24.44 0 0 0 9.89 2.78 64 64 0 0 1-1.36 7H33Zm-4 13.75v9.9a20.15 20.15 0 0 1-6.75-8.63c-.18-.42-.35-.84-.52-1.27Z"></path><path d="M43 56.7a2 2 0 0 0 1.4-.57l16.06-15.8a1.14 1.14 0 0 0 .15-.17 6.52 6.52 0 0 0 .77-1.08 5.49 5.49 0 0 0 .63-2.4 5.56 5.56 0 0 0-5.4-5.68 5.49 5.49 0 0 0-3.46 1.14l-.15.06-8.19 7.26a5.88 5.88 0 0 0-5.14-3.38l-19.5-.67a2 2 0 0 0-1.47.59l-7.23 7.23L10 41.48a2 2 0 0 0-2.83-.19L.69 46.9a2 2 0 0 0-.2 2.82l11.85 13.59a2 2 0 0 0 1.37.69h.14a2 2 0 0 0 1.32-.49l6.43-5.62a2 2 0 0 0 .64-1.89l20.66.7Zm-22.4-4.76a2 2 0 0 0-1.22.37l-5.28-6.06 6.81-6.81 18.63.64a1.93 1.93 0 0 1 1.86 2 2 2 0 0 1-.17.72v.09a1.94 1.94 0 0 1-1.77 1.05l-9.5-.32-.13 4 9.69.33a5.91 5.91 0 0 0 5-2.85l11.08-9.81a1.38 1.38 0 0 1 .89-.31 1.55 1.55 0 0 1 1.08.49 1.61 1.61 0 0 1 .29 1.72l-.3.39-15.38 15.09Z"></path></svg>