<svg width="386" height="313" viewBox="0 0 386 313" fill="none" xmlns="http://www.w3.org/2000/svg">
<g opacity="0.02">
<path d="M289.808 0.153412C312.451 0.178375 334.16 9.22366 350.171 25.3047C366.182 41.3858 375.188 63.1893 375.213 85.9313C375.213 86.0728 375.213 86.2195 375.213 86.3609C375.213 86.6438 375.249 87.0682 375.281 87.6288C377.033 118.78 371.963 202.886 287.236 310.658C286.473 311.626 285.394 312.292 284.19 312.539C282.985 312.786 281.733 312.597 280.653 312.007C279.573 311.417 278.736 310.463 278.288 309.313C277.841 308.163 277.812 306.892 278.207 305.723C278.447 305.01 301.602 235.347 285.781 171.604C263.497 170.554 242.507 160.789 227.3 144.397C212.092 128.004 203.874 106.287 204.403 83.8876C204.932 61.4885 214.165 40.1863 230.13 24.5364C246.094 8.88654 267.521 0.131287 289.829 0.142914L289.808 0.153412ZM364.78 85.6327C364.723 70.7524 360.277 56.2229 352.003 43.8785C343.73 31.5342 332.001 21.9285 318.297 16.2741C304.592 10.6198 289.527 9.17044 275.003 12.1089C260.479 15.0475 247.147 22.2421 236.692 32.7846C226.236 43.3271 219.124 56.7447 216.255 71.3434C213.386 85.9421 214.887 101.067 220.57 114.809C226.253 128.552 235.863 140.295 248.186 148.556C260.508 156.817 274.992 161.226 289.808 161.226C290.95 161.226 292.061 161.603 292.969 162.299C293.877 162.995 294.533 163.97 294.836 165.077C306.833 208.927 300.949 254.925 294.987 282.839C362.193 188.285 366.413 116.113 364.843 88.2155C364.772 87.3565 364.751 86.4941 364.78 85.6327Z" fill="#00151D"/>
<path d="M95.8388 0.155365C118.482 0.180328 140.191 9.22562 156.202 25.3067C172.213 41.3878 181.219 63.1912 181.244 85.9333C181.244 86.0747 181.244 86.2214 181.244 86.3629C181.244 86.6458 181.28 87.0701 181.312 87.6307C183.064 118.782 177.994 202.888 93.2672 310.66C92.5042 311.628 91.4253 312.294 90.2209 312.541C89.0165 312.788 87.764 312.599 86.6843 312.009C85.6046 311.419 84.7671 310.465 84.3195 309.315C83.8719 308.165 83.843 306.894 84.2379 305.724C84.4779 305.012 107.633 235.349 91.8119 171.606C69.5285 170.556 48.5386 160.791 33.331 144.399C18.1234 128.006 9.90533 106.289 10.4341 83.8895C10.9629 61.4905 20.1966 40.1883 36.1606 24.5384C52.1247 8.88849 73.5517 0.13324 95.8596 0.144867L95.8388 0.155365ZM170.811 85.6347C170.754 70.7544 166.308 56.2249 158.035 43.8805C149.761 31.5361 138.032 21.9304 124.328 16.2761C110.623 10.6218 95.5581 9.17239 81.0341 12.1109C66.5101 15.0494 53.1786 22.2441 42.7227 32.7866C32.2668 43.329 25.1553 56.7466 22.286 71.3453C19.4168 85.944 20.9184 101.069 26.6014 114.811C32.2844 128.554 41.8939 140.297 54.2167 148.558C66.5395 156.819 81.0231 161.228 95.8388 161.228C96.9811 161.228 98.0918 161.605 99.0002 162.301C99.9086 162.996 100.565 163.972 100.867 165.079C112.865 208.929 106.981 254.927 101.019 282.841C168.224 188.287 172.449 116.115 170.879 88.2175C170.807 87.3586 170.784 86.4962 170.811 85.6347Z" fill="#00151D"/>
</g>
</svg>
