<svg width="80" height="80" viewBox="0 0 80 80" fill="none" xmlns="http://www.w3.org/2000/svg">
<path d="M60.0637 7.75867C64.7566 7.76382 69.2558 9.63035 72.5742 12.9487C75.8926 16.2671 77.7591 20.7663 77.7642 25.4592C77.7642 25.4884 77.7642 25.5187 77.7642 25.5479C77.7642 25.6062 77.7718 25.6938 77.7783 25.8095C78.1415 32.2376 77.0907 49.5933 59.5307 71.8322C59.3726 72.0319 59.149 72.1694 58.8994 72.2203C58.6498 72.2713 58.3902 72.2325 58.1664 72.1107C57.9426 71.9889 57.7691 71.792 57.6763 71.5547C57.5835 71.3175 57.5775 71.0551 57.6594 70.8138C57.7091 70.6668 62.508 56.2917 59.2291 43.1381C54.6108 42.9214 50.2606 40.9063 47.1087 37.5237C43.9569 34.1411 42.2537 29.6596 42.3633 25.0375C42.4728 20.4154 44.3866 16.0196 47.6952 12.7902C51.0038 9.56078 55.4446 7.75411 60.068 7.75652L60.0637 7.75867ZM75.6021 25.3976C75.5901 22.327 74.6686 19.3288 72.954 16.7815C71.2394 14.2342 68.8084 12.252 65.9681 11.0852C63.1278 9.91846 60.0055 9.61937 56.9954 10.2257C53.9852 10.8321 51.2222 12.3168 49.0552 14.4922C46.8882 16.6677 45.4143 19.4365 44.8196 22.4489C44.2249 25.4614 44.5362 28.5826 45.714 31.4183C46.8918 34.2541 48.8834 36.6773 51.4374 38.382C53.9913 40.0867 56.9931 40.9965 60.0637 40.9965C60.3005 40.9966 60.5306 41.0744 60.7189 41.2179C60.9072 41.3614 61.0431 41.5628 61.1059 41.7911C63.5923 50.8398 62.3729 60.3317 61.1372 66.0917C75.0659 46.5803 75.9405 31.6873 75.6151 25.9306C75.6004 25.7533 75.596 25.5754 75.6021 25.3976Z" fill="#8CC63F"/>
<path d="M19.8628 7.75867C24.5557 7.76382 29.0549 9.63035 32.3733 12.9487C35.6916 16.2671 37.5582 20.7663 37.5633 25.4592C37.5633 25.4884 37.5633 25.5187 37.5633 25.5479C37.5633 25.6062 37.5709 25.6938 37.5774 25.8095C37.9406 32.2376 36.8898 49.5933 19.3298 71.8322C19.1717 72.0319 18.9481 72.1694 18.6984 72.2203C18.4488 72.2713 18.1892 72.2325 17.9655 72.1107C17.7417 71.9889 17.5681 71.792 17.4754 71.5547C17.3826 71.3175 17.3766 71.0551 17.4584 70.8138C17.5082 70.6668 22.3071 56.2917 19.0282 43.1381C14.4099 42.9214 10.0596 40.9063 6.9078 37.5237C3.75597 34.1411 2.05273 29.6596 2.16232 25.0375C2.27192 20.4154 4.18564 16.0196 7.49425 12.7902C10.8028 9.56078 15.2437 7.75411 19.8671 7.75652L19.8628 7.75867ZM35.4012 25.3976C35.3892 22.327 34.4677 19.3288 32.7531 16.7815C31.0384 14.2342 28.6075 12.252 25.7672 11.0852C22.9269 9.91846 19.8046 9.61937 16.7944 10.2257C13.7843 10.8321 11.0213 12.3168 8.85426 14.4922C6.68723 16.6677 5.21334 19.4365 4.61868 22.4489C4.02402 25.4614 4.33524 28.5826 5.51306 31.4183C6.69088 34.2541 8.68249 36.6773 11.2364 38.382C13.7904 40.0867 16.7922 40.9965 19.8628 40.9965C20.0995 40.9966 20.3297 41.0744 20.518 41.2179C20.7063 41.3614 20.8422 41.5628 20.9049 41.7911C23.3914 50.8398 22.172 60.3317 20.9363 66.0917C34.8649 46.5803 35.7406 31.6873 35.4152 25.9306C35.4002 25.7533 35.3955 25.5754 35.4012 25.3976Z" fill="#8CC63F"/>
</svg>
