<svg width="50" height="50" viewBox="0 0 50 50" fill="none" xmlns="http://www.w3.org/2000/svg">
<path d="M18.7503 16.666C16.4451 16.6671 14.221 17.5175 12.5031 19.0548C10.7852 20.592 9.69397 22.7084 9.43783 24.9993H8.33366C8.05739 24.9993 7.79244 25.1091 7.59709 25.3044C7.40174 25.4998 7.29199 25.7647 7.29199 26.041C7.29199 26.3173 7.40174 26.5822 7.59709 26.7776C7.79244 26.9729 8.05739 27.0827 8.33366 27.0827H9.43783C9.63893 28.8814 10.3564 30.5835 11.5037 31.9834C12.6509 33.3834 14.1789 34.4212 15.9031 34.9718C17.6273 35.5223 19.474 35.562 21.2203 35.086C22.9665 34.61 24.5376 33.6387 25.744 32.2894C26.9503 30.94 27.7402 29.2703 28.0184 27.4818C28.2966 25.6934 28.0511 23.8626 27.3116 22.2106C26.5721 20.5586 25.3702 19.156 23.851 18.1721C22.3318 17.1883 20.5603 16.6652 18.7503 16.666ZM18.7503 33.3327C16.9984 33.3306 15.3058 32.6979 13.9821 31.5502C12.6585 30.4025 11.7923 28.8166 11.542 27.0827H13.542C13.8183 27.0827 14.0832 26.9729 14.2786 26.7776C14.4739 26.5822 14.5837 26.3173 14.5837 26.041C14.5837 25.7647 14.4739 25.4998 14.2786 25.3044C14.0832 25.1091 13.8183 24.9993 13.542 24.9993H11.542C11.7417 23.6157 12.335 22.3185 13.2512 21.2625C14.1674 20.2066 15.3678 19.4362 16.7095 19.0433C18.0512 18.6503 19.4775 18.6514 20.8186 19.0463C22.1597 19.4413 23.359 20.2134 24.2736 21.2707C25.1883 22.3281 25.7796 23.6261 25.9773 25.0101C26.1749 26.3941 25.9706 27.8057 25.3885 29.0768C24.8065 30.3479 23.8713 31.4249 22.6943 32.1795C21.5174 32.934 20.1484 33.3343 18.7503 33.3327Z" fill="white"/>
<path d="M48.9583 0H1.04167C0.765399 0 0.500448 0.109747 0.305097 0.305097C0.109747 0.500448 0 0.765399 0 1.04167L0 48.9583C0 49.2346 0.109747 49.4995 0.305097 49.6949C0.500448 49.8903 0.765399 50 1.04167 50H48.9583C49.2346 50 49.4995 49.8903 49.6949 49.6949C49.8903 49.4995 50 49.2346 50 48.9583V1.04167C50 0.765399 49.8903 0.500448 49.6949 0.305097C49.4995 0.109747 49.2346 0 48.9583 0ZM2.08333 2.08333H35.4167V8.33333H2.08333V2.08333ZM2.08333 10.4167H35.4167V47.9167H2.08333V10.4167ZM47.9167 47.9167H37.5V2.08333H47.9167V47.9167Z" fill="white"/>
<path d="M32.292 21.875H31.6357C27.6253 9.375 9.87533 9.375 5.86491 21.875H5.20866C4.93239 21.875 4.66744 21.9847 4.47209 22.1801C4.27674 22.3754 4.16699 22.6404 4.16699 22.9167V29.1667C4.16699 29.4429 4.27674 29.7079 4.47209 29.9032C4.66744 30.0986 4.93239 30.2083 5.20866 30.2083H5.86491C9.87533 42.7083 27.6253 42.7083 31.6357 30.2083H32.292C32.5683 30.2083 32.8332 30.0986 33.0286 29.9032C33.2239 29.7079 33.3337 29.4429 33.3337 29.1667V22.9167C33.3337 22.6404 33.2239 22.3754 33.0286 22.1801C32.8332 21.9847 32.5683 21.875 32.292 21.875ZM31.2503 28.125H30.8545C30.6179 28.1175 30.3859 28.1908 30.1965 28.3328C30.0072 28.4748 29.8719 28.6771 29.8128 28.9062C26.8857 40.3646 10.5524 40.3646 7.62533 28.9062C7.56628 28.6771 7.43094 28.4748 7.2416 28.3328C7.05226 28.1908 6.82021 28.1175 6.58366 28.125H6.25033V23.9583H6.64616C6.88271 23.9658 7.11476 23.8925 7.3041 23.7505C7.49344 23.6085 7.62878 23.4063 7.68783 23.1771C10.6149 11.7188 26.9482 11.7188 29.8753 23.1771C29.9344 23.4063 30.0697 23.6085 30.259 23.7505C30.4484 23.8925 30.6804 23.9658 30.917 23.9583H31.2503V28.125ZM12.5003 40.625C11.8823 40.625 11.2781 40.8083 10.7642 41.1517C10.2503 41.495 9.84973 41.9831 9.6132 42.5541C9.37668 43.1251 9.31479 43.7535 9.43537 44.3597C9.55595 44.9658 9.85358 45.5227 10.2906 45.9597C10.7277 46.3967 11.2845 46.6944 11.8907 46.815C12.4969 46.9355 13.1252 46.8736 13.6962 46.6371C14.2672 46.4006 14.7553 46.0001 15.0987 45.4862C15.442 44.9723 15.6253 44.3681 15.6253 43.75C15.6253 42.9212 15.2961 42.1263 14.71 41.5403C14.124 40.9542 13.3291 40.625 12.5003 40.625ZM12.5003 44.7917C12.2241 44.7917 11.9591 44.6819 11.7638 44.4866C11.5684 44.2912 11.4587 44.0263 11.4587 43.75C11.4587 43.4737 11.5684 43.2088 11.7638 43.0134C11.9591 42.8181 12.2241 42.7083 12.5003 42.7083C12.7766 42.7083 13.0415 42.8181 13.2369 43.0134C13.4322 43.2088 13.542 43.4737 13.542 43.75C13.542 44.0263 13.4322 44.2912 13.2369 44.4866C13.0415 44.6819 12.7766 44.7917 12.5003 44.7917ZM25.0003 40.625C24.3823 40.625 23.7781 40.8083 23.2642 41.1517C22.7503 41.495 22.3497 41.9831 22.1132 42.5541C21.8767 43.1251 21.8148 43.7535 21.9354 44.3597C22.056 44.9658 22.3536 45.5227 22.7906 45.9597C23.2277 46.3967 23.7845 46.6944 24.3907 46.815C24.9969 46.9355 25.6252 46.8736 26.1962 46.6371C26.7672 46.4006 27.2553 46.0001 27.5987 45.4862C27.942 44.9723 28.1253 44.3681 28.1253 43.75C28.1253 42.9212 27.7961 42.1263 27.21 41.5403C26.624 40.9542 25.8291 40.625 25.0003 40.625ZM25.0003 44.7917C24.7241 44.7917 24.4591 44.6819 24.2638 44.4866C24.0684 44.2912 23.9587 44.0263 23.9587 43.75C23.9587 43.4737 24.0684 43.2088 24.2638 43.0134C24.4591 42.8181 24.7241 42.7083 25.0003 42.7083C25.2766 42.7083 25.5415 42.8181 25.7369 43.0134C25.9322 43.2088 26.042 43.4737 26.042 43.75C26.042 44.0263 25.9322 44.2912 25.7369 44.4866C25.5415 44.6819 25.2766 44.7917 25.0003 44.7917ZM42.7087 46.875C43.3267 46.875 43.9309 46.6917 44.4448 46.3483C44.9587 46.005 45.3593 45.5169 45.5958 44.9459C45.8323 44.3749 45.8942 43.7465 45.7736 43.1403C45.653 42.5342 45.3554 41.9773 44.9184 41.5403C44.4813 41.1033 43.9245 40.8056 43.3183 40.685C42.7121 40.5645 42.0838 40.6264 41.5128 40.8629C40.9418 41.0994 40.4537 41.4999 40.1103 42.0138C39.7669 42.5277 39.5837 43.1319 39.5837 43.75C39.5837 44.5788 39.9129 45.3737 40.499 45.9597C41.085 46.5458 41.8799 46.875 42.7087 46.875ZM42.7087 42.7083C42.9849 42.7083 43.2499 42.8181 43.4452 43.0134C43.6406 43.2088 43.7503 43.4737 43.7503 43.75C43.7503 44.0263 43.6406 44.2912 43.4452 44.4866C43.2499 44.6819 42.9849 44.7917 42.7087 44.7917C42.4324 44.7917 42.1674 44.6819 41.9721 44.4866C41.7767 44.2912 41.667 44.0263 41.667 43.75C41.667 43.4737 41.7767 43.2088 41.9721 43.0134C42.1674 42.8181 42.4324 42.7083 42.7087 42.7083Z" fill="white"/>
<path d="M18.7503 7.29167C19.9009 7.29167 20.8337 6.35893 20.8337 5.20833C20.8337 4.05774 19.9009 3.125 18.7503 3.125C17.5997 3.125 16.667 4.05774 16.667 5.20833C16.667 6.35893 17.5997 7.29167 18.7503 7.29167Z" fill="white"/>
<path d="M12.4997 4.16602H6.24967C5.97341 4.16602 5.70846 4.27576 5.51311 4.47111C5.31775 4.66646 5.20801 4.93142 5.20801 5.20768C5.20801 5.48395 5.31775 5.7489 5.51311 5.94425C5.70846 6.1396 5.97341 6.24935 6.24967 6.24935H12.4997C12.7759 6.24935 13.0409 6.1396 13.2362 5.94425C13.4316 5.7489 13.5413 5.48395 13.5413 5.20768C13.5413 4.93142 13.4316 4.66646 13.2362 4.47111C13.0409 4.27576 12.7759 4.16602 12.4997 4.16602ZM31.2497 4.16602H24.9997C24.7234 4.16602 24.4585 4.27576 24.2631 4.47111C24.0678 4.66646 23.958 4.93142 23.958 5.20768C23.958 5.48395 24.0678 5.7489 24.2631 5.94425C24.4585 6.1396 24.7234 6.24935 24.9997 6.24935H31.2497C31.5259 6.24935 31.7909 6.1396 31.9862 5.94425C32.1816 5.7489 32.2913 5.48395 32.2913 5.20768C32.2913 4.93142 32.1816 4.66646 31.9862 4.47111C31.7909 4.27576 31.5259 4.16602 31.2497 4.16602Z" fill="white"/>
</svg>
