<svg width="70" height="70" viewBox="0 0 70 70" fill="none" xmlns="http://www.w3.org/2000/svg">
<g clip-path="url(#clip0_2_9514)">
<path d="M51.3521 41.9399C51.3511 41.0784 51.0084 40.2524 50.3992 39.6432C49.79 39.034 48.964 38.6913 48.1024 38.6903H38.2685C39.6266 35.3988 39.6315 31.7045 38.2822 28.4094C38.2704 28.3805 38.2569 28.3523 38.2417 28.325C37.9643 27.826 37.5532 27.4143 37.0546 27.1362C36.556 26.858 35.9897 26.7246 35.4194 26.7508C34.8491 26.777 34.2974 26.9619 33.8264 27.2845C33.3554 27.6072 32.9838 28.0549 32.7534 28.5773C32.7171 28.6597 32.6952 28.7479 32.6889 28.8378L32.4567 32.1334C32.1093 34.0274 31.0873 35.7313 29.5801 36.9297C28.9764 37.1416 27.8711 37.8912 24.9877 40.6349V40.5529C24.9873 40.121 24.8155 39.7068 24.51 39.4014C24.2045 39.0959 23.7904 38.9241 23.3584 38.9237H15.1567C14.7248 38.9242 14.3106 39.096 14.0052 39.4014C13.6998 39.7068 13.528 40.121 13.5275 40.5529V56.9201C13.5278 57.3522 13.6996 57.7664 14.005 58.072C14.3105 58.3775 14.7247 58.5494 15.1567 58.5498H23.3579C23.7899 58.5494 24.204 58.3776 24.5095 58.0722C24.815 57.7667 24.9868 57.3526 24.9872 56.9206V56.8488C27.2425 57.3463 28.4195 57.9375 29.7925 59.2129C30.3323 59.7264 31.0512 60.0088 31.7962 60H44.5086C45.1255 60.0002 45.7297 59.8248 46.2505 59.4942C46.7713 59.1636 47.1872 58.6915 47.4495 58.1332C47.7118 57.5749 47.8098 56.9534 47.7318 56.3415C47.6538 55.7295 47.4032 55.1524 47.0093 54.6777C48.0238 54.0675 48.7456 52.9749 48.7456 51.8141C48.7464 51.0919 48.5053 50.3902 48.0609 49.8209C49.0943 49.2089 49.8357 48.0791 49.8357 46.8772C49.8365 46.1997 49.6244 45.539 49.2292 44.9887C49.8518 44.7577 50.3888 44.3418 50.7683 43.7969C51.1477 43.2519 51.3514 42.604 51.3521 41.9399ZM23.4247 56.9204C23.4241 56.9379 23.4168 56.9545 23.4044 56.9669C23.392 56.9793 23.3754 56.9865 23.3579 56.9871H15.1567C15.1392 56.9865 15.1226 56.9793 15.1103 56.9669C15.0979 56.9545 15.0907 56.9379 15.09 56.9204V40.5532C15.0907 40.5357 15.0979 40.5192 15.1103 40.5068C15.1227 40.4944 15.1393 40.4872 15.1567 40.4865H23.3579C23.3754 40.4872 23.392 40.4944 23.4044 40.5068C23.4168 40.5191 23.424 40.5357 23.4247 40.5532V56.9204ZM48.1024 43.627H45.3871C45.1799 43.627 44.9812 43.7093 44.8347 43.8558C44.6882 44.0023 44.6059 44.201 44.6059 44.4082C44.6059 44.6154 44.6882 44.8141 44.8347 44.9606C44.9812 45.1071 45.1799 45.1895 45.3871 45.1895H46.5861C47.0334 45.1901 47.4622 45.368 47.7784 45.6843C48.0947 46.0005 48.2726 46.4293 48.2732 46.8766C48.2732 47.7555 47.4047 48.6496 46.5133 48.7268C46.1851 48.6185 45.8416 48.5635 45.496 48.5638C45.2888 48.5638 45.0901 48.6461 44.9436 48.7926C44.7971 48.9391 44.7147 49.1378 44.7147 49.345C44.7147 49.5522 44.7971 49.7509 44.9436 49.8974C45.0901 50.044 45.2888 50.1263 45.496 50.1263C45.6935 50.1261 45.8896 50.1607 46.0751 50.2286C46.0957 50.2377 46.1166 50.2459 46.1381 50.2531C46.447 50.3807 46.7112 50.5971 46.8972 50.8748C47.0832 51.1525 47.1826 51.4791 47.183 51.8134C47.183 52.6747 46.2799 53.5517 45.3604 53.6138C45.0827 53.5384 44.7962 53.5003 44.5085 53.5005C44.3013 53.5005 44.1026 53.5828 43.9561 53.7293C43.8096 53.8758 43.7272 54.0745 43.7272 54.2817C43.7272 54.4889 43.8096 54.6877 43.9561 54.8342C44.1026 54.9807 44.3013 55.063 44.5085 55.063C44.6721 55.0629 44.8349 55.0866 44.9916 55.1335C45.0101 55.1401 45.0289 55.1462 45.048 55.1515C45.4273 55.2793 45.7487 55.5378 45.955 55.8807C46.1612 56.2236 46.2389 56.6287 46.1741 57.0236C46.1092 57.4185 45.9062 57.7775 45.6011 58.0365C45.296 58.2955 44.9088 58.4376 44.5086 58.4375H31.7962C31.6228 58.4414 31.4504 58.4107 31.2889 58.3473C31.1275 58.2839 30.9803 58.189 30.8559 58.0682C29.1967 56.5267 27.7464 55.8249 24.9872 55.2508V42.8042L25.1258 42.6693C28.9604 38.9454 29.8997 38.4619 30.0991 38.4032C30.2149 38.3794 30.3238 38.3297 30.4177 38.2577C32.306 36.8113 33.5847 34.7107 34.0022 32.369C34.0071 32.3416 34.0106 32.314 34.0126 32.2862L34.2372 29.0982C34.3641 28.8645 34.5507 28.6685 34.778 28.5303C35.0052 28.392 35.2651 28.3165 35.531 28.3113C35.797 28.3062 36.0596 28.3716 36.292 28.5009C36.5245 28.6302 36.7185 28.8188 36.8544 29.0475C37.5068 30.6604 37.7996 32.3961 37.7124 34.1338C37.6253 35.8715 37.1602 37.5692 36.3496 39.1087C36.2871 39.2278 36.2563 39.361 36.2604 39.4954C36.2644 39.6298 36.3031 39.761 36.3726 39.8761C36.4422 39.9912 36.5403 40.0864 36.6574 40.1524C36.7746 40.2185 36.9068 40.2532 37.0413 40.2532H48.1024C48.5477 40.2566 48.9735 40.4359 49.2872 40.7519C49.6008 41.0679 49.7768 41.4951 49.7768 41.9404C49.7768 42.3856 49.6008 42.8128 49.2872 43.1289C48.9735 43.4449 48.5477 43.6242 48.1024 43.6275V43.627ZM20.7764 43.0527V43.147C20.7764 43.3542 20.6941 43.5529 20.5475 43.6994C20.401 43.8459 20.2023 43.9282 19.9951 43.9282C19.7879 43.9282 19.5892 43.8459 19.4427 43.6994C19.2962 43.5529 19.2139 43.3542 19.2139 43.147V43.0527C19.2139 42.8455 19.2962 42.6468 19.4427 42.5003C19.5892 42.3538 19.7879 42.2715 19.9951 42.2715C20.2023 42.2715 20.401 42.3538 20.5475 42.5003C20.6941 42.6468 20.7764 42.8455 20.7764 43.0527ZM44.2188 16.6975C44.1716 16.5525 44.0831 16.4244 43.9641 16.3291C43.8451 16.2338 43.7008 16.1753 43.549 16.161L37.9495 15.6337L35.7171 10.4712C35.6566 10.3312 35.5564 10.2121 35.429 10.1283C35.3016 10.0446 35.1525 10 35 10C34.8475 10 34.6984 10.0446 34.571 10.1283C34.4436 10.2121 34.3434 10.3312 34.2829 10.4712L32.0508 15.6336L26.4514 16.1609C26.2996 16.1753 26.1553 16.2337 26.0363 16.329C25.9173 16.4243 25.8288 16.5523 25.7817 16.6973C25.7346 16.8423 25.7309 16.9979 25.7712 17.145C25.8114 17.2921 25.8938 17.4241 26.0082 17.5249L30.2282 21.2429L28.9995 26.7312C28.9662 26.8799 28.9772 27.0352 29.0311 27.1778C29.0849 27.3205 29.1794 27.4442 29.3027 27.5338C29.426 27.6234 29.5729 27.675 29.7252 27.6822C29.8775 27.6893 30.0286 27.6518 30.1598 27.5741L35 24.7098L39.84 27.5743C39.9713 27.652 40.1223 27.6895 40.2746 27.6824C40.4269 27.6752 40.5738 27.6236 40.6971 27.534C40.8205 27.4444 40.9149 27.3207 40.9688 27.178C41.0226 27.0354 41.0336 26.8801 41.0003 26.7314L39.7717 21.2431L43.9917 17.5251C44.1062 17.4244 44.1887 17.2923 44.229 17.1453C44.2694 16.9982 44.2658 16.8425 44.2188 16.6975ZM38.3923 20.3763C38.2872 20.4688 38.209 20.5879 38.1658 20.721C38.1225 20.8542 38.1158 20.9965 38.1464 21.1331L39.0813 25.3094L35.3984 23.1296C35.2779 23.0583 35.1405 23.0206 35.0005 23.0206C34.8605 23.0206 34.723 23.0583 34.6025 23.1296L30.9196 25.3094L31.8541 21.1328C31.8847 20.9962 31.878 20.8539 31.8347 20.7207C31.7915 20.5876 31.7132 20.4685 31.6082 20.376L28.3972 17.5469L32.6579 17.1455C32.7973 17.1324 32.9306 17.082 33.0438 16.9997C33.1571 16.9174 33.2461 16.8062 33.3017 16.6777L35 12.7499L36.6983 16.678C36.7539 16.8065 36.8429 16.9177 36.9562 17C37.0694 17.0823 37.2027 17.1327 37.3421 17.1458L41.6029 17.5472L38.3923 20.3763ZM57.9729 21.2754C57.9258 21.1304 57.8373 21.0023 57.7183 20.907C57.5993 20.8117 57.455 20.7533 57.3032 20.739L53.3572 20.3673L51.7839 16.7293C51.7234 16.5894 51.6232 16.4702 51.4958 16.3864C51.3684 16.3027 51.2193 16.2581 51.0668 16.2581C50.9143 16.2581 50.7652 16.3027 50.6378 16.3864C50.5104 16.4702 50.4102 16.5894 50.3497 16.7293L48.7769 20.3673L44.8308 20.739C44.679 20.7533 44.5346 20.8117 44.4156 20.907C44.2966 21.0023 44.2081 21.1304 44.161 21.2754C44.1139 21.4204 44.1102 21.576 44.1505 21.7231C44.1908 21.8702 44.2732 22.0022 44.3876 22.103L47.3615 24.7231L46.4957 28.5908C46.4624 28.7396 46.4734 28.8949 46.5273 29.0376C46.5812 29.1802 46.6757 29.304 46.799 29.3936C46.9224 29.4832 47.0693 29.5347 47.2217 29.5418C47.374 29.5489 47.5251 29.5113 47.6562 29.4336L51.0671 27.4149L54.4776 29.4336C54.6088 29.5113 54.7599 29.5489 54.9122 29.5417C55.0645 29.5346 55.2114 29.483 55.3348 29.3934C55.4582 29.3038 55.5526 29.18 55.6065 29.0374C55.6603 28.8947 55.6713 28.7394 55.638 28.5906L54.7721 24.7229L57.7459 22.1028C57.8603 22.0021 57.9427 21.87 57.9829 21.723C58.0232 21.576 58.0195 21.4204 57.9725 21.2754H57.9729ZM53.3929 23.8564C53.2878 23.9489 53.2096 24.068 53.1663 24.2011C53.1231 24.3343 53.1164 24.4766 53.147 24.6132L53.7191 27.1689L51.4648 25.835C51.3444 25.7636 51.2069 25.726 51.0669 25.726C50.9269 25.726 50.7894 25.7636 50.6689 25.835L48.4153 27.1689L48.9874 24.6132C49.018 24.4766 49.0113 24.3343 48.968 24.2011C48.9248 24.068 48.8465 23.9489 48.7415 23.8564L46.7764 22.1252L49.3838 21.8795C49.5232 21.8664 49.6565 21.816 49.7697 21.7337C49.883 21.6514 49.9721 21.5402 50.0276 21.4117L51.0669 19.0079L52.1062 21.4117C52.1617 21.5402 52.2508 21.6514 52.364 21.7337C52.4773 21.816 52.6106 21.8664 52.75 21.8795L55.3574 22.1252L53.3929 23.8564ZM25.1702 20.739L21.2242 20.3673L19.6503 16.7293C19.5898 16.5894 19.4896 16.4702 19.3622 16.3864C19.2348 16.3027 19.0857 16.2581 18.9332 16.2581C18.7807 16.2581 18.6316 16.3027 18.5042 16.3864C18.3768 16.4702 18.2766 16.5894 18.2161 16.7293L16.6433 20.3673L12.6973 20.739C12.5455 20.7533 12.4011 20.8117 12.2821 20.907C12.1631 21.0023 12.0746 21.1304 12.0275 21.2754C11.9804 21.4204 11.9767 21.576 12.017 21.7231C12.0573 21.8702 12.1397 22.0022 12.2541 22.103L15.2279 24.7231L14.362 28.5908C14.3287 28.7396 14.3397 28.8949 14.3936 29.0375C14.4475 29.1801 14.542 29.3038 14.6653 29.3934C14.7887 29.483 14.9355 29.5345 15.0878 29.5417C15.2401 29.5488 15.3912 29.5112 15.5224 29.4336L18.9332 27.4149L22.3438 29.4336C22.475 29.5112 22.626 29.5488 22.7783 29.5416C22.9306 29.5345 23.0775 29.4829 23.2008 29.3933C23.3242 29.3037 23.4186 29.1799 23.4725 29.0373C23.5263 28.8947 23.5373 28.7394 23.504 28.5906L22.6381 24.7229L25.612 22.1028C25.7264 22.002 25.8089 21.87 25.8491 21.7229C25.8894 21.5758 25.8858 21.4202 25.8386 21.2752C25.7915 21.1302 25.703 21.0021 25.584 20.9068C25.465 20.8115 25.3207 20.7531 25.1688 20.7388L25.1702 20.739ZM21.2597 23.8564C21.1546 23.9489 21.0764 24.068 21.0331 24.2011C20.9899 24.3343 20.9832 24.4766 21.0138 24.6132L21.5858 27.1688L19.3312 25.835C19.2107 25.7636 19.0732 25.726 18.9332 25.726C18.7932 25.726 18.6557 25.7636 18.5353 25.835L16.2815 27.1689L16.8537 24.6132C16.8843 24.4766 16.8776 24.3343 16.8343 24.2011C16.7911 24.068 16.7128 23.9489 16.6078 23.8564L14.6428 22.1252L17.2502 21.8795C17.3896 21.8664 17.5229 21.816 17.6361 21.7337C17.7494 21.6514 17.8385 21.5402 17.894 21.4117L18.9332 19.008L19.9725 21.4117C20.028 21.5402 20.1171 21.6514 20.2303 21.7337C20.3436 21.816 20.4768 21.8664 20.6162 21.8795L23.2236 22.1252L21.2597 23.8564Z" fill="white"/>
</g>
<circle cx="35" cy="35" r="34.5" stroke="white"/>
<defs>
<clipPath id="clip0_2_9514">
<rect width="50" height="50" fill="white" transform="translate(10 10)"/>
</clipPath>
</defs>
</svg>
