<svg width="60" height="60" viewBox="0 0 60 60" fill="none" xmlns="http://www.w3.org/2000/svg">
<path d="M43.365 43.8926C42.8788 43.8926 42.4843 44.2863 42.4843 44.7715V46.2309C42.4843 46.464 42.5771 46.6876 42.7423 46.8524C42.9074 47.0172 43.1314 47.1098 43.365 47.1098C43.5985 47.1098 43.8225 47.0172 43.9876 46.8524C44.1528 46.6876 44.2456 46.464 44.2456 46.2309V44.7715C44.2456 44.5384 44.1528 44.3148 43.9876 44.15C43.8225 43.9852 43.5985 43.8926 43.365 43.8926ZM32.2323 43.8926C31.9988 43.8926 31.7748 43.9852 31.6096 44.15C31.4445 44.3148 31.3517 44.5384 31.3517 44.7715V46.2309C31.3517 46.464 31.4445 46.6876 31.6096 46.8524C31.7748 47.0172 31.9988 47.1098 32.2323 47.1098C32.4659 47.1098 32.6899 47.0172 32.855 46.8524C33.0202 46.6876 33.1129 46.464 33.1129 46.2309V44.7715C33.1129 44.2863 32.7185 43.8926 32.2323 43.8926ZM39.6196 45.1008C39.4709 45.0032 38.8118 44.75 38.4004 45.353C38.3344 45.452 38.245 45.5333 38.1401 45.5898C38.0351 45.6462 37.9179 45.676 37.7987 45.6765C37.6821 45.6765 37.3895 45.6449 37.1974 45.353C36.9299 44.9474 36.3842 44.8343 35.9778 45.1007C35.5714 45.367 35.4581 45.9123 35.7251 46.3179C35.9504 46.6615 36.258 46.9435 36.6201 47.1384C36.9822 47.3334 37.3873 47.4351 37.7987 47.4343C38.637 47.4343 39.4122 47.0174 39.8723 46.3179C39.9358 46.2214 39.9796 46.1134 40.0013 46C40.0229 45.8866 40.022 45.7701 39.9985 45.657C39.975 45.544 39.9295 45.4367 39.8644 45.3412C39.7994 45.2458 39.7162 45.164 39.6195 45.1007L39.6196 45.1008Z" fill="#8CC63F"/>
<path d="M46.6092 40.604C39.9374 37.0004 38.7311 32.0204 38.5224 30.047C38.0977 26.0338 34.7624 24.9733 33.058 24.9733C30.4619 24.9733 28.2027 26.8202 27.6857 29.365C27.2518 31.4995 26.7345 34.8989 26.7345 38.9702C26.7345 41.8925 26.8647 44.8287 27.122 47.6971C27.4008 50.8071 29.9744 53.1522 33.1079 53.1522H42.8563C46.1706 53.1522 48.8666 50.4611 48.8666 47.1533V44.3722C48.8666 42.8003 48.0016 41.3559 46.6091 40.6038L46.6092 40.604ZM47.1054 47.1532C47.1054 49.4919 45.1991 51.3943 42.8563 51.3943H33.108C30.8927 51.3943 29.0736 49.7378 28.8763 47.5405C28.6236 44.7244 28.4957 41.8405 28.4957 38.9702C28.4957 35.0449 28.9938 31.7701 29.4116 29.7143C29.763 27.9858 31.2967 26.7311 33.058 26.7311C33.1947 26.7311 36.4048 26.7709 36.7708 30.2315C37.4859 36.9873 43.3031 40.8169 45.7707 42.1499C46.5939 42.5949 47.1057 43.4462 47.1057 44.3724V47.1532H47.1054ZM52.1033 35.0719C52.0611 32.3564 51.5439 28.1986 49.3229 23.8113C48.8286 22.8346 47.88 22.2161 46.7866 22.157C45.695 22.0976 44.6892 22.6093 44.0942 23.5239L41.612 27.3407C40.6814 28.7708 40.6258 30.5762 41.467 32.0521C42.4105 33.7068 44.1048 36.0672 46.8201 37.9151C47.3942 38.306 48.8671 38.8499 50.3256 38.0986C51.4525 37.5182 52.1235 36.339 52.1033 35.0719ZM49.4903 36.5509C48.9487 36.8421 48.3212 36.8092 47.8126 36.463C45.3757 34.8041 43.8493 32.676 42.998 31.1828C42.4834 30.2804 42.5183 29.1745 43.0889 28.298L45.5711 24.4812C46.1555 23.5565 47.3333 23.7523 47.7507 24.6038C49.7687 28.719 50.3026 32.5684 50.3426 35.0994C50.3522 35.7164 50.0334 36.2589 49.4903 36.5509Z" fill="#8CC63F"/>
<path d="M49.1546 14.5427C49.876 13.927 50.3343 13.0129 50.3343 11.9934C50.3343 10.3514 49.1459 8.98172 47.5822 8.69426V4.01145C47.5822 1.7993 45.7798 0 43.5635 0H35.9436C33.7274 0 31.9245 1.79941 31.9245 4.01133V8.69426C30.3613 8.98184 29.1729 10.3514 29.1729 11.9934C29.1729 12.9473 29.5743 13.8089 30.2164 14.4204C28.7198 16.0505 26.5077 18.8214 24.6478 22.6148C21.9729 28.0691 20.7973 33.9707 21.1532 40.1555C21.1821 40.66 21.2107 41.1511 21.2381 41.6295H8.34858C8.11502 41.6295 7.89103 41.722 7.72588 41.8869C7.56073 42.0517 7.46795 42.2753 7.46795 42.5084C7.46795 42.7415 7.56073 42.965 7.72588 43.1298C7.89103 43.2947 8.11502 43.3873 8.34858 43.3873H21.3396C21.419 44.7625 21.4914 46.0189 21.5583 47.167H6.48776C3.91422 47.167 1.81997 45.0769 1.81997 42.5084C1.81997 39.9394 3.91422 37.8497 6.48776 37.8497H17.9822C18.2157 37.8497 18.4397 37.7571 18.6049 37.5923C18.77 37.4274 18.8628 37.2039 18.8628 36.9708C18.8628 36.4852 18.4689 36.0919 17.9822 36.0919H6.48776C2.94283 36.0919 0.0587158 38.9704 0.0587158 42.5084C0.0587158 44.4809 0.95578 46.2478 2.36396 47.4257C1.01508 47.9631 0.0587158 49.2792 0.0587158 50.815C0.0587158 51.921 0.555037 52.9143 1.33656 53.5835C0.555037 54.2532 0.0587158 55.2462 0.0587158 56.3525C0.0587158 58.3635 1.69844 60 3.71331 60H49.2985C53.5885 60 57.1449 56.6528 57.3957 52.3796L57.476 51.0159C57.4896 50.7832 57.4101 50.5546 57.2548 50.3805C57.0996 50.2063 56.8814 50.1008 56.6482 50.0871C56.1624 50.0583 55.746 50.4286 55.7175 50.9133L55.6376 52.2771C55.4415 55.6219 52.657 58.2422 49.2986 58.2422H29.9596C26.6018 58.2422 23.8173 55.6219 23.621 52.2771C23.3832 48.2031 23.1467 44.129 22.9114 40.0548C22.5729 34.1753 23.6898 28.5671 26.2299 23.3872C28.1341 19.503 30.4206 16.7546 31.8269 15.2738C32.0553 15.3227 47.3062 15.3364 47.4685 15.3122C50.6337 18.6539 57.0908 27.1313 56.3468 40.0548C56.1918 42.7501 56.0579 45.0673 55.9422 47.0591C55.9138 47.5433 56.2537 48.013 56.822 47.9888C57.2847 47.9691 57.6733 47.628 57.7003 47.1607C57.8158 45.1689 57.9498 42.8512 58.1054 40.1555C58.8571 27.0919 52.6059 18.3343 49.1546 14.5427ZM24.919 58.2422H3.71331C2.66948 58.2422 1.81997 57.3945 1.81997 56.3521C1.81997 55.3103 2.66936 54.4624 3.71331 54.4624C4.20001 54.4624 4.59394 54.0693 4.59394 53.5835C4.59394 53.0979 4.20001 52.7046 3.71331 52.7046C2.66948 52.7046 1.81997 51.8569 1.81997 50.8145C1.81997 49.7727 2.66936 48.9248 3.71331 48.9248H21.6607C21.7368 50.2341 21.879 52.5966 21.8896 52.7046H8.34858C8.11502 52.7046 7.89103 52.7972 7.72588 52.962C7.56073 53.1269 7.46795 53.3504 7.46795 53.5835C7.46795 53.8166 7.56073 54.0402 7.72588 54.205C7.89103 54.3698 8.11502 54.4624 8.34858 54.4624H22.2652C22.7689 55.9703 23.7026 57.2773 24.919 58.2422ZM35.9436 1.75781H43.5634C44.8082 1.75781 45.8209 2.76855 45.8209 4.01133V8.63754H33.6858V4.01133C33.6858 2.76855 34.6986 1.75781 35.9438 1.75781H35.9436ZM32.5354 13.5914C31.6524 13.5914 30.9342 12.8746 30.9342 11.9934C30.9342 11.1123 31.6524 10.3954 32.5354 10.3954H46.9717C47.8546 10.3954 48.5729 11.1122 48.5729 11.9934C48.5729 12.8747 47.8545 13.5914 46.9717 13.5914H32.5354Z" fill="#8CC63F"/>
</svg>
