<svg width="54" height="54" viewBox="0 0 54 54" fill="none" xmlns="http://www.w3.org/2000/svg">
<path d="M54 1.3803C53.88 0.900299 53.4 0.600299 52.92 0.720299C49.74 1.4403 46.5 1.9803 43.32 2.4603C42.78 1.4403 41.7 0.720299 40.44 0.720299C38.94 0.720299 37.68 1.7403 37.26 3.1803C30.42 3.7803 23.58 3.7803 16.74 3.1803C16.38 1.8003 15.12 0.720299 13.56 0.720299C12.3 0.720299 11.22 1.4403 10.68 2.4603C7.50004 2.0403 4.26004 1.4403 1.08004 0.720299C0.600039 0.540299 0.120039 0.840299 3.92082e-05 1.3803C-0.0599608 1.8603 0.240039 2.3403 0.720039 2.4003C3.90004 3.1203 7.14004 3.6603 10.32 4.1403V9.5403C8.16004 10.7403 6.72004 12.9603 5.94004 16.3803L3.00004 29.1003C2.88004 29.5803 3.18004 30.0003 3.60004 30.1803L12.84 33.1203V52.4403C12.84 52.9203 13.26 53.3403 13.74 53.3403H40.26C40.74 53.3403 41.16 52.9203 41.16 52.4403V33.1203L50.4 30.1803C50.82 30.0603 51.12 29.5803 51 29.1003L48.06 16.3803C47.28 12.9603 45.84 10.7403 43.68 9.5403V4.1403C46.92 3.7203 50.1 3.1203 53.28 2.4003C53.76 2.3403 54.06 1.8603 54 1.3803ZM38.94 3.9003C38.94 3.1203 39.6 2.4603 40.38 2.4603C41.16 2.4603 41.82 3.1203 41.82 3.9003V10.0203C41.82 10.8003 41.16 11.4603 40.38 11.4603C39.6 11.4603 38.94 10.8003 38.94 10.0203V3.9003ZM27 5.3403C30.36 5.3403 33.78 5.1603 37.14 4.9203V8.2203H16.86V4.9203C20.22 5.1603 23.58 5.3403 27 5.3403ZM33.24 9.9603C32.82 13.0203 30.18 15.3603 27 15.3603C23.82 15.3603 21.24 13.0203 20.76 9.9603H33.24ZM13.62 2.4603C14.4 2.4603 15.06 3.1203 15.06 3.9003V10.0203C15.06 10.8003 14.4 11.4603 13.62 11.4603C12.84 11.4603 12.18 10.8003 12.18 10.0203V3.9003C12.12 3.0603 12.78 2.4603 13.62 2.4603ZM14.64 51.5403V48.0603H39.36V51.5403H14.64ZM46.32 16.8003L49.08 28.7403L41.16 31.2603V22.9803C41.16 22.5003 40.74 22.0803 40.26 22.0803C39.78 22.0803 39.36 22.5003 39.36 22.9803V46.2603H14.64V22.9803C14.64 22.5003 14.22 22.0803 13.74 22.0803C13.26 22.0803 12.84 22.5003 12.84 22.9803V31.2003L4.92004 28.6803L7.68004 16.8003C8.28004 14.1603 9.24004 12.4803 10.68 11.4603C11.22 12.5403 12.3 13.2603 13.62 13.2603C15.42 13.2603 16.86 11.8203 16.86 10.0203H18.96C19.38 14.0403 22.86 17.2203 27 17.2203C31.14 17.2203 34.56 14.0403 35.04 10.0203H37.14C37.14 11.8203 38.58 13.2603 40.38 13.2603C41.64 13.2603 42.78 12.5403 43.32 11.4603C44.76 12.4803 45.66 14.1603 46.32 16.8003Z" fill="#8CC63F"/>
<path d="M32.0384 21.6599C31.6784 21.1799 31.3784 20.6999 31.0784 20.3399C30.8984 20.0999 30.6584 19.9199 30.3584 19.9199C30.0584 19.9199 29.7584 20.0399 29.6384 20.3399C29.3984 20.6999 29.0384 21.1799 28.7384 21.6599C27.8984 22.8599 26.9384 24.1799 26.4584 25.1399C26.1584 25.7399 25.9784 26.3999 25.9784 27.1199C25.9784 29.5199 27.9584 31.4999 30.3584 31.4999C32.7584 31.4999 34.7384 29.5199 34.7384 27.1199C34.7384 26.4599 34.5584 25.7399 34.2584 25.1399C33.8384 24.1799 32.8784 22.8599 32.0384 21.6599ZM30.3584 29.6399C28.9184 29.6399 27.7784 28.4999 27.7784 27.0599C27.7784 26.6399 27.8984 26.2799 28.0784 25.9199C28.4984 25.0799 29.3984 23.8199 30.1784 22.6799C30.2384 22.5599 30.2984 22.4999 30.3584 22.3799C30.4184 22.4999 30.4784 22.5599 30.5984 22.6799C31.3784 23.8199 32.2784 25.0799 32.6984 25.9199C32.8784 26.2799 32.9984 26.6399 32.9984 27.0599C32.9384 28.4999 31.7984 29.6399 30.3584 29.6399ZM7.07837 42.4799C6.71837 41.9999 6.41837 41.5799 6.17837 41.1599C5.99837 40.9199 5.75837 40.7999 5.45837 40.7999C5.15837 40.7999 4.85837 40.9799 4.73837 41.2199C4.49837 41.5799 4.13837 42.0599 3.83837 42.5399C2.99837 43.7399 2.03837 45.0599 1.55837 46.0199C1.25837 46.6199 1.07837 47.2799 1.07837 47.9999C1.07837 50.3999 3.05837 52.3799 5.45837 52.3799C7.85837 52.3799 9.83837 50.3999 9.83837 47.9999C9.83837 47.3399 9.65837 46.6799 9.35837 46.0199C8.87837 44.9999 7.91837 43.6799 7.07837 42.4799ZM5.45837 50.5199C4.01837 50.5199 2.87837 49.3799 2.87837 47.9399C2.87837 47.5199 2.99837 47.1599 3.11837 46.7999C3.53837 45.9599 4.43837 44.6999 5.21837 43.5599C5.27837 43.4399 5.33837 43.3799 5.39837 43.2599C5.45837 43.3199 5.51837 43.4399 5.57837 43.4999C6.35837 44.6399 7.25837 45.8999 7.67837 46.7399C7.85837 47.0999 7.97837 47.4599 7.97837 47.8799C8.03837 49.3199 6.89837 50.5199 5.45837 50.5199ZM50.2184 36.1799C49.8584 35.6999 49.5584 35.2799 49.3184 34.8599C49.1384 34.6199 48.8984 34.4399 48.5984 34.4399C48.2984 34.4399 47.9984 34.6199 47.8784 34.8599C47.6384 35.2199 47.2784 35.6999 46.9784 36.1799C46.1384 37.3799 45.1784 38.6999 44.6984 39.6599C44.3984 40.2599 44.2184 40.9199 44.2184 41.6399C44.2184 44.0399 46.1984 46.0199 48.5984 46.0199C50.9984 46.0199 52.9784 44.0399 52.9784 41.6399C52.9784 40.9799 52.7984 40.3199 52.4984 39.6599C52.0184 38.6999 51.0584 37.3799 50.2184 36.1799ZM48.5384 44.2199C47.0984 44.2199 45.9584 43.0799 45.9584 41.6399C45.9584 41.2199 46.0784 40.8599 46.2584 40.4999C46.6784 39.6599 47.5784 38.3999 48.3584 37.2599C48.4184 37.1399 48.4784 37.0799 48.5384 36.9599C48.5984 37.0199 48.6584 37.1399 48.7184 37.1999C49.4984 38.3399 50.3984 39.5999 50.8784 40.4399C51.0584 40.7999 51.1784 41.1599 51.1784 41.5799C51.1184 43.0799 49.9784 44.2199 48.5384 44.2199Z" fill="#8CC63F"/>
</svg>
