<svg width="60" height="60" viewBox="0 0 60 60" fill="none" xmlns="http://www.w3.org/2000/svg">
<path d="M17 7.00004V19C17 20.105 17.895 21.0001 19 21.0001H49V5H19C17.895 5 17 5.89496 17 7.00004Z" fill="#F5A338"/>
<path d="M49 8H60V18H49V8Z" fill="#FBCCAD"/>
<path d="M42 35H18L22.6511 14.846C23.441 11.424 26.488 9 30 9C33.512 9 36.559 11.424 37.3489 14.846L42 35Z" fill="#97D3E6"/>
<path d="M37.1874 36.4395L35.2027 36.6872L33.0106 19.1251L34.9952 18.8774L37.1874 36.4395Z" fill="#7DBDD1"/>
<path d="M26.9844 24.1777L24.9853 35.1777L23.0186 34.8203L25.0176 23.8203L26.9844 24.1777Z" fill="#7DBDD1"/>
<path d="M18.9999 5H25.9999C27.1048 5 27.9999 5.89496 27.9999 7.00004V19C27.9999 20.105 27.105 21.0001 25.9999 21.0001H18.9999C17.895 21.0001 16.9999 20.1051 16.9999 19V7.00004C17 5.89496 17.895 5 18.9999 5Z" fill="#F9B44D"/>
<path d="M26 4H24V6.00004H26C26.2652 6.00013 26.5195 6.10551 26.707 6.29302C26.8945 6.48053 26.9999 6.73482 27 7V7.99996H21V10H27V12H21V14.0001H27V16.0001H21V18.0002H27V19.0001C26.9999 19.2653 26.8945 19.5196 26.707 19.7071C26.5195 19.8946 26.2652 20 26 20.0001H21V22.0001H26C27.6571 22.0001 29 20.6571 29 19.0001V7.00012C29 5.34297 27.657 4 26 4Z" fill="#F5A338"/>
<path d="M4 15C5.65685 15 7 13.6569 7 12C7 10.3431 5.65685 9 4 9C2.34315 9 1 10.3431 1 12C1 13.6569 2.34315 15 4 15Z" fill="#EBEBEB"/>
<path d="M9.99992 23.0001C11.1045 23.0001 12 22.1046 12 21C12 19.8954 11.1045 19 9.99992 19C8.89533 19 7.99988 19.8954 7.99988 21C7.99988 22.1046 8.89533 23.0001 9.99992 23.0001Z" fill="#EBEBEB"/>
<path d="M29 4.99929H33L30.036 2.03526C28.6549 0.654209 26.4159 0.655264 25.035 2.03632C24.3723 2.69916 24 3.59806 24 4.53534V7.49937C24 8.88042 25.119 9.99933 26.5 9.99933C27.881 9.99933 28.9999 8.87937 28.9999 7.49937L29 4.99929Z" fill="#F9B44D"/>
<path d="M24.911 34.9986C25.4111 32.6057 23.8771 30.2597 21.4831 29.7596C20.8603 29.6296 20.2169 29.6353 19.5965 29.7762C18.9762 29.9172 18.3935 30.1902 17.8881 30.5767V30.5546C17.9401 28.5907 16.3911 26.9566 14.4271 26.9037C12.4631 26.8507 10.8291 28.4006 10.7761 30.3647C10.7699 30.6028 10.7873 30.841 10.8281 31.0757C9.17708 30.0477 7.00513 30.5526 5.9761 32.2037C5.71976 32.6166 5.55148 33.078 5.48178 33.5589C5.41209 34.0399 5.4425 34.5301 5.5711 34.9987H24.911V34.9986ZM51.95 34.9986C51.979 34.8336 51.9961 34.6666 52.001 34.4986C52.01 32.5746 50.4571 31.0076 48.533 30.9985C48.27 30.9975 48.008 31.0255 47.7519 31.0835C46.9699 28.7305 44.429 27.4566 42.0749 28.2375C39.7219 29.0195 38.4479 31.5605 39.2289 33.9145C39.3561 34.2982 39.5347 34.6628 39.7598 34.9985H51.95V34.9986Z" fill="#EBEBEB"/>
<path d="M51 59H8.99996L5 39H54.9999L51 59Z" fill="#4398D1"/>
<path d="M3.00004 35H57C58.105 35 59.0001 35.895 59.0001 37C59.0001 38.105 58.1051 39.0001 57 39.0001H3.00004C1.89508 39.0001 1 38.1051 1 37C1 35.895 1.89508 35 3.00004 35Z" fill="#4398D1"/>
<path d="M44.462 59C44.8103 58.406 44.9958 57.7306 45 57.042C45.006 54.862 43.2439 53.0891 41.064 53.082C39.298 53.077 37.744 54.2441 37.257 55.942C36.14 54.731 34.2531 54.6551 33.042 55.772C32.6078 56.1729 32.3023 56.6936 32.1644 57.2683C32.0264 57.843 32.0622 58.4457 32.2671 59H44.462Z" fill="#EBEBEB"/>
<path d="M54.45 41.75L54.9999 39H5L5.54996 41.75H54.45Z" fill="#398CC4"/>
<path d="M21 35H13V45C13 46.1049 13.895 47 15 47C16.105 47 17.0001 46.105 17.0001 45V41C17.0001 39.895 17.895 39 19.0001 39C20.1051 39 21.0002 39.8949 21.0002 41V42C21.0002 43.1049 21.8951 44 23.0002 44C24.1052 44 25.0002 43.105 25.0002 42V35H21Z" fill="#97D3E6"/>
<path d="M60 8.99933V6.99941H50V4.99937C49.9999 4.73419 49.8946 4.4799 49.7071 4.2924C49.5195 4.10489 49.2653 3.9995 49.0001 3.99941H33.414L30.742 1.32836C28.98 -0.438598 26.12 -0.443637 24.3531 1.31839C23.6291 2.03929 23.1712 2.98447 23.0541 3.99941H19.0001C17.343 3.99941 16.0001 5.34238 16.0001 6.99941V18.9994C16.0001 20.6564 17.343 21.9994 19.0001 21.9994H19.9731L18.4451 28.6244C17.3841 26.3484 14.6801 25.3634 12.4041 26.4244C11.7592 26.725 11.1938 27.1727 10.7535 27.7316C10.3132 28.2906 10.0103 28.945 9.86906 29.6424C9.58304 29.5845 9.29194 29.5553 9.00012 29.5554C6.53109 29.5594 4.51512 31.5304 4.45617 33.9994H3C1.34297 33.9994 0 35.3424 0 36.9994C0 38.6564 1.34297 39.9994 3 39.9994H4.17996L8.01996 59.1994C8.06624 59.4252 8.18902 59.6281 8.36757 59.7739C8.54612 59.9196 8.76951 59.9993 9 59.9995H51C51.2305 59.9995 51.454 59.9199 51.6326 59.7741C51.8112 59.6283 51.9339 59.4253 51.98 59.1994L55.82 39.9994H57C58.657 39.9994 60 38.6564 60 36.9994C60 35.3424 58.657 33.9994 57 33.9994H52.95C52.715 31.6714 50.717 29.9234 48.379 29.9994C47.067 27.4014 43.9489 26.2874 41.288 27.4655L40.0269 21.9995H49C49.2651 21.9994 49.5194 21.8941 49.7069 21.7065C49.8944 21.519 49.9998 21.2647 49.9999 20.9996V18.9995H60V16.9995H50V8.99933H60ZM25 4.53543C24.9989 3.13539 26.134 1.99937 27.5339 1.99937C27.8671 1.99931 28.197 2.06489 28.5048 2.19237C28.8127 2.31985 29.0924 2.50673 29.3279 2.74234L30.5859 3.99929H28V7.49933C28 7.78328 27.9179 8.06031 27.765 8.29937L27.735 8.30535L27.744 8.33734C27.281 9.02429 26.349 9.20628 25.6621 8.74339C25.4583 8.60615 25.2913 8.42093 25.1759 8.20402C25.0604 7.98711 25.0001 7.74516 25.0001 7.49945V4.53543H25ZM18 18.9994V6.99941C18.0001 6.73423 18.1055 6.47994 18.293 6.29243C18.4805 6.10492 18.7348 5.99954 19 5.99945H22.9999V7.49945C23.005 7.6675 23.022 7.83449 23.0509 7.99949H21V9.99953H24.058C24.7091 10.6405 25.5863 10.9997 26.5 10.9995C26.6676 10.9945 26.8348 10.9775 27 10.9485V11.9996H21V13.9996H27V15.9996H21V17.9997H27V18.9996C26.9999 19.2648 26.8945 19.5191 26.707 19.7066C26.5195 19.8941 26.2652 19.9995 26 19.9996H19.0001C18.448 19.9994 18 19.5514 18 18.9994ZM23 21.9994H26C27.6571 21.9994 29 20.6564 29 18.9994V10.0833C32.3911 9.53136 35.6241 11.7183 36.375 15.0703L39.522 28.7113C38.8583 29.3999 38.388 30.2514 38.1586 31.1798C37.9291 32.1083 37.9485 33.0808 38.215 33.9993H36.883L34.992 18.8753L33.008 19.1233L34.8669 33.9993H25.9939C25.9823 33.3049 25.8366 32.6194 25.5649 31.9803L26.9829 24.1803L25.0168 23.8223L23.9218 29.8423C22.9645 29.0822 21.7782 28.6684 20.5559 28.6683C20.5318 28.6683 20.5098 28.6743 20.4868 28.6743L22.0259 21.9993H23V21.9994ZM19 37.9994C17.3429 37.9994 16 39.3423 16 40.9994V44.9993C15.9999 45.2645 15.8945 45.5188 15.707 45.7063C15.5195 45.8938 15.2652 45.9992 15 45.9993C14.7348 45.9992 14.4805 45.8938 14.293 45.7063C14.1055 45.5188 14.0001 45.2645 14 44.9993V35.9993H24V41.9993C24 42.5513 23.552 42.9993 23 42.9993C22.4481 42.9993 22.0001 42.5513 22.0001 41.9993V40.9994C22 39.3423 20.657 37.9994 19 37.9994ZM9 31.5553C9.46375 31.5576 9.91785 31.688 10.312 31.9323C10.4759 32.0277 10.6634 32.0746 10.8528 32.0676C11.0423 32.0605 11.2258 31.9997 11.3821 31.8924C11.5409 31.7832 11.6656 31.6315 11.7421 31.4546C11.8185 31.2777 11.8434 31.0829 11.814 30.8924C11.7937 30.7798 11.7813 30.6658 11.777 30.5514C11.767 29.1394 12.904 27.9875 14.315 27.9784C15.7261 27.9694 16.879 29.1054 16.888 30.5165V30.5734C16.8881 30.8386 16.9935 31.0929 17.181 31.2804C17.3685 31.4679 17.6228 31.5733 17.888 31.5734C18.1044 31.5735 18.3149 31.5033 18.488 31.3734C19.0804 30.9171 19.8063 30.6684 20.554 30.6653C22.414 30.6653 23.9389 32.1404 24 33.9993H6.44602C6.50695 32.6324 7.63195 31.5564 9 31.5553ZM2.00004 36.9994C2.00013 36.7342 2.10552 36.4799 2.29302 36.2924C2.48053 36.1049 2.73482 35.9995 3 35.9995H12V37.9995H3C2.44805 37.9994 2.00004 37.5514 2.00004 36.9994ZM33.083 57.9994C33.083 56.8945 33.9779 55.9994 35.083 55.9994C35.632 55.9994 36.157 56.2274 36.531 56.6294C36.6521 56.7573 36.8048 56.851 36.9738 56.901C37.1427 56.9509 37.3218 56.9554 37.493 56.9139C37.6642 56.8724 37.8215 56.7864 37.9488 56.6646C38.0761 56.5428 38.1689 56.3896 38.218 56.2204C38.3905 55.6045 38.76 55.062 39.27 54.6759C39.78 54.2898 40.4024 54.0814 41.042 54.0824C42.675 54.0844 43.998 55.4084 44 57.0414C43.999 57.3682 43.9411 57.6924 43.8291 57.9994H33.083ZM50.183 57.9994H45.8919C45.9609 57.6844 45.9969 57.3634 46 57.0414C46.009 54.3114 43.8029 52.0904 41.072 52.0814C40.2287 52.0786 39.3986 52.2916 38.6609 52.7001C37.9231 53.1087 37.3021 53.6992 36.857 54.4155C36.3061 54.1407 35.6986 53.9982 35.083 53.9995C32.874 53.9995 31.083 55.7904 31.083 57.9994H9.81902L6.22008 39.9994H12V44.9995C12 46.6565 13.343 47.9995 15 47.9995C16.657 47.9995 18 46.6565 18 44.9995V40.9995C18 40.4475 18.448 39.9995 19 39.9995C19.5519 39.9995 19.9999 40.4475 19.9999 40.9995V41.9995C19.9999 43.6565 21.3429 44.9995 22.9999 44.9995C24.657 44.9995 25.9999 43.6565 25.9999 41.9995V39.9994H53.7799L50.183 57.9994ZM58 36.9994C57.9999 37.2646 57.8945 37.5189 57.707 37.7064C57.5195 37.8939 57.2652 37.9993 57 37.9994H26V35.9993H57C57.1313 35.9993 57.2614 36.0252 57.3827 36.0754C57.5041 36.1256 57.6143 36.1993 57.7072 36.2922C57.8001 36.3851 57.8737 36.4953 57.9239 36.6167C57.9742 36.738 58 36.8681 58 36.9994ZM46.8 31.3994C46.8781 31.6339 47.0402 31.8312 47.2551 31.9533C47.4701 32.0754 47.7226 32.1135 47.964 32.0604C48.1398 32.0197 48.3196 31.9992 48.5 31.9994C49.6881 31.9994 50.7121 32.8354 50.9501 33.9994H40.338C39.497 32.2645 40.222 30.1764 41.9561 29.3355C43.691 28.4944 45.7791 29.2195 46.62 30.9535C46.691 31.0974 46.7511 31.2465 46.8 31.3994ZM48 19.9994H39.565L38.3239 14.6203C37.443 10.7353 33.983 7.98332 30 7.99937H29.949C29.978 7.83437 29.9951 7.66632 30 7.49933V5.99933H48V19.9994ZM3.99996 15.9994C6.20895 15.9994 7.99992 14.2084 7.99992 11.9994C7.99992 9.79047 6.20895 7.99937 3.99996 7.99937C1.79098 7.99937 0 9.79035 0 11.9993C0 14.2083 1.79098 15.9994 3.99996 15.9994ZM3.99996 9.99941C5.10492 9.99941 6 10.8944 6 11.9994C6 13.1045 5.10504 13.9995 3.99996 13.9995C2.89488 13.9995 1.99992 13.1045 1.99992 11.9994C1.99992 10.8944 2.895 9.99941 3.99996 9.99941Z" fill="black"/>
<path d="M7 21C7 22.657 8.34297 24 10 24C11.657 24 13 22.657 13 21C13 19.343 11.657 18 10 18C8.34297 18 7 19.3431 7 21ZM11.0001 21C11 21.2652 10.8946 21.5195 10.7071 21.707C10.5196 21.8945 10.2653 21.9999 10.0001 22C9.44816 22 9.00016 21.552 9.00016 21C9.00016 20.448 9.44816 20 10.0001 20C10.1314 20 10.2615 20.0258 10.3828 20.0761C10.5042 20.1263 10.6144 20.2 10.7073 20.2928C10.8002 20.3857 10.8738 20.4959 10.9241 20.6173C10.9743 20.7386 11.0001 20.8687 11.0001 21Z" fill="black"/>
</svg>
