<svg width="60" height="60" viewBox="0 0 60 60" fill="none" xmlns="http://www.w3.org/2000/svg">
<g clip-path="url(#clip0_544_814)">
<path d="M55.4176 17.9297H4.58238C2.48051 21.9204 1.28906 26.4653 1.28906 31.2891C1.28906 33.6124 1.56703 35.8705 2.08793 38.0339L2.09859 38.03C3.00952 37.7884 3.94802 37.6662 4.89047 37.6666C9.8659 37.6666 14.1884 41.0319 15.402 45.8504L15.4403 46.0027L15.5753 45.9226C17.2407 44.9358 19.1489 44.4141 21.0938 44.4141C24.5766 44.4141 27.8705 46.1058 29.9048 48.9393L30 49.0718L30.0952 48.9393C32.1295 46.1058 35.4234 44.4141 38.9062 44.4141C40.1616 44.4141 41.3929 44.6273 42.5658 45.048L42.7056 45.0982L42.7218 44.9504C43.3235 39.4504 47.9555 35.3027 53.496 35.3027C55.1537 35.3027 56.7452 35.6675 58.2261 36.3868L58.236 36.3916L58.2465 36.3945L58.2574 36.3975C58.5598 34.7115 58.7116 33.002 58.7109 31.2891C58.7109 26.4653 57.5195 21.9204 55.4176 17.9297ZM54.9036 16.9922C49.9478 8.3782 40.6513 2.57812 30 2.57812C19.3487 2.57812 10.0522 8.3782 5.09637 16.9922H54.9036Z" fill="#62DBFB"/>
<path d="M17.7133 16.9922H27.524C31.6741 15.1158 34.569 10.9365 34.569 6.09375C34.569 4.97895 34.4151 3.89941 34.1282 2.87496C32.7606 2.67757 31.3805 2.57837 29.9987 2.57812C22.803 2.57813 16.226 5.22539 11.1875 9.59895C12.2008 12.8963 14.606 15.5887 17.7133 16.9922Z" fill="#99E6FC"/>
<path d="M13.7266 7.63371C14.4598 11.8778 18.1654 15.1172 22.6158 15.1172C27.5914 15.1172 31.6393 11.0693 31.6393 6.09375C31.6405 4.89193 31.4003 3.70211 30.933 2.59488C30.6216 2.5843 30.3101 2.57871 29.9986 2.57812C23.9567 2.57813 18.3517 4.44609 13.7266 7.63371Z" fill="#C8EFFE"/>
<path d="M2.05859 37.9194C5.05168 50.5792 16.4244 60 29.9987 60C44.1523 60 55.913 49.758 58.2761 36.2815C56.8312 35.5796 55.2091 35.1855 53.4948 35.1855C47.8507 35.1855 43.2039 39.4533 42.6039 44.9377C41.4171 44.5125 40.1656 44.2957 38.9049 44.2969C35.2352 44.2969 31.9872 46.1012 29.9987 48.8709C28.0101 46.1012 24.7621 44.2969 21.0924 44.2969C19.0552 44.2969 17.1484 44.8535 15.5143 45.822C14.317 41.0685 10.0142 37.5495 4.88914 37.5495C3.93354 37.549 2.98198 37.6734 2.05859 37.9194Z" fill="#DFF6FD"/>
<path d="M55.2602 42.152L43.4066 21.6211C43.0466 20.9976 42.5289 20.4798 41.9054 20.1198C41.2818 19.7598 40.5745 19.5703 39.8546 19.5703H31.0544V20.7422C31.0544 20.8714 30.9493 20.9766 30.82 20.9766H29.1794C29.0501 20.9766 28.945 20.8714 28.945 20.7422V19.5703H20.1448C19.4248 19.5703 18.7175 19.7598 18.094 20.1198C17.4705 20.4798 16.9527 20.9976 16.5927 21.6211L4.73922 42.152C4.41566 42.7125 4.60761 43.4292 5.16812 43.7528L8.61871 45.745C9.17922 46.0685 9.89593 45.8766 10.2195 45.3161L19.3826 29.445C19.5625 29.1335 20.0386 29.2611 20.0386 29.6208V54.2578C20.0386 54.905 20.5633 55.4297 21.2105 55.4297H38.7886C39.4359 55.4297 39.9605 54.905 39.9605 54.2578V29.6208C39.9605 29.2611 40.4366 29.1335 40.6165 29.445L49.7796 45.3161C50.1032 45.8766 50.8199 46.0686 51.3804 45.745L54.831 43.7528C55.3916 43.4292 55.5837 42.7125 55.2602 42.152Z" fill="#0593FC"/>
<path d="M8.69582 42.9325C8.13531 42.6089 7.94324 41.8922 8.26691 41.3317L20.1204 20.8008C20.3977 20.3209 20.7695 19.9023 21.2133 19.5703H20.1448C19.4248 19.5703 18.7175 19.7598 18.094 20.1198C17.4705 20.4798 16.9527 20.9976 16.5927 21.6211L4.73922 42.152C4.41566 42.7125 4.60761 43.4292 5.16812 43.7528L8.61871 45.745C9.17922 46.0685 9.89593 45.8766 10.2195 45.3161L10.8707 44.1881L8.69582 42.9325Z" fill="#0182FC"/>
<path d="M21.2109 55.4297H38.7891C39.4363 55.4297 39.9609 54.905 39.9609 54.2578V50.7422H20.0391V54.2578C20.0391 54.905 20.5637 55.4297 21.2109 55.4297Z" fill="#60B7FF"/>
<path d="M31.054 19.5703V20.7422C31.054 20.8714 30.9489 20.9766 30.8196 20.9766H29.179C29.0498 20.9766 28.9446 20.8714 28.9446 20.7422V19.5703H25.0703C25.8264 21.5568 27.7476 22.9688 29.9993 22.9688C32.2512 22.9688 34.1723 21.5568 34.9284 19.5703H31.054Z" fill="#0182FC"/>
<path d="M27.1868 19.5703H25.0703C25.8264 21.5568 27.7476 22.9688 29.9993 22.9688C30.3619 22.9688 30.7157 22.9317 31.0577 22.862C29.2758 22.4987 27.8212 21.237 27.1868 19.5703Z" fill="#0172FB"/>
<path d="M4.51953 18.0469H55.4785C55.2726 17.6513 55.0575 17.2605 54.8334 16.875H5.16465C4.9405 17.2605 4.7254 17.6513 4.51953 18.0469Z" fill="#FFCEBF"/>
<path d="M22.6172 12.1875C25.9827 12.1875 28.7109 9.45924 28.7109 6.09375C28.7109 2.72826 25.9827 0 22.6172 0C19.2517 0 16.5234 2.72826 16.5234 6.09375C16.5234 9.45924 19.2517 12.1875 22.6172 12.1875Z" fill="#FFE177"/>
<path d="M20.2734 6.09375C20.2734 3.38262 22.0444 1.08621 24.4922 0.295313C23.8865 0.0993884 23.2538 -0.000261464 22.6172 5.15209e-07C19.2517 5.15209e-07 16.5234 2.72824 16.5234 6.09375C16.5234 9.45926 19.2517 12.1875 22.6172 12.1875C23.2716 12.1875 23.9013 12.0832 24.4922 11.8923C22.0444 11.1013 20.2734 8.80488 20.2734 6.09375Z" fill="#FFD15B"/>
<path d="M31.1719 19.5703H28.8281V20.7422C28.8281 20.8354 28.8652 20.9248 28.9311 20.9908C28.997 21.0567 29.0864 21.0938 29.1797 21.0938H30.8203C30.9136 21.0938 31.003 21.0567 31.0689 20.9908C31.1348 20.9248 31.1719 20.8354 31.1719 20.7422V19.5703Z" fill="white"/>
<path d="M29.7656 20.7422V19.5703H28.8281V20.7422C28.8281 20.8354 28.8652 20.9248 28.9311 20.9908C28.997 21.0567 29.0864 21.0938 29.1797 21.0938H30.1172C30.0239 21.0938 29.9345 21.0567 29.8686 20.9908C29.8027 20.9248 29.7656 20.8354 29.7656 20.7422Z" fill="#F2FBFF"/>
<path d="M34.2773 44.8828H25.7227C25.0754 44.8828 24.5508 44.3582 24.5508 43.7109V29.6484C24.5508 29.0012 25.0754 28.4766 25.7227 28.4766H34.2773C34.9246 28.4766 35.4492 29.0012 35.4492 29.6484V43.7109C35.4492 44.3582 34.9246 44.8828 34.2773 44.8828Z" fill="#8AC9FE"/>
<path d="M27.4219 43.7109V29.6484C27.4219 29.0012 27.9465 28.4766 28.5938 28.4766H25.7227C25.0754 28.4766 24.5508 29.0012 24.5508 29.6484V43.7109C24.5508 44.3582 25.0754 44.8828 25.7227 44.8828H28.5938C27.9465 44.8828 27.4219 44.3582 27.4219 43.7109Z" fill="#60B7FF"/>
<path d="M22.2812 21.5625H20.9922C20.8368 21.5625 20.6878 21.5008 20.5779 21.3909C20.468 21.281 20.4063 21.132 20.4062 20.9766V16.5234C20.4062 16.368 20.468 16.219 20.5779 16.1091C20.6878 15.9992 20.8368 15.9375 20.9922 15.9375H22.2812C22.3582 15.9375 22.4344 15.9527 22.5055 15.9821C22.5766 16.0115 22.6412 16.0547 22.6956 16.1091C22.75 16.1635 22.7931 16.2281 22.8226 16.2992C22.852 16.3703 22.8672 16.4465 22.8672 16.5234V20.9766C22.8672 21.0535 22.852 21.1297 22.8226 21.2008C22.7931 21.2719 22.75 21.3365 22.6956 21.3909C22.6412 21.4453 22.5766 21.4885 22.5055 21.5179C22.4344 21.5473 22.3582 21.5625 22.2812 21.5625Z" fill="#F6A96C"/>
<path d="M21.4463 20.9766V16.5234C21.4463 16.368 21.508 16.219 21.6179 16.1091C21.7278 15.9992 21.8768 15.9375 22.0322 15.9375H20.9922C20.8368 15.9375 20.6878 15.9992 20.5779 16.1091C20.468 16.219 20.4063 16.368 20.4062 16.5234V20.9766C20.4062 21.132 20.468 21.281 20.5779 21.3909C20.6878 21.5008 20.8368 21.5625 20.9922 21.5625H22.0322C21.8768 21.5625 21.7278 21.5008 21.6179 21.3909C21.508 21.281 21.4463 21.132 21.4463 20.9766Z" fill="#EA9B58"/>
<path d="M21.6367 19.3945C22.025 19.3945 22.3398 19.0797 22.3398 18.6914C22.3398 18.3031 22.025 17.9883 21.6367 17.9883C21.2484 17.9883 20.9336 18.3031 20.9336 18.6914C20.9336 19.0797 21.2484 19.3945 21.6367 19.3945Z" fill="white"/>
<path d="M39.0078 21.5625H37.7188C37.5633 21.5625 37.4143 21.5008 37.3044 21.3909C37.1945 21.281 37.1328 21.132 37.1328 20.9766V16.5234C37.1328 16.368 37.1945 16.219 37.3044 16.1091C37.4143 15.9992 37.5633 15.9375 37.7188 15.9375H39.0078C39.1632 15.9375 39.3122 15.9992 39.4221 16.1091C39.532 16.219 39.5938 16.368 39.5938 16.5234V20.9766C39.5938 21.132 39.532 21.281 39.4221 21.3909C39.3122 21.5008 39.1632 21.5625 39.0078 21.5625Z" fill="#F6A96C"/>
<path d="M38.1729 20.9766V16.5234C38.1729 16.368 38.2346 16.219 38.3445 16.1091C38.4544 15.9992 38.6034 15.9375 38.7588 15.9375H37.7188C37.5633 15.9375 37.4143 15.9992 37.3044 16.1091C37.1945 16.219 37.1328 16.368 37.1328 16.5234V20.9766C37.1328 21.132 37.1945 21.281 37.3044 21.3909C37.4143 21.5008 37.5633 21.5625 37.7188 21.5625H38.7588C38.6034 21.5625 38.4544 21.5008 38.3445 21.3909C38.2346 21.281 38.1729 21.132 38.1729 20.9766Z" fill="#EA9B58"/>
<path d="M38.3633 19.3945C38.7516 19.3945 39.0664 19.0797 39.0664 18.6914C39.0664 18.3031 38.7516 17.9883 38.3633 17.9883C37.975 17.9883 37.6602 18.3031 37.6602 18.6914C37.6602 19.0797 37.975 19.3945 38.3633 19.3945Z" fill="white"/>
<path d="M35.5513 48.3411L34.2952 50.5167C33.6341 51.6616 34.4604 53.0927 35.7824 53.0927C37.1044 53.0927 37.9307 51.6616 37.2696 50.5167L36.0135 48.3411C35.9108 48.1632 35.6541 48.1632 35.5513 48.3411ZM15.5122 47.6316L14.2561 49.8071C13.595 50.9521 14.4213 52.3832 15.7433 52.3832C17.0653 52.3832 17.8916 50.9521 17.2306 49.8071L15.9744 47.6316C15.8718 47.4535 15.615 47.4535 15.5122 47.6316ZM27.2724 53.3369L26.0162 55.5125C25.3552 56.6575 26.1815 58.0885 27.5034 58.0885C28.8254 58.0885 29.6517 56.6575 28.9907 55.5125L27.7345 53.3369C27.6319 53.1589 27.3751 53.1589 27.2724 53.3369ZM44.9263 44.2331L43.6702 46.4087C43.0091 47.5536 43.8354 48.9847 45.1574 48.9847C46.4794 48.9847 47.3057 47.5536 46.6446 46.4087L45.3885 44.2331C45.2858 44.0551 45.0291 44.0551 44.9263 44.2331Z" fill="#62DBFB"/>
<path d="M45.1898 46.4087L45.9153 45.152L45.3847 44.233C45.2819 44.0551 45.0252 44.0551 44.9224 44.233L43.6663 46.4086C43.0052 47.5535 43.8315 48.9846 45.1535 48.9846C45.4327 48.9846 45.6895 48.9202 45.9152 48.8086C45.0727 48.3924 44.6684 47.3118 45.1898 46.4087ZM35.8148 50.5169L36.5403 49.2601L36.0097 48.3412C35.9069 48.1633 35.6502 48.1633 35.5474 48.3412L34.2913 50.5167C33.6302 51.6617 34.4565 53.0928 35.7785 53.0928C36.0577 53.0928 36.3145 53.0283 36.5402 52.9167C35.6977 52.5004 35.2934 51.4199 35.8148 50.5169ZM27.5359 55.5126L28.2614 54.2558L27.7308 53.3369C27.628 53.159 27.3712 53.159 27.2684 53.3369L26.0123 55.5124C25.3513 56.6574 26.1775 58.0885 27.4995 58.0885C27.7788 58.0885 28.0356 58.024 28.2613 57.9124C27.4188 57.4962 27.0145 56.4156 27.5359 55.5126ZM15.7758 49.8072L16.5013 48.5505L15.9706 47.6315C15.8679 47.4536 15.6111 47.4536 15.5083 47.6315L14.2522 49.8071C13.5911 50.952 14.4174 52.3831 15.7394 52.3831C16.0187 52.3831 16.2754 52.3186 16.5011 52.2071C15.6587 51.7908 15.2544 50.7102 15.7758 49.8072Z" fill="#01D0FB"/>
</g>
<defs>
<clipPath id="clip0_544_814">
<rect width="60" height="60" fill="white"/>
</clipPath>
</defs>
</svg>
