<svg width="70" height="70" viewBox="0 0 70 70" fill="none" xmlns="http://www.w3.org/2000/svg">
<path d="M22.8906 22.5C23.0978 22.5 23.2965 22.4177 23.4431 22.2712C23.5896 22.1247 23.6719 21.926 23.6719 21.7188V15.4688C23.6725 14.8473 23.9196 14.2516 24.359 13.8122C24.7984 13.3727 25.3942 13.1256 26.0156 13.125H30.3125C30.5197 13.125 30.7184 13.0427 30.8649 12.8962C31.0114 12.7497 31.0938 12.551 31.0938 12.3438C31.0938 12.1365 31.0114 11.9378 30.8649 11.7913C30.7184 11.6448 30.5197 11.5625 30.3125 11.5625H26.0156C24.98 11.5637 23.9872 11.9757 23.2549 12.708C22.5226 13.4403 22.1106 14.4331 22.1094 15.4688V21.7188C22.1094 21.926 22.1917 22.1247 22.3382 22.2712C22.4847 22.4177 22.6834 22.5 22.8906 22.5ZM38.7984 45.9375C38.7984 45.7303 38.7161 45.5316 38.5696 45.3851C38.4231 45.2386 38.2244 45.1562 38.0172 45.1562H26.7969V43.6109C26.7969 43.4037 26.7146 43.205 26.5681 43.0585C26.4215 42.912 26.2228 42.8297 26.0156 42.8297C25.8084 42.8297 25.6097 42.912 25.4632 43.0585C25.3167 43.205 25.2344 43.4037 25.2344 43.6109V45.9375C25.2344 46.1447 25.3167 46.3434 25.4632 46.4899C25.6097 46.6364 25.8084 46.7188 26.0156 46.7188H38.0172C38.2244 46.7188 38.4231 46.6364 38.5696 46.4899C38.7161 46.3434 38.7984 46.1447 38.7984 45.9375Z" fill="white"/>
<path d="M53.9672 34.5031L48.6719 29.2078V15.4688C48.6706 14.4331 48.2587 13.4403 47.5264 12.708C46.7941 11.9757 45.8012 11.5637 44.7656 11.5625H34.2188C34.0115 11.5625 33.8128 11.6448 33.6663 11.7913C33.5198 11.9378 33.4375 12.1365 33.4375 12.3438C33.4375 12.551 33.5198 12.7497 33.6663 12.8962C33.8128 13.0427 34.0115 13.125 34.2188 13.125H44.7656C45.387 13.1256 45.9828 13.3727 46.4222 13.8122C46.8616 14.2516 47.1088 14.8473 47.1094 15.4688V37.3438C47.1094 37.551 47.1917 37.7497 47.3382 37.8962C47.4847 38.0427 47.6834 38.125 47.8906 38.125C48.0978 38.125 48.2965 38.0427 48.4431 37.8962C48.5896 37.7497 48.6719 37.551 48.6719 37.3438V31.4172L52.8625 35.6078C53.5175 36.2592 54.0367 37.034 54.3902 37.8875C54.7437 38.7409 54.9244 39.656 54.9219 40.5797V56.875H39.2969V50.7313C39.2981 49.6674 39.7213 48.6476 40.4735 47.8954C41.2257 47.1431 42.2456 46.72 43.3094 46.7188C43.4639 46.7187 43.6149 46.6729 43.7433 46.587C43.8718 46.5012 43.9719 46.3792 44.031 46.2365C44.0901 46.0937 44.1056 45.9367 44.0755 45.7851C44.0453 45.6336 43.9709 45.4944 43.8617 45.3852L37.2883 38.8117C36.7755 38.2989 36.4874 37.6034 36.4874 36.8781C36.4874 36.1529 36.7755 35.4574 37.2883 34.9445C37.8011 34.4317 38.4966 34.1436 39.2219 34.1436C39.9471 34.1436 40.6426 34.4317 41.1555 34.9445L50.0695 43.8586C50.2169 44.0009 50.4142 44.0797 50.6191 44.0779C50.8239 44.0761 51.0199 43.9939 51.1647 43.8491C51.3096 43.7042 51.3917 43.5083 51.3935 43.3034C51.3953 43.0986 51.3165 42.9013 51.1742 42.7539L45.5469 37.1266V15.4688C45.5469 15.2615 45.4646 15.0628 45.3181 14.9163C45.1715 14.7698 44.9728 14.6875 44.7656 14.6875H40.8594C40.6522 14.6875 40.4535 14.7698 40.3069 14.9163C40.1604 15.0628 40.0781 15.2615 40.0781 15.4688C40.0779 15.6759 39.9955 15.8745 39.8491 16.0209C39.7026 16.1674 39.504 16.2498 39.2969 16.25H31.4844C31.2772 16.2498 31.0786 16.1674 30.9322 16.0209C30.7857 15.8745 30.7033 15.6759 30.7031 15.4688C30.7031 15.2615 30.6208 15.0628 30.4743 14.9163C30.3278 14.7698 30.1291 14.6875 29.9219 14.6875H26.0156C25.8084 14.6875 25.6097 14.7698 25.4632 14.9163C25.3167 15.0628 25.2344 15.2615 25.2344 15.4688V23.2812H15.8594C15.238 23.2819 14.6422 23.529 14.2028 23.9684C13.7634 24.4078 13.5162 25.0036 13.5156 25.625V39.6875C13.5162 40.3089 13.7634 40.9047 14.2028 41.3441C14.6422 41.7835 15.238 42.0306 15.8594 42.0312H22.1094V49.0625C22.1106 50.0981 22.5226 51.091 23.2549 51.8233C23.9872 52.5556 24.98 52.9675 26.0156 52.9688H37.7344V57.6562C37.7344 57.8634 37.8167 58.0622 37.9632 58.2087C38.1097 58.3552 38.3084 58.4375 38.5156 58.4375H55.7031C55.9103 58.4375 56.109 58.3552 56.2556 58.2087C56.4021 58.0622 56.4844 57.8634 56.4844 57.6562V40.5797C56.4875 39.4507 56.2666 38.3323 55.8345 37.2892C55.4024 36.2462 54.7677 35.2992 53.9672 34.5031ZM15.8594 24.8438H40.8594V26.4062H15.0781V25.625C15.0783 25.4179 15.1607 25.2193 15.3072 25.0728C15.4536 24.9263 15.6522 24.844 15.8594 24.8438ZM35.3906 51.4062H26.0156C25.3942 51.4056 24.7984 51.1585 24.359 50.7191C23.9196 50.2797 23.6725 49.6839 23.6719 49.0625V42.0312H35.4234C35.6306 42.0312 35.8294 41.9489 35.9759 41.8024C36.1224 41.6559 36.2047 41.4572 36.2047 41.25C36.2047 41.0428 36.1224 40.8441 35.9759 40.6976C35.8294 40.5511 35.6306 40.4688 35.4234 40.4688H15.8594C15.6522 40.4685 15.4536 40.3862 15.3072 40.2397C15.1607 40.0932 15.0783 39.8946 15.0781 39.6875V32.6562H36.2047C36.4119 32.6562 36.6106 32.5739 36.7571 32.4274C36.9036 32.2809 36.9859 32.0822 36.9859 31.875C36.9859 31.6678 36.9036 31.4691 36.7571 31.3226C36.6106 31.1761 36.4119 31.0938 36.2047 31.0938H15.0781V27.9688H40.8594V31.875C40.8594 32.0822 40.9417 32.2809 41.0882 32.4274C41.2347 32.5739 41.4334 32.6562 41.6406 32.6562C41.8478 32.6562 42.0465 32.5739 42.1931 32.4274C42.3396 32.2809 42.4219 32.0822 42.4219 31.875V21.7188C42.4219 21.5115 42.3396 21.3128 42.1931 21.1663C42.0465 21.0198 41.8478 20.9375 41.6406 20.9375C41.4334 20.9375 41.2347 21.0198 41.0882 21.1663C40.9417 21.3128 40.8594 21.5115 40.8594 21.7188V23.2812H26.7969V16.25H29.2742C29.4363 16.7067 29.7357 17.1021 30.1315 17.3818C30.5272 17.6616 30.9998 17.812 31.4844 17.8125H39.2969C39.7815 17.812 40.2541 17.6616 40.6498 17.3818C41.0455 17.1021 41.345 16.7067 41.507 16.25H43.9844V35.5641L42.2602 33.8398C41.4525 33.0429 40.3624 32.5978 39.2278 32.6016C38.0932 32.6054 37.0062 33.0578 36.2039 33.8601C35.4016 34.6624 34.9492 35.7495 34.9454 36.8841C34.9416 38.0187 35.3867 39.1088 36.1836 39.9164L41.6695 45.4023C40.5309 45.7546 39.5348 46.4617 38.8268 47.4205C38.1188 48.3793 37.736 49.5394 37.7344 50.7313V51.4062H35.3906Z" fill="white"/>
<path d="M21.3281 34.2188H17.4219C17.2147 34.2188 17.016 34.3011 16.8694 34.4476C16.7229 34.5941 16.6406 34.7928 16.6406 35V38.125C16.6406 38.3322 16.7229 38.5309 16.8694 38.6774C17.016 38.8239 17.2147 38.9062 17.4219 38.9062H21.3281C21.5353 38.9062 21.734 38.8239 21.8806 38.6774C22.0271 38.5309 22.1094 38.3322 22.1094 38.125V35C22.1094 34.7928 22.0271 34.5941 21.8806 34.4476C21.734 34.3011 21.5353 34.2188 21.3281 34.2188ZM20.5469 37.3438H18.2031V35.7812H20.5469V37.3438ZM37.7344 49.0625C37.7344 48.599 37.5969 48.1458 37.3394 47.7604C37.0818 47.375 36.7158 47.0746 36.2875 46.8972C35.8593 46.7198 35.388 46.6734 34.9334 46.7638C34.4787 46.8542 34.0611 47.0774 33.7333 47.4052C33.4056 47.733 33.1823 48.1506 33.0919 48.6053C33.0015 49.0599 33.0479 49.5311 33.2253 49.9594C33.4027 50.3877 33.7031 50.7537 34.0885 51.0113C34.4739 51.2688 34.9271 51.4062 35.3906 51.4062C36.012 51.4056 36.6078 51.1585 37.0472 50.7191C37.4866 50.2797 37.7338 49.6839 37.7344 49.0625ZM35.3906 49.8438C35.2361 49.8438 35.0851 49.7979 34.9566 49.7121C34.8281 49.6262 34.728 49.5042 34.6688 49.3615C34.6097 49.2187 34.5942 49.0616 34.6244 48.9101C34.6545 48.7585 34.7289 48.6193 34.8382 48.5101C34.9475 48.4008 35.0867 48.3264 35.2382 48.2963C35.3898 48.2661 35.5468 48.2816 35.6896 48.3407C35.8323 48.3999 35.9544 48.5 36.0402 48.6285C36.1261 48.7569 36.1719 48.908 36.1719 49.0625C36.1717 49.2696 36.0893 49.4682 35.9428 49.6147C35.7964 49.7612 35.5978 49.8435 35.3906 49.8438Z" fill="white"/>
<circle cx="35" cy="35" r="34.5" stroke="white"/>
</svg>
