<svg width="60" height="60" viewBox="0 0 60 60" fill="none" xmlns="http://www.w3.org/2000/svg">
<path d="M48.3094 3.6375C46.1344 2.48438 43.7156 1.875 41.25 1.875C41.25 1.875 41.0156 4.6875 39.4875 7.5C37.9688 10.3125 35.1562 13.125 30 13.125C19.6875 13.125 18.75 1.875 18.75 1.875C16.2844 1.875 13.8656 2.48438 11.6906 3.6375L0.9375 9.375L4.6875 24.375L12.1875 22.5V32.2594C13.8375 32.9906 15 34.6406 15 36.5625C15 38.4844 13.8375 40.1344 12.1875 40.8656V52.5H30C30 49.9125 32.1 47.8125 34.6875 47.8125C35.775 47.8125 36.7687 48.1781 37.5656 48.8063C37.7572 47.3785 38.4145 46.0538 39.4356 45.0377C40.4566 44.0215 41.7845 43.3706 43.2131 43.1859C43.4925 43.1503 43.7738 43.125 44.0625 43.125C43.9463 42.9722 43.5947 42.3366 43.5253 42.1791C43.2643 41.5912 43.128 40.9557 43.125 40.3125C43.125 37.725 45.225 35.625 47.8125 35.625V22.5L55.3125 24.375L59.0625 9.375L48.3094 3.6375ZM31.4062 17.8125C31.4062 18.8522 31.7719 19.7841 32.3672 20.4647C32.9625 21.1453 33.7781 21.5625 34.6875 21.5625C33.7781 21.5625 32.9625 21.9806 32.3672 22.6603C31.7719 23.3409 31.4062 24.2728 31.4062 25.3125C31.4062 24.2728 31.0406 23.3409 30.4453 22.6603C29.85 21.9806 29.0344 21.5625 28.125 21.5625C29.9391 21.5625 31.4062 19.8853 31.4062 17.8125ZM24.81 29.7722C23.9597 30.7931 23.4375 32.1909 23.4375 33.75C23.4375 32.1909 22.9153 30.7931 22.065 29.7722C21.2147 28.7522 20.0494 28.125 18.75 28.125C20.0494 28.125 21.2147 27.4978 22.065 26.4778C22.9153 25.4569 23.4375 24.0591 23.4375 22.5C23.4375 25.6097 25.5338 28.125 28.125 28.125C26.8256 28.125 25.6603 28.7522 24.81 29.7722ZM36.5344 35.5969C36.1406 36 35.6625 36.2719 35.1656 36.4219C35.4656 37.0312 35.625 37.7156 35.625 38.4375C35.625 41.025 33.525 43.125 30.9375 43.125C28.35 43.125 26.25 41.025 26.25 38.4375C26.25 35.85 28.35 33.75 30.9375 33.75H30.975C30.8344 32.7563 31.1437 31.725 31.9031 30.9656C32.2066 30.6604 32.5674 30.4182 32.9648 30.2529C33.3622 30.0876 33.7883 30.0025 34.2188 30.0025C34.6492 30.0025 35.0753 30.0876 35.4727 30.2529C35.8701 30.4182 36.2309 30.6604 36.5344 30.9656C36.8396 31.2691 37.0818 31.6299 37.2471 32.0273C37.4124 32.4247 37.4975 32.8508 37.4975 33.2812C37.4975 33.7117 37.4124 34.1378 37.2471 34.5352C37.0818 34.9326 36.8396 35.2934 36.5344 35.5969Z" fill="#F7753C"/>
<path d="M48.3094 7.3875L58.2356 12.6834L59.0625 9.375L48.3094 3.6375C46.1344 2.48438 43.7156 1.875 41.25 1.875C41.25 1.875 41.1056 3.57469 40.3256 5.65219C42.8316 5.77875 46.3922 6.37125 48.3094 7.3875ZM11.6906 7.3875C13.6069 6.37125 17.1656 5.77875 19.6725 5.65219C18.8944 3.57469 18.75 1.875 18.75 1.875C16.2844 1.875 13.8656 2.48438 11.6906 3.6375L0.9375 9.375L1.76437 12.6834L11.6906 7.3875Z" fill="#FC9972"/>
<path d="M31.4062 25.3125C31.4062 24.2728 31.7719 23.3409 32.3672 22.6603C32.9625 21.9806 33.7781 21.5625 34.6875 21.5625C33.7781 21.5625 32.9625 21.1444 32.3672 20.4647C31.7719 19.785 31.4062 18.8522 31.4062 17.8125C31.4062 19.8853 29.9391 21.5625 28.125 21.5625C29.0344 21.5625 29.85 21.9806 30.4453 22.6603C31.0406 23.3409 31.4062 24.2728 31.4062 25.3125Z" fill="#B0E1F4"/>
<path d="M23.4375 22.5C23.4375 24.0591 22.9153 25.4569 22.065 26.4778C21.2147 27.4978 20.0494 28.125 18.75 28.125C20.0494 28.125 21.2147 28.7522 22.065 29.7722C22.9153 30.7931 23.4375 32.1909 23.4375 33.75C23.4375 32.1909 23.9597 30.7931 24.81 29.7722C25.6603 28.7522 26.8256 28.125 28.125 28.125C25.5338 28.125 23.4375 25.6097 23.4375 22.5Z" fill="#83CAED"/>
<path d="M41.25 1.875C41.25 1.875 41.0156 4.6875 39.4875 7.5C37.9687 10.3125 35.1562 13.125 30 13.125C19.6875 13.125 18.75 1.875 18.75 1.875C18.75 1.875 23.4375 4.6875 30 4.6875C36.5625 4.6875 41.25 1.875 41.25 1.875Z" fill="#E06027"/>
<path d="M12.1875 40.8664V45.8164C11.8875 45.9008 11.5781 45.9383 11.25 45.9383C9.17812 45.9383 7.5 44.2602 7.5 42.1883C7.5 41.607 7.63125 41.0539 7.875 40.5664C8.5875 40.9977 9.42188 41.2508 10.3125 41.2508C10.9781 41.2508 11.6156 41.1102 12.1875 40.8664Z" fill="#B0E1F4"/>
<path d="M12.1875 27.5156V32.2594C11.6156 32.0156 10.9781 31.875 10.3125 31.875C9.53437 31.875 8.79375 32.0625 8.14687 32.4094C7.73437 31.8656 7.5 31.1906 7.5 30.4688C7.5 28.6594 8.97188 27.1875 10.7812 27.1875C11.2875 27.1875 11.7656 27.3 12.1875 27.5156Z" fill="#D8EFFA"/>
<path d="M15 36.5625C15 38.4844 13.8375 40.1344 12.1875 40.8656C11.6156 41.1094 10.9781 41.25 10.3125 41.25C9.42188 41.25 8.5875 40.9969 7.875 40.5656C7.18769 40.1478 6.6196 39.56 6.2255 38.8589C5.8314 38.1577 5.62459 37.3668 5.625 36.5625C5.625 34.7531 6.64688 33.1875 8.14688 32.4094C8.79375 32.0625 9.53438 31.875 10.3125 31.875C10.9781 31.875 11.6156 32.0156 12.1875 32.2594C13.8375 32.9906 15 34.6406 15 36.5625ZM35.1656 36.4219C35.4656 37.0312 35.625 37.7156 35.625 38.4375C35.625 41.025 33.525 43.125 30.9375 43.125C28.35 43.125 26.25 41.025 26.25 38.4375C26.25 35.85 28.35 33.75 30.9375 33.75H30.975C32.8219 33.7687 34.4156 34.8562 35.1656 36.4219Z" fill="#83CAED"/>
<path d="M36.5337 30.9651C36.839 31.2685 37.0812 31.6293 37.2465 32.0267C37.4118 32.4241 37.4968 32.8503 37.4968 33.2807C37.4968 33.7111 37.4118 34.1372 37.2465 34.5347C37.0812 34.9321 36.839 35.2929 36.5337 35.5963C36.14 35.9994 35.6619 36.2713 35.165 36.4213C34.415 34.8557 32.8212 33.7682 30.9744 33.7494C30.8337 32.7557 31.1431 31.7244 31.9025 30.9651C32.2059 30.6598 32.5667 30.4176 32.9641 30.2523C33.3616 30.087 33.7877 30.002 34.2181 30.002C34.6485 30.002 35.0747 30.087 35.4721 30.2523C35.8695 30.4176 36.2303 30.6598 36.5337 30.9651Z" fill="#B0E1F4"/>
<path d="M52.5 40.3125C54.6469 40.7438 56.25 42.7312 56.25 45C56.25 47.5875 54.15 49.6875 51.5625 49.6875H50.625C50.625 47.8313 49.8563 46.1531 48.6094 44.9625C50.9344 44.5125 52.5 42.9656 52.5 40.3125Z" fill="#D8EFFA"/>
<path d="M52.5 40.3125C52.5 42.9656 50.9344 44.5125 48.6094 44.9625C47.3922 43.7792 45.7601 43.1196 44.0625 43.125C43.4719 42.3469 43.125 41.3719 43.125 40.3125C43.125 37.725 45.225 35.625 47.8125 35.625C50.4 35.625 52.5 37.725 52.5 40.3125Z" fill="#B0E1F4"/>
<path d="M48.6077 44.9625C49.2466 45.5722 49.7548 46.3054 50.1014 47.1178C50.4479 47.9301 50.6255 48.8044 50.6233 49.6875C50.6233 53.3156 47.689 56.25 44.0608 56.25C42.0827 56.25 40.3202 55.3781 39.1296 54C38.5074 53.2998 38.045 52.4725 37.7747 51.5756C37.5043 50.6787 37.4324 49.7337 37.564 48.8063C37.7744 47.2327 38.5492 45.7892 39.7443 44.7441C40.9393 43.6991 42.4733 43.1237 44.0608 43.125C45.8327 43.125 47.4265 43.8188 48.6077 44.9625Z" fill="#83CAED"/>
<path d="M39.1313 54C38.775 55.0527 38.0564 55.9447 37.1036 56.5168C36.1509 57.089 35.0259 57.3042 33.9292 57.124C32.8326 56.9439 31.8355 56.3801 31.1159 55.5332C30.3963 54.6863 30.0008 53.6114 30 52.5C30 49.9125 32.1 47.8125 34.6875 47.8125C35.775 47.8125 36.7687 48.1781 37.5656 48.8063C37.4341 49.7337 37.506 50.6787 37.7763 51.5756C38.0467 52.4725 38.509 53.2997 39.1313 54Z" fill="#B0E1F4"/>
<path d="M56.7188 57.1875C58.0132 57.1875 59.0625 56.1382 59.0625 54.8438C59.0625 53.5493 58.0132 52.5 56.7188 52.5C55.4243 52.5 54.375 53.5493 54.375 54.8438C54.375 56.1382 55.4243 57.1875 56.7188 57.1875Z" fill="#D8EFFA"/>
<path d="M4.6875 52.5C5.72303 52.5 6.5625 51.6605 6.5625 50.625C6.5625 49.5895 5.72303 48.75 4.6875 48.75C3.65197 48.75 2.8125 49.5895 2.8125 50.625C2.8125 51.6605 3.65197 52.5 4.6875 52.5Z" fill="#D8EFFA"/>
<path d="M55.7812 28.125C55.7812 30.4575 57.2484 32.3438 59.0625 32.3438C58.1531 32.3438 57.3375 32.8134 56.7422 33.5794C56.1469 34.3453 55.7812 35.3934 55.7812 36.5625C55.7812 35.3934 55.4156 34.3444 54.8203 33.5794C54.225 32.8134 53.4094 32.3438 52.5 32.3438C53.4094 32.3438 54.225 31.8741 54.8203 31.1081C55.4156 30.3431 55.7812 29.2941 55.7812 28.125Z" fill="#83CAED"/>
<path d="M12.1875 43.125V52.5H30C30 51.3975 30.3975 50.3972 31.035 49.5956C15.4462 48.8138 12.1875 43.125 12.1875 43.125Z" fill="#E06027"/>
<path d="M44.3633 53.4375C44.1146 53.4375 43.8762 53.3387 43.7004 53.1629C43.5246 52.9871 43.4258 52.7486 43.4258 52.5C43.4258 52.2514 43.5246 52.0129 43.7004 51.8371C43.8762 51.6613 44.1146 51.5625 44.3633 51.5625C45.3973 51.5625 46.2383 50.7216 46.2383 49.6875C46.2383 49.4389 46.3371 49.2004 46.5129 49.0246C46.6887 48.8488 46.9271 48.75 47.1758 48.75C47.4244 48.75 47.6629 48.8488 47.8387 49.0246C48.0145 49.2004 48.1133 49.4389 48.1133 49.6875C48.1133 51.7556 46.4305 53.4375 44.3633 53.4375Z" fill="#C7EDF9"/>
<path d="M49.6969 41.5215C49.4482 41.5215 49.2098 41.4227 49.034 41.2469C48.8582 41.0711 48.7594 40.8326 48.7594 40.584C48.7594 40.0665 48.3384 39.6465 47.8219 39.6465C47.5732 39.6465 47.3348 39.5477 47.159 39.3719C46.9831 39.1961 46.8844 38.9576 46.8844 38.709C46.8844 38.4603 46.9831 38.2219 47.159 38.0461C47.3348 37.8703 47.5732 37.7715 47.8219 37.7715C49.3725 37.7715 50.6344 39.0334 50.6344 40.584C50.6344 40.8326 50.5356 41.0711 50.3598 41.2469C50.184 41.4227 49.9455 41.5215 49.6969 41.5215ZM35.25 55.1059C33.6994 55.1059 32.4375 53.844 32.4375 52.2934C32.4375 52.0447 32.5363 51.8063 32.7121 51.6304C32.8879 51.4546 33.1264 51.3559 33.375 51.3559C33.6236 51.3559 33.8621 51.4546 34.0379 51.6304C34.2137 51.8063 34.3125 52.0447 34.3125 52.2934C34.3125 52.8109 34.7334 53.2309 35.25 53.2309C35.4986 53.2309 35.7371 53.3296 35.9129 53.5054C36.0887 53.6813 36.1875 53.9197 36.1875 54.1684C36.1875 54.417 36.0887 54.6555 35.9129 54.8313C35.7371 55.0071 35.4986 55.1059 35.25 55.1059Z" fill="#D8EFFA"/>
<path d="M12.1875 37.8086C11.9389 37.8086 11.7004 37.7098 11.5246 37.534C11.3488 37.3582 11.25 37.1197 11.25 36.8711C11.25 36.3536 10.8291 35.9336 10.3125 35.9336C10.0639 35.9336 9.8254 35.8348 9.64959 35.659C9.47377 35.4832 9.375 35.2447 9.375 34.9961C9.375 34.7475 9.47377 34.509 9.64959 34.3332C9.8254 34.1574 10.0639 34.0586 10.3125 34.0586C11.8631 34.0586 13.125 35.3205 13.125 36.8711C13.125 37.1197 13.0262 37.3582 12.8504 37.534C12.6746 37.7098 12.4361 37.8086 12.1875 37.8086ZM29.6062 39.6461C29.3576 39.6461 29.1192 39.5473 28.9433 39.3715C28.7675 39.1957 28.6687 38.9572 28.6687 38.7086C28.6687 37.158 29.9306 35.8961 31.4813 35.8961C31.7299 35.8961 31.9683 35.9949 32.1442 36.1707C32.32 36.3465 32.4188 36.585 32.4188 36.8336C32.4188 37.0822 32.32 37.3207 32.1442 37.4965C31.9683 37.6723 31.7299 37.7711 31.4813 37.7711C30.9647 37.7711 30.5438 38.1911 30.5438 38.7086C30.5438 38.9572 30.445 39.1957 30.2692 39.3715C30.0933 39.5473 29.8549 39.6461 29.6062 39.6461Z" fill="#C7EDF9"/>
</svg>
