<svg width="50" height="50" viewBox="0 0 50 50" fill="none" xmlns="http://www.w3.org/2000/svg">
<path d="M49.2008 31.6508C49.0492 30.0633 47.8742 28.7664 46.3484 28.3117C48.0852 27.0305 49.2188 24.9758 49.2188 22.6562C49.2188 20.3367 48.0852 18.282 46.3477 17.0008C47.8734 16.5461 49.0492 15.25 49.2 13.6617C49.2522 13.1187 49.1905 12.5707 49.019 12.0528C48.8475 11.5349 48.5699 11.0585 48.2039 10.6539C48.0372 10.4709 47.8535 10.304 47.6555 10.1555C47.8523 10.0086 48.0359 9.84219 48.2039 9.65703C48.5699 9.25248 48.8476 8.77605 49.0191 8.25815C49.1906 7.74025 49.2522 7.19227 49.2 6.64922C49.0117 4.67344 47.2461 3.125 45.1781 3.125H17.1875C13.3102 3.125 10.1562 6.27891 10.1562 10.1562C10.1562 12.4758 11.2898 14.5305 13.0273 15.8117C11.5016 16.2664 10.3258 17.5625 10.175 19.1508C10.1228 19.6938 10.1845 20.2418 10.356 20.7597C10.5275 21.2776 10.8051 21.754 11.1711 22.1586C11.3391 22.343 11.5227 22.5094 11.7195 22.657C11.5211 22.8051 11.3374 22.972 11.1711 23.1555C10.8051 23.56 10.5274 24.0365 10.3559 24.5544C10.1844 25.0723 10.1228 25.6202 10.175 26.1633C10.3266 27.7508 11.5016 29.0477 13.0273 29.5023C11.2898 30.782 10.1562 32.8367 10.1562 35.1562C10.1562 36.5609 10.5859 37.9156 11.3531 39.0625H10.1562V36.7188H0.78125V49.2188H10.1562V47.6562H25.9984C26.4195 47.6562 26.843 47.618 27.2563 47.5422L34.0945 46.2992C35.0331 46.1295 35.8973 45.6767 36.5711 45.0016L39.3859 42.1875H45.1781C47.2453 42.1875 49.0117 40.6391 49.2 38.6617C49.2522 38.1187 49.1905 37.5707 49.019 37.0528C48.8475 36.5349 48.5699 36.0585 48.2039 35.6539C48.0372 35.4709 47.8535 35.304 47.6555 35.1555C48.1913 34.7522 48.6147 34.2183 48.8853 33.6047C49.1558 32.9911 49.2645 32.3184 49.2008 31.6508ZM11.7188 10.1562C11.7188 7.14141 14.1727 4.6875 17.1875 4.6875H45.1781C46.4484 4.6875 47.5328 5.61484 47.6453 6.79844C47.6776 7.12424 47.6413 7.4532 47.5388 7.76414C47.4362 8.07507 47.2698 8.36109 47.05 8.6038C46.8303 8.8465 46.5621 9.04051 46.2629 9.17333C45.9636 9.30615 45.6399 9.37485 45.3125 9.375H15.625V10.9375H45.3125C45.9719 10.9375 46.6039 11.2172 47.0477 11.7047C47.4969 12.1992 47.7102 12.8414 47.6461 13.5133C47.5328 14.6977 46.4484 15.625 45.1781 15.625H41.4062C39.6828 15.625 38.2812 14.2234 38.2812 12.5H36.7188C36.7188 14.2234 35.3172 15.625 33.5938 15.625H17.1875C14.1727 15.625 11.7188 13.1711 11.7188 10.1562ZM38.818 16.4062C38.2957 16.7539 37.8477 17.2019 37.5 17.7242C37.1523 17.2019 36.7043 16.7539 36.182 16.4062C36.7043 16.0586 37.1523 15.6106 37.5 15.0883C37.8475 15.6107 38.2955 16.0588 38.818 16.4062ZM14.1969 28.125C12.9266 28.125 11.8422 27.1977 11.7297 26.0141C11.6974 25.6883 11.7337 25.3593 11.8362 25.0484C11.9388 24.7374 12.1052 24.4514 12.325 24.2087C12.5447 23.966 12.8129 23.772 13.1121 23.6392C13.4114 23.5063 13.7351 23.4376 14.0625 23.4375H43.75V21.875H14.0625C13.7358 21.8747 13.4128 21.8063 13.1141 21.6742C12.8153 21.5421 12.5474 21.3492 12.3273 21.1078C12.1058 20.8655 11.9379 20.5792 11.8348 20.2675C11.7317 19.9558 11.6956 19.6258 11.7289 19.2992C11.8422 18.1148 12.9266 17.1875 14.1969 17.1875H33.5938C35.3172 17.1875 36.7188 18.5891 36.7188 20.3125H38.2812C38.2812 18.5891 39.6828 17.1875 41.4062 17.1875H42.1875C45.2023 17.1875 47.6562 19.6414 47.6562 22.6562C47.6562 25.6711 45.2023 28.125 42.1875 28.125H17.1875H14.1969ZM8.59375 47.6562H2.34375V38.2812H8.59375V47.6562ZM35.4664 43.8969C35.0174 44.3471 34.4413 44.6489 33.8156 44.7617L26.9773 46.0055C26.6543 46.0642 26.3267 46.0937 25.9984 46.0938H10.1562V40.625H13.8734C14.7018 40.6228 15.4957 40.2937 16.0828 39.7094L22.5617 33.2305C22.833 32.9797 23.1909 32.8438 23.5602 32.8511C23.9296 32.8583 24.2818 33.0083 24.543 33.2695C24.8042 33.5307 24.9542 33.8829 24.9614 34.2523C24.9687 34.6216 24.8328 34.9795 24.582 35.2508L20.9992 38.8336C20.7808 39.0506 20.6076 39.3088 20.4898 39.5933C20.3719 39.8777 20.3116 40.1827 20.3125 40.4906V42.9688H21.875V40.7172L24.3211 41.9398C24.6445 42.1023 25.007 42.1875 25.3687 42.1875H32.1656C32.7914 42.1875 33.3805 41.9437 33.8227 41.5008L37.4055 37.918C37.6768 37.6672 38.0346 37.5313 38.404 37.5386C38.7733 37.5458 39.1255 37.6958 39.3867 37.957C39.6479 38.2182 39.7979 38.5704 39.8052 38.9398C39.8125 39.3091 39.6765 39.667 39.4258 39.9383L35.4664 43.8969ZM45.1781 40.625H40.8742C41.2207 40.127 41.4064 39.5348 41.4062 38.9281C41.4052 38.1353 41.0898 37.3752 40.5292 36.8146C39.9685 36.2539 39.2085 35.9385 38.4156 35.9375C38.0227 35.9364 37.6335 36.0133 37.2705 36.1636C36.9075 36.3139 36.5779 36.5348 36.3008 36.8133L32.718 40.3961C32.5712 40.5423 32.3727 40.6245 32.1656 40.625H25.3687C25.2478 40.625 25.1285 40.597 25.0203 40.543L22.6734 39.3695L25.6867 36.3563C25.8164 36.2266 25.9281 36.0852 26.0305 35.9383H45.3125C45.9719 35.9383 46.6039 36.218 47.0477 36.7055C47.4969 37.2 47.7102 37.8422 47.6461 38.5141C47.5328 39.6977 46.4484 40.625 45.1781 40.625ZM47.0477 33.6078C46.8276 33.8492 46.5597 34.0421 46.2609 34.1742C45.9622 34.3063 45.6392 34.3747 45.3125 34.375H26.5492C26.5516 34.3297 26.5625 34.2859 26.5625 34.2406C26.5615 33.4478 26.246 32.6877 25.6854 32.1271C25.1248 31.5665 24.3647 31.251 23.5719 31.25C23.179 31.2489 22.7898 31.3258 22.4268 31.4761C22.0637 31.6264 21.7341 31.8472 21.457 32.1258L19.2078 34.375H15.625V35.9375H17.6453L14.9781 38.6047C14.6844 38.8967 14.2875 39.0611 13.8734 39.0625H13.3719C12.85 38.5544 12.4349 37.9471 12.151 37.2763C11.8671 36.6054 11.7201 35.8847 11.7188 35.1562C11.7188 32.1414 14.1727 29.6875 17.1875 29.6875H45.1781C46.4484 29.6875 47.5328 30.6148 47.6453 31.7984C47.7094 32.4703 47.4969 33.1133 47.0477 33.6078ZM3.90625 8.59375H5.46875C5.46875 6.87031 6.87031 5.46875 8.59375 5.46875V3.90625C6.87031 3.90625 5.46875 2.50469 5.46875 0.78125H3.90625C3.90625 2.50469 2.50469 3.90625 0.78125 3.90625V5.46875C2.50469 5.46875 3.90625 6.87031 3.90625 8.59375ZM4.6875 3.36953C5.03497 3.89199 5.48301 4.34003 6.00547 4.6875C5.48301 5.03497 5.03497 5.48301 4.6875 6.00547C4.34003 5.48301 3.89199 5.03497 3.36953 4.6875C3.89199 4.34003 4.34003 3.89199 4.6875 3.36953Z" fill="#8CC63F"/>
<path d="M7.03125 25.7812H5.46875C5.46875 27.5047 4.06719 28.9062 2.34375 28.9062V30.4688C4.06719 30.4688 5.46875 31.8703 5.46875 33.5938H7.03125C7.03125 31.8703 8.43281 30.4688 10.1562 30.4688V28.9062C8.43281 28.9062 7.03125 27.5047 7.03125 25.7812ZM6.25 31.0055C5.90253 30.483 5.45449 30.035 4.93203 29.6875C5.45449 29.34 5.90253 28.892 6.25 28.3695C6.59747 28.892 7.04551 29.34 7.56797 29.6875C7.04551 30.035 6.59747 30.483 6.25 31.0055Z" fill="#8CC63F"/>
</svg>
