<svg width="50" height="50" viewBox="0 0 50 50" fill="none" xmlns="http://www.w3.org/2000/svg">
<path d="M46.4915 6.18359H13.6524C13.4452 6.18359 13.2465 6.2659 13.1 6.41242C12.9535 6.55893 12.8712 6.75764 12.8712 6.96484V30.5336H5.46181C4.91826 30.5328 4.38686 30.6943 3.93565 30.9974C3.48444 31.3005 3.13394 31.7313 2.92904 32.2347C2.72414 32.7382 2.67415 33.2913 2.78549 33.8234C2.89683 34.3554 3.16441 34.8421 3.55399 35.2211C3.29251 35.4747 3.08462 35.7783 2.94266 36.1138C2.80069 36.4493 2.72754 36.8099 2.72754 37.1742C2.72754 37.5385 2.80069 37.8991 2.94266 38.2346C3.08462 38.5701 3.29251 38.8737 3.55399 39.1273C3.16441 39.5064 2.89683 39.9931 2.78549 40.5251C2.67415 41.0571 2.72414 41.6102 2.92904 42.1137C3.13394 42.6171 3.48444 43.048 3.93565 43.351C4.38686 43.6541 4.91826 43.8156 5.46181 43.8148H15.6181C15.718 43.8103 15.8177 43.8001 15.9165 43.7844H46.4915C46.6987 43.7844 46.8974 43.7021 47.0439 43.5555C47.1904 43.409 47.2727 43.2103 47.2727 43.0031V6.96484C47.2727 6.75764 47.1904 6.55893 47.0439 6.41242C46.8974 6.2659 46.6987 6.18359 46.4915 6.18359ZM45.7102 7.74609V13.9359C45.6619 13.9209 45.6122 13.9109 45.5618 13.9062H14.5813C14.5312 13.9109 14.4817 13.9209 14.4337 13.9359V7.74609H45.7102ZM4.28993 33.268C4.28993 32.9572 4.4134 32.6591 4.63317 32.4393C4.85294 32.2196 5.15101 32.0961 5.46181 32.0961H15.6181C15.9289 32.0961 16.2269 32.2196 16.4467 32.4393C16.6665 32.6591 16.7899 32.9572 16.7899 33.268C16.7899 33.5788 16.6665 33.8768 16.4467 34.0966C16.2269 34.3164 15.9289 34.4398 15.6181 34.4398H5.46181C5.15101 34.4398 4.85294 34.3164 4.63317 34.0966C4.4134 33.8768 4.28993 33.5788 4.28993 33.268ZM4.28993 37.1742C4.28993 36.8634 4.4134 36.5653 4.63317 36.3456C4.85294 36.1258 5.15101 36.0023 5.46181 36.0023H15.6181C15.9289 36.0023 16.2269 36.1258 16.4467 36.3456C16.6665 36.5653 16.7899 36.8634 16.7899 37.1742C16.7899 37.485 16.6665 37.7831 16.4467 38.0029C16.2269 38.2226 15.9289 38.3461 15.6181 38.3461H5.46181C5.15101 38.3461 4.85294 38.2226 4.63317 38.0029C4.4134 37.7831 4.28993 37.485 4.28993 37.1742ZM4.28993 41.0805C4.28993 40.7697 4.4134 40.4716 4.63317 40.2518C4.85294 40.0321 5.15101 39.9086 5.46181 39.9086H15.6181C15.9049 39.9108 16.181 40.0182 16.394 40.2104C16.607 40.4026 16.7421 40.6663 16.7737 40.9514C16.8053 41.2366 16.7312 41.5234 16.5654 41.7575C16.3997 41.9917 16.1538 42.1569 15.8743 42.2219H13.6524C13.6018 42.2268 13.5518 42.237 13.5032 42.2523H5.46181C5.15101 42.2523 4.85294 42.1289 4.63317 41.9091C4.4134 41.6893 4.28993 41.3913 4.28993 41.0805ZM18.0946 42.2219C18.3354 41.7114 18.41 41.1383 18.3079 40.5831C18.2059 40.028 17.9324 39.5189 17.5259 39.1273C17.7874 38.8737 17.9952 38.5701 18.1372 38.2346C18.2792 37.8991 18.3523 37.5385 18.3523 37.1742C18.3523 36.8099 18.2792 36.4493 18.1372 36.1138C17.9952 35.7783 17.7874 35.4747 17.5259 35.2211C17.9155 34.8421 18.183 34.3554 18.2944 33.8234C18.4057 33.2913 18.3557 32.7382 18.1508 32.2347C17.9459 31.7313 17.5954 31.3005 17.1442 30.9974C16.693 30.6943 16.1616 30.5328 15.6181 30.5336H14.4337V15.4391C14.4818 15.4537 14.5313 15.4637 14.5813 15.4688H45.5618C45.6121 15.4637 45.6618 15.4537 45.7102 15.4391V42.2219H18.0946ZM38.1251 12.8937H43.7032C43.9104 12.8937 44.1091 12.8114 44.2556 12.6649C44.4022 12.5184 44.4845 12.3197 44.4845 12.1125V9.53828C44.4845 9.33108 44.4022 9.13237 44.2556 8.98585C44.1091 8.83934 43.9104 8.75703 43.7032 8.75703H38.1251C37.9179 8.75703 37.7192 8.83934 37.5727 8.98585C37.4261 9.13237 37.3438 9.33108 37.3438 9.53828V12.1164C37.3449 12.3229 37.4276 12.5206 37.574 12.6663C37.7204 12.812 37.9186 12.8938 38.1251 12.8937ZM38.9063 10.3195H42.922V11.3352H38.9063V10.3195ZM30.0712 20.3773C28.526 20.3773 27.0156 20.8355 25.7308 21.694C24.446 22.5524 23.4447 23.7726 22.8534 25.2001C22.2621 26.6277 22.1074 28.1985 22.4088 29.714C22.7102 31.2295 23.4543 32.6215 24.5469 33.7141C25.6395 34.8067 27.0316 35.5508 28.547 35.8522C30.0625 36.1537 31.6333 35.999 33.0609 35.4077C34.4884 34.8163 35.7086 33.815 36.567 32.5302C37.4255 31.2455 37.8837 29.735 37.8837 28.1898C37.8812 26.1186 37.0573 24.1329 35.5927 22.6683C34.1281 21.2037 32.1424 20.3798 30.0712 20.3773ZM30.0712 34.4398C28.4142 34.438 26.8255 33.7789 25.6538 32.6072C24.4821 31.4355 23.823 29.8469 23.8212 28.1898C23.8212 28.1586 23.8259 28.1289 23.8259 28.0977C25.0985 28.6719 27.2727 28.7336 30.0712 28.7336C31.7267 28.7336 34.0946 30.6805 35.204 31.7461C34.63 32.5766 33.8631 33.2556 32.9691 33.7247C32.0752 34.1939 31.0808 34.4393 30.0712 34.4398ZM35.947 30.2992C34.736 29.1859 32.2446 27.1742 30.0712 27.1742C28.1056 27.1742 24.8149 27.1742 24.1852 26.5203C24.151 26.491 24.1141 26.4648 24.0751 26.4422C24.4988 25.0012 25.4274 23.761 26.6907 22.9486C27.954 22.1362 29.4677 21.8059 30.9546 22.0182C32.4415 22.2305 33.8022 22.9712 34.7878 24.1047C35.7733 25.2381 36.3176 26.6886 36.3212 28.1906C36.3198 28.9099 36.1932 29.6234 35.947 30.2992ZM31.6337 13.3461C32.0972 13.3461 32.5504 13.2086 32.9358 12.9511C33.3212 12.6936 33.6216 12.3275 33.799 11.8993C33.9764 11.471 34.0228 10.9997 33.9324 10.5451C33.842 10.0905 33.6187 9.67284 33.291 9.34506C32.9632 9.01728 32.5456 8.79406 32.0909 8.70363C31.6363 8.61319 31.165 8.65961 30.7368 8.837C30.3085 9.01439 29.9425 9.3148 29.6849 9.70023C29.4274 10.0857 29.2899 10.5388 29.2899 11.0023C29.2899 11.6239 29.5369 12.2201 29.9764 12.6596C30.4159 13.0992 31.0121 13.3461 31.6337 13.3461ZM31.6337 10.2211C31.7882 10.2211 31.9392 10.2669 32.0677 10.3528C32.1962 10.4386 32.2963 10.5606 32.3555 10.7034C32.4146 10.8461 32.4301 11.0032 32.3999 11.1548C32.3698 11.3063 32.2954 11.4455 32.1861 11.5548C32.0768 11.664 31.9376 11.7384 31.7861 11.7686C31.6345 11.7987 31.4775 11.7833 31.3347 11.7241C31.192 11.665 31.0699 11.5649 30.9841 11.4364C30.8983 11.3079 30.8524 11.1569 30.8524 11.0023C30.8524 10.7951 30.9347 10.5964 31.0813 10.4499C31.2278 10.3034 31.4265 10.2211 31.6337 10.2211ZM24.6024 13.3461C25.066 13.3461 25.5191 13.2086 25.9046 12.9511C26.29 12.6936 26.5904 12.3275 26.7678 11.8993C26.9452 11.471 26.9916 10.9997 26.9011 10.5451C26.8107 10.0905 26.5875 9.67284 26.2597 9.34506C25.9319 9.01728 25.5143 8.79406 25.0597 8.70363C24.605 8.61319 24.1338 8.65961 23.7055 8.837C23.2773 9.01439 22.9112 9.3148 22.6537 9.70023C22.3961 10.0857 22.2587 10.5388 22.2587 11.0023C22.2587 11.6239 22.5056 12.2201 22.9452 12.6596C23.3847 13.0992 23.9808 13.3461 24.6024 13.3461ZM24.6024 10.2211C24.7569 10.2211 24.908 10.2669 25.0365 10.3528C25.1649 10.4386 25.2651 10.5606 25.3242 10.7034C25.3833 10.8461 25.3988 11.0032 25.3687 11.1548C25.3385 11.3063 25.2641 11.4455 25.1549 11.5548C25.0456 11.664 24.9064 11.7384 24.7548 11.7686C24.6033 11.7987 24.4462 11.7833 24.3035 11.7241C24.1607 11.665 24.0387 11.5649 23.9528 11.4364C23.867 11.3079 23.8212 11.1569 23.8212 11.0023C23.8212 10.7951 23.9035 10.5964 24.05 10.4499C24.1965 10.3034 24.3952 10.2211 24.6024 10.2211ZM17.5712 13.3461C18.0347 13.3461 18.4879 13.2086 18.8733 12.9511C19.2587 12.6936 19.5591 12.3275 19.7365 11.8993C19.9139 11.471 19.9603 10.9997 19.8699 10.5451C19.7795 10.0905 19.5562 9.67284 19.2285 9.34506C18.9007 9.01728 18.4831 8.79406 18.0284 8.70363C17.5738 8.61319 17.1025 8.65961 16.6743 8.837C16.246 9.01439 15.88 9.3148 15.6224 9.70023C15.3649 10.0857 15.2274 10.5388 15.2274 11.0023C15.2274 11.6239 15.4744 12.2201 15.9139 12.6596C16.3534 13.0992 16.9496 13.3461 17.5712 13.3461ZM17.5712 10.2211C17.7257 10.2211 17.8767 10.2669 18.0052 10.3528C18.1337 10.4386 18.2338 10.5606 18.293 10.7034C18.3521 10.8461 18.3676 11.0032 18.3374 11.1548C18.3073 11.3063 18.2329 11.4455 18.1236 11.5548C18.0143 11.664 17.8751 11.7384 17.7236 11.7686C17.572 11.7987 17.415 11.7833 17.2722 11.7241C17.1295 11.665 17.0074 11.5649 16.9216 11.4364C16.8358 11.3079 16.7899 11.1569 16.7899 11.0023C16.7899 10.7951 16.8722 10.5964 17.0188 10.4499C17.1653 10.3034 17.364 10.2211 17.5712 10.2211Z" fill="white"/>
</svg>
