<svg width="50" height="50" viewBox="0 0 50 50" fill="none" xmlns="http://www.w3.org/2000/svg">
<g clip-path="url(#clip0_2_9309)">
<path d="M50 15.3847C49.9976 14.4376 49.6916 13.525 49.141 12.8225C48.5903 12.1201 47.834 11.6775 47.0175 11.5799C47.3239 10.9985 47.4902 10.3333 47.4994 9.65288C47.5086 8.9725 47.3603 8.30161 47.0697 7.70944C46.7792 7.11728 46.357 6.62529 45.8467 6.28425C45.3363 5.94321 44.7564 5.76547 44.1667 5.76936H40.9667L32.8475 1.20879C31.5034 0.298274 29.9494 -0.114176 28.3956 0.0271759C26.8418 0.168528 25.363 0.856867 24.1592 1.99917L18.6017 7.31648C17.6906 8.18211 16.5469 8.65497 15.3667 8.65398H0.833333C0.61232 8.65398 0.400358 8.75528 0.244078 8.93561C0.0877974 9.11593 0 9.3605 0 9.61552C0 9.87053 0.0877974 10.1151 0.244078 10.2954C0.400358 10.4758 0.61232 10.5771 0.833333 10.5771H15.3667C16.9355 10.5777 18.4556 9.94884 19.6667 8.79821L25.2242 3.4809C26.1739 2.58652 27.3393 2.05134 28.5619 1.94811C29.7845 1.84489 31.0051 2.17864 32.0575 2.90398L37.1617 5.76936H30.8333C30.6123 5.76936 30.4004 5.87067 30.2441 6.05099C30.0878 6.23132 30 6.47589 30 6.7309C30 6.98592 30.0878 7.23049 30.2441 7.41081C30.4004 7.59114 30.6123 7.69244 30.8333 7.69244H44.1667C44.6087 7.69244 45.0326 7.89505 45.3452 8.2557C45.6577 8.61634 45.8333 9.10549 45.8333 9.61552C45.8333 10.1255 45.6577 10.6147 45.3452 10.9753C45.0326 11.336 44.6087 11.5386 44.1667 11.5386H40C39.779 11.5386 39.567 11.6399 39.4107 11.8202C39.2545 12.0005 39.1667 12.2451 39.1667 12.5001C39.1667 12.7551 39.2545 12.9997 39.4107 13.18C39.567 13.3604 39.779 13.4617 40 13.4617H46.6667C47.1087 13.4617 47.5326 13.6643 47.8452 14.0249C48.1577 14.3856 48.3333 14.8747 48.3333 15.3847C48.3333 15.8948 48.1577 16.3839 47.8452 16.7446C47.5326 17.1052 47.1087 17.3078 46.6667 17.3078H39.1667C38.9457 17.3078 38.7337 17.4091 38.5774 17.5895C38.4211 17.7698 38.3333 18.0143 38.3333 18.2694C38.3333 18.5244 38.4211 18.769 38.5774 18.9493C38.7337 19.1296 38.9457 19.2309 39.1667 19.2309H44.1667C44.6087 19.2309 45.0326 19.4335 45.3452 19.7942C45.6577 20.1548 45.8333 20.6439 45.8333 21.154C45.8333 21.664 45.6577 22.1532 45.3452 22.5138C45.0326 22.8744 44.6087 23.0771 44.1667 23.0771H38.3333C38.1123 23.0771 37.9004 23.1784 37.7441 23.3587C37.5878 23.539 37.5 23.7836 37.5 24.0386C37.5 24.2936 37.5878 24.5382 37.7441 24.7185C37.9004 24.8988 38.1123 25.0001 38.3333 25.0001H40.8333C41.2754 25.0001 41.6993 25.2027 42.0118 25.5634C42.3244 25.924 42.5 26.4132 42.5 26.9232C42.5 27.4332 42.3244 27.9224 42.0118 28.283C41.6993 28.6437 41.2754 28.8463 40.8333 28.8463H38.2083C38.072 28.2524 37.814 27.705 37.4561 27.2501C37.0981 26.7953 36.6507 26.4463 36.1515 26.2327C35.6522 26.019 35.1158 25.9469 34.5874 26.0224C34.059 26.0979 33.554 26.3188 33.115 26.6665C33.0525 26.7165 33.0017 26.7809 32.9425 26.8348C32.7133 26.3795 32.4051 25.9838 32.0371 25.6725C31.6691 25.3612 31.2493 25.141 30.8041 25.0257C30.3589 24.9104 29.8978 24.9025 29.4499 25.0025C29.0019 25.1025 28.5766 25.3083 28.2008 25.6069C28.1383 25.6569 28.0875 25.7203 28.0283 25.7742C27.99 25.6992 27.9625 25.6194 27.92 25.5463C27.6631 25.111 27.3309 24.7417 26.9444 24.4616C26.5579 24.1815 26.1253 23.9967 25.6739 23.9188C25.2225 23.8409 24.762 23.8715 24.3213 24.0088C23.8807 24.1461 23.4694 24.387 23.1133 24.7165C22.7712 24.0414 22.2583 23.5031 21.6434 23.174C21.0286 22.8449 20.3412 22.7406 19.6735 22.8752C19.0058 23.0098 18.3897 23.3767 17.908 23.9269C17.4262 24.477 17.1019 25.184 16.9783 25.953V25.9617H0.833333C0.61232 25.9617 0.400358 26.063 0.244078 26.2433C0.0877974 26.4236 0 26.6682 0 26.9232C0 27.1782 0.0877974 27.4228 0.244078 27.6031C0.400358 27.7834 0.61232 27.8848 0.833333 27.8848H12.0367C7.07917 33.0223 5.5775 42.9886 5.14667 47.4328C5.11415 47.7849 5.1665 48.1405 5.29796 48.4604C5.42942 48.7804 5.63488 49.0522 5.89169 49.246C6.1485 49.4398 6.4467 49.5481 6.75342 49.5588C7.06014 49.5695 7.36348 49.4824 7.63 49.3069L11.5283 46.7376L13.8742 49.4453C14.1018 49.7075 14.391 49.8869 14.706 49.9614C15.021 50.0359 15.348 50.0022 15.6467 49.8646C15.9496 49.7298 16.2117 49.4954 16.4004 49.1905C16.5891 48.8856 16.6962 48.5236 16.7083 48.1492C17.0417 39.7184 19.2158 34.8348 21.0417 32.1761C21.2317 32.0992 21.4158 32.003 21.5908 31.8876C21.6825 32.1857 21.8067 32.4694 21.9583 32.7328C22.2156 33.1682 22.5478 33.5377 22.9344 33.8181C23.321 34.0986 23.7536 34.284 24.2051 34.3628C24.6567 34.4415 25.1174 34.412 25.5586 34.276C25.9998 34.14 26.4119 33.9004 26.7692 33.5723C27.061 34.1488 27.4788 34.627 27.9807 34.9592C28.4827 35.2913 29.0513 35.4659 29.63 35.4655C30.103 35.4696 30.571 35.3538 31.0009 35.1264C31.4309 34.8989 31.8123 34.5653 32.1183 34.1492C32.5183 34.7325 33.0589 35.1662 33.6721 35.3958C34.2852 35.6255 34.9435 35.6407 35.5642 35.4396C37.4858 39.0184 38.0717 44.3473 38.25 47.3107C38.2917 48.0588 38.7117 48.7078 39.3217 48.9655C39.623 49.0968 39.9509 49.1246 40.2656 49.0454C40.5803 48.9662 40.8684 48.7835 41.095 48.5194L43.52 45.7136L47.5983 47.7328C48.1433 48.0078 48.7733 47.9251 49.2508 47.5165C49.7258 47.1194 49.98 46.4588 49.9175 45.7857C49.1938 39.7403 46.632 34.1882 42.6892 30.1203C43.1441 29.7685 43.5169 29.2927 43.7746 28.7351C44.0323 28.1775 44.167 27.5552 44.1667 26.9232C44.1638 26.2462 44.0044 25.5824 43.705 25.0001H44.1667C44.7564 25.004 45.3363 24.8263 45.8467 24.4852C46.357 24.1442 46.7792 23.6522 47.0697 23.0601C47.3603 22.4679 47.5086 21.797 47.4994 21.1166C47.4902 20.4362 47.3239 19.771 47.0175 19.1896C47.834 19.092 48.5903 18.6494 49.141 17.947C49.6916 17.2445 49.9976 16.3319 50 15.3847ZM19.3133 25.0732C19.4937 24.9299 19.6969 24.8293 19.9111 24.7772C20.1254 24.725 20.3465 24.7224 20.5617 24.7694C20.777 24.8156 20.9823 24.9103 21.1658 25.0482C21.3494 25.186 21.5076 25.3642 21.6314 25.5726C21.7553 25.7811 21.8423 26.0156 21.8875 26.2629C21.9327 26.5101 21.9353 26.7652 21.895 27.0136L21.5833 28.904C21.5023 29.4055 21.252 29.8493 20.8874 30.1378C20.5228 30.4263 20.0738 30.5359 19.6392 30.4424C19.2045 30.349 18.8199 30.0601 18.5698 29.6394C18.3198 29.2187 18.2248 28.7007 18.3058 28.1992L18.6133 26.3078C18.653 26.0586 18.7353 25.8211 18.8555 25.6091C18.9757 25.3971 19.1313 25.2149 19.3133 25.0732ZM15.0475 48.0771L12.7058 45.3742C12.4488 45.0751 12.1131 44.8827 11.7513 44.827C11.3894 44.7713 11.0218 44.8555 10.7058 45.0665L6.80333 47.6453C7.25917 42.9424 8.96167 31.678 14.8867 27.8848H16.6667C16.625 28.1636 16.6117 28.4482 16.625 28.7309C14.6417 30.2928 13.1965 32.6085 12.5417 35.2742C12.5072 35.3941 12.4935 35.5206 12.5014 35.6466C12.5094 35.7726 12.5387 35.8956 12.5878 36.0085C12.6369 36.1214 12.7048 36.222 12.7876 36.3046C12.8704 36.3873 12.9665 36.4503 13.0704 36.49C13.2803 36.5704 13.5092 36.5512 13.7068 36.4368C13.9044 36.3224 14.0545 36.1221 14.1242 35.8799C14.6355 33.8097 15.6978 31.9772 17.1608 30.6415C17.5851 31.3907 18.2239 31.944 18.9658 32.2049C17.1842 35.2723 15.3508 40.2674 15.0475 48.0771ZM24.4042 32.4463C24.1889 32.4001 23.9836 32.3053 23.8 32.1675C23.6164 32.0297 23.4582 31.8514 23.3344 31.643C23.2106 31.4346 23.1236 31.2 23.0783 30.9528C23.0331 30.7056 23.0306 30.4504 23.0708 30.2021L23.2242 29.2569L23.53 27.3665C23.5662 27.114 23.6457 26.8724 23.7639 26.6558C23.882 26.4392 24.0365 26.252 24.2181 26.1052C24.3998 25.9583 24.6051 25.8548 24.8219 25.8007C25.0386 25.7466 25.2626 25.7429 25.4806 25.7899C25.6987 25.837 25.9064 25.9338 26.0916 26.0746C26.2768 26.2155 26.4357 26.3976 26.5591 26.6102C26.6826 26.8229 26.768 27.0618 26.8103 27.313C26.8527 27.5642 26.8512 27.8227 26.8058 28.0732L26.3467 30.9088C26.2633 31.4084 26.0126 31.85 25.649 32.1378C25.2854 32.4256 24.8381 32.5364 24.4042 32.4463ZM30.5708 33.2021C30.2989 33.4183 29.9773 33.5364 29.6471 33.5414C29.3169 33.5464 28.9928 33.438 28.716 33.2301C28.4392 33.0222 28.2221 32.7241 28.0925 32.3737C27.9628 32.0232 27.9262 31.6361 27.9875 31.2617L28.4467 28.4271C28.4868 28.1787 28.5689 27.942 28.6883 27.7303C28.8077 27.5186 28.9621 27.3361 29.1426 27.1932C29.3231 27.0504 29.5263 26.9499 29.7405 26.8977C29.9546 26.8454 30.1756 26.8423 30.3908 26.8886C30.606 26.9349 30.8112 27.0296 30.9947 27.1674C31.1782 27.3052 31.3363 27.4833 31.4602 27.6916C31.584 27.8999 31.671 28.1343 31.7163 28.3814C31.7616 28.6286 31.7643 28.8836 31.7242 29.1319L31.4167 31.0242L31.2642 31.9665C31.2247 32.2154 31.1428 32.4528 31.0232 32.6649C30.9036 32.877 30.7487 33.0596 30.5675 33.2021H30.5708ZM34.3908 33.6203C33.9582 33.5268 33.5753 33.2397 33.3255 32.8216C33.0757 32.4035 32.9793 31.8884 33.0575 31.3886L33.3658 29.4867C33.4061 29.2384 33.4883 29.0016 33.6078 28.79C33.7273 28.5783 33.8818 28.3959 34.0624 28.2531C34.243 28.1104 34.4462 28.01 34.6604 27.9579C34.8746 27.9057 35.0956 27.9028 35.3108 27.9492C35.526 27.9956 35.7312 28.0904 35.9146 28.2283C36.0981 28.3662 36.2562 28.5445 36.3799 28.7529C36.5036 28.9613 36.5906 29.1957 36.6358 29.4429C36.681 29.6901 36.6836 29.9451 36.6433 30.1934L36.3333 32.0838C36.2933 32.3321 36.2112 32.5689 36.0918 32.7806C35.9724 32.9924 35.818 33.1749 35.6375 33.3177C35.4569 33.4606 35.2538 33.561 35.0396 33.6133C34.8254 33.6655 34.6044 33.6686 34.3892 33.6222L34.3908 33.6203ZM48.2608 45.9617L44.1817 43.9424C43.8749 43.7943 43.5368 43.7545 43.2104 43.8283C42.884 43.9021 42.584 44.0861 42.3483 44.3569L39.9167 47.1742C39.7292 44.0463 39.1025 38.4242 37.0167 34.4819C37.424 34.0219 37.7206 33.4477 37.8775 32.8155C38.8358 33.5823 39.5869 34.6459 40.0442 35.8838C40.114 36.1261 40.2644 36.3264 40.4622 36.4407C40.6601 36.555 40.8892 36.574 41.0992 36.4934C41.3091 36.4128 41.4827 36.2393 41.5818 36.011C41.6809 35.7827 41.6973 35.5184 41.6275 35.2761C40.9461 33.4068 39.7743 31.8307 38.2767 30.7694H40.6208C43.4842 32.753 47.685 39.3338 48.2608 45.9617Z" fill="#8CC63F"/>
</g>
<defs>
<clipPath id="clip0_2_9309">
<rect width="50" height="50" fill="white"/>
</clipPath>
</defs>
</svg>
