<svg width="50" height="42" viewBox="0 0 50 42" fill="none" xmlns="http://www.w3.org/2000/svg">
<path d="M33.5938 42.0004H46.875C47.3071 42.0004 47.6563 41.6462 47.6563 41.2079V37.3646C48.0188 37.149 48.3571 36.8883 48.6586 36.5769C49.5469 35.6592 50.0227 34.4523 49.9993 33.1788C49.8196 23.4729 45.7336 14.0737 42.8899 10.499C42.2422 9.68434 41.2743 9.2168 40.2344 9.2168C39.1946 9.2168 38.2266 9.68434 37.579 10.499C34.7352 14.0737 30.65 23.4729 30.4696 33.1788C30.4461 34.4523 30.9219 35.6592 31.8102 36.5769C32.1118 36.8883 32.45 37.149 32.8125 37.3646V41.2079C32.8125 41.6462 33.1618 42.0004 33.5938 42.0004ZM38.7946 11.4935C39.4946 10.6131 40.9735 10.6131 41.6743 11.4935C44.3782 14.8931 48.2641 23.8771 48.4368 33.2074C48.4532 34.0521 48.1352 34.8541 47.5438 35.4666C46.9274 36.103 46.0969 36.4532 45.204 36.4532H43.75C43.318 36.4532 42.9688 36.8075 42.9688 37.2457C42.9688 37.6839 43.318 38.0381 43.75 38.0381H45.204C45.5063 38.0381 45.8032 38.0072 46.0938 37.9541V40.4155H34.375V37.9541C34.6657 38.0072 34.9625 38.0381 35.2649 38.0381H41.0766C41.5086 38.0381 41.8579 37.6839 41.8579 37.2457C41.8579 36.8075 41.5086 36.4532 41.0766 36.4532H35.2649C34.3719 36.4532 33.5415 36.103 32.925 35.4666C32.3336 34.8549 32.0165 34.0529 32.0321 33.2074C32.2055 23.8771 36.0907 14.8923 38.7946 11.4935Z" fill="white"/>
<path d="M40.2344 16.6419C41.3117 16.6419 42.1875 15.7528 42.1875 14.6608C42.1875 13.5688 41.3117 12.6797 40.2344 12.6797C39.157 12.6797 38.2812 13.5688 38.2812 14.6608C38.2812 15.7528 39.157 16.6419 40.2344 16.6419ZM40.2344 14.2646C40.4492 14.2646 40.625 14.4421 40.625 14.6608C40.625 14.8795 40.4492 15.057 40.2344 15.057C40.0195 15.057 39.8438 14.8795 39.8438 14.6608C39.8438 14.4421 40.0195 14.2646 40.2344 14.2646Z" fill="white"/>
<path d="M37.8906 21.3958C38.968 21.3958 39.8438 20.5075 39.8438 19.4147C39.8438 18.3219 38.968 17.4336 37.8906 17.4336C36.8133 17.4336 35.9375 18.3219 35.9375 19.4147C35.9375 20.5075 36.8133 21.3958 37.8906 21.3958ZM37.8906 19.0185C38.1055 19.0185 38.2812 19.1968 38.2812 19.4147C38.2812 19.6326 38.1055 19.8109 37.8906 19.8109C37.6758 19.8109 37.5 19.6326 37.5 19.4147C37.5 19.1968 37.6758 19.0185 37.8906 19.0185Z" fill="white"/>
<path d="M36.3281 26.1517C37.4055 26.1517 38.2812 25.2634 38.2812 24.1706C38.2812 23.0778 37.4055 22.1895 36.3281 22.1895C35.2508 22.1895 34.375 23.0778 34.375 24.1706C34.375 25.2634 35.2508 26.1517 36.3281 26.1517ZM36.3281 23.7743C36.543 23.7743 36.7188 23.9527 36.7188 24.1706C36.7188 24.3885 36.543 24.5668 36.3281 24.5668C36.1133 24.5668 35.9375 24.3885 35.9375 24.1706C35.9375 23.9527 36.1133 23.7743 36.3281 23.7743Z" fill="white"/>
<path d="M35.5469 30.9056C36.6242 30.9056 37.5 30.0173 37.5 28.9245C37.5 27.8317 36.6242 26.9434 35.5469 26.9434C34.4695 26.9434 33.5938 27.8317 33.5938 28.9245C33.5938 30.0173 34.4695 30.9056 35.5469 30.9056ZM35.5469 28.5283C35.7617 28.5283 35.9375 28.7066 35.9375 28.9245C35.9375 29.1424 35.7617 29.3207 35.5469 29.3207C35.332 29.3207 35.1562 29.1424 35.1562 28.9245C35.1562 28.7066 35.332 28.5283 35.5469 28.5283Z" fill="white"/>
<path d="M40.625 19.4147C40.625 20.5075 41.5008 21.3958 42.5781 21.3958C43.6555 21.3958 44.5312 20.5075 44.5312 19.4147C44.5312 18.3219 43.6555 17.4336 42.5781 17.4336C41.5008 17.4336 40.625 18.3219 40.625 19.4147ZM42.5781 19.0185C42.793 19.0185 42.9688 19.1968 42.9688 19.4147C42.9688 19.6326 42.793 19.8109 42.5781 19.8109C42.3633 19.8109 42.1875 19.6326 42.1875 19.4147C42.1875 19.1968 42.3633 19.0185 42.5781 19.0185Z" fill="white"/>
<path d="M42.1875 24.1706C42.1875 25.2634 43.0633 26.1517 44.1406 26.1517C45.218 26.1517 46.0938 25.2634 46.0938 24.1706C46.0938 23.0778 45.218 22.1895 44.1406 22.1895C43.0633 22.1895 42.1875 23.0778 42.1875 24.1706ZM44.5312 24.1706C44.5312 24.3885 44.3555 24.5668 44.1406 24.5668C43.9258 24.5668 43.75 24.3885 43.75 24.1706C43.75 23.9527 43.9258 23.7743 44.1406 23.7743C44.3555 23.7743 44.5312 23.9527 44.5312 24.1706Z" fill="white"/>
<path d="M42.9688 28.9245C42.9688 30.0173 43.8445 30.9056 44.9219 30.9056C45.9992 30.9056 46.875 30.0173 46.875 28.9245C46.875 27.8317 45.9992 26.9434 44.9219 26.9434C43.8445 26.9434 42.9688 27.8317 42.9688 28.9245ZM45.3125 28.9245C45.3125 29.1424 45.1367 29.3207 44.9219 29.3207C44.707 29.3207 44.5312 29.1424 44.5312 28.9245C44.5312 28.7066 44.707 28.5283 44.9219 28.5283C45.1367 28.5283 45.3125 28.7066 45.3125 28.9245Z" fill="white"/>
<path d="M3.125 41.9997H22.6562C25.6711 41.9997 28.125 39.5107 28.125 36.4526C28.125 34.4335 27.0523 32.6687 25.4586 31.6979C27.0523 30.7272 28.125 28.9624 28.125 26.9432C28.125 24.1079 26.0148 21.7654 23.3047 21.4389C24.3469 20.4277 25 19.0085 25 17.4339C25 14.375 22.5461 11.8867 19.5312 11.8867H6.25C4.52656 11.8867 3.125 13.3084 3.125 15.0565C3.125 16.0074 3.54844 16.8522 4.20469 17.4339C3.54844 18.0155 3.125 18.8595 3.125 19.8112C3.125 20.3913 3.29063 20.9278 3.55938 21.3961H3.125C1.40156 21.3961 0 22.8177 0 24.5659C0 25.5176 0.423438 26.3616 1.07969 26.9432C0.423438 27.5249 0 28.3688 0 29.3206C0 30.2723 0.423438 31.1163 1.07969 31.6979C0.423438 32.2796 0 33.1235 0 34.0753C0 35.0207 0.410156 35.8717 1.06016 36.4526C0.410156 37.0335 0 37.8846 0 38.83C0 40.5781 1.40156 41.9997 3.125 41.9997ZM1.5625 29.3206C1.5625 28.4465 2.26328 27.7357 3.125 27.7357H20.3125C20.7445 27.7357 21.0938 27.3815 21.0938 26.9432C21.0938 26.505 20.7445 26.1508 20.3125 26.1508H3.125C2.26328 26.1508 1.5625 25.44 1.5625 24.5659C1.5625 23.6918 2.26328 22.981 3.125 22.981H10.3109C10.743 22.981 11.0922 22.6268 11.0922 22.1885C11.0922 21.7503 10.743 21.3961 10.3109 21.3961H6.25C5.38828 21.3961 4.6875 20.6853 4.6875 19.8112C4.6875 18.9371 5.38828 18.2263 6.25 18.2263H17.1875C17.6195 18.2263 17.9688 17.8721 17.9688 17.4339C17.9688 16.9964 17.6195 16.6414 17.1875 16.6414H6.25C5.38828 16.6414 4.6875 15.9306 4.6875 15.0565C4.6875 14.1824 5.38828 13.4716 6.25 13.4716H19.5312C21.6852 13.4716 23.4375 15.2491 23.4375 17.4339C23.4375 19.6186 21.6852 21.3961 19.5312 21.3961H14.0625C13.6305 21.3961 13.2812 21.7503 13.2812 22.1885C13.2812 22.6268 13.6305 22.981 14.0625 22.981H22.6562C24.8102 22.981 26.5625 24.7585 26.5625 26.9432C26.5625 29.128 24.8102 30.9055 22.6562 30.9055H3.125C2.26328 30.9055 1.5625 30.1946 1.5625 29.3206ZM22.6562 32.4904C24.8102 32.4904 26.5625 34.2678 26.5625 36.4526C26.5625 38.6374 24.8102 40.4149 22.6562 40.4149H3.125C2.26328 40.4149 1.5625 39.704 1.5625 38.83C1.5625 37.9559 2.26328 37.2451 3.125 37.2451H20.3125C20.7445 37.2451 21.0938 36.8908 21.0938 36.4526C21.0938 36.0144 20.7445 35.6602 20.3125 35.6602H3.125C2.26328 35.6602 1.5625 34.9493 1.5625 34.0753C1.5625 33.2012 2.26328 32.4904 3.125 32.4904H22.6562Z" fill="white"/>
<path d="M48.8148 4.89877C48.4609 4.64836 47.9742 4.73553 47.7265 5.09371C46.8171 6.41235 45.6859 9.33331 47.9125 10.9475C48.2101 11.1631 48.3718 11.4111 48.4203 11.7281C48.539 12.4983 47.9703 13.477 47.7429 13.7869C47.4828 14.1363 47.5515 14.6332 47.8953 14.8971C48.0375 15.0057 48.2023 15.0572 48.3664 15.0572C48.6039 15.0572 48.8375 14.9486 48.9906 14.7426C49.1156 14.5746 50.2039 13.0578 49.9664 11.4919C49.8546 10.7534 49.4586 10.1194 48.8211 9.65822C47.2968 8.55275 48.9296 6.11597 49.0078 6.00186C49.2546 5.64288 49.1687 5.14918 48.8148 4.89877Z" fill="white"/>
<path d="M33.2462 4.88749C32.8853 4.64421 32.4009 4.74247 32.1626 5.107C31.4993 6.11579 30.6657 8.45192 32.2603 10.0693C33.1806 11.0028 32.4915 11.8753 32.2564 12.1218C31.9548 12.4316 31.9564 12.9308 32.2603 13.2391C32.4126 13.3936 32.6126 13.4713 32.8126 13.4713C33.0126 13.4713 33.2126 13.3936 33.365 13.2391C34.215 12.3769 34.9165 10.5226 33.365 8.94879C32.279 7.84728 33.415 6.05952 33.4626 5.98662C33.7025 5.62209 33.6056 5.12998 33.2462 4.88749Z" fill="white"/>
<path d="M38.0523 0.232385C37.7468 -0.0774618 37.2531 -0.0774618 36.9476 0.232385C36.0976 1.09457 35.3961 2.9489 36.9476 4.5227C37.8679 5.4562 37.1789 6.32869 36.9437 6.57514C36.6421 6.88499 36.6437 7.38423 36.9476 7.69249C37.1 7.84702 37.3 7.92468 37.5 7.92468C37.7 7.92468 37.9 7.84702 38.0523 7.69249C38.9023 6.83031 39.6039 4.97598 38.0523 3.40218C37.1304 2.46709 37.8226 1.59381 38.0523 1.35291C38.3578 1.04306 38.3578 0.542233 38.0523 0.232385Z" fill="white"/>
</svg>
