<svg width="70" height="70" viewBox="0 0 70 70" fill="none" xmlns="http://www.w3.org/2000/svg">
<g clip-path="url(#clip0_2_9534)">
<path d="M59.9974 42.6286L59.5615 27.2437C59.5202 25.7827 58.064 24.4737 56.4934 24.4737C56.4784 24.4737 56.4631 24.4738 56.4482 24.474C55.68 24.4863 53.1753 24.9049 53.1937 29.7732L53.2255 38.1307C53.2267 38.4228 53.1991 38.702 53.1418 38.9719C53.0395 38.8195 52.9226 38.6775 52.7928 38.5478C51.7312 37.4861 49.9911 37.474 48.831 38.5199C48.8049 38.5434 48.7804 38.5687 48.7577 38.5956C47.4033 40.197 45.7425 41.5966 44.4082 42.7212C43.9423 43.1138 43.5025 43.4845 43.1421 43.8094C41.6567 45.148 41.4588 47.0032 41.4611 48.6415L41.4763 59.2195C41.4766 59.4265 41.5591 59.6249 41.7056 59.7712C41.852 59.9175 42.0506 59.9996 42.2576 59.9996H50.7872C50.9944 59.9996 51.193 59.9172 51.3395 59.7707C51.486 59.6242 51.5684 59.4255 51.5684 59.2184L51.5683 53.5777L58.2983 46.8478C59.4551 45.6912 60.0427 44.2322 59.9974 42.6286ZM50.2345 52.7019C50.162 52.7744 50.1044 52.8605 50.0652 52.9553C50.0259 53.0501 50.0057 53.1517 50.0057 53.2543L50.0058 58.4372H43.0377L43.0235 48.6393C43.0215 47.2804 43.1613 45.8953 44.1881 44.9699C44.5292 44.6626 44.9396 44.3166 45.415 43.916C46.7823 42.7638 48.481 41.332 49.9128 39.6493C50.4616 39.1831 51.2172 39.1818 51.688 39.6526C52.1078 40.0724 52.169 40.7171 51.8713 41.2022L51.6605 41.4618L46.3225 46.8C46.25 46.8725 46.1924 46.9587 46.1532 47.0535C46.1139 47.1482 46.0937 47.2498 46.0937 47.3524C46.0937 47.455 46.114 47.5566 46.1532 47.6514C46.1925 47.7461 46.2501 47.8323 46.3226 47.9048C46.3951 47.9774 46.4812 48.0351 46.5759 48.0743C46.6707 48.1136 46.7724 48.1337 46.875 48.1336C46.9776 48.1337 47.0792 48.1136 47.174 48.0743C47.2688 48.035 47.3549 47.9774 47.4274 47.9048L52.6145 42.7176C52.7375 42.5946 52.8632 42.4742 52.9741 42.34C53.1501 42.127 53.3147 41.9035 53.4891 41.6888C54.3681 40.6068 54.793 39.441 54.788 38.1248L54.7562 29.7674C54.7474 27.4484 55.3892 26.0537 56.4732 26.0363C57.2126 26.0257 57.9817 26.6562 57.9996 27.2879L58.4355 42.6727C58.4689 43.8525 58.0509 44.8854 57.1934 45.7429L50.2345 52.7019ZM26.858 43.8097C26.4976 43.4848 26.0577 43.1141 25.5919 42.7215C24.2575 41.5969 22.5967 40.1973 21.2423 38.5959C21.2197 38.569 21.1952 38.5437 21.169 38.5202C20.0088 37.4741 18.2685 37.4867 17.2073 38.548C17.0774 38.6777 16.9605 38.8197 16.8582 38.972C16.8008 38.7021 16.7733 38.4229 16.7745 38.131L16.8063 29.7735C16.8247 24.9051 14.32 24.4866 13.5518 24.4743C13.5367 24.4741 13.5217 24.474 13.5066 24.474C11.9362 24.474 10.4798 25.7831 10.4385 27.244L10.0025 42.629C9.95718 44.2324 10.5448 45.6914 11.7015 46.848L18.4316 53.5781V59.2188C18.4317 59.4259 18.514 59.6246 18.6605 59.7711C18.807 59.9176 19.0057 59.9999 19.2128 60H27.7424C27.9494 60 28.148 59.9179 28.2945 59.7716C28.4409 59.6253 28.5234 59.4269 28.5237 59.2199L28.5389 48.6419C28.5412 47.0035 28.3433 45.1482 26.858 43.8097ZM26.9623 58.4374H19.9941L19.9942 53.2545C19.9942 53.1519 19.974 53.0503 19.9347 52.9555C19.8955 52.8607 19.8379 52.7746 19.7654 52.7021L12.8064 45.7432C11.949 44.8858 11.531 43.8529 11.5644 42.6731L12.0003 27.2882C12.018 26.6622 12.7744 26.0365 13.5062 26.0365L13.5267 26.0366C14.6107 26.054 15.2525 27.4487 15.2437 29.7677L15.2119 38.125C15.2069 39.4413 15.6318 40.6071 16.5108 41.6891C16.6818 41.8995 16.8437 42.1174 17.015 42.327C17.1457 42.4869 17.297 42.6292 17.4428 42.775L22.5726 47.905C22.6451 47.9776 22.7312 48.0353 22.826 48.0745C22.9208 48.1138 23.0224 48.1339 23.1251 48.1338C23.2277 48.1339 23.3293 48.1138 23.4241 48.0745C23.5189 48.0353 23.605 47.9776 23.6774 47.905C23.75 47.8325 23.8075 47.7463 23.8468 47.6516C23.8861 47.5568 23.9063 47.4552 23.9063 47.3526C23.9063 47.25 23.8861 47.1484 23.8468 47.0536C23.8076 46.9589 23.75 46.8727 23.6775 46.8002L18.3395 41.462L18.1295 41.2036C18.0083 41.0049 17.9445 40.7765 17.9454 40.5438C17.9454 40.2057 18.0756 39.8894 18.3121 39.6529C18.7829 39.182 19.5385 39.1834 20.0873 39.6496C21.519 41.3323 23.2177 42.7641 24.585 43.9163C25.0603 44.3169 25.4708 44.6629 25.8119 44.9702C26.8386 45.8956 26.9783 47.2807 26.9764 48.6395L26.9623 58.4374ZM35 12.9892C28.6788 12.9892 23.536 18.1319 23.536 24.4532C23.536 30.7744 28.6787 35.9172 35 35.9172C41.3213 35.9172 46.464 30.7744 46.464 24.4531C46.464 18.1319 41.3212 12.9892 35 12.9892ZM40.6099 32.6074L40.3661 32.1852C40.3148 32.0963 40.2465 32.0184 40.1651 31.956C40.0837 31.8935 39.9908 31.8477 39.8917 31.8212C39.7926 31.7946 39.6892 31.7879 39.5875 31.8013C39.4858 31.8147 39.3877 31.848 39.2988 31.8993C39.21 31.9506 39.1321 32.0189 39.0697 32.1003C39.0072 32.1817 38.9614 32.2746 38.9349 32.3737C38.9083 32.4728 38.9015 32.5761 38.9149 32.6779C38.9283 32.7796 38.9616 32.8777 39.0129 32.9665L39.2582 33.3911C38.1665 33.9135 36.9877 34.2298 35.7812 34.3239V33.8324C35.7812 33.6252 35.6989 33.4265 35.5524 33.28C35.4059 33.1335 35.2072 33.0512 35 33.0512C34.7928 33.0512 34.594 33.1335 34.4475 33.28C34.301 33.4265 34.2187 33.6252 34.2187 33.8324V34.3239C33.0122 34.2297 31.8334 33.9135 30.7418 33.3912L30.987 32.9665C31.0906 32.787 31.1186 32.5738 31.065 32.3736C31.0114 32.1735 30.8804 32.0028 30.7009 31.8992C30.5215 31.7956 30.3082 31.7676 30.1081 31.8212C29.9079 31.8748 29.7373 32.0058 29.6336 32.1853L29.3899 32.6074C28.3947 31.9204 27.5326 31.0584 26.8457 30.0632L27.2678 29.8194C27.3574 29.7685 27.436 29.7004 27.4991 29.6189C27.5623 29.5375 27.6087 29.4444 27.6357 29.345C27.6626 29.2455 27.6697 29.1418 27.6564 29.0396C27.6431 28.9374 27.6098 28.8389 27.5583 28.7496C27.5068 28.6604 27.4381 28.5823 27.3563 28.5197C27.2744 28.4571 27.181 28.4113 27.0814 28.385C26.9818 28.3586 26.8779 28.3523 26.7759 28.3662C26.6738 28.3802 26.5755 28.4142 26.4866 28.4663L26.062 28.7115C25.5396 27.6199 25.2233 26.4411 25.1292 25.2346H25.6207C25.8279 25.2346 26.0266 25.1523 26.1731 25.0057C26.3196 24.8592 26.4019 24.6605 26.4019 24.4533C26.4019 24.2461 26.3196 24.0474 26.1731 23.9009C26.0266 23.7544 25.8279 23.6721 25.6207 23.6721H25.1292C25.2233 22.4655 25.5396 21.2868 26.062 20.1951L26.4866 20.4403C26.5754 20.4917 26.6735 20.525 26.7752 20.5384C26.8769 20.5518 26.9803 20.545 27.0794 20.5185C27.1785 20.4919 27.2714 20.4461 27.3528 20.3836C27.4342 20.3211 27.5025 20.2433 27.5538 20.1544C27.6051 20.0655 27.6384 19.9675 27.6518 19.8657C27.6652 19.764 27.6584 19.6606 27.6319 19.5615C27.6053 19.4624 27.5595 19.3695 27.497 19.2881C27.4346 19.2067 27.3567 19.1384 27.2678 19.0871L26.8457 18.8434C27.5326 17.8481 28.3947 16.986 29.3899 16.2991L29.6336 16.7213C29.6849 16.8102 29.7532 16.8881 29.8346 16.9505C29.916 17.013 30.0089 17.0588 30.1081 17.0854C30.2072 17.1119 30.3105 17.1187 30.4123 17.1053C30.514 17.0919 30.6121 17.0585 30.7009 17.0072C30.7898 16.9559 30.8677 16.8876 30.9301 16.8063C30.9926 16.7249 31.0384 16.632 31.065 16.5329C31.0915 16.4338 31.0983 16.3304 31.0849 16.2287C31.0716 16.127 31.0383 16.0289 30.987 15.94L30.7418 15.5153C31.8334 14.9929 33.0122 14.6767 34.2187 14.5826V15.0741C34.2187 15.2813 34.301 15.48 34.4475 15.6265C34.594 15.7731 34.7928 15.8554 35 15.8554C35.2072 15.8554 35.4059 15.7731 35.5524 15.6265C35.6989 15.48 35.7812 15.2813 35.7812 15.0741V14.5826C36.9877 14.6768 38.1665 14.993 39.2582 15.5154L39.0129 15.94C38.9093 16.1195 38.8812 16.3327 38.9349 16.5329C38.9885 16.733 39.1194 16.9037 39.2988 17.0073C39.4783 17.1109 39.6915 17.139 39.8917 17.0854C40.0918 17.0317 40.2625 16.9008 40.3661 16.7214L40.6099 16.2991C41.6052 16.986 42.4673 17.8481 43.1543 18.8433L42.732 19.087C42.583 19.173 42.4665 19.3058 42.4007 19.4648C42.3348 19.6238 42.3233 19.8001 42.368 19.9662C42.4126 20.1324 42.5108 20.2792 42.6474 20.3839C42.784 20.4885 42.9513 20.5451 43.1234 20.5449C43.2603 20.5449 43.3948 20.5087 43.5132 20.4401L43.9379 20.1949C44.4604 21.2866 44.7766 22.4653 44.8708 23.6719H44.3792C44.172 23.6719 43.9732 23.7542 43.8267 23.9007C43.6802 24.0472 43.5979 24.2459 43.5979 24.4531C43.5979 24.6603 43.6802 24.859 43.8267 25.0056C43.9732 25.1521 44.172 25.2344 44.3792 25.2344H44.8708C44.7766 26.4409 44.4604 27.6197 43.9379 28.7113L43.5132 28.4661C43.4244 28.4148 43.3263 28.3815 43.2246 28.3681C43.1229 28.3547 43.0195 28.3615 42.9204 28.3881C42.8213 28.4146 42.7284 28.4604 42.647 28.5229C42.5656 28.5854 42.4973 28.6632 42.446 28.7521C42.3947 28.841 42.3614 28.939 42.348 29.0408C42.3346 29.1425 42.3414 29.2458 42.368 29.3449C42.3945 29.444 42.4403 29.5369 42.5028 29.6183C42.5653 29.6997 42.6431 29.768 42.732 29.8193L43.1542 30.0631C42.4672 31.0583 41.6051 31.9204 40.6099 32.6074ZM39.8065 26.3261L37.2239 24.8351C37.2457 24.7089 37.2567 24.5812 37.2568 24.4532C37.2568 23.4833 36.6418 22.6544 35.7812 22.3358V17.6588C35.7812 17.4516 35.6989 17.2529 35.5524 17.1064C35.4059 16.9598 35.2072 16.8775 35 16.8775C34.7928 16.8775 34.594 16.9598 34.4475 17.1064C34.301 17.2529 34.2187 17.4516 34.2187 17.6588V22.3358C33.3582 22.6544 32.7431 23.4833 32.7431 24.4532C32.7431 25.6977 33.7555 26.7101 35 26.7101C35.5478 26.7101 36.0505 26.5137 36.4419 26.1878L39.0253 27.6793C39.1141 27.7306 39.2122 27.7639 39.3139 27.7773C39.4156 27.7907 39.519 27.784 39.6181 27.7574C39.7172 27.7309 39.8101 27.685 39.8915 27.6226C39.9729 27.5601 40.0412 27.4822 40.0924 27.3934C40.196 27.2139 40.2241 27.0007 40.1705 26.8005C40.1169 26.6004 39.9859 26.4297 39.8065 26.3261ZM35 25.1475C34.6171 25.1475 34.3056 24.836 34.3056 24.4531C34.3056 24.0702 34.6171 23.7587 35 23.7587C35.3829 23.7587 35.6943 24.0702 35.6943 24.4531C35.6943 24.836 35.3829 25.1475 35 25.1475ZM49.4531 24.4531C49.4531 16.4837 42.9694 10 35 10C27.0305 10 20.5468 16.4837 20.5468 24.4531C20.5468 32.4226 27.0305 38.9062 35 38.9062C42.9694 38.9062 49.4531 32.4227 49.4531 24.4531ZM35 37.3438C27.892 37.3438 22.1093 31.561 22.1093 24.4531C22.1093 17.3452 27.892 11.5625 35 11.5625C42.1079 11.5625 47.8906 17.3452 47.8906 24.4531C47.8906 31.561 42.1079 37.3438 35 37.3438Z" fill="white"/>
</g>
<circle cx="35" cy="35" r="34.5" stroke="white"/>
<defs>
<clipPath id="clip0_2_9534">
<rect width="50" height="50" fill="white" transform="translate(10 10)"/>
</clipPath>
</defs>
</svg>
