<svg width="60" height="46" viewBox="0 0 60 46" fill="none" xmlns="http://www.w3.org/2000/svg">
<path fill-rule="evenodd" clip-rule="evenodd" d="M1.7891 1.49023H4.1775C4.67578 1.49023 5.0877 1.89887 5.0877 2.40055V43.6019C5.0877 44.1035 4.67578 44.5121 4.1775 44.5121H1.7891C1.28754 44.5121 0.878906 44.1036 0.878906 43.6019V2.40055C0.879023 1.89887 1.28754 1.49023 1.7891 1.49023ZM55.823 1.49023H58.2115C58.7098 1.49023 59.1217 1.89887 59.1217 2.40055V43.6019C59.1217 44.1035 58.7098 44.5121 58.2115 44.5121H55.823C55.3214 44.5121 54.9128 44.1036 54.9128 43.6019V2.40055C54.9128 1.89887 55.3213 1.49023 55.823 1.49023Z" fill="#EFA473"/>
<path fill-rule="evenodd" clip-rule="evenodd" d="M11.4416 3.19531H15.1354C16.0092 3.19531 15.9194 3.47434 16.328 4.04902C16.7865 4.69672 17.7398 5.14848 18.8493 5.14848C19.9456 5.14848 20.8989 4.71008 21.3574 4.06555C21.8356 3.39793 21.6729 3.19531 22.5598 3.19531H26.4032C26.8218 3.19531 27.1639 3.53738 27.1639 3.95586V7.12496C27.1639 7.54016 26.8218 7.88234 26.4032 7.88234H25.0413C24.4434 7.88234 24.1311 8.24117 24.1311 8.79277V16.6189C24.1311 17.1206 23.7226 17.5292 23.2209 17.5292H14.4743C13.9727 17.5292 13.5641 17.1207 13.5641 16.6189V8.79277C13.5641 8.22465 13.265 7.88234 12.6537 7.88234H11.4416C10.9433 7.88234 10.5312 7.47383 10.5312 6.97215V4.10551C10.5314 3.60723 10.9433 3.19531 11.4416 3.19531Z" fill="#FF8086"/>
<path fill-rule="evenodd" clip-rule="evenodd" d="M21.2899 4.15859C21.3131 4.12871 21.3363 4.09871 21.3597 4.06555C21.838 3.39793 21.6752 3.19531 22.5622 3.19531H26.4056C26.8242 3.19531 27.1663 3.53738 27.1663 3.95586V7.12496C27.1663 7.54016 26.8242 7.88234 26.4056 7.88234H25.0436C24.4457 7.88234 24.1334 8.24117 24.1334 8.79277V16.6189C24.1334 17.1206 23.7249 17.5292 23.2232 17.5292H14.4766C13.975 17.5292 13.5664 17.1207 13.5664 16.6189V14.6857H19.5822C20.5224 14.6857 21.2896 13.9183 21.2896 12.9784V4.15859H21.2899Z" fill="#FF646F"/>
<path fill-rule="evenodd" clip-rule="evenodd" d="M48.1176 4.10551V30.4481C48.1176 31.0693 47.8121 31.3583 47.2074 31.3583H44.0217C43.4338 31.3583 43.0817 31.0627 43.0152 30.4515L40.9091 10.8424C40.8924 10.6896 40.6666 10.6896 40.65 10.8424L38.5439 30.4515C38.4841 31.0329 38.1254 31.3583 37.5373 31.3583H34.3516C33.8102 31.3583 33.4414 31.0494 33.4414 30.4481V4.10551C33.4414 3.60723 33.8533 3.19531 34.3516 3.19531H47.2073C47.709 3.19531 48.1176 3.60723 48.1176 4.10551Z" fill="#DD956C"/>
<path fill-rule="evenodd" clip-rule="evenodd" d="M48.1214 4.10551V30.4481C48.1214 31.0693 47.8159 31.3583 47.2112 31.3583H44.0255C43.4375 31.3583 43.0855 31.0627 43.0189 30.4515L42.8096 28.5114H43.5704C44.5104 28.5114 45.2777 27.7441 45.2777 26.8073V3.19531H47.2111C47.7128 3.19531 48.1214 3.60723 48.1214 4.10551ZM38.7571 28.5113L38.5478 30.4514C38.488 31.0327 38.1293 31.3582 37.5412 31.3582H34.3555C33.8141 31.3582 33.4453 31.0493 33.4453 30.448V28.5113H38.7571Z" fill="#CE835D"/>
<path fill-rule="evenodd" clip-rule="evenodd" d="M13.1333 44.5114H24.5639C25.6734 44.5114 26.5803 43.6046 26.5803 42.495V27.9121H11.1169V42.495C11.1169 43.6013 12.0237 44.5114 13.1333 44.5114Z" fill="#9DC6FB"/>
<path fill-rule="evenodd" clip-rule="evenodd" d="M13.1333 44.5123H24.5639C25.6734 44.5123 26.5803 43.6055 26.5803 42.496V28.4844H23.7367V39.3935C23.7367 40.6457 22.7137 41.669 21.4611 41.669H11.1169V42.4961C11.1169 43.6023 12.0237 44.5123 13.1333 44.5123Z" fill="#80B4FB"/>
<path fill-rule="evenodd" clip-rule="evenodd" d="M10.0783 28.4836H27.6244C28.1227 28.4836 28.5346 28.0715 28.5346 27.5732V25.3576C28.5346 24.856 28.1227 24.4473 27.6244 24.4473H10.0783C9.57672 24.4473 9.16797 24.8559 9.16797 25.3576V27.5732C9.16797 28.0715 9.57672 28.4836 10.0783 28.4836Z" fill="#CBE2FF"/>
<path d="M0.88043 0.609375H5.08922C5.57426 0.609375 5.96625 1.00477 5.96625 1.48969V3.45305H9.66012V3.19395C9.66012 2.71219 10.0521 2.31691 10.5338 2.31691H12.414V1.68586C12.414 1.20082 12.806 0.808828 13.2911 0.808828C13.7761 0.808828 14.1714 1.20094 14.1714 1.68586V2.31691H16.0482C16.5333 2.31691 16.9286 2.70902 16.9286 3.19395C16.9286 3.42973 17.0979 3.66551 17.3704 3.855C17.7359 4.11082 18.2607 4.2702 18.852 4.2702C19.44 4.2702 19.9648 4.11082 20.3302 3.855C20.606 3.66223 20.7786 3.42656 20.7786 3.19395C20.7786 2.71219 21.1672 2.31691 21.6523 2.31691H23.5291V1.68586C23.5291 1.20082 23.9244 0.808828 24.4095 0.808828C24.8945 0.808828 25.2864 1.20094 25.2864 1.68586V2.31691H27.1665C27.6816 2.31691 28.0403 2.75883 28.0403 3.27363V3.45305H32.568V3.19395C32.568 2.67891 33.01 2.32031 33.5249 2.32031H34.8436V1.68586C34.8436 1.20082 35.2356 0.808828 35.7205 0.808828C36.2054 0.808828 36.6008 1.20094 36.6008 1.68586V2.32031H43.8294V1.68586C43.8294 1.20082 44.2214 0.808828 44.7097 0.808828C44.8249 0.80872 44.939 0.831332 45.0455 0.875371C45.1519 0.919409 45.2486 0.984008 45.3301 1.06547C45.4115 1.14693 45.4761 1.24366 45.5201 1.35012C45.5642 1.45657 45.5868 1.57066 45.5866 1.68586V2.32031H48.1212C48.6028 2.32031 48.9981 2.71219 48.9981 3.19395V3.45305H54.0341V1.48969C54.0341 1.00477 54.4294 0.609375 54.9144 0.609375H59.1233C59.6084 0.609375 60.0002 1.00477 60.0002 1.48969V44.5114C60.0004 44.6266 59.9778 44.7407 59.9337 44.8472C59.8897 44.9536 59.8251 45.0504 59.7437 45.1318C59.6622 45.2133 59.5655 45.2779 59.4591 45.3219C59.3526 45.366 59.2385 45.3886 59.1233 45.3885H54.9144C54.4294 45.3885 54.0341 44.9964 54.0341 44.5114V5.21016H48.9981V15.2856C48.9982 15.4008 48.9756 15.5149 48.9316 15.6213C48.8875 15.7277 48.8229 15.8244 48.7415 15.9059C48.66 15.9873 48.5633 16.0519 48.4569 16.096C48.3504 16.14 48.2364 16.1626 48.1212 16.1625C47.6361 16.1625 47.2409 15.7705 47.2409 15.2856V4.07074H45.5866V4.70203C45.5866 5.18707 45.1946 5.58234 44.7097 5.58234C44.5941 5.58242 44.4796 5.5597 44.3728 5.51549C44.2659 5.47128 44.1688 5.40644 44.0871 5.32468C44.0053 5.24292 43.9405 5.14584 43.8963 5.039C43.8521 4.93216 43.8293 4.81766 43.8294 4.70203V4.07074H36.6008V4.70203C36.6008 5.18707 36.2055 5.58234 35.7205 5.58234C35.2355 5.58234 34.8436 5.18707 34.8436 4.70203V4.07074H34.3254V30.4765H37.6639L39.9095 9.54867C39.9283 9.34667 40.0162 9.15735 40.1584 9.01269C40.3006 8.86803 40.4884 8.77691 40.6901 8.75473C40.9216 8.7309 41.1532 8.79961 41.3343 8.94586C41.5154 9.09212 41.6313 9.30405 41.6568 9.53543L43.9024 30.4765H47.2409V19.2652C47.2409 18.7801 47.6362 18.3882 48.1212 18.3882C48.2364 18.3881 48.3504 18.4107 48.4569 18.4548C48.5633 18.4988 48.66 18.5634 48.7415 18.6448C48.8229 18.7263 48.8875 18.823 48.9316 18.9294C48.9756 19.0359 48.9982 19.15 48.9981 19.2652V31.3568C48.9982 31.472 48.9756 31.5861 48.9316 31.6925C48.8876 31.799 48.823 31.8957 48.7415 31.9772C48.6601 32.0586 48.5634 32.1232 48.4569 32.1673C48.3505 32.2113 48.2364 32.2339 48.1212 32.2338H43.1152C42.6434 32.2338 42.2548 31.8585 42.2381 31.39L40.7831 17.8466L39.3248 31.4466C39.275 31.8918 38.8997 32.2339 38.4512 32.2339H33.4452C33.33 32.234 33.2159 32.2114 33.1094 32.1674C33.003 32.1234 32.9063 32.0588 32.8248 31.9773C32.7433 31.8958 32.6787 31.7991 32.6347 31.6927C32.5907 31.5862 32.5681 31.4721 32.5682 31.3569V5.21016H28.0404V7.88098C28.0404 8.36613 27.6484 8.75812 27.1666 8.75812L25.0141 8.75473V10.7147C25.0141 11.1997 24.6189 11.5916 24.1338 11.5916C23.6488 11.5916 23.2535 11.1996 23.2535 10.7147V7.88098C23.2535 7.39594 23.6488 7.00406 24.1338 7.00406H26.2896V4.07426H25.2864V4.70203C25.2864 5.18707 24.8944 5.58234 24.4095 5.58234C23.9245 5.58234 23.5291 5.18707 23.5291 4.70203V4.07426H22.3532C22.1571 4.55262 21.8017 4.97109 21.3333 5.29676C20.6856 5.7484 19.8086 6.02754 18.8518 6.02754C17.892 6.02754 17.0149 5.7484 16.367 5.29676C15.8987 4.96781 15.5433 4.55262 15.3439 4.07426H14.1714V4.70203C14.1714 5.18707 13.7761 5.58234 13.2911 5.58234C12.806 5.58234 12.414 5.18707 12.414 4.70203V4.07426H11.4108V7.00406H13.4904C14.0053 7.00406 14.4471 7.36277 14.4471 7.88098V16.6508H23.2534V14.6943C23.2534 14.2092 23.6487 13.8173 24.1337 13.8173C24.6187 13.8173 25.014 14.2093 25.014 14.6943V17.5279C25.014 18.0129 24.6187 18.4083 24.1337 18.4083H13.5668C13.0818 18.4083 12.6899 18.0129 12.6899 17.5279V8.75484L10.5339 8.75824C10.0522 8.75824 9.66023 8.36613 9.66023 7.88109V5.21027H5.96625V44.5116C5.96636 44.6268 5.94375 44.7409 5.89971 44.8473C5.85567 44.9538 5.79108 45.0505 5.70961 45.132C5.62815 45.2134 5.53143 45.278 5.42497 45.3221C5.31852 45.3661 5.20442 45.3887 5.08922 45.3886H0.88043C0.395391 45.3886 0 44.9965 0 44.5116V1.48969C0 1.00477 0.395391 0.609375 0.88043 0.609375ZM14.56 31.8882C14.5599 31.7731 14.5825 31.659 14.6265 31.5525C14.6705 31.4461 14.7351 31.3494 14.8166 31.2679C14.898 31.1865 14.9947 31.1219 15.1012 31.0779C15.2076 31.0338 15.3217 31.0112 15.4369 31.0113C15.9219 31.0113 16.3172 31.4033 16.3172 31.8882V32.9114C16.3172 33.3997 15.9219 33.7917 15.4369 33.7917C14.9518 33.7917 14.56 33.3997 14.56 32.9114V31.8882ZM14.56 40.0801C14.56 39.5952 14.952 39.1998 15.4369 39.1998C15.9219 39.1998 16.3172 39.5952 16.3172 40.0801V41.1033C16.3172 41.5883 15.9219 41.9836 15.4369 41.9836C14.9518 41.9836 14.56 41.5883 14.56 41.1033V40.0801ZM21.3831 40.0801C21.3831 39.5952 21.7784 39.1998 22.2634 39.1998C22.7484 39.1998 23.1404 39.5952 23.1404 40.0801V41.1033C23.1404 41.5883 22.7484 41.9836 22.2634 41.9836C21.7784 41.9836 21.3831 41.5883 21.3831 41.1033V40.0801ZM17.9714 40.0801C17.9713 39.9645 17.994 39.85 18.0383 39.7431C18.0825 39.6363 18.1473 39.5392 18.2291 39.4575C18.3108 39.3757 18.4079 39.3109 18.5147 39.2667C18.6216 39.2224 18.7361 39.1997 18.8517 39.1998C19.3368 39.1998 19.7286 39.5952 19.7286 40.0801V41.1033C19.7286 41.5883 19.3366 41.9836 18.8517 41.9836C18.7361 41.9837 18.6216 41.9609 18.5147 41.9167C18.4079 41.8725 18.3108 41.8077 18.2291 41.7259C18.1473 41.6442 18.0825 41.5471 18.0383 41.4403C17.994 41.3334 17.9713 41.2189 17.9714 41.1033V40.0801ZM14.56 35.9842C14.5599 35.869 14.5825 35.7549 14.6265 35.6485C14.6705 35.542 14.7351 35.4453 14.8166 35.3639C14.898 35.2825 14.9947 35.2179 15.1012 35.1739C15.2076 35.1299 15.3217 35.1073 15.4369 35.1074C15.9219 35.1074 16.3172 35.4994 16.3172 35.9842V37.0073C16.3172 37.4924 15.9219 37.8878 15.4369 37.8878C14.9518 37.8878 14.56 37.4924 14.56 37.0073V35.9842ZM21.3831 35.9842C21.3831 35.4993 21.7784 35.1074 22.2634 35.1074C22.7484 35.1074 23.1404 35.4994 23.1404 35.9842V37.0073C23.1404 37.4924 22.7484 37.8878 22.2634 37.8878C21.7784 37.8878 21.3831 37.4924 21.3831 37.0073V35.9842ZM17.9714 35.9842C17.9714 35.4993 18.3634 35.1074 18.8517 35.1074C18.9669 35.1073 19.081 35.1299 19.1874 35.1739C19.2939 35.2179 19.3906 35.2825 19.472 35.3639C19.5535 35.4453 19.6181 35.542 19.6621 35.6485C19.7061 35.7549 19.7287 35.869 19.7286 35.9842V37.0073C19.7286 37.4924 19.3366 37.8878 18.8517 37.8878C18.7361 37.8878 18.6216 37.8651 18.5147 37.8209C18.4079 37.7767 18.3108 37.7118 18.229 37.6301C18.1473 37.5483 18.0824 37.4512 18.0382 37.3443C17.994 37.2375 17.9713 37.123 17.9714 37.0073V35.9842ZM21.3831 31.8882C21.3831 31.4033 21.7784 31.0113 22.2634 31.0113C22.7484 31.0113 23.1404 31.4033 23.1404 31.8882V32.9114C23.1404 33.3997 22.7484 33.7917 22.2634 33.7917C21.7784 33.7917 21.3831 33.3997 21.3831 32.9114V31.8882ZM17.9714 31.8882C17.9714 31.4033 18.3634 31.0113 18.8517 31.0113C18.9669 31.0112 19.081 31.0338 19.1874 31.0779C19.2939 31.1219 19.3906 31.1865 19.472 31.2679C19.5535 31.3494 19.6181 31.4461 19.6621 31.5525C19.7061 31.659 19.7287 31.7731 19.7286 31.8882V32.9114C19.7286 33.3997 19.3366 33.7917 18.8517 33.7917C18.736 33.7921 18.6214 33.7695 18.5144 33.7254C18.4075 33.6813 18.3103 33.6165 18.2285 33.5347C18.1466 33.4529 18.0818 33.3557 18.0377 33.2487C17.9936 33.1417 17.9711 33.0271 17.9714 32.9114V31.8882ZM10.0454 27.603H27.6548V25.3276H10.0454V27.603ZM28.535 29.3605H27.4622V33.4962C27.4623 33.6118 27.4395 33.7263 27.3953 33.8331C27.3511 33.94 27.2863 34.0371 27.2045 34.1188C27.1228 34.2006 27.0257 34.2654 26.9188 34.3096C26.812 34.3538 26.6975 34.3766 26.5819 34.3765C26.0968 34.3765 25.705 33.9812 25.705 33.4962V29.3605H11.9953V42.4951C11.9953 42.804 12.1248 43.0897 12.3308 43.2956C12.4358 43.4022 12.5609 43.4868 12.6989 43.5444C12.837 43.602 12.9851 43.6315 13.1347 43.6311H24.5653C24.7149 43.6315 24.8631 43.6021 25.0011 43.5444C25.1391 43.4868 25.2643 43.4022 25.3692 43.2956C25.5752 43.0897 25.7047 42.8074 25.7047 42.4951V37.479C25.7047 36.994 26.0967 36.5986 26.5816 36.5986C26.6973 36.5985 26.8118 36.6212 26.9186 36.6655C27.0255 36.7097 27.1226 36.7745 27.2043 36.8563C27.2861 36.9381 27.3509 37.0352 27.3951 37.142C27.4393 37.2489 27.462 37.3634 27.462 37.479V42.4951C27.462 43.2925 27.1363 44.0166 26.6115 44.5414C26.0866 45.0629 25.3625 45.3885 24.5652 45.3885H13.1346C12.3374 45.3885 11.6132 45.0629 11.0884 44.5379C10.8187 44.2705 10.6046 43.9523 10.4586 43.6016C10.3127 43.251 10.2377 42.8748 10.238 42.495V29.3605H9.16828C8.67996 29.3605 8.28797 28.9684 8.28797 28.4835V24.4473C8.28789 24.3317 8.31061 24.2172 8.35482 24.1103C8.39903 24.0035 8.46387 23.9064 8.54563 23.8247C8.62739 23.7429 8.72447 23.6781 8.83131 23.6338C8.93815 23.5896 9.05266 23.5669 9.16828 23.567H28.5349C29.02 23.567 29.412 23.9624 29.412 24.4473V28.4835C29.4121 28.5987 29.3895 28.7128 29.3455 28.8192C29.3015 28.9257 29.2369 29.0224 29.1554 29.1039C29.074 29.1854 28.9772 29.25 28.8708 29.294C28.7643 29.338 28.6502 29.3606 28.535 29.3605ZM58.2428 2.36672H55.7912V43.6311H58.2428V2.36672ZM4.20891 2.36672H1.75734V43.6311H4.20879L4.20891 2.36672Z" fill="black"/>
</svg>
