<svg width="50" height="50" viewBox="0 0 50 50" fill="none" xmlns="http://www.w3.org/2000/svg">
<g clip-path="url(#clip0_2_6795)">
<path d="M45.295 28.2499C45.2051 28.1705 45.1325 28.0734 45.0817 27.9648C45.031 27.8561 45.0032 27.7381 45 27.6182V25.3332C45 18.9582 39.4883 13.5274 33.0458 14.2316C28.4292 14.7222 23.9081 15.8792 19.6233 17.6666C18.8074 17.0603 17.8254 16.7183 16.8094 16.6867C15.7934 16.6551 14.792 16.9353 13.94 17.4897C13.088 18.0441 12.4261 18.8461 12.0434 19.7878C11.6606 20.7295 11.5754 21.7658 11.7992 22.7574C11.5775 22.9741 11.3475 23.1824 11.1325 23.4099C10.7328 23.839 10.497 24.3952 10.4665 24.9808C10.436 25.5665 10.6128 26.1441 10.9658 26.6124C11.5025 27.3257 11.7617 27.5441 11.6775 28.0016C11.6568 28.1148 11.6127 28.2224 11.548 28.3175C11.4832 28.4127 11.3993 28.4932 11.3017 28.5541C8.695 30.1991 2.57583 34.0607 1.75833 42.2907C1.71775 42.7451 1.80614 43.2018 2.01333 43.6082C1.41588 43.8659 0.9069 44.2927 0.549141 44.8362C0.191381 45.3796 0.00048839 46.0159 0 46.6666C0 47.1086 0.175595 47.5325 0.488155 47.8451C0.800716 48.1576 1.22464 48.3332 1.66667 48.3332H35.8333C36.4964 48.3332 37.1323 48.0698 37.6011 47.601C38.0699 47.1321 38.3333 46.4963 38.3333 45.8332V44.3499C39.0882 43.1303 40.1912 42.1649 41.5 41.5782C43.4331 40.6815 45.5222 40.1695 47.6508 40.0707C47.9969 40.0493 48.3347 39.9561 48.6429 39.797C48.951 39.638 49.2226 39.4166 49.4406 39.1469C49.6585 38.8773 49.818 38.5652 49.9089 38.2306C49.9997 37.896 50.02 37.5461 49.9683 37.2032C49.396 33.7999 47.7599 30.6654 45.295 28.2499ZM17.795 18.5366C16.2278 19.3304 14.7442 20.2796 13.3667 21.3699C13.4096 20.8637 13.5685 20.3742 13.831 19.9393C14.0934 19.5044 14.4525 19.1358 14.8803 18.8619C15.3082 18.588 15.7933 18.4163 16.2981 18.36C16.803 18.3038 17.314 18.3645 17.7917 18.5374L17.795 18.5366ZM36.6667 45.8332C36.6667 46.0542 36.5789 46.2662 36.4226 46.4225C36.2663 46.5788 36.0543 46.6666 35.8333 46.6666H1.66667C1.66667 46.2245 1.84226 45.8006 2.15482 45.488C2.46738 45.1755 2.89131 44.9999 3.33333 44.9999H36.6667V45.8332ZM47.5283 38.4091C45.258 38.5251 43.0295 39.0647 40.9575 39.9999H6.66667C6.44565 39.9999 6.23369 40.0877 6.07741 40.244C5.92113 40.4002 5.83333 40.6122 5.83333 40.8332C5.83333 41.0542 5.92113 41.2662 6.07741 41.4225C6.23369 41.5788 6.44565 41.6666 6.66667 41.6666H38.405C37.855 42.1492 37.3798 42.7109 36.995 43.3332H4.25C4.13625 43.3349 4.0234 43.3129 3.91856 43.2687C3.81372 43.2246 3.71917 43.1592 3.64087 43.0767C3.56257 42.9941 3.50223 42.8963 3.46364 42.7893C3.42505 42.6822 3.40906 42.5684 3.41667 42.4549C4.1525 35.0382 9.58333 31.6074 12.1958 29.9599C12.4878 29.7758 12.7384 29.5333 12.9321 29.2476C13.1257 28.9619 13.2581 28.6393 13.3208 28.2999C13.55 27.0624 12.8683 26.3607 12.3033 25.6074C12.1859 25.452 12.1266 25.2604 12.1357 25.0658C12.1449 24.8713 12.2219 24.6861 12.3533 24.5424C18.3133 18.1424 28.9367 16.3557 33.2275 15.8849C38.6475 15.2857 43.3333 19.9232 43.3333 25.3332V27.6216C43.3373 27.9691 43.4122 28.3123 43.5533 28.6299C43.6945 28.9476 43.8989 29.2331 44.1542 29.4691C46.353 31.6288 47.8115 34.4293 48.3208 37.4691C48.3357 37.5837 48.3266 37.7003 48.294 37.8112C48.2614 37.9222 48.2061 38.0251 48.1316 38.1136C48.057 38.202 47.9649 38.2739 47.861 38.3248C47.7572 38.3757 47.6439 38.4044 47.5283 38.4091Z" fill="white"/>
<path d="M34.1185 17.5005C31.974 17.556 29.8694 18.0933 27.9608 19.0727C26.0522 20.052 24.3884 21.4483 23.0927 23.158C22.7518 23.6609 22.5556 24.2478 22.5255 24.8546C22.4955 25.4614 22.6327 26.0648 22.9222 26.5989C23.2118 27.133 23.6425 27.5773 24.1674 27.8832C24.6922 28.1892 25.2911 28.3451 25.8985 28.3339H31.5093C36.2702 28.3339 41.666 28.3339 41.666 25.0114C41.6589 23.0152 40.8603 21.1033 39.4454 19.6953C38.0304 18.2872 36.1147 17.4979 34.1185 17.5005ZM31.5093 26.6672H25.8985C25.5968 26.678 25.2979 26.6059 25.0343 26.4586C24.7708 26.3114 24.5526 26.0947 24.4036 25.8321C24.2546 25.5695 24.1805 25.2711 24.1893 24.9694C24.1981 24.6676 24.2895 24.374 24.4535 24.1205C25.5982 22.6318 27.0587 21.4154 28.7299 20.5589C30.4012 19.7024 32.2415 19.2271 34.1185 19.1672C35.6728 19.1641 37.1649 19.7777 38.2673 20.8733C39.3698 21.9689 39.9927 23.4571 39.9993 25.0114C39.9993 26.6672 34.6852 26.6672 31.5093 26.6672ZM0.670995 13.5455C1.27337 14.4715 2.21842 15.1208 3.29887 15.3509C4.37931 15.581 5.50691 15.3732 6.43433 14.773C6.52757 14.7142 6.60819 14.6374 6.67153 14.5471C6.73486 14.4568 6.77965 14.3549 6.8033 14.2472C6.82695 14.1395 6.82899 14.0281 6.80929 13.9196C6.7896 13.8111 6.74857 13.7076 6.68857 13.6151C6.62858 13.5226 6.55082 13.4429 6.4598 13.3806C6.36878 13.3184 6.26631 13.2748 6.15832 13.2524C6.05034 13.2301 5.93899 13.2294 5.83074 13.2503C5.72248 13.2713 5.61946 13.3136 5.52766 13.3747C5.11292 13.6439 4.62767 13.784 4.13327 13.7774C3.63887 13.7708 3.15754 13.6178 2.75012 13.3376C2.34271 13.0575 2.02751 12.6628 1.84439 12.2035C1.66128 11.7443 1.61846 11.241 1.72136 10.7574C1.82426 10.2738 2.06825 9.83153 2.42249 9.48658C2.77672 9.14163 3.22529 8.90947 3.71146 8.81945C4.19764 8.72943 4.69959 8.78559 5.15385 8.98084C5.6081 9.17609 5.99426 9.50166 6.2635 9.91637C6.32129 10.0119 6.39768 10.0948 6.48814 10.1602C6.5786 10.2256 6.68128 10.2722 6.79009 10.2972C6.89889 10.3221 7.0116 10.325 7.12153 10.3055C7.23146 10.2861 7.33636 10.2448 7.43001 10.184C7.52366 10.1233 7.60415 10.0443 7.6667 9.95186C7.72925 9.85939 7.77258 9.7553 7.79412 9.64577C7.81567 9.53624 7.81499 9.42349 7.79212 9.31422C7.76925 9.20496 7.72466 9.1014 7.661 9.0097C7.32212 8.49129 6.87131 8.05546 6.34174 7.73429C5.81218 7.41312 5.21734 7.21478 4.60099 7.15387C4.45376 6.63921 4.4756 6.09088 4.66332 5.58956C4.85104 5.08825 5.19471 4.66042 5.64377 4.36904C6.09282 4.07766 6.62355 3.93812 7.15785 3.97094C7.69215 4.00376 8.20181 4.20722 8.61183 4.55137C8.56026 4.68771 8.5163 4.82682 8.48016 4.96804C8.36498 5.50332 8.35723 6.05615 8.45737 6.59445C8.5575 7.13275 8.76353 7.64581 9.0635 8.10387C9.12308 8.19569 9.20017 8.27487 9.29036 8.33689C9.38055 8.39891 9.48207 8.44257 9.58913 8.46536C9.69618 8.48814 9.80668 8.48962 9.91431 8.46971C10.0219 8.44979 10.1246 8.40887 10.2164 8.34929C10.3082 8.2897 10.3874 8.21261 10.4494 8.12242C10.5115 8.03223 10.5551 7.93071 10.5779 7.82366C10.6007 7.7166 10.6022 7.6061 10.5823 7.49847C10.5623 7.39084 10.5214 7.28819 10.4618 7.19637C10.1927 6.78157 10.0526 6.29626 10.0592 5.80183C10.0659 5.30739 10.219 4.82604 10.4993 4.41865C10.7795 4.01125 11.1743 3.69612 11.6337 3.51309C12.093 3.33007 12.5963 3.28738 13.08 3.39042C13.5636 3.49346 14.0058 3.73761 14.3507 4.09198C14.6955 4.44636 14.9275 4.89504 15.0174 5.38129C15.1072 5.86754 15.0509 6.36951 14.8554 6.82372C14.66 7.27793 14.3342 7.66397 13.9193 7.93304C13.8273 7.99235 13.748 8.0692 13.6857 8.1592C13.6234 8.2492 13.5794 8.35058 13.5563 8.45756C13.5333 8.56454 13.5314 8.67502 13.551 8.7827C13.5706 8.89038 13.6113 8.99314 13.6706 9.08512C13.7299 9.1771 13.8067 9.2565 13.8967 9.31878C13.9867 9.38106 14.0881 9.425 14.1951 9.4481C14.3021 9.4712 14.4126 9.473 14.5202 9.4534C14.6279 9.4338 14.7307 9.39318 14.8227 9.33387C15.3228 9.01122 15.7479 8.585 16.0691 8.08398C16.3904 7.58296 16.6004 7.01882 16.685 6.42968C16.7695 5.84053 16.7266 5.2401 16.5592 4.66895C16.3918 4.0978 16.1038 3.56924 15.7146 3.11896C15.3253 2.66868 14.844 2.30719 14.3031 2.05889C13.7622 1.8106 13.1743 1.68129 12.5791 1.6797C11.9839 1.67811 11.3953 1.80428 10.8531 2.04969C10.3109 2.29509 9.82761 2.65401 9.436 3.1022C8.75792 2.6055 7.94483 2.32673 7.10462 2.30288C6.26442 2.27904 5.43683 2.51125 4.73167 2.9687C4.02651 3.42614 3.47713 4.08721 3.15642 4.86416C2.8357 5.64111 2.75883 6.49721 2.93599 7.31887C2.3214 7.50638 1.7588 7.83419 1.29262 8.27641C0.826429 8.71863 0.469416 9.26316 0.249759 9.86702C0.0301024 10.4709 -0.0461853 11.1175 0.0269186 11.7559C0.100022 12.3943 0.320516 13.007 0.670995 13.5455Z" fill="white"/>
<path d="M8.32267 11.5602C8.13725 11.6805 8.00719 11.8695 7.96109 12.0856C7.91499 12.3017 7.95662 12.5273 8.07684 12.7127L10.7985 16.9069C10.8574 17.0002 10.9342 17.0808 11.0245 17.1441C11.1147 17.2074 11.2167 17.2522 11.3244 17.2759C11.4321 17.2995 11.5434 17.3016 11.6519 17.2819C11.7604 17.2622 11.8639 17.2212 11.9565 17.1612C12.049 17.1012 12.1287 17.0234 12.1909 16.9324C12.2532 16.8414 12.2968 16.7389 12.3191 16.6309C12.3415 16.5229 12.3422 16.4116 12.3212 16.3033C12.3002 16.1951 12.2579 16.0921 12.1968 16.0002L9.47517 11.8061C9.35493 11.6207 9.16596 11.4906 8.94983 11.4445C8.7337 11.3984 8.5081 11.44 8.32267 11.5602ZM14.2943 15.4719C14.4442 15.4718 14.5912 15.4312 14.72 15.3545C14.8487 15.2778 14.9544 15.1678 15.0258 15.0361C15.0973 14.9044 15.132 14.7559 15.1261 14.6061C15.1203 14.4564 15.0742 14.311 14.9927 14.1852L12.2718 9.99108C12.1515 9.80565 11.9624 9.67562 11.7462 9.6296C11.53 9.58357 11.3043 9.62532 11.1189 9.74567C10.9335 9.86601 10.8035 10.0551 10.7574 10.2713C10.7114 10.4875 10.7532 10.7132 10.8735 10.8986L13.5943 15.0927C13.6701 15.2093 13.7739 15.3051 13.8961 15.3713C14.0184 15.4376 14.1553 15.4721 14.2943 15.4719Z" fill="white"/>
</g>
<defs>
<clipPath id="clip0_2_6795">
<rect width="50" height="50" fill="white"/>
</clipPath>
</defs>
</svg>
