<svg width="54" height="60" viewBox="0 0 54 60" fill="none" xmlns="http://www.w3.org/2000/svg">
<path d="M52.3125 5.625C52.3125 4.63044 51.9174 3.67661 51.2141 2.97335C50.5109 2.27009 49.5571 1.875 48.5625 1.875H12.9375C11.9429 1.875 10.9891 2.27009 10.2858 2.97335C9.58259 3.67661 9.1875 4.63044 9.1875 5.625V54.375C9.1875 55.3696 9.58259 56.3234 10.2858 57.0266C10.9891 57.7299 11.9429 58.125 12.9375 58.125H48.5625C49.5571 58.125 50.5109 57.7299 51.2141 57.0266C51.9174 56.3234 52.3125 55.3696 52.3125 54.375V5.625Z" fill="#657D8A"/>
<path d="M48.5625 1.875H12.9375V50.625C12.9375 51.6196 13.3326 52.5734 14.0359 53.2766C14.7391 53.9799 15.6929 54.375 16.6875 54.375H52.3125V5.625C52.3125 4.63044 51.9174 3.67661 51.2141 2.97335C50.5109 2.27009 49.5571 1.875 48.5625 1.875Z" fill="#93A4AC"/>
<path d="M30.75 52.5C40.0698 52.5 47.625 44.9448 47.625 35.625C47.625 26.3052 40.0698 18.75 30.75 18.75C21.4302 18.75 13.875 26.3052 13.875 35.625C13.875 44.9448 21.4302 52.5 30.75 52.5Z" fill="#47A7ED"/>
<path d="M30.7501 18.75C27.1923 18.7496 23.7264 19.8799 20.853 21.9778C18.4897 25.2243 17.3632 29.2079 17.6764 33.2112C17.9896 37.2145 19.7219 40.9745 22.5613 43.8139C25.4007 46.6533 29.1606 48.3856 33.164 48.6988C37.1673 49.012 41.1509 47.8855 44.3973 45.5222C46.2284 43.0068 47.3275 40.0336 47.5727 36.932C47.818 33.8303 47.1999 30.7214 45.7869 27.9494C44.3739 25.1775 42.2211 22.8508 39.5671 21.2271C36.9131 19.6034 33.8614 18.746 30.7501 18.75Z" fill="#70C4F2"/>
<path d="M40.1245 26.4469V44.8031C38.3006 46.6676 35.9626 47.9463 33.4089 48.4762C30.8551 49.0062 28.2013 48.7632 25.7862 47.7784C23.3711 46.7935 21.3042 45.1115 19.8492 42.9468C18.3943 40.7822 17.6172 38.2332 17.6172 35.625C17.6172 33.0168 18.3943 30.4678 19.8492 28.3032C21.3042 26.1385 23.3711 24.4565 25.7862 23.4716C28.2013 22.4868 30.8551 22.2438 33.4089 22.7738C35.9626 23.3037 38.3006 24.5824 40.1245 26.4469Z" fill="#D4483D"/>
<path d="M21.8281 26.0174C20.5632 28.5398 20.1461 31.4031 20.6389 34.1815C21.1317 36.96 22.5079 39.5052 24.5631 41.4389C26.6182 43.3725 29.2426 44.5912 32.0459 44.9139C34.8491 45.2366 37.6817 44.646 40.1225 43.2299V26.4467C37.7337 23.9992 34.4819 22.5839 31.0628 22.5036C27.6437 22.4234 24.329 23.6846 21.8281 26.0174Z" fill="#DD5E56"/>
<path d="M48.5625 1.875H12.9375C11.9429 1.875 10.9891 2.27009 10.2858 2.97335C9.58259 3.67661 9.1875 4.63044 9.1875 5.625V13.125H52.3125V5.625C52.3125 4.63044 51.9174 3.67661 51.2141 2.97335C50.5109 2.27009 49.5571 1.875 48.5625 1.875Z" fill="#47A7ED"/>
<path d="M48.5625 1.875H12.9375V13.125H52.3125V5.625C52.3125 4.63044 51.9174 3.67661 51.2141 2.97335C50.5109 2.27009 49.5571 1.875 48.5625 1.875Z" fill="#93D3F5"/>
<path d="M12 4.6875H13.875V10.3125H12V4.6875ZM15.75 4.6875H17.625V10.3125H15.75V4.6875ZM19.5 4.6875H21.375V10.3125H19.5V4.6875Z" fill="#657D8A"/>
<path d="M45.75 10.3125C47.3033 10.3125 48.5625 9.0533 48.5625 7.5C48.5625 5.9467 47.3033 4.6875 45.75 4.6875C44.1967 4.6875 42.9375 5.9467 42.9375 7.5C42.9375 9.0533 44.1967 10.3125 45.75 10.3125Z" fill="#93A4AC"/>
<path d="M37.3125 9.375C38.348 9.375 39.1875 8.53553 39.1875 7.5C39.1875 6.46447 38.348 5.625 37.3125 5.625C36.277 5.625 35.4375 6.46447 35.4375 7.5C35.4375 8.53553 36.277 9.375 37.3125 9.375Z" fill="#47A7ED"/>
<path d="M29.8125 9.375C30.848 9.375 31.6875 8.53553 31.6875 7.5C31.6875 6.46447 30.848 5.625 29.8125 5.625C28.777 5.625 27.9375 6.46447 27.9375 7.5C27.9375 8.53553 28.777 9.375 29.8125 9.375Z" fill="#47A7ED"/>
<path d="M31.0246 40.976L29.8124 39.7638C29.2122 39.1636 28.875 38.3495 28.875 37.5007C28.875 36.6519 29.2122 35.8378 29.8124 35.2376L30.3618 34.6882C30.6102 34.4395 30.7498 34.1023 30.7498 33.7507C30.7498 33.3991 30.6102 33.0619 30.3618 32.8132L29.1496 31.601L30.4752 30.2754L31.6874 31.4876C32.2876 32.0878 32.6248 32.9019 32.6248 33.7507C32.6248 34.5995 32.2876 35.4136 31.6874 36.0138L31.138 36.5632C30.8895 36.8119 30.75 37.1491 30.75 37.5007C30.75 37.8523 30.8895 38.1895 31.138 38.4382L32.3502 39.6504L31.0246 40.976ZM26.3371 40.976L25.1249 39.7638C24.5247 39.1636 24.1875 38.3495 24.1875 37.5007C24.1875 36.6519 24.5247 35.8378 25.1249 35.2376L25.6743 34.6882C25.9227 34.4395 26.0623 34.1023 26.0623 33.7507C26.0623 33.3991 25.9227 33.0619 25.6743 32.8132L24.4621 31.601L25.7877 30.2754L26.9999 31.4876C27.6001 32.0878 27.9373 32.9019 27.9373 33.7507C27.9373 34.5995 27.6001 35.4136 26.9999 36.0138L26.4505 36.5632C26.202 36.8119 26.0625 37.1491 26.0625 37.5007C26.0625 37.8523 26.202 38.1895 26.4505 38.4382L27.6627 39.6504L26.3371 40.976ZM35.7121 40.976L34.4999 39.7638C33.8997 39.1636 33.5625 38.3495 33.5625 37.5007C33.5625 36.6519 33.8997 35.8378 34.4999 35.2376L35.0493 34.6882C35.2977 34.4395 35.4373 34.1023 35.4373 33.7507C35.4373 33.3991 35.2977 33.0619 35.0493 32.8132L33.8371 31.601L35.1627 30.2754L36.3749 31.4876C36.9751 32.0878 37.3123 32.9019 37.3123 33.7507C37.3123 34.5995 36.9751 35.4136 36.3749 36.0138L35.8255 36.5632C35.577 36.8119 35.4375 37.1491 35.4375 37.5007C35.4375 37.8523 35.577 38.1895 35.8255 38.4382L37.0377 39.6504L35.7121 40.976Z" fill="#F8CA50"/>
<path d="M10.125 44.8209V22.5C10.125 21.7541 9.82869 21.0387 9.30124 20.5113C8.77379 19.9838 8.05842 19.6875 7.3125 19.6875C6.56658 19.6875 5.85121 19.9838 5.32376 20.5113C4.79632 21.0387 4.5 21.7541 4.5 22.5V44.8209C3.42764 45.4401 2.58954 46.3957 2.11568 47.5397C1.64182 48.6837 1.55869 49.9521 1.87917 51.1482C2.19965 52.3443 2.90585 53.4011 3.88822 54.1549C4.87059 54.9087 6.07425 55.3173 7.3125 55.3173C8.55076 55.3173 9.75441 54.9087 10.7368 54.1549C11.7192 53.4011 12.4254 52.3443 12.7458 51.1482C13.0663 49.9521 12.9832 48.6837 12.5093 47.5397C12.0355 46.3957 11.1974 45.4401 10.125 44.8209Z" fill="#B73831"/>
<path d="M12.9371 49.6875C12.9371 48.7008 12.6771 47.7315 12.1833 46.8772C11.6896 46.0228 10.9796 45.3136 10.1246 44.8209V22.5C10.1246 21.7541 9.82833 21.0387 9.30088 20.5113C8.77344 19.9838 8.05807 19.6875 7.31215 19.6875C7.23433 19.6875 7.16215 19.7044 7.08527 19.71C6.62972 20.2198 6.37688 20.8789 6.37465 21.5625V43.8834C5.18383 44.5662 4.28415 45.6613 3.84545 46.9619C3.40675 48.2626 3.45938 49.6789 3.99341 50.9434C4.52744 52.2079 5.50591 53.2332 6.74412 53.8257C7.98233 54.4182 9.3946 54.5369 10.7143 54.1594C11.4051 53.6364 11.9653 52.9604 12.351 52.1845C12.7366 51.4086 12.9373 50.5539 12.9371 49.6875Z" fill="#DD5E56"/>
<path d="M4.5 22.5H7.3125V24.375H4.5V22.5ZM4.5 26.25H7.3125V28.125H4.5V26.25ZM4.5 30.0103H7.3125V31.8853H4.5V30.0103Z" fill="#B3BEC3"/>
<path d="M7.3125 51.5625C8.34803 51.5625 9.1875 50.723 9.1875 49.6875C9.1875 48.652 8.34803 47.8125 7.3125 47.8125C6.27697 47.8125 5.4375 48.652 5.4375 49.6875C5.4375 50.723 6.27697 51.5625 7.3125 51.5625Z" fill="white"/>
<path d="M7.3125 52.5C6.75624 52.5 6.21247 52.335 5.74996 52.026C5.28745 51.717 4.92696 51.2777 4.71409 50.7638C4.50122 50.2499 4.44552 49.6844 4.55404 49.1388C4.66256 48.5932 4.93043 48.0921 5.32376 47.6988C5.7171 47.3054 6.21824 47.0376 6.76381 46.929C7.30938 46.8205 7.87488 46.8762 8.3888 47.0891C8.90272 47.302 9.34197 47.6624 9.65101 48.125C9.96005 48.5875 10.125 49.1312 10.125 49.6875C10.125 50.4334 9.82869 51.1488 9.30124 51.6762C8.77379 52.2037 8.05842 52.5 7.3125 52.5ZM7.3125 48.75C7.12708 48.75 6.94583 48.805 6.79165 48.908C6.63748 49.011 6.51732 49.1574 6.44636 49.3287C6.37541 49.5 6.35684 49.6885 6.39302 49.8704C6.42919 50.0523 6.51848 50.2193 6.64959 50.3504C6.7807 50.4815 6.94775 50.5708 7.1296 50.607C7.31146 50.6432 7.49996 50.6246 7.67127 50.5536C7.84257 50.4827 7.98899 50.3625 8.092 50.2083C8.19502 50.0542 8.25 49.8729 8.25 49.6875C8.25 49.4389 8.15123 49.2004 7.97541 49.0246C7.7996 48.8488 7.56114 48.75 7.3125 48.75ZM46.9556 4.96875L43.2188 8.70563C43.3517 8.99006 43.5314 9.25022 43.7503 9.47531L43.7747 9.49969C43.9998 9.7186 44.2599 9.89827 44.5444 10.0312L48.2812 6.29438C48.1475 6.00752 47.9662 5.74537 47.745 5.51906L47.7309 5.505C47.5046 5.28376 47.2425 5.10245 46.9556 4.96875Z" fill="#D3DADD"/>
<path d="M12 4.6875H13.875V10.3125H12V4.6875ZM30.75 17.8125C27.227 17.8125 23.7832 18.8572 20.8539 20.8144C17.9247 22.7717 15.6416 25.5536 14.2934 28.8085C12.9452 32.0633 12.5925 35.6448 13.2798 39.1C13.9671 42.5553 15.6635 45.7292 18.1547 48.2203C20.6458 50.7115 23.8197 52.4079 27.275 53.0952C30.7302 53.7825 34.3117 53.4298 37.5665 52.0816C40.8214 50.7334 43.6033 48.4503 45.5606 45.5211C47.5178 42.5918 48.5625 39.148 48.5625 35.625C48.5573 30.9024 46.6789 26.3748 43.3396 23.0354C40.0002 19.6961 35.4726 17.8177 30.75 17.8125ZM30.75 51.5625C27.5979 51.5625 24.5165 50.6278 21.8956 48.8765C19.2747 47.1253 17.2319 44.6362 16.0257 41.724C14.8194 38.8118 14.5038 35.6073 15.1187 32.5157C15.7337 29.4242 17.2516 26.5844 19.4805 24.3555C21.7094 22.1266 24.5492 20.6087 27.6407 19.9937C30.7323 19.3788 33.9368 19.6944 36.849 20.9007C39.7612 22.1069 42.2503 24.1497 44.0015 26.7706C45.7528 29.3915 46.6875 32.4729 46.6875 35.625C46.6828 39.8504 45.0021 43.9015 42.0143 46.8893C39.0265 49.8771 34.9754 51.5578 30.75 51.5625ZM15.75 4.6875H17.625V10.3125H15.75V4.6875ZM19.5 4.6875H21.375V10.3125H19.5V4.6875ZM45.75 11.25C46.4917 11.25 47.2167 11.0301 47.8334 10.618C48.4501 10.206 48.9307 9.62029 49.2146 8.93506C49.4984 8.24984 49.5726 7.49584 49.4279 6.76841C49.2832 6.04098 48.9261 5.3728 48.4016 4.84835C47.8772 4.3239 47.209 3.96675 46.4816 3.82206C45.7542 3.67736 45.0002 3.75162 44.3149 4.03545C43.6297 4.31928 43.044 4.79993 42.632 5.41661C42.2199 6.0333 42 6.75832 42 7.5C42 8.49456 42.3951 9.44839 43.0984 10.1517C43.8016 10.8549 44.7554 11.25 45.75 11.25ZM45.75 9.375C45.5879 9.3728 45.4268 9.34916 45.2709 9.30469L47.5547 7.02094C47.5992 7.17683 47.6228 7.33791 47.625 7.5C47.625 7.99728 47.4275 8.4742 47.0758 8.82583C46.7242 9.17746 46.2473 9.375 45.75 9.375ZM45.75 5.625C45.9121 5.6272 46.0732 5.65085 46.2291 5.69531L43.9453 7.97906C43.9008 7.82318 43.8772 7.66209 43.875 7.5C43.875 7.00272 44.0725 6.52581 44.4242 6.17418C44.7758 5.82255 45.2527 5.625 45.75 5.625ZM37.3125 10.3125C37.8688 10.3125 38.4125 10.1476 38.875 9.83851C39.3376 9.52947 39.698 9.09022 39.9109 8.5763C40.1238 8.06238 40.1795 7.49688 40.071 6.95131C39.9624 6.40574 39.6946 5.9046 39.3012 5.51126C38.9079 5.11793 38.4068 4.85006 37.8612 4.74154C37.3156 4.63302 36.7501 4.68872 36.2362 4.90159C35.7223 5.11446 35.283 5.47495 34.974 5.93746C34.665 6.39997 34.5 6.94374 34.5 7.5C34.5 8.24592 34.7963 8.96129 35.3238 9.48874C35.8512 10.0162 36.5666 10.3125 37.3125 10.3125ZM37.3125 6.5625C37.4979 6.5625 37.6792 6.61749 37.8333 6.7205C37.9875 6.82351 38.1077 6.96993 38.1786 7.14124C38.2496 7.31254 38.2682 7.50104 38.232 7.6829C38.1958 7.86476 38.1065 8.0318 37.9754 8.16291C37.8443 8.29403 37.6773 8.38331 37.4954 8.41949C37.3135 8.45566 37.125 8.4371 36.9537 8.36614C36.7824 8.29518 36.636 8.17502 36.533 8.02085C36.43 7.86668 36.375 7.68542 36.375 7.5C36.375 7.25136 36.4738 7.0129 36.6496 6.83709C36.8254 6.66127 37.0639 6.5625 37.3125 6.5625ZM29.8125 10.3125C30.3688 10.3125 30.9125 10.1476 31.375 9.83851C31.8376 9.52947 32.198 9.09022 32.4109 8.5763C32.6238 8.06238 32.6795 7.49688 32.571 6.95131C32.4624 6.40574 32.1946 5.9046 31.8012 5.51126C31.4079 5.11793 30.9068 4.85006 30.3612 4.74154C29.8156 4.63302 29.2501 4.68872 28.7362 4.90159C28.2223 5.11446 27.783 5.47495 27.474 5.93746C27.165 6.39997 27 6.94374 27 7.5C27 8.24592 27.2963 8.96129 27.8238 9.48874C28.3512 10.0162 29.0666 10.3125 29.8125 10.3125ZM29.8125 6.5625C29.9979 6.5625 30.1792 6.61749 30.3333 6.7205C30.4875 6.82351 30.6077 6.96993 30.6786 7.14124C30.7496 7.31254 30.7682 7.50104 30.732 7.6829C30.6958 7.86476 30.6065 8.0318 30.4754 8.16291C30.3443 8.29403 30.1773 8.38331 29.9954 8.41949C29.8135 8.45566 29.625 8.4371 29.4537 8.36614C29.2824 8.29518 29.136 8.17502 29.033 8.02085C28.93 7.86668 28.875 7.68542 28.875 7.5C28.875 7.25136 28.9738 7.0129 29.1496 6.83709C29.3254 6.66127 29.5639 6.5625 29.8125 6.5625Z" fill="black"/>
<path d="M29.1496 31.601L30.3618 32.8132C30.6102 33.0619 30.7498 33.3991 30.7498 33.7507C30.7498 34.1023 30.6102 34.4395 30.3618 34.6882L29.8124 35.2376C29.2122 35.8378 28.875 36.6519 28.875 37.5007C28.875 38.3495 29.2122 39.1636 29.8124 39.7638L31.0246 40.976L32.3502 39.6504L31.138 38.4382C30.8895 38.1895 30.75 37.8523 30.75 37.5007C30.75 37.1491 30.8895 36.8119 31.138 36.5632L31.6874 36.0138C32.2876 35.4136 32.6248 34.5995 32.6248 33.7507C32.6248 32.9019 32.2876 32.0878 31.6874 31.4876L30.4752 30.2754L29.1496 31.601ZM26.9999 36.0138C27.6001 35.4136 27.9373 34.5995 27.9373 33.7507C27.9373 32.9019 27.6001 32.0878 26.9999 31.4876L25.7877 30.2754L24.4621 31.601L25.6743 32.8132C25.9227 33.0619 26.0623 33.3991 26.0623 33.7507C26.0623 34.1023 25.9227 34.4395 25.6743 34.6882L25.1249 35.2376C24.5247 35.8378 24.1875 36.6519 24.1875 37.5007C24.1875 38.3495 24.5247 39.1636 25.1249 39.7638L26.3371 40.976L27.6627 39.6504L26.4505 38.4382C26.202 38.1895 26.0625 37.8523 26.0625 37.5007C26.0625 37.1491 26.202 36.8119 26.4505 36.5632L26.9999 36.0138ZM34.4999 35.2376C33.8997 35.8378 33.5625 36.6519 33.5625 37.5007C33.5625 38.3495 33.8997 39.1636 34.4999 39.7638L35.7121 40.976L37.0377 39.6504L35.8255 38.4382C35.577 38.1895 35.4375 37.8523 35.4375 37.5007C35.4375 37.1491 35.577 36.8119 35.8255 36.5632L36.3749 36.0138C36.9751 35.4136 37.3123 34.5995 37.3123 33.7507C37.3123 32.9019 36.9751 32.0878 36.3749 31.4876L35.1627 30.2754L33.8371 31.601L35.0493 32.8132C35.2977 33.0619 35.4373 33.3991 35.4373 33.7507C35.4373 34.1023 35.2977 34.4395 35.0493 34.6882L34.4999 35.2376Z" fill="black"/>
<path d="M30.75 21.5626C27.0204 21.5626 23.4435 23.0442 20.8063 25.6814C18.1691 28.3186 16.6875 31.8955 16.6875 35.6251C16.6875 39.3547 18.1691 42.9315 20.8063 45.5688C23.4435 48.206 27.0204 49.6876 30.75 49.6876C32.6227 49.6939 34.4774 49.3227 36.2033 48.596C37.9293 47.8694 39.4911 46.8023 40.7953 45.4585C40.9668 45.2831 41.0627 45.0476 41.0625 44.8023V26.447C41.0627 26.2017 40.9668 25.9661 40.7953 25.7907C39.491 24.4471 37.9292 23.3801 36.2032 22.6537C34.4773 21.9272 32.6226 21.5561 30.75 21.5626ZM39.1875 44.4132C36.9262 46.6037 33.8983 47.8237 30.75 47.8126C27.5177 47.8126 24.4177 46.5285 22.1321 44.2429C19.8465 41.9573 18.5625 38.8574 18.5625 35.6251C18.5625 32.3928 19.8465 29.2928 22.1321 27.0072C24.4177 24.7216 27.5177 23.4376 30.75 23.4376C33.8983 23.4265 36.9262 24.6464 39.1875 26.837V44.4132Z" fill="black"/>
<path d="M7.3115 56.25C7.74313 56.2498 8.17368 56.2068 8.59681 56.1216C8.94108 56.9909 9.53921 57.7365 10.3133 58.2611C11.0873 58.7856 12.0014 59.0649 12.9365 59.0625H48.5615C49.8042 59.061 50.9957 58.5667 51.8744 57.6879C52.7532 56.8092 53.2475 55.6177 53.249 54.375V5.625C53.2475 4.38225 52.7532 3.19084 51.8744 2.31208C50.9957 1.43333 49.8042 0.938989 48.5615 0.9375H12.9365C11.6938 0.938989 10.5023 1.43333 9.62358 2.31208C8.74483 3.19084 8.25049 4.38225 8.249 5.625V18.8831C7.94351 18.7987 7.62842 18.754 7.3115 18.75C6.31694 18.75 5.36311 19.1451 4.65985 19.8484C3.95659 20.5516 3.5615 21.5054 3.5615 22.5V44.3081C2.41763 45.1074 1.55832 46.2505 1.10835 47.5714C0.658381 48.8923 0.641183 50.3223 1.05926 51.6536C1.47733 52.985 2.3089 54.1484 3.43322 54.9749C4.55753 55.8015 5.91605 56.2481 7.3115 56.25ZM48.5615 57.1875H12.9365C12.3887 57.1887 11.8526 57.0287 11.3951 56.7273C10.9376 56.4258 10.579 55.9964 10.364 55.4925C11.3615 54.9695 12.2074 54.1982 12.82 53.253C13.4326 52.3079 13.7912 51.2208 13.8613 50.0967C13.9314 48.9725 13.7106 47.8493 13.2202 46.8354C12.7298 45.8215 11.9863 44.951 11.0615 44.3081V22.5C11.0581 21.595 10.7248 20.7224 10.124 20.0456V14.0625H51.374V54.375C51.374 55.1209 51.0777 55.8363 50.5502 56.3637C50.0228 56.8912 49.3074 57.1875 48.5615 57.1875ZM12.9365 2.8125H48.5615C49.3074 2.8125 50.0228 3.10882 50.5502 3.63626C51.0777 4.16371 51.374 4.87908 51.374 5.625V12.1875H10.124V5.625C10.124 4.87908 10.4203 4.16371 10.9478 3.63626C11.4752 3.10882 12.1906 2.8125 12.9365 2.8125ZM4.96775 45.6319C5.11013 45.5497 5.22838 45.4315 5.31066 45.2891C5.39293 45.1468 5.43633 44.9853 5.4365 44.8209V31.8834H7.3115V30.0084H5.4365V28.125H7.3115V26.25H5.4365V24.375H7.3115V22.5H5.4365C5.4365 22.0027 5.63405 21.5258 5.98568 21.1742C6.33731 20.8225 6.81422 20.625 7.3115 20.625C7.80878 20.625 8.28569 20.8225 8.63733 21.1742C8.98896 21.5258 9.1865 22.0027 9.1865 22.5V44.8209C9.18667 44.9853 9.23007 45.1468 9.31234 45.2891C9.39462 45.4315 9.51287 45.5497 9.65525 45.6319C10.5489 46.1478 11.2473 46.9442 11.6422 47.8975C12.0371 48.8509 12.1063 49.9079 11.8393 50.9046C11.5722 51.9013 10.9837 52.782 10.1651 53.4102C9.34643 54.0384 8.34338 54.3789 7.3115 54.3789C6.27962 54.3789 5.27658 54.0384 4.45793 53.4102C3.63929 52.782 3.05079 51.9013 2.78372 50.9046C2.51665 49.9079 2.58593 48.8509 2.98082 47.8975C3.3757 46.9442 4.07412 46.1478 4.96775 45.6319Z" fill="black"/>
<path d="M7.3125 52.5C7.86876 52.5 8.41253 52.335 8.87504 52.026C9.33755 51.717 9.69804 51.2777 9.91091 50.7638C10.1238 50.2499 10.1795 49.6844 10.071 49.1388C9.96244 48.5932 9.69457 48.0921 9.30124 47.6988C8.9079 47.3054 8.40676 47.0376 7.86119 46.929C7.31562 46.8205 6.75012 46.8762 6.2362 47.0891C5.72229 47.302 5.28303 47.6624 4.97399 48.125C4.66495 48.5875 4.5 49.1312 4.5 49.6875C4.5 50.4334 4.79632 51.1488 5.32376 51.6762C5.85121 52.2037 6.56658 52.5 7.3125 52.5ZM7.3125 48.75C7.49792 48.75 7.67918 48.805 7.83335 48.908C7.98752 49.011 8.10768 49.1574 8.17864 49.3287C8.24959 49.5 8.26816 49.6885 8.23199 49.8704C8.19581 50.0523 8.10652 50.2193 7.97541 50.3504C7.8443 50.4815 7.67725 50.5708 7.4954 50.607C7.31354 50.6432 7.12504 50.6246 6.95373 50.5536C6.78243 50.4827 6.63601 50.3625 6.533 50.2083C6.42998 50.0542 6.375 49.8729 6.375 49.6875C6.375 49.4389 6.47377 49.2004 6.64959 49.0246C6.8254 48.8488 7.06386 48.75 7.3125 48.75Z" fill="black"/>
</svg>
