<svg width="60" height="60" viewBox="0 0 60 60" fill="none" xmlns="http://www.w3.org/2000/svg">
<g clip-path="url(#clip0_544_845)">
<path d="M59 18.4613C59 19.3794 58.6839 20.2598 58.1213 20.909C57.5587 21.5582 56.7957 21.9229 56 21.9229H53C53.7957 21.9229 54.5587 22.2876 55.1213 22.9367C55.6839 23.5859 56 24.4664 56 25.3844C56 26.3025 55.6839 27.1829 55.1213 27.8321C54.5587 28.4813 53.7957 28.8459 53 28.8459H49C49.7957 28.8414 50.5603 29.2017 51.1257 29.8476C51.6911 30.4935 52.011 31.3721 52.015 32.2902C52.019 33.2082 51.7067 34.0905 51.1469 34.7429C50.5871 35.3953 49.8256 35.7644 49.03 35.769H45C44.9938 34.9081 44.7098 34.0808 44.2034 33.4485C43.697 32.8162 43.0046 32.4243 42.2613 32.3493C41.518 32.2744 40.7771 32.5217 40.1834 33.0431C39.5896 33.5644 39.1855 34.3224 39.05 35.169C39.1222 34.722 39.1174 34.263 39.0359 33.8181C38.9544 33.3733 38.7977 32.9513 38.5749 32.5763C38.352 32.2013 38.0673 31.8806 37.737 31.6325C37.4068 31.3845 37.0374 31.2139 36.65 31.1306C36.2626 31.0472 35.8648 31.0527 35.4792 31.1468C35.0937 31.2409 34.7279 31.4216 34.4029 31.6788C34.0779 31.9359 33.8 32.2644 33.585 32.6455C33.37 33.0266 33.2222 33.4528 33.15 33.8998C33.2959 32.997 33.125 32.0644 32.6749 31.307C32.2248 30.5497 31.5324 30.0296 30.75 29.8613C29.9676 29.693 29.1593 29.8902 28.5029 30.4096C27.8466 30.9289 27.3959 31.7278 27.25 32.6306C27.3222 32.1843 27.3176 31.726 27.2363 31.2819C27.155 30.8377 26.9987 30.4164 26.7763 30.0419C26.3272 29.2856 25.6361 28.7662 24.855 28.5979C24.0739 28.4296 23.2669 28.6262 22.6115 29.1444C21.956 29.6627 21.5059 30.4601 21.36 31.3613L21.21 32.3075H1V11.5383H18.44C20.0892 11.5405 21.6875 10.8795 22.96 9.66902L29.63 3.28825C30.9161 2.06861 32.4956 1.33383 34.1552 1.1832C35.8148 1.03256 37.4745 1.47333 38.91 2.44595L48.93 8.07672H53C53.7957 8.07672 54.5587 8.44141 55.1213 9.09058C55.6839 9.73974 56 10.6202 56 11.5383C56 12.4563 55.6839 13.3368 55.1213 13.9859C54.5587 14.6351 53.7957 14.9998 53 14.9998H56C56.7957 14.9998 57.5587 15.3645 58.1213 16.0137C58.6839 16.6628 59 17.5433 59 18.4613Z" fill="#FFE0B2"/>
<path d="M21.8609 28.5923C21.4734 28.5077 21.0753 28.5124 20.6893 28.6059C20.3034 28.6995 19.9373 28.8801 19.612 29.1374C19.2868 29.3948 19.0088 29.7237 18.7941 30.1054C18.5794 30.4871 18.4322 30.914 18.3609 31.3615L18.2109 32.3077H21.2109L21.3609 31.3615C21.4406 30.8702 21.6123 30.4048 21.8639 29.9978C22.1156 29.5909 22.4412 29.2522 22.8179 29.0054C22.5219 28.8052 22.1982 28.6655 21.8609 28.5923ZM52.1209 22.9385C52.54 23.4226 52.8253 24.0391 52.9408 24.7101C53.0563 25.3812 52.9969 26.0767 52.7701 26.7089C52.5432 27.341 52.1591 27.8814 51.6663 28.2618C51.1734 28.6422 50.5939 28.8456 50.0009 28.8462H53.0009C53.7966 28.8462 54.5596 28.4815 55.1223 27.8323C55.6849 27.1831 56.0009 26.3027 56.0009 25.3846C56.0009 24.4666 55.6849 23.5861 55.1223 22.9369C54.5596 22.2878 53.7966 21.9231 53.0009 21.9231H50.0009C50.7969 21.9231 51.5589 22.2888 52.1209 22.9385ZM58.1209 16.0154C57.8429 15.6935 57.5124 15.4381 57.1487 15.2639C56.7849 15.0896 56.3948 15 56.0009 15H53.0009C53.7966 15 54.5596 15.3647 55.1223 16.0139C55.6849 16.663 56.0009 17.5435 56.0009 18.4615C56.0009 19.3796 55.6849 20.2601 55.1223 20.9092C54.5596 21.5584 53.7966 21.9231 53.0009 21.9231H56.0009C56.5939 21.9225 57.1734 21.7191 57.6663 21.3387C58.1591 20.9583 58.5432 20.4179 58.7701 19.7858C58.9969 19.1537 59.0563 18.4581 58.9408 17.7871C58.8253 17.116 58.54 16.4995 58.1209 16.0154Z" fill="#DFC49C"/>
<path d="M56 11.5377C56 10.6197 55.6839 9.7392 55.1213 9.09003C54.5587 8.44087 53.7956 8.07617 53 8.07617H50C50.7956 8.07617 51.5587 8.44087 52.1213 9.09003C52.6839 9.7392 53 10.6197 53 11.5377C53 12.4558 52.6839 13.3362 52.1213 13.9854C51.5587 14.6346 50.7956 14.9992 50 14.9992H53C53.7956 14.9992 54.5587 14.6346 55.1213 13.9854C55.6839 13.3362 56 12.4558 56 11.5377ZM49 28.8454H46C46.7956 28.8408 47.5603 29.2011 48.1257 29.847C48.6911 30.4929 49.011 31.3716 49.015 32.2896C49.019 33.2077 48.7067 34.09 48.1469 34.7424C47.5871 35.3948 46.8256 35.7639 46.03 35.7685H49.03C49.8256 35.7639 50.5871 35.3948 51.1469 34.7424C51.7067 34.09 52.019 33.2077 52.015 32.2896C52.011 31.3716 51.6911 30.4929 51.1257 29.847C50.5603 29.2011 49.7956 28.8408 49 28.8454Z" fill="#DFC49C"/>
<path d="M45.001 35.7688V35.8034C44.9993 36.0161 44.9825 36.2284 44.951 36.438L44.581 38.7111C44.502 39.2164 44.3252 39.6947 44.0637 40.1102C43.8023 40.5258 43.463 40.8679 43.071 41.1111C42.5784 41.4216 42.0203 41.5664 41.4599 41.529C40.8996 41.4917 40.3596 41.2738 39.9012 40.9C39.4429 40.5262 39.0846 40.0115 38.8672 39.4145C38.6497 38.8174 38.5817 38.162 38.671 37.5226L39.051 35.1688C39.1865 34.3222 39.5906 33.5642 40.1844 33.0428C40.7782 32.5215 41.519 32.2741 42.2623 32.3491C43.0056 32.424 43.698 32.8159 44.2044 33.4482C44.7108 34.0805 44.9948 34.9079 45.001 35.7688Z" fill="#FFE0B2"/>
<path d="M42.5488 32.4003C41.8483 32.2549 41.1258 32.4021 40.5108 32.8157C40.9591 33.1175 41.3319 33.5483 41.5927 34.0661C41.8535 34.5838 41.9934 35.1707 41.9988 35.7696V35.8042C41.9971 36.0169 41.9803 36.2292 41.9488 36.4388L41.5788 38.7119C41.5012 39.2016 41.3314 39.6657 41.0816 40.0715C40.8318 40.4774 40.5079 40.8152 40.1328 41.0611C41.0328 41.6853 42.1528 41.7049 43.0688 41.1119C43.4608 40.8687 43.8001 40.5265 44.0615 40.111C44.323 39.6955 44.4998 39.2172 44.5788 38.7119L44.9488 36.4388C44.9808 36.2288 44.9968 36.0165 44.9988 35.8042V35.7696C44.9921 34.9674 44.744 34.1928 44.2972 33.5783C43.8503 32.9637 43.2323 32.5474 42.5488 32.4003Z" fill="#DFC49C"/>
<path d="M39.0977 34.5352C39.096 34.7479 39.0792 34.9602 39.0477 35.1698L38.6677 37.5237L38.4977 38.5737C38.3519 39.4764 37.9012 40.2753 37.2448 40.7947C36.5884 41.314 35.7801 41.5112 34.9977 41.3429C34.2153 41.1746 33.5229 40.6545 33.0728 39.8972C32.6228 39.1398 32.4519 38.2072 32.5977 37.3044L33.1477 33.9006C33.2838 33.0512 33.6903 32.2912 34.2872 31.7698C34.8841 31.2485 35.6284 31.0036 36.3739 31.0831C37.1193 31.1626 37.8121 31.5608 38.3161 32.1995C38.8201 32.8383 39.0989 33.6714 39.0977 34.5352Z" fill="#FFE0B2"/>
<path d="M36.6489 31.1309C35.949 30.9853 35.227 31.1326 34.6129 31.5463C35.1465 31.906 35.5709 32.447 35.8279 33.0955C36.0849 33.744 36.1621 34.4683 36.0489 35.1693L35.6689 37.5232L35.4989 38.5732C35.4177 39.0618 35.2459 39.5245 34.9953 39.9294C34.7447 40.3343 34.4211 40.6718 34.0469 40.919C34.46 41.205 34.9272 41.3707 35.4082 41.4018C35.8892 41.433 36.3696 41.3286 36.8078 41.0977C37.246 40.8668 37.629 40.5163 37.9236 40.0765C38.2182 39.6366 38.4157 39.1207 38.4989 38.5732L38.6689 37.5232L39.0489 35.1693C39.1212 34.7223 39.1165 34.2633 39.035 33.8183C38.9536 33.3734 38.7969 32.9514 38.574 32.5764C38.3512 32.2013 38.0664 31.8806 37.7361 31.6326C37.4058 31.3846 37.0363 31.2141 36.6489 31.1309Z" fill="#DFC49C"/>
<path d="M33.1993 33.2541C33.2023 33.4711 33.1853 33.688 33.1493 33.9003L32.5993 37.3041C32.4534 38.2069 32.0027 39.0058 31.3463 39.5251C30.69 40.0445 29.8817 40.2417 29.0993 40.0734C28.3169 39.9051 27.6245 39.385 27.1744 38.6277C26.7243 37.8703 26.5534 36.9377 26.6993 36.0349L26.8293 35.1926C26.8493 35.1003 26.8693 34.9964 26.8893 34.8926L27.2493 32.6311C27.3852 31.7826 27.7909 31.0233 28.3868 30.5021C28.9826 29.9808 29.7257 29.735 30.4704 29.813C31.2152 29.891 31.9078 30.2871 32.4126 30.9236C32.9174 31.5602 33.1979 32.3913 33.1993 33.2541Z" fill="#FFE0B2"/>
<path d="M30.7484 29.8615C30.049 29.7153 29.3273 29.8636 28.7144 30.2792C29.2484 30.6378 29.6729 31.1785 29.9297 31.8268C30.1865 32.4752 30.2629 33.1994 30.1484 33.8999L29.5984 37.3038C29.519 37.793 29.3481 38.2564 29.0977 38.6617C28.8473 39.067 28.5233 39.4045 28.1484 39.6507C28.5615 39.9365 29.0286 40.102 29.5095 40.133C29.9904 40.1639 30.4706 40.0594 30.9087 39.8283C31.3467 39.5973 31.7295 39.2468 32.0238 38.8069C32.3182 38.3671 32.5154 37.8512 32.5984 37.3038L33.1484 33.8999C33.2208 33.4529 33.2161 32.9938 33.1346 32.5489C33.0531 32.104 32.8965 31.682 32.6736 31.3069C32.4507 30.9319 32.166 30.6112 31.8357 30.3632C31.5053 30.1152 31.1359 29.9447 30.7484 29.8615Z" fill="#DFC49C"/>
<path d="M27.2985 31.9852C27.3015 32.2021 27.2845 32.4191 27.2485 32.6314L26.8885 34.8929C26.8685 34.9968 26.8485 35.1006 26.8285 35.1929C26.6854 35.7825 26.409 36.3176 26.0277 36.7434C25.6464 37.1692 25.1739 37.4703 24.6585 37.616C24.2435 37.7414 23.8094 37.7572 23.3885 37.6621C23.001 37.5789 22.6316 37.4084 22.3013 37.1604C21.9709 36.9124 21.6862 36.5917 21.4633 36.2167C21.2404 35.8416 21.0838 35.4196 21.0023 34.9747C20.9208 34.5298 20.9161 34.0707 20.9885 33.6237L21.2085 32.3083L21.3585 31.3621C21.4943 30.5151 21.8994 29.7572 22.4943 29.2369C23.0893 28.7166 23.8312 28.4714 24.5746 28.5494C25.3181 28.6273 26.0095 29.0229 26.5134 29.6585C27.0172 30.294 27.2972 31.1238 27.2985 31.9852Z" fill="#FFE0B2"/>
<path d="M24.8604 28.593C24.1585 28.4421 23.433 28.5888 22.8174 29.0061C23.2687 29.3098 23.6431 29.7447 23.9033 30.2675C24.1635 30.7902 24.3004 31.3825 24.3004 31.9853C24.3034 32.2022 24.2864 32.4192 24.2504 32.6315L23.8904 34.893C23.8704 34.9968 23.8504 35.1007 23.8304 35.193C23.6179 36.0602 23.1193 36.7968 22.4414 37.2445C22.7344 37.4465 23.0554 37.5872 23.3904 37.6622C23.8104 37.7568 24.2454 37.7418 24.6604 37.6161C25.1758 37.4704 25.6484 37.1692 26.0297 36.7435C26.411 36.3177 26.6873 35.7826 26.8304 35.193C26.8504 35.1007 26.8704 34.9968 26.8904 34.893L27.2504 32.6315C27.2864 32.4192 27.3034 32.2022 27.3004 31.9853C27.3014 31.18 27.0579 30.3997 26.6122 29.7799C26.1664 29.1602 25.5466 28.7403 24.8604 28.593Z" fill="#DFC49C"/>
<path d="M58.9103 55.0503C58.9261 55.2493 58.8967 55.4497 58.8252 55.6317C58.7537 55.8137 58.6424 55.9712 58.5023 56.0887C58.3622 56.2062 58.198 56.2796 58.0258 56.3019C57.8537 56.3242 57.6795 56.2945 57.5203 56.2157L52.6203 53.7926C52.436 53.7032 52.2326 53.6795 52.0366 53.7248C51.8405 53.77 51.6607 53.8821 51.5203 54.0465L48.6103 57.4041C48.476 57.5619 48.3052 57.6717 48.1184 57.7207C47.9315 57.7696 47.7363 57.7556 47.5562 57.6802C47.376 57.6048 47.2184 57.4713 47.1021 57.2955C46.9859 57.1198 46.9158 56.9092 46.9003 56.6888C46.6703 52.8465 45.8603 45.6118 43.0703 41.1118C43.4623 40.8686 43.8016 40.5265 44.063 40.111C44.3245 39.6954 44.5013 39.2172 44.5803 38.7118L44.9503 36.4388C44.9823 36.2288 44.9983 36.0165 45.0003 35.8041V35.7695H49.0303C52.9303 38.2734 58.1903 46.7772 58.9103 55.0503Z" fill="#00BCD4"/>
<path d="M49.0312 35.7695H46.0312C49.9313 38.2734 55.1913 46.7772 55.9113 55.0503C55.9214 55.1704 55.9146 55.2916 55.8913 55.4091L57.5213 56.2168C57.6804 56.2956 57.8546 56.3253 58.0268 56.3031C58.1989 56.2808 58.3631 56.2073 58.5032 56.0898C58.6433 55.9724 58.7546 55.8149 58.8262 55.6329C58.8977 55.4508 58.927 55.2505 58.9113 55.0515C58.1913 46.7772 52.9313 38.2734 49.0312 35.7695Z" fill="#00838F"/>
<path d="M24.6592 37.6163C22.4792 40.674 19.4792 46.8124 19.0492 57.7278C19.0427 57.9517 18.9798 58.1685 18.8683 58.3519C18.7568 58.5353 18.6014 58.6772 18.4212 58.7604C18.2409 58.8436 18.0436 58.8644 17.8532 58.8204C17.6629 58.7764 17.4877 58.6694 17.3492 58.5124L14.5392 55.2701C14.3855 55.0896 14.184 54.9734 13.9667 54.94C13.7493 54.9066 13.5285 54.9578 13.3392 55.0855L8.65919 58.1663C8.49963 58.2712 8.3181 58.3234 8.13452 58.3171C7.95094 58.3109 7.7724 58.2464 7.61848 58.1308C7.46456 58.0152 7.34121 57.8529 7.26196 57.6617C7.18271 57.4705 7.15061 57.2579 7.1692 57.0471C7.7092 51.474 9.8392 37.0278 17.5792 32.3086H21.2092L20.9892 33.624C20.9169 34.071 20.9216 34.5301 21.003 34.975C21.0845 35.4199 21.2412 35.8419 21.464 36.217C21.6869 36.592 21.9717 36.9127 22.302 37.1607C22.6323 37.4087 23.0017 37.5792 23.3892 37.6624C23.8092 37.7571 24.2442 37.7421 24.6592 37.6163Z" fill="#00BCD4"/>
<path d="M23.3889 37.6624C23.0015 37.5792 22.632 37.4087 22.3017 37.1607C21.9714 36.9127 21.6867 36.592 21.4638 36.217C21.2409 35.8419 21.0842 35.4199 21.0028 34.975C20.9213 34.5301 20.9166 34.071 20.9889 33.624L21.2089 32.3086H18.2089L17.9889 33.624C17.9166 34.071 17.9213 34.5301 18.0028 34.975C18.0842 35.4199 18.2409 35.8419 18.4638 36.217C18.6867 36.592 18.9714 36.9127 19.3017 37.1607C19.632 37.4087 20.0015 37.5792 20.3889 37.6624C20.8089 37.7571 21.2439 37.7421 21.6589 37.6163C19.5249 40.6094 16.6119 46.5667 16.0859 57.0551L17.3489 58.5124C17.4875 58.6694 17.6626 58.7764 17.8529 58.8204C18.0433 58.8644 18.2406 58.8436 18.4209 58.7604C18.6011 58.6772 18.7565 58.5353 18.868 58.3519C18.9796 58.1685 19.0424 57.9517 19.0489 57.7278C19.4789 46.8124 22.4789 40.674 24.6589 37.6163C24.244 37.7417 23.8099 37.7575 23.3889 37.6624Z" fill="#00838F"/>
<path d="M60 18.4617C59.9971 17.3251 59.6299 16.23 58.9692 15.387C58.3084 14.5441 57.4008 14.013 56.421 13.8959C56.7886 13.1982 56.9883 12.3999 56.9993 11.5835C57.0103 10.767 56.8323 9.96193 56.4837 9.25133C56.135 8.54074 55.6284 7.95035 55.016 7.5411C54.4036 7.13185 53.7077 6.91856 53 6.92324H49.16L39.417 1.45054C37.8041 0.357928 35.9393 -0.137011 34.0747 0.0326111C32.2101 0.202233 30.4356 1.02824 28.991 2.39901L22.322 8.77977C21.2287 9.81853 19.8562 10.386 18.44 10.3848H1C0.734784 10.3848 0.48043 10.5063 0.292893 10.7227C0.105357 10.9391 0 11.2326 0 11.5386C0 11.8446 0.105357 12.1381 0.292893 12.3545C0.48043 12.5709 0.734784 12.6925 1 12.6925H18.44C20.3225 12.6932 22.1467 11.9386 23.6 10.5578L30.269 4.17708C31.4087 3.10383 32.8072 2.4616 34.2743 2.33773C35.7415 2.21387 37.2061 2.61437 38.469 3.48477L44.594 6.92324H37C36.7348 6.92324 36.4804 7.0448 36.2929 7.26119C36.1054 7.47758 36 7.77106 36 8.07708C36 8.3831 36.1054 8.67659 36.2929 8.89297C36.4804 9.10936 36.7348 9.23093 37 9.23093H53C53.5304 9.23093 54.0391 9.47406 54.4142 9.90684C54.7893 10.3396 55 10.9266 55 11.5386C55 12.1507 54.7893 12.7376 54.4142 13.1704C54.0391 13.6032 53.5304 13.8463 53 13.8463H48C47.7348 13.8463 47.4804 13.9679 47.2929 14.1843C47.1054 14.4007 47 14.6941 47 15.0002C47 15.3062 47.1054 15.5997 47.2929 15.8161C47.4804 16.0324 47.7348 16.154 48 16.154H56C56.5304 16.154 57.0391 16.3971 57.4142 16.8299C57.7893 17.2627 58 17.8497 58 18.4617C58 19.0737 57.7893 19.6607 57.4142 20.0935C57.0391 20.5263 56.5304 20.7694 56 20.7694H47C46.7348 20.7694 46.4804 20.891 46.2929 21.1073C46.1054 21.3237 46 21.6172 46 21.9232C46 22.2293 46.1054 22.5227 46.2929 22.7391C46.4804 22.9555 46.7348 23.0771 47 23.0771H53C53.5304 23.0771 54.0391 23.3202 54.4142 23.753C54.7893 24.1858 55 24.7727 55 25.3848C55 25.9968 54.7893 26.5838 54.4142 27.0166C54.0391 27.4493 53.5304 27.6925 53 27.6925H46C45.7348 27.6925 45.4804 27.814 45.2929 28.0304C45.1054 28.2468 45 28.5403 45 28.8463C45 29.1523 45.1054 29.4458 45.2929 29.6622C45.4804 29.8786 45.7348 30.0002 46 30.0002H49C49.5304 30.0002 50.0391 30.2433 50.4142 30.6761C50.7893 31.1088 51 31.6958 51 32.3078C51 32.9199 50.7893 33.5069 50.4142 33.9396C50.0391 34.3724 49.5304 34.6155 49 34.6155H45.85C45.6864 33.9029 45.3768 33.2459 44.9473 32.7001C44.5177 32.1543 43.9808 31.7356 43.3818 31.4792C42.7827 31.2228 42.139 31.1363 41.5049 31.2269C40.8708 31.3175 40.2648 31.5825 39.738 31.9998C39.663 32.0598 39.602 32.1371 39.531 32.2017C39.256 31.6554 38.8861 31.1806 38.4445 30.807C38.0029 30.4334 37.4992 30.1692 36.9649 30.0308C36.4307 29.8925 35.8774 29.883 35.3398 30.003C34.8023 30.123 34.292 30.3699 33.841 30.7282C33.766 30.7882 33.705 30.8644 33.634 30.929C33.588 30.839 33.555 30.7432 33.504 30.6555C33.1957 30.1332 32.7971 29.69 32.3333 29.3539C31.8694 29.0178 31.3504 28.7961 30.8087 28.7026C30.267 28.609 29.7144 28.6458 29.1856 28.8105C28.6568 28.9753 28.1633 29.2644 27.736 29.6598C27.3254 28.8496 26.7099 28.2037 25.9721 27.8088C25.2343 27.4138 24.4094 27.2887 23.6082 27.4502C22.8069 27.6117 22.0677 28.0521 21.4896 28.7123C20.9115 29.3724 20.5222 30.2208 20.374 31.1436V31.154H1C0.734784 31.154 0.48043 31.2756 0.292893 31.492C0.105357 31.7083 0 32.0018 0 32.3078C0 32.6139 0.105357 32.9074 0.292893 33.1237C0.48043 33.3401 0.734784 33.4617 1 33.4617H14.444C8.495 39.6267 6.693 51.5863 6.176 56.9194C6.13698 57.3419 6.19981 57.7686 6.35756 58.1525C6.51531 58.5364 6.76185 58.8627 7.07003 59.0952C7.3782 59.3278 7.73604 59.4577 8.10411 59.4706C8.47217 59.4834 8.83618 59.3788 9.156 59.1682L13.834 56.0852L16.649 59.3344C16.9221 59.6489 17.2691 59.8642 17.6472 59.9537C18.0252 60.0431 18.4177 60.0027 18.776 59.8375C19.1396 59.6757 19.454 59.3945 19.6805 59.0286C19.9069 58.6628 20.0354 58.2283 20.05 57.779C20.45 47.6621 23.059 41.8017 25.25 38.6113C25.478 38.519 25.699 38.4036 25.909 38.2652C26.019 38.6228 26.168 38.9632 26.35 39.2794C26.6587 39.8018 27.0574 40.2452 27.5213 40.5817C27.9852 40.9183 28.5043 41.1408 29.0462 41.2353C29.588 41.3299 30.1409 41.2944 30.6703 41.1312C31.1997 40.968 31.6943 40.6805 32.123 40.2867C32.4733 40.9785 32.9745 41.5523 33.5769 41.951C34.1792 42.3496 34.8616 42.5591 35.556 42.5586C36.1236 42.5635 36.6852 42.4246 37.2011 42.1516C37.7171 41.8787 38.1748 41.4784 38.542 40.979C39.022 41.679 39.6707 42.1995 40.4065 42.475C41.1423 42.7505 41.9322 42.7688 42.677 42.5275C44.983 46.8221 45.686 53.2167 45.9 56.7729C45.95 57.6705 46.454 58.4494 47.186 58.7586C47.5476 58.9162 47.941 58.9495 48.3187 58.8545C48.6964 58.7595 49.0421 58.5402 49.314 58.2232L52.224 54.8563L57.118 57.2794C57.772 57.6094 58.528 57.5102 59.101 57.0198C59.671 56.5432 59.976 55.7505 59.901 54.9429C59.0326 47.6883 55.9584 41.0258 51.227 36.1444C51.7729 35.7222 52.2203 35.1513 52.5296 34.4821C52.8388 33.813 53.0004 33.0662 53 32.3078C52.9965 31.4955 52.8053 30.6988 52.446 30.0002H53C53.7077 30.0048 54.4036 29.7915 55.016 29.3823C55.6284 28.973 56.135 28.3827 56.4837 27.6721C56.8323 26.9615 57.0103 26.1564 56.9993 25.3399C56.9883 24.5235 56.7886 23.7252 56.421 23.0275C57.4008 22.9104 58.3084 22.3793 58.9692 21.5363C59.6299 20.6934 59.9971 19.5983 60 18.4617ZM23.176 30.0879C23.3924 29.9159 23.6363 29.7952 23.8934 29.7326C24.1505 29.67 24.4158 29.6668 24.674 29.7232C24.9324 29.7787 25.1787 29.8924 25.399 30.0578C25.6193 30.2232 25.8091 30.4371 25.9577 30.6872C26.1063 30.9373 26.2107 31.2187 26.265 31.5154C26.3193 31.8121 26.3223 32.1182 26.274 32.4163L25.9 34.6848C25.8028 35.2866 25.5024 35.8191 25.0649 36.1654C24.6273 36.5116 24.0885 36.6431 23.567 36.5309C23.0455 36.4188 22.5839 36.0722 22.2838 35.5673C21.9838 35.0625 21.8698 34.4408 21.967 33.839L22.336 31.5694C22.3835 31.2704 22.4823 30.9853 22.6266 30.7309C22.7708 30.4765 22.9576 30.2579 23.176 30.0879ZM18.057 57.6925L15.247 54.449C14.9386 54.0901 14.5358 53.8592 14.1015 53.7924C13.6673 53.7256 13.2262 53.8266 12.847 54.0798L8.164 57.1744C8.711 51.5309 10.754 38.0136 17.864 33.4617H20C19.95 33.7963 19.934 34.1378 19.95 34.4771C17.57 36.3513 15.8358 39.1302 15.05 42.329C15.0086 42.4729 14.9922 42.6247 15.0017 42.7759C15.0112 42.9271 15.0464 43.0747 15.1054 43.2101C15.1643 43.3456 15.2458 43.4664 15.3451 43.5656C15.4445 43.6647 15.5598 43.7403 15.6845 43.788C15.9363 43.8844 16.211 43.8615 16.4482 43.7242C16.6853 43.5869 16.8655 43.3465 16.949 43.0559C17.5626 40.5716 18.8373 38.3727 20.593 36.7698C21.1021 37.6688 21.8687 38.3328 22.759 38.6459C20.621 42.3267 18.421 48.3209 18.057 57.6925ZM29.285 38.9355C29.0266 38.8801 28.7803 38.7664 28.56 38.601C28.3397 38.4356 28.1499 38.2217 28.0013 37.9716C27.8527 37.7215 27.7483 37.4401 27.694 37.1434C27.6397 36.8467 27.6367 36.5405 27.685 36.2425L27.868 35.1082L28.235 32.8398C28.2784 32.5368 28.3738 32.2468 28.5156 31.9869C28.6574 31.727 28.8428 31.5024 29.0608 31.3262C29.2788 31.15 29.5251 31.0258 29.7852 30.9608C30.0454 30.8959 30.3141 30.8915 30.5758 30.9479C30.8374 31.0044 31.0866 31.1205 31.3089 31.2895C31.5311 31.4586 31.7219 31.6771 31.87 31.9322C32.0181 32.1874 32.1206 32.4741 32.1714 32.7756C32.2222 33.0771 32.2204 33.3872 32.166 33.6879L31.615 37.0905C31.515 37.6898 31.2143 38.2195 30.7782 38.5649C30.3421 38.9102 29.8056 39.0434 29.285 38.9355ZM36.685 39.8425C36.3586 40.1019 35.9728 40.2436 35.5765 40.2496C35.1802 40.2556 34.7913 40.1257 34.4592 39.8762C34.127 39.6267 33.8666 39.269 33.7109 38.8484C33.5553 38.4278 33.5115 37.9634 33.585 37.514L34.136 34.1125C34.1841 33.8145 34.2827 33.5304 34.4259 33.2763C34.5692 33.0223 34.7545 32.8033 34.9711 32.6319C35.1878 32.4604 35.4316 32.3399 35.6886 32.2772C35.9456 32.2145 36.2108 32.2108 36.469 32.2663C36.7272 32.3218 36.9735 32.4355 37.1936 32.6009C37.4138 32.7662 37.6036 32.98 37.7522 33.2299C37.9008 33.4799 38.0052 33.7612 38.0596 34.0577C38.1139 34.3543 38.1171 34.6603 38.069 34.9582L37.7 37.229L37.517 38.3598C37.4696 38.6585 37.3714 38.9433 37.2278 39.1978C37.0843 39.4524 36.8985 39.6715 36.681 39.8425H36.685ZM41.269 40.3444C40.7499 40.2322 40.2903 39.8876 39.9906 39.3859C39.6908 38.8842 39.5752 38.266 39.669 37.6663L40.039 35.384C40.0873 35.086 40.1859 34.8019 40.3293 34.548C40.4727 34.294 40.6581 34.0751 40.8748 33.9037C41.0916 33.7324 41.3354 33.612 41.5925 33.5495C41.8495 33.4869 42.1148 33.4833 42.373 33.539C42.6312 33.5947 42.8775 33.7085 43.0976 33.874C43.3177 34.0395 43.5074 34.2534 43.6559 34.5034C43.8044 34.7535 43.9087 35.0349 43.9629 35.3315C44.0172 35.6281 44.0203 35.9341 43.972 36.2321L43.6 38.5005C43.5519 38.7985 43.4534 39.0827 43.3101 39.3368C43.1669 39.5908 42.9816 39.8098 42.765 39.9813C42.5483 40.1527 42.3045 40.2732 42.0475 40.3359C41.7905 40.3986 41.5252 40.4023 41.267 40.3467L41.269 40.3444ZM57.913 55.154L53.018 52.7309C52.6498 52.5531 52.2442 52.5054 51.8525 52.594C51.4609 52.6825 51.1008 52.9033 50.818 53.2282L47.9 56.609C47.675 52.8555 46.923 46.109 44.42 41.3782C44.9088 40.8263 45.2647 40.1372 45.453 39.3786C46.603 40.2988 47.5043 41.5751 48.053 43.0605C48.1368 43.3513 48.3173 43.5917 48.5547 43.7288C48.7921 43.866 49.067 43.8888 49.319 43.7921C49.571 43.6954 49.7793 43.4871 49.8982 43.2132C50.0171 42.9393 50.0368 42.622 49.953 42.3313C49.1353 40.0881 47.7292 38.1968 45.932 36.9232H48.745C52.181 39.3036 57.222 47.2005 57.913 55.154Z" fill="black"/>
</g>
<defs>
<clipPath id="clip0_544_845">
<rect width="60" height="60" fill="white"/>
</clipPath>
</defs>
</svg>
