<svg width="60" height="60" viewBox="0 0 60 60" fill="none" xmlns="http://www.w3.org/2000/svg">
<g clip-path="url(#clip0_544_1548)">
<path d="M54.354 33.8999C54.2461 33.8046 54.159 33.6881 54.0981 33.5577C54.0372 33.4273 54.0038 33.2858 54 33.1419V30.3999C54 22.7499 47.386 16.2329 39.655 17.0779C34.1151 17.6666 28.6897 19.0551 23.548 21.1999C22.5689 20.4723 21.3905 20.062 20.1713 20.0241C18.9521 19.9861 17.7504 20.3224 16.728 20.9877C15.7056 21.6529 14.9113 22.6153 14.452 23.7453C13.9928 24.8754 13.8905 26.119 14.159 27.3089C13.893 27.5689 13.617 27.8189 13.359 28.0919C12.8793 28.6068 12.5964 29.2742 12.5598 29.977C12.5233 30.6797 12.7354 31.3729 13.159 31.9349C13.803 32.7909 14.114 33.0529 14.013 33.6019C13.9882 33.7377 13.9352 33.8668 13.8576 33.981C13.7799 34.0952 13.6792 34.1919 13.562 34.2649C10.434 36.2389 3.091 40.8729 2.11 50.7489C2.0613 51.2942 2.16736 51.8421 2.416 52.3299C1.69906 52.6391 1.08828 53.1513 0.658969 53.8034C0.229657 54.4556 0.000586068 55.2191 0 55.9999C0 56.5303 0.210714 57.039 0.585786 57.4141C0.960859 57.7892 1.46957 57.9999 2 57.9999H43C43.7957 57.9999 44.5587 57.6838 45.1213 57.1212C45.6839 56.5586 46 55.7955 46 54.9999V53.2199C46.9058 51.7564 48.2294 50.5979 49.8 49.8939C52.1197 48.8179 54.6266 48.2034 57.181 48.0849C57.5963 48.0591 58.0017 47.9473 58.3714 47.7565C58.7412 47.5656 59.0672 47.2999 59.3287 46.9763C59.5902 46.6527 59.7816 46.2782 59.8906 45.8767C59.9997 45.4752 60.024 45.0553 59.962 44.6439C59.2752 40.5598 57.3119 36.7985 54.354 33.8999ZM21.354 22.2439C19.4734 23.1965 17.6931 24.3356 16.04 25.6439C16.0915 25.0365 16.2822 24.4491 16.5971 23.9272C16.9121 23.4053 17.343 22.9629 17.8564 22.6343C18.3698 22.3056 18.952 22.0996 19.5578 22.0321C20.1636 21.9645 20.7768 22.0373 21.35 22.2449L21.354 22.2439ZM44 54.9999C44 55.2651 43.8946 55.5194 43.7071 55.707C43.5196 55.8945 43.2652 55.9999 43 55.9999H2C2 55.4694 2.21071 54.9607 2.58579 54.5857C2.96086 54.2106 3.46957 53.9999 4 53.9999H44V54.9999ZM57.034 46.0909C54.3096 46.2301 51.6354 46.8776 49.149 47.9999H8C7.73478 47.9999 7.48043 48.1052 7.29289 48.2928C7.10536 48.4803 7 48.7347 7 48.9999C7 49.2651 7.10536 49.5194 7.29289 49.707C7.48043 49.8945 7.73478 49.9999 8 49.9999H46.086C45.426 50.579 44.8558 51.2531 44.394 51.9999H5.1C4.9635 52.0018 4.82808 51.9755 4.70227 51.9225C4.57646 51.8695 4.463 51.791 4.36905 51.692C4.27509 51.593 4.20267 51.4755 4.15636 51.3471C4.11006 51.2187 4.09087 51.0821 4.1 50.9459C4.983 42.0459 11.5 37.9289 14.635 35.9519C14.9853 35.731 15.2861 35.44 15.5185 35.0972C15.7508 34.7543 15.9097 34.3671 15.985 33.9599C16.26 32.4749 15.442 31.6329 14.764 30.7289C14.6231 30.5424 14.5519 30.3125 14.5629 30.079C14.5738 29.8456 14.6662 29.6233 14.824 29.4509C21.976 21.7709 34.724 19.6269 39.873 19.0619C46.377 18.3429 52 23.9079 52 30.3999V33.1459C52.0048 33.563 52.0946 33.9747 52.264 34.3559C52.4333 34.7371 52.6787 35.0797 52.985 35.3629C55.6236 37.9546 57.3738 41.3152 57.985 44.9629C58.0029 45.1005 57.9919 45.2403 57.9528 45.3735C57.9137 45.5066 57.8473 45.6302 57.7579 45.7363C57.6684 45.8424 57.5579 45.9287 57.4332 45.9897C57.3086 46.0508 57.1727 46.0852 57.034 46.0909Z" fill="#8CC63F"/>
<path d="M40.9422 21.0006C38.3688 21.0672 35.8433 21.712 33.553 22.8872C31.2626 24.0624 29.266 25.738 27.7112 27.7896C27.3021 28.3931 27.0667 29.0973 27.0306 29.8255C26.9946 30.5536 27.1593 31.2777 27.5067 31.9186C27.8541 32.5596 28.371 33.0927 29.0008 33.4599C29.6307 33.827 30.3493 34.0141 31.0782 34.0006H37.8112C43.5242 34.0006 49.9992 34.0006 49.9992 30.0136C49.9907 27.6182 49.0324 25.324 47.3344 23.6343C45.6365 21.9446 43.3376 20.9975 40.9422 21.0006ZM37.8112 32.0006H31.0782C30.7161 32.0136 30.3575 31.927 30.0412 31.7503C29.7249 31.5737 29.4631 31.3136 29.2844 30.9985C29.1056 30.6834 29.0166 30.3254 29.0272 29.9632C29.0377 29.6011 29.1474 29.2488 29.3442 28.9446C30.7178 27.1582 32.4704 25.6985 34.4759 24.6707C36.4814 23.6428 38.6898 23.0725 40.9422 23.0006C42.8074 22.9969 44.5978 23.7332 45.9208 25.0479C47.2438 26.3627 47.9913 28.1485 47.9992 30.0136C47.9992 32.0006 41.6222 32.0006 37.8112 32.0006ZM0.805194 16.2546C1.52804 17.3658 2.66211 18.1449 3.95864 18.4211C5.25517 18.6972 6.60829 18.4478 7.72119 17.7276C7.83308 17.657 7.92983 17.5648 8.00583 17.4565C8.08183 17.3482 8.13558 17.2258 8.16396 17.0966C8.19234 16.9673 8.19478 16.8337 8.17115 16.7035C8.14752 16.5733 8.09828 16.4491 8.02629 16.3381C7.9543 16.2271 7.86098 16.1314 7.75176 16.0567C7.64253 15.982 7.51957 15.9297 7.38999 15.9029C7.26041 15.8761 7.12679 15.8752 6.99688 15.9004C6.86697 15.9256 6.74336 15.9763 6.63319 16.0496C6.1355 16.3727 5.5532 16.5408 4.95992 16.5329C4.36665 16.525 3.78904 16.3414 3.30014 16.0052C2.81125 15.669 2.43301 15.1954 2.21327 14.6443C1.99353 14.0931 1.94215 13.4892 2.06563 12.9089C2.18911 12.3285 2.4819 11.7978 2.90698 11.3839C3.33206 10.97 3.87034 10.6914 4.45376 10.5833C5.03717 10.4753 5.63951 10.5427 6.18462 10.777C6.72972 11.0113 7.19312 11.402 7.51619 11.8996C7.58555 12.0143 7.67722 12.1138 7.78577 12.1923C7.89432 12.2708 8.01754 12.3266 8.1481 12.3566C8.27867 12.3866 8.41392 12.39 8.54584 12.3667C8.67775 12.3433 8.80363 12.2938 8.91601 12.2208C9.02839 12.1479 9.12498 12.0532 9.20004 11.9422C9.27509 11.8313 9.32709 11.7064 9.35295 11.5749C9.3788 11.4435 9.37798 11.3082 9.35054 11.1771C9.3231 11.046 9.26959 10.9217 9.19319 10.8116C8.78654 10.1895 8.24557 9.66655 7.61009 9.28115C6.97462 8.89574 6.26081 8.65774 5.52119 8.58464C5.34451 7.96705 5.37072 7.30905 5.59598 6.70747C5.82124 6.1059 6.23365 5.59251 6.77252 5.24285C7.31139 4.8932 7.94826 4.72574 8.58942 4.76513C9.23058 4.80451 9.84217 5.04866 10.3342 5.46164C10.2723 5.62526 10.2196 5.79218 10.1762 5.96164C10.038 6.60398 10.0287 7.26738 10.1488 7.91334C10.269 8.5593 10.5162 9.17497 10.8762 9.72464C10.9477 9.83482 11.0402 9.92984 11.1484 10.0043C11.2567 10.0787 11.3785 10.1311 11.507 10.1584C11.6354 10.1858 11.768 10.1875 11.8972 10.1636C12.0263 10.1398 12.1495 10.0906 12.2597 10.0191C12.3699 9.94764 12.4649 9.85513 12.5393 9.74691C12.6137 9.63868 12.6661 9.51686 12.6935 9.38839C12.7208 9.25992 12.7226 9.12732 12.6987 8.99816C12.6748 8.86901 12.6257 8.74582 12.5542 8.63564C12.2312 8.13788 12.0631 7.55551 12.0711 6.96219C12.0791 6.36887 12.2628 5.79125 12.5991 5.30238C12.9354 4.8135 13.4092 4.43534 13.9604 4.21571C14.5116 3.99608 15.1156 3.94485 15.696 4.0685C16.2763 4.19215 16.807 4.48513 17.2208 4.91038C17.6346 5.33563 17.913 5.87405 18.0209 6.45754C18.1287 7.04104 18.061 7.64341 17.8265 8.18846C17.5919 8.73351 17.201 9.19677 16.7032 9.51964C16.5928 9.59082 16.4975 9.68304 16.4228 9.79104C16.3481 9.89903 16.2953 10.0207 16.2676 10.1491C16.2399 10.2774 16.2377 10.41 16.2613 10.5392C16.2848 10.6685 16.3335 10.7918 16.4047 10.9021C16.4759 11.0125 16.5681 11.1078 16.6761 11.1825C16.7841 11.2573 16.9057 11.31 17.0341 11.3377C17.1625 11.3654 17.2951 11.3676 17.4243 11.3441C17.5535 11.3206 17.6768 11.2718 17.7872 11.2006C18.3874 10.8135 18.8974 10.302 19.283 9.70077C19.6685 9.09955 19.9205 8.42259 20.022 7.71561C20.1234 7.00864 20.072 6.28812 19.8711 5.60274C19.6702 4.91736 19.3245 4.28308 18.8575 3.74275C18.3904 3.20242 17.8128 2.76863 17.1637 2.47067C16.5146 2.17272 15.8091 2.01755 15.0949 2.01564C14.3807 2.01374 13.6744 2.16514 13.0237 2.45962C12.373 2.75411 11.7931 3.18481 11.3232 3.72264C10.5095 3.1266 9.53379 2.79207 8.52555 2.76346C7.51731 2.73485 6.5242 3.0135 5.67801 3.56244C4.83182 4.11137 4.17255 4.90465 3.7877 5.83699C3.40284 6.76933 3.3106 7.79665 3.52319 8.78264C2.78568 9.00766 2.11056 9.40103 1.55114 9.93169C0.991715 10.4624 0.5633 11.1158 0.299711 11.8404C0.0361229 12.565 -0.0554223 13.341 0.0323023 14.1071C0.120027 14.8732 0.38462 15.6084 0.805194 16.2546Z" fill="#8CC63F"/>
<path d="M9.98716 13.8719C9.76465 14.0162 9.60858 14.243 9.55326 14.5023C9.49793 14.7617 9.5479 15.0324 9.69216 15.2549L12.9582 20.2879C13.0288 20.3998 13.121 20.4965 13.2293 20.5725C13.3376 20.6485 13.46 20.7023 13.5892 20.7307C13.7185 20.7591 13.8521 20.7615 13.9823 20.7379C14.1125 20.7142 14.2367 20.665 14.3477 20.593C14.4587 20.521 14.5544 20.4277 14.6291 20.3185C14.7038 20.2092 14.7561 20.0863 14.7829 19.9567C14.8097 19.8271 14.8106 19.6935 14.7854 19.5636C14.7602 19.4337 14.7095 19.3101 14.6362 19.1999L11.3702 14.1669C11.2259 13.9444 10.9991 13.7883 10.7397 13.733C10.4804 13.6777 10.2097 13.7276 9.98716 13.8719ZM17.1532 18.5659C17.333 18.5657 17.5094 18.517 17.6639 18.425C17.8184 18.333 17.9452 18.201 18.031 18.0429C18.1167 17.8849 18.1583 17.7066 18.1513 17.5269C18.1443 17.3473 18.089 17.1728 17.9912 17.0219L14.7262 11.9889C14.5817 11.7664 14.3549 11.6104 14.0954 11.5551C13.8359 11.4999 13.5652 11.55 13.3427 11.6944C13.1201 11.8388 12.9641 12.0657 12.9089 12.3252C12.8536 12.5846 12.9037 12.8554 13.0482 13.0779L16.3132 18.1109C16.4041 18.2508 16.5286 18.3657 16.6753 18.4452C16.822 18.5247 16.9863 18.5662 17.1532 18.5659Z" fill="#8CC63F"/>
</g>
<defs>
<clipPath id="clip0_544_1548">
<rect width="60" height="60" fill="white"/>
</clipPath>
</defs>
</svg>
