<svg xmlns="http://www.w3.org/2000/svg" viewBox="0 0 64 64" id="staff-training"><rect width="44" height="28" x="10" y="2" fill="#898989"></rect><path fill="#898989" d="M24,36H40a4,4,0,0,1,4,4v0a0,0,0,0,1,0,0H20a0,0,0,0,1,0,0v0a4,4,0,0,1,4-4Z"></path><rect width="8" height="6" x="28" y="30" fill="#5b5b5b"></rect><rect width="44" height="23" x="10" y="2" fill="#c1cfe8"></rect><polygon fill="#d7e0ef" points="12 25 26 2 30 2 16 25 12 25"></polygon><polygon fill="#d7e0ef" points="34 25 48 2 52 2 38 25 34 25"></polygon><circle cx="11" cy="48" r="4" fill="#0059be"></circle><path fill="#0059be" d="M18,62V59a7,7,0,0,0-7-7h0a7,7,0,0,0-7,7v3Z"></path><path fill="#006bdb" d="M12.5,52.165A7,7,0,0,0,7,59v3H18V59A7,7,0,0,0,12.5,52.165Z"></path><ellipse cx="12.5" cy="48" fill="#006bdb" rx="2.5" ry="3.703"></ellipse><circle cx="25" cy="48" r="4" fill="#0059be"></circle><path fill="#0059be" d="M32,62V59a7,7,0,0,0-7-7h0a7,7,0,0,0-7,7v3Z"></path><path fill="#006bdb" d="M26.5,52.165A7,7,0,0,0,21,59v3H32V59A7,7,0,0,0,26.5,52.165Z"></path><ellipse cx="26.5" cy="48" fill="#006bdb" rx="2.5" ry="3.703"></ellipse><circle cx="39" cy="48" r="4" fill="#0059be"></circle><path fill="#0059be" d="M46,62V59a7,7,0,0,0-7-7h0a7,7,0,0,0-7,7v3Z"></path><path fill="#006bdb" d="M40.5,52.165A7,7,0,0,0,35,59v3H46V59A7,7,0,0,0,40.5,52.165Z"></path><ellipse cx="40.5" cy="48" fill="#006bdb" rx="2.5" ry="3.703"></ellipse><circle cx="53" cy="48" r="4" fill="#0059be"></circle><path fill="#0059be" d="M60,62V59a7,7,0,0,0-7-7h0a7,7,0,0,0-7,7v3Z"></path><path fill="#006bdb" d="M54.5,52.165A7,7,0,0,0,49,59v3H60V59A7,7,0,0,0,54.5,52.165Z"></path><ellipse cx="54.5" cy="48" fill="#006bdb" rx="2.5" ry="3.703"></ellipse><circle cx="20" cy="14" r="3" fill="#006bdb"></circle><path fill="#0059be" d="M14,25V23a6,6,0,0,1,6-6h0a6,6,0,0,1,6,6v2Z"></path><rect width="20" height="14" x="30" y="6" fill="#029149"></rect><polygon fill="#916658" points="45 25 43 20 37 20 35 25 45 25"></polygon><rect width="4" height="2" x="33" y="10" fill="#ffeacd"></rect><rect width="4" height="2" x="33" y="14" fill="#ffeacd"></rect><rect width="4" height="2" x="43" y="10" fill="#ffeacd"></rect><rect width="4" height="2" x="43" y="14" fill="#ffeacd"></rect><path d="M54,31a1,1,0,0,0,1-1V2a1,1,0,0,0-1-1H10A1,1,0,0,0,9,2V30a1,1,0,0,0,1,1H27v4H24a5.006,5.006,0,0,0-5,5,1,1,0,0,0,1,1H44a1,1,0,0,0,1-1,5.006,5.006,0,0,0-5-5H37V31ZM53,3V24H45.677l-1.2-3H50a1,1,0,0,0,1-1V6a1,1,0,0,0-1-1H30a1,1,0,0,0-1,1V20a1,1,0,0,0,1,1h5.523l-1.2,3H27V23a7,7,0,0,0-4.04-6.334,4,4,0,1,0-5.92,0A7,7,0,0,0,13,23v1H11V3ZM31,19V7H49V19Zm11.323,2,1.2,3H36.477l1.2-3ZM18,14a2,2,0,1,1,2,2A2,2,0,0,1,18,14Zm2,4a5.006,5.006,0,0,1,5,5v1H15V23A5.006,5.006,0,0,1,20,18Zm-9,8H53v3H11ZM42.829,39H21.171A3.006,3.006,0,0,1,24,37H40A3.006,3.006,0,0,1,42.829,39ZM35,35H29V31h6Z"></path><rect width="4" height="2" x="33" y="10"></rect><rect width="4" height="2" x="33" y="14"></rect><rect width="4" height="2" x="43" y="10"></rect><rect width="4" height="2" x="43" y="14"></rect><path d="M56.305,51.723a5,5,0,1,0-6.61,0A8.04,8.04,0,0,0,46,55.136a8.04,8.04,0,0,0-3.695-3.413,5,5,0,1,0-6.61,0A8.04,8.04,0,0,0,32,55.136a8.04,8.04,0,0,0-3.695-3.413,5,5,0,1,0-6.61,0A8.04,8.04,0,0,0,18,55.136a8.04,8.04,0,0,0-3.695-3.413,5,5,0,1,0-6.61,0A8.005,8.005,0,0,0,3,59v3a1,1,0,0,0,1,1H60a1,1,0,0,0,1-1V59A8.005,8.005,0,0,0,56.305,51.723ZM50,48a3,3,0,1,1,3,3A3,3,0,0,1,50,48ZM36,48a3,3,0,1,1,3,3A3,3,0,0,1,36,48Zm3,5a6.006,6.006,0,0,1,6,6v2H33V59A6.006,6.006,0,0,1,39,53ZM22,48a3,3,0,1,1,3,3A3,3,0,0,1,22,48ZM8,48a3,3,0,1,1,3,3A3,3,0,0,1,8,48Zm9,13H5V59a6,6,0,0,1,12,0Zm2-2a6,6,0,0,1,12,0v2H19Zm40,2H47V59a6,6,0,0,1,12,0Z"></path></svg>