<svg width="209" height="50" viewBox="0 0 209 50" fill="none" xmlns="http://www.w3.org/2000/svg">
<mask id="mask0_544_2055" style="mask-type:luminance" maskUnits="userSpaceOnUse" x="0" y="0" width="62" height="37">
<path d="M54.3256 15.9583L61.4503 12.1118C58.1012 4.83199 51.1346 0.50863 43.8361 0C43.8361 0.111263 43.8519 0.222526 43.8519 0.317894C43.8519 3.5763 41.2296 6.21482 37.9911 6.21482C35.5267 6.21482 33.4098 4.67304 32.541 2.49547C30.8665 3.43325 29.2709 4.62536 27.8018 6.08767C24.3737 9.53681 22.3832 13.892 21.8461 18.3743L30.0924 20.7267C30.0924 20.7267 29.6974 16.0536 32.1144 13.733C39.0021 17.5954 33.3783 33.808 21.8145 23.238C16.2854 18.1835 9.36616 13.7807 2.95241 15.9424C-1.20231 17.3411 -1.18652 22.5387 4.37418 22.2208C12.4467 21.7757 17.6282 24.8116 23.0783 30.486C38.6704 45.9038 59.5388 28.6263 50.8976 9.96597C50.9134 9.98186 53.1882 11.317 54.3256 15.9583Z" fill="white"/>
</mask>
<g mask="url(#mask0_544_2055)">
<path d="M61.4493 0.015625H-1.1875V45.9195H61.4493V0.015625Z" fill="url(#paint0_linear_544_2055)"/>
</g>
<mask id="mask1_544_2055" style="mask-type:luminance" maskUnits="userSpaceOnUse" x="21" y="0" width="41" height="20">
<path d="M36.093 5.91282C34.4659 5.35651 33.1547 4.10083 32.5386 2.51136C30.8641 3.44915 29.2685 4.64125 27.7994 6.10356C24.3713 9.55271 22.3809 13.9079 21.8438 18.3902L26.6778 19.773C27.2465 14.9251 30.5797 8.93281 36.093 5.91282ZM61.4479 12.1118C58.0988 4.83199 51.1322 0.50863 43.8338 0C43.8338 0.111263 43.8496 0.222526 43.8496 0.317894C43.8496 1.71663 43.3756 2.9882 42.57 3.98957C47.7989 3.63988 54.1811 5.75388 61.4479 12.1118Z" fill="white"/>
</mask>
<g mask="url(#mask1_544_2055)">
<path d="M61.4321 0.015625H21.8438V19.7727H61.4321V0.015625Z" fill="url(#paint1_linear_544_2055)"/>
</g>
<mask id="mask2_544_2055" style="mask-type:luminance" maskUnits="userSpaceOnUse" x="0" y="15" width="21" height="7">
<path d="M20.3138 21.9038C15.069 17.4532 8.81325 13.9723 2.9682 15.9433C2.08354 16.2453 1.38847 16.7221 0.882948 17.2784C0.0140896 18.8838 0.946126 19.7739 4.08981 18.4546C7.2493 17.1195 14.5477 18.2321 20.3138 21.9038Z" fill="white"/>
</mask>
<g mask="url(#mask2_544_2055)">
<path d="M20.3152 13.9883H0.0155029V21.9197H20.3152V13.9883Z" fill="url(#paint2_linear_544_2055)"/>
</g>
<mask id="mask3_544_2055" style="mask-type:luminance" maskUnits="userSpaceOnUse" x="8" y="6" width="45" height="31">
<path d="M39.5392 25.3514C40.0289 25.3514 40.4397 25.7488 40.4397 26.2574C40.4397 26.7661 40.0447 27.1634 39.5392 27.1634C39.0495 27.1634 38.6388 26.7661 38.6388 26.2574C38.6388 25.7488 39.0337 25.3514 39.5392 25.3514ZM8.73425 22.3473C14.4687 23.0467 18.7024 25.9077 23.1099 30.4854C38.702 45.9033 59.5704 28.6257 50.9292 9.96538C50.9292 9.96538 49.6496 7.85138 47.5485 6.5957C47.5485 6.5957 53.1882 17.3246 46.4111 24.3819C46.4111 24.3819 44.8472 25.8124 43.4096 25.574C40.724 25.1289 41.0874 27.5767 42.5407 27.831C45.0525 28.2602 44.4206 31.598 41.198 31.0099C40.2659 30.8351 39.2865 30.4536 38.2596 30.6126C36.4113 30.8987 33.0939 33.871 28.3231 30.8987C23.5364 27.9264 15.7009 21.3619 8.73425 22.3473Z" fill="white"/>
</mask>
<g mask="url(#mask3_544_2055)">
<path d="M59.5704 6.61133H8.73425V45.9189H59.5704V6.61133Z" fill="url(#paint3_linear_544_2055)"/>
</g>
<mask id="mask4_544_2055" style="mask-type:luminance" maskUnits="userSpaceOnUse" x="29" y="17" width="35" height="25">
<path d="M56.917 22.8415C57.6121 22.8415 58.165 23.3978 58.165 24.0972C58.165 24.7966 57.6121 25.3529 56.917 25.3529C56.2219 25.3529 55.669 24.7966 55.669 24.0972C55.669 23.3978 56.2219 22.8415 56.917 22.8415ZM52.9361 27.9437C51.2142 31.4564 48.418 34.4764 44.5792 36.495C39.5241 39.1494 34.2319 39.1336 29.4453 37.2262C37.6284 43.902 49.666 43.4092 57.2804 35.748C61.1823 31.822 63.2202 26.7039 63.3782 21.554C63.5204 16.5631 58.2598 16.1657 59.4288 22.3647C60.7084 29.0722 57.4068 32.1558 56.5537 32.6644C55.7164 33.1571 54.5316 32.2988 55.9218 30.2802C58.8285 26.0681 54.6106 24.4945 52.9361 27.9437Z" fill="white"/>
</mask>
<g mask="url(#mask4_544_2055)">
<path d="M63.5047 16.166H29.4297V43.9022H63.5047V16.166Z" fill="url(#paint4_linear_544_2055)"/>
</g>
<mask id="mask5_544_2055" style="mask-type:luminance" maskUnits="userSpaceOnUse" x="4" y="25" width="13" height="7">
<path d="M15.0382 27.7834C15.8123 27.7834 16.4442 28.4192 16.4442 29.1981C16.4442 29.9769 15.8123 30.6127 15.0382 30.6127C14.2641 30.6127 13.6322 29.9769 13.6322 29.1981C13.6164 28.4192 14.2483 27.7834 15.0382 27.7834ZM7.77138 25.3516C9.44591 25.3516 10.8045 26.7185 10.8045 28.4033C10.8045 30.0882 9.44591 31.4551 7.77138 31.4551C6.09685 31.4551 4.73828 30.0882 4.73828 28.4033C4.75408 26.7185 6.11265 25.3516 7.77138 25.3516Z" fill="white"/>
</mask>
<g mask="url(#mask5_544_2055)">
<path d="M16.444 25.3516H4.75391V31.4392H16.444V25.3516Z" fill="url(#paint5_linear_544_2055)"/>
</g>
<mask id="mask6_544_2055" style="mask-type:luminance" maskUnits="userSpaceOnUse" x="29" y="19" width="35" height="23">
<path d="M63.1097 19.6465C63.3625 30.6297 49.6977 46.9059 29.793 37.5121C37.9602 43.8859 49.7609 43.2978 57.2647 35.7478C61.1667 31.8218 63.2045 26.7037 63.3625 21.5538C63.3783 20.8227 63.2835 20.171 63.1097 19.6465Z" fill="white"/>
</mask>
<g mask="url(#mask6_544_2055)">
<path d="M63.3783 19.6465H29.793V46.9059H63.3783V19.6465Z" fill="url(#paint6_linear_544_2055)"/>
</g>
<mask id="mask7_544_2055" style="mask-type:luminance" maskUnits="userSpaceOnUse" x="5" y="25" width="6" height="5">
<path d="M7.76985 29.5954C9.64974 29.5954 10.9293 27.4497 9.71294 26.1781C9.22322 25.6695 8.52812 25.3516 7.76985 25.3516C7.01157 25.3516 6.31648 25.6695 5.82676 26.1781C4.62615 27.4497 5.90575 29.5954 7.76985 29.5954Z" fill="white"/>
</mask>
<g mask="url(#mask7_544_2055)">
<path d="M10.9282 25.3516H4.625V29.5954H10.9282V25.3516Z" fill="url(#paint7_linear_544_2055)"/>
</g>
<path d="M8.55859 37.0824C8.55859 30.5497 18.037 31.7418 24.9089 38.656C34.6401 48.4312 50.4218 48.4312 60.1372 38.656C69.8684 28.8648 69.8684 13.002 60.1372 3.21083C59.995 3.06778 58.3995 1.60547 58.3995 1.60547C85.0181 21.903 62.58 62.5489 23.9295 46.2218C11.2254 41.8388 8.73044 39.1192 8.55859 37.0824Z" fill="white"/>
<path d="M81.104 43V5.956H89.15V36.142H107.834V43H81.104ZM120.946 43.648C120.01 43.648 119.002 43.54 117.922 43.324C116.878 43.108 115.888 42.73 114.952 42.19C114.016 41.614 113.242 40.804 112.63 39.76C112.054 38.68 111.766 37.312 111.766 35.656C111.766 33.676 112.198 32.038 113.062 30.742C113.926 29.446 115.15 28.438 116.734 27.718C118.354 26.962 120.28 26.44 122.512 26.152C124.744 25.864 127.21 25.72 129.91 25.72V23.614C129.91 22.786 129.766 22.066 129.478 21.454C129.226 20.842 128.758 20.356 128.074 19.996C127.426 19.636 126.508 19.456 125.32 19.456C124.132 19.456 123.16 19.6 122.404 19.888C121.684 20.176 121.162 20.554 120.838 21.022C120.55 21.454 120.406 21.94 120.406 22.48V23.128H113.116C113.08 22.948 113.062 22.786 113.062 22.642C113.062 22.462 113.062 22.246 113.062 21.994C113.062 20.338 113.566 18.916 114.574 17.728C115.582 16.504 117.004 15.568 118.84 14.92C120.676 14.272 122.818 13.948 125.266 13.948C127.894 13.948 130.09 14.29 131.854 14.974C133.654 15.658 135.022 16.666 135.958 17.998C136.93 19.33 137.416 21.004 137.416 23.02V35.926C137.416 36.574 137.596 37.06 137.956 37.384C138.352 37.672 138.784 37.816 139.252 37.816H141.034V42.73C140.674 42.91 140.116 43.09 139.36 43.27C138.604 43.486 137.686 43.594 136.606 43.594C135.562 43.594 134.626 43.432 133.798 43.108C133.006 42.82 132.34 42.406 131.8 41.866C131.26 41.29 130.882 40.606 130.666 39.814H130.288C129.676 40.57 128.92 41.236 128.02 41.812C127.156 42.388 126.13 42.838 124.942 43.162C123.79 43.486 122.458 43.648 120.946 43.648ZM123.484 37.978C124.492 37.978 125.392 37.834 126.184 37.546C126.976 37.222 127.642 36.808 128.182 36.304C128.722 35.764 129.136 35.116 129.424 34.36C129.748 33.604 129.91 32.794 129.91 31.93V30.364C127.894 30.364 126.094 30.508 124.51 30.796C122.926 31.048 121.666 31.498 120.73 32.146C119.83 32.794 119.38 33.694 119.38 34.846C119.38 35.494 119.542 36.052 119.866 36.52C120.19 36.988 120.658 37.348 121.27 37.6C121.882 37.852 122.62 37.978 123.484 37.978ZM155.025 43.648C152.145 43.648 149.859 42.856 148.167 41.272C146.475 39.688 145.629 37.132 145.629 33.604V14.596H153.135V32.362C153.135 33.298 153.243 34.09 153.459 34.738C153.675 35.35 153.981 35.854 154.377 36.25C154.809 36.646 155.331 36.934 155.943 37.114C156.555 37.294 157.239 37.384 157.995 37.384C159.111 37.384 160.119 37.114 161.019 36.574C161.919 36.034 162.621 35.296 163.125 34.36C163.629 33.388 163.881 32.308 163.881 31.12V14.596H171.387V43H165.231L164.691 39.112H164.313C163.629 40.012 162.819 40.804 161.883 41.488C160.983 42.172 159.957 42.694 158.805 43.054C157.653 43.45 156.393 43.648 155.025 43.648ZM179.356 43V14.596H185.566L186.16 18.484H186.538C187.186 17.548 187.96 16.738 188.86 16.054C189.796 15.37 190.84 14.848 191.992 14.488C193.144 14.128 194.404 13.948 195.772 13.948C197.644 13.948 199.282 14.29 200.686 14.974C202.09 15.658 203.17 16.738 203.926 18.214C204.718 19.69 205.114 21.616 205.114 23.992V43H197.608V25.18C197.608 24.28 197.5 23.524 197.284 22.912C197.068 22.264 196.744 21.742 196.312 21.346C195.916 20.914 195.412 20.608 194.8 20.428C194.188 20.248 193.504 20.158 192.748 20.158C191.632 20.158 190.624 20.428 189.724 20.968C188.824 21.508 188.122 22.246 187.618 23.182C187.114 24.118 186.862 25.198 186.862 26.422V43H179.356Z" fill="white"/>
<defs>
<linearGradient id="paint0_linear_544_2055" x1="30.1268" y1="-4.91361" x2="30.1268" y2="55.4343" gradientUnits="userSpaceOnUse">
<stop stop-color="#20FEFF"/>
<stop offset="1" stop-color="#2933B0"/>
</linearGradient>
<linearGradient id="paint1_linear_544_2055" x1="41.6444" y1="-0.0157235" x2="41.6444" y2="44.7594" gradientUnits="userSpaceOnUse">
<stop stop-color="#20FEFF"/>
<stop offset="1" stop-color="#2933B0"/>
</linearGradient>
<linearGradient id="paint2_linear_544_2055" x1="10.1588" y1="14.2403" x2="10.1588" y2="28.1926" gradientUnits="userSpaceOnUse">
<stop stop-color="#20FEFF"/>
<stop offset="1" stop-color="#2933B0"/>
</linearGradient>
<linearGradient id="paint3_linear_544_2055" x1="34.1433" y1="-4.86505" x2="34.1433" y2="48.6606" gradientUnits="userSpaceOnUse">
<stop stop-color="#20FEFF"/>
<stop offset="1" stop-color="#2933B0"/>
</linearGradient>
<linearGradient id="paint4_linear_544_2055" x1="46.4635" y1="16.6573" x2="46.4635" y2="50.806" gradientUnits="userSpaceOnUse">
<stop stop-color="#20FEFF"/>
<stop offset="1" stop-color="#2933B0"/>
</linearGradient>
<linearGradient id="paint5_linear_544_2055" x1="10.5959" y1="25.3561" x2="10.5959" y2="34.6287" gradientUnits="userSpaceOnUse">
<stop stop-color="#20FEFF"/>
<stop offset="1" stop-color="#2933B0"/>
</linearGradient>
<linearGradient id="paint6_linear_544_2055" x1="46.5905" y1="18.3989" x2="46.5905" y2="46.8326" gradientUnits="userSpaceOnUse">
<stop stop-color="#20FEFF"/>
<stop offset="1" stop-color="#2933B0"/>
</linearGradient>
<linearGradient id="paint7_linear_544_2055" x1="7.77414" y1="26.2835" x2="7.77414" y2="33.6963" gradientUnits="userSpaceOnUse">
<stop stop-color="#20FEFF"/>
<stop offset="1" stop-color="#2933B0"/>
</linearGradient>
</defs>
</svg>
