<svg width="298" height="341" viewBox="0 0 298 341" fill="none" xmlns="http://www.w3.org/2000/svg">
<g clip-path="url(#clip0_544_1935)">
<g clip-path="url(#clip1_544_1935)">
<path d="M138.672 233.703L155.649 243.418L138.672 253.169V233.703Z" fill="#8CC63F"/>
<path d="M99.2461 243.422L120.158 231.438V255.407L99.2461 243.422Z" fill="#8CC63F"/>
<path d="M90.0663 257.195L112.777 270.222L90.0663 283.249V257.195Z" fill="#8CC63F"/>
<path d="M101.758 296.982L118.922 287.156V306.808L101.758 296.982Z" fill="#8CC63F"/>
<path d="M140.172 289.797L152.726 296.98L140.172 304.201V289.797Z" fill="#8CC63F"/>
<path d="M150.25 270.222L164.716 261.922V278.522L150.25 270.222Z" fill="#8CC63F"/>
<path d="M149.129 216.657L165.319 207.352V225.924L149.129 216.657Z" fill="#8CC63F"/>
<path d="M89.9922 203.523L112.89 216.662L89.9922 229.763V203.523Z" fill="#8CC63F"/>
<path d="M47.7189 270.216L75.8634 254.062V286.332L47.7189 270.216Z" fill="#8CC63F"/>
<path d="M92.2422 314.508L108.432 323.776L92.2422 333.043V314.508Z" fill="#8CC63F"/>
<path d="M155.234 323.778L162.242 319.758V327.797L155.234 323.778Z" fill="#8CC63F"/>
<path d="M186.902 263.07L199.344 270.217L186.902 277.326V263.07Z" fill="#8CC63F"/>
<path d="M138.633 180.031L155.759 189.857L138.633 199.683V180.031Z" fill="#8CC63F"/>
<path d="M100.07 189.862L119.783 178.547V201.177L100.07 189.862Z" fill="#8CC63F"/>
<path d="M48.0195 216.659L75.7144 200.766V232.514L48.0195 216.659Z" fill="#8CC63F"/>
<path d="M40.5195 225.555L71.6996 243.42L40.5195 261.323V225.555Z" fill="#8CC63F"/>
<path d="M41.4219 280.641L69.9412 296.98L41.4219 313.357V280.641Z" fill="#8CC63F"/>
<path d="M52.1016 323.777L73.6878 311.383V336.171L52.1016 323.777Z" fill="#8CC63F"/>
<path d="M189.34 320.836L194.474 323.776L189.34 326.717V320.836Z" fill="#8CC63F"/>
<path d="M200.883 296.983L209.502 292.07V301.934L200.883 296.983Z" fill="#8CC63F"/>
<path d="M198.41 243.423L210.74 236.352V250.495L198.41 243.423Z" fill="#8CC63F"/>
<path d="M186.379 208.586L200.433 216.663L186.379 224.702V208.586Z" fill="#8CC63F"/>
<path d="M187.281 156.586L198.562 163.062L187.281 169.538V156.586Z" fill="#8CC63F"/>
<path d="M150.738 163.062L164.492 155.172V170.953L150.738 163.062Z" fill="#8CC63F"/>
<path d="M91.6719 152.828L109.548 163.064L91.6719 173.336V152.828Z" fill="#8CC63F"/>
<path d="M51.9883 163.062L73.7244 150.594V175.531L51.9883 163.062Z" fill="#8CC63F"/>
<path d="M41.6094 173.859L69.4916 189.864L41.6094 205.831V173.859Z" fill="#8CC63F"/>
<path d="M-3.69922 243.423L31.5283 223.25V263.634L-3.69922 243.423Z" fill="#8CC63F"/>
<path d="M-7.85938 249.453L28.3425 270.222L-7.85938 290.953V249.453Z" fill="#8CC63F"/>
<path d="M-2.05078 296.978L30.6659 278.219V315.774L-2.05078 296.978Z" fill="#8CC63F"/>
<path d="M235.211 292.625L242.856 296.98L235.211 301.372V292.625Z" fill="#8CC63F"/>
<path d="M247.164 270.221L256.421 264.898V275.543L247.164 270.221Z" fill="#8CC63F"/>
<path d="M234.5 237.797L244.281 243.417L234.5 249.037V237.797Z" fill="#8CC63F"/>
<path d="M198.934 189.86L210.476 183.234V196.447L198.934 189.86Z" fill="#8CC63F"/>
<path d="M202.453 136.298L208.712 132.688V139.871L202.453 136.298Z" fill="#8CC63F"/>
<path d="M140.734 130.125L151.528 136.304L140.734 142.482V130.125Z" fill="#8CC63F"/>
<path d="M104.977 136.304L117.306 129.195V143.376L104.977 136.304Z" fill="#8CC63F"/>
<path d="M44.3828 125.023L63.9828 136.301L44.3828 147.541V125.023Z" fill="#8CC63F"/>
<path d="M-1.71094 189.858L30.5185 171.359V208.356L-1.71094 189.858Z" fill="#8CC63F"/>
<path d="M-7.82422 195.93L28.2653 216.661L-7.82422 237.318V195.93Z" fill="#8CC63F"/>
<path d="M-5.46094 307.18L23.5081 323.78L-5.46094 340.38V307.18Z" fill="#8CC63F"/>
<path d="M250.797 323.782L254.619 321.586V325.978L250.797 323.782Z" fill="#8CC63F"/>
<path d="M281.906 265.75L289.664 270.216L281.906 274.683V265.75Z" fill="#8CC63F"/>
<path d="M248.477 216.659L255.747 212.453V220.828L248.477 216.659Z" fill="#8CC63F"/>
<path d="M235.434 185.805L242.442 189.862L235.434 193.881V185.805Z" fill="#8CC63F"/>
<path d="M189.789 107.344L193.574 109.502L189.789 111.661V107.344Z" fill="#8CC63F"/>
<path d="M156.398 109.499L161.683 106.484V112.514L156.398 109.499Z" fill="#8CC63F"/>
<path d="M94.8633 104.703L103.183 109.504L94.8633 114.306V104.703Z" fill="#8CC63F"/>
<path d="M58.5469 109.507L70.4642 102.695V116.318L58.5469 109.507Z" fill="#8CC63F"/>
<path d="M2.78516 136.299L28.2689 121.672V150.889L2.78516 136.299Z" fill="#8CC63F"/>
<path d="M-6.47266 144.711L25.5694 163.06L-6.47266 181.447V144.711Z" fill="#8CC63F"/>
<path d="M283.367 321.914L286.665 323.775L283.367 325.673V321.914Z" fill="#8CC63F"/>
<path d="M296.18 296.977L301.988 293.664V300.289L296.18 296.977Z" fill="#8CC63F"/>
<path d="M296.18 243.422L301.988 240.109V246.735L296.18 243.422Z" fill="#8CC63F"/>
<path d="M282.883 213.906L287.68 216.661L282.883 219.378V213.906Z" fill="#8CC63F"/>
<path d="M251.477 163.061L254.287 161.461V164.662L251.477 163.061Z" fill="#8CC63F"/>
<path d="M236.934 134.852L239.444 136.303L236.934 137.755V134.852Z" fill="#8CC63F"/>
<path d="M143.727 81.7031L145.525 82.7081L143.727 83.7502V81.7031Z" fill="#8CC63F"/>
<path d="M111.164 82.7025L114.2 80.9531V84.4518L111.164 82.7025Z" fill="#8CC63F"/>
<path d="M47.6055 77.0078L57.5366 82.7025L47.6055 88.3971V77.0078Z" fill="#8CC63F"/>
<path d="M9.37891 82.7062L24.9689 73.7734V91.639L9.37891 82.7062Z" fill="#8CC63F"/>
<path d="M-3.69922 95.8828L20.0606 109.505L-3.69922 123.128V95.8828Z" fill="#8CC63F"/>
<path d="M97.2969 55.3516L98.3087 55.9471L97.2969 56.5054V55.3516Z" fill="#8CC63F"/>
<path d="M63.7578 55.9446L67.8427 53.5625V58.2894L63.7578 55.9446Z" fill="#8CC63F"/>
<path d="M-0.175781 48.3906L12.9783 55.9463L-0.175781 63.4647V48.3906Z" fill="#8CC63F"/>
<path d="M49.8906 27.3594L53.0011 29.1459L49.8906 30.9325V27.3594Z" fill="#8CC63F"/>
<path d="M15.4883 29.1457L21.9342 25.4609V32.8305L15.4883 29.1457Z" fill="#8CC63F"/>
<path d="M2.85938 0L6.90677 2.34485L2.85938 4.68971V0Z" fill="#8CC63F"/>
</g>
</g>
<defs>
<clipPath id="clip0_544_1935">
<rect width="298" height="341" fill="white"/>
</clipPath>
<clipPath id="clip1_544_1935">
<rect width="310" height="341" fill="white" transform="translate(-8)"/>
</clipPath>
</defs>
</svg>
